<svg width="440" height="436" viewBox="0 0 440 436" fill="none" xmlns="http://www.w3.org/2000/svg">
<path d="M123.125 329.49C142.739 310.051 174.397 310.193 193.835 329.807C213.273 349.42 213.132 381.078 193.518 400.517C173.904 419.955 142.247 419.813 122.808 400.2C103.37 380.586 103.512 348.928 123.125 329.49Z" fill="#F1F2F6"/>
<path fill-rule="evenodd" clip-rule="evenodd" d="M89.2244 223.328C100.736 234.944 105.38 250.783 103.181 265.807C103.863 277.542 106.386 294.919 115.018 303.629C123.927 312.618 142.125 315.183 153.842 315.875L153.664 315.695C153.664 315.695 189.548 317.45 203.426 303.696C212.879 294.328 215.228 274.687 215.765 263.112C214.509 248.816 219.386 234.088 230.375 223.196C249.989 203.758 281.647 203.9 301.085 223.513C320.524 243.127 320.382 274.785 300.768 294.223C292.117 302.797 281.123 307.562 269.867 308.526L270.071 308.732C270.071 308.732 235.666 309.064 222.085 322.523C214.198 330.34 210.675 345.222 209.108 356.324C212.136 372.131 207.491 389.109 195.201 401.289C175.587 420.728 143.929 420.586 124.491 400.972C115.917 392.321 111.152 381.326 110.188 370.07L109.982 370.273C109.982 370.273 109.65 335.868 96.1908 322.288C86.5377 312.548 66.1124 309.464 55.3324 308.499C41.9263 308.931 28.384 304 18.1974 293.721C-1.24103 274.108 -1.09909 242.45 18.5145 223.011C38.128 203.573 69.786 203.715 89.2244 223.328Z" fill="#F1F2F6"/>
<path fill-rule="evenodd" clip-rule="evenodd" d="M311.789 161.991C313.989 146.967 309.344 131.128 297.833 119.513C278.394 99.8996 246.736 99.7576 227.123 119.196C207.509 138.635 207.367 170.293 226.806 189.906C236.992 200.184 250.535 205.115 263.941 204.684C274.721 205.649 295.146 208.733 304.799 218.473C318.258 232.053 318.591 266.458 318.591 266.458L318.796 266.254C319.76 277.51 324.525 288.505 333.099 297.157C352.538 316.77 384.196 316.912 403.809 297.474C423.423 278.035 423.565 246.377 404.126 226.764C393.236 215.776 378.512 210.899 364.218 212.153C352.645 211.616 332.997 209.268 323.626 199.814C314.994 191.104 312.471 173.726 311.789 161.991Z" fill="#FF5223"/>
<circle cx="158.833" cy="262.224" r="50" transform="rotate(-89.7431 158.833 262.224)" fill="#FF5223"/>
<circle cx="158.833" cy="262.224" r="50" transform="rotate(-89.7431 158.833 262.224)" fill="#4767F6"/>
<circle cx="50.833" cy="362.224" r="50" transform="rotate(-89.7431 50.833 362.224)" fill="#F0027F"/>
<circle cx="158.833" cy="51.2237" r="50" transform="rotate(-89.7431 158.833 51.2237)" fill="#F1F2F6"/>
<circle cx="365.833" cy="158.224" r="50" transform="rotate(-89.7431 365.833 158.224)" fill="#F1F2F6"/>
<circle cx="266.833" cy="364.224" r="50" transform="rotate(-89.7431 266.833 364.224)" fill="#4767F6"/>
<circle cx="266.833" cy="364.224" r="31.3452" transform="rotate(-89.7431 266.833 364.224)" fill="#F1F2F6"/>
<circle cx="158.485" cy="366.486" r="31.3452" transform="rotate(-89.7431 158.485 366.486)" fill="#FF5223"/>
<circle cx="374.833" cy="364.224" r="50" transform="rotate(-89.7431 374.833 364.224)" fill="#F1F2F6"/>
<path fill-rule="evenodd" clip-rule="evenodd" d="M124.124 121.49C135.739 109.978 151.578 105.334 166.602 107.533C178.337 106.851 195.715 104.328 204.424 95.6963C213.879 86.326 216.227 66.6776 216.763 55.1046C215.51 40.811 220.387 26.0862 231.375 15.1965C242.504 4.16675 257.511 -0.558822 271.963 0.999887H370.609C398.223 0.999887 420.609 23.3857 420.609 50.9999C420.609 78.6141 398.223 101 370.609 101H266.609C266.257 101 265.906 100.996 265.556 100.989C255.274 101.706 233.294 104.405 223.084 114.523C213.344 124.177 210.26 144.602 209.294 155.382C209.726 168.788 204.795 182.33 194.517 192.517C174.903 211.955 143.245 211.813 123.807 192.2C104.368 172.586 104.51 140.928 124.124 121.49Z" fill="#4767F6"/>
<rect x="101" y="1" width="306" height="100" rx="50" transform="rotate(90 101 1)" fill="#F0027F"/>
</svg>
