<svg width="666" height="357" viewBox="0 0 666 357" fill="none" xmlns="http://www.w3.org/2000/svg">
<rect x="32.1016" y="1" width="562.98" height="355" rx="9" fill="white" stroke="#4767F6" stroke-width="2"/>
<path d="M31.6016 9.99999C31.6016 4.75329 35.8549 0.5 41.1016 0.5H586.082C591.328 0.5 595.582 4.75329 595.582 10V21.529H31.6016V9.99999Z" fill="#4767F6" stroke="#4767F6"/>
<circle cx="46.3247" cy="11.3384" r="4.21143" fill="white"/>
<circle cx="57.3403" cy="11.3384" r="4.21143" fill="white"/>
<circle cx="68.356" cy="11.3384" r="4.21143" fill="white"/>
<rect x="139.949" y="88.1161" width="136.062" height="4.53539" rx="1" fill="#D1D5E6"/>
<rect x="288.969" y="88.1161" width="73.8621" height="4.53539" rx="1" fill="#D1D5E6"/>
<rect x="437.34" y="108.201" width="73.8621" height="4.53539" rx="1" fill="#D1D5E6"/>
<rect x="375.789" y="88.1161" width="149.02" height="4.53539" rx="1" fill="#D1D5E6"/>
<rect x="139.949" y="108.201" width="197.613" height="4.53539" rx="1" fill="#D1D5E6"/>
<rect x="350.52" y="108.201" width="73.8621" height="4.53539" rx="1" fill="#D1D5E6"/>
<rect x="139.949" y="128.287" width="112.089" height="4.53539" rx="1" fill="#D1D5E6"/>
<rect x="264.996" y="128.287" width="149.02" height="4.53539" rx="1" fill="#D1D5E6"/>
<rect x="139.949" y="168.457" width="136.062" height="4.53539" rx="1" fill="#D1D5E6"/>
<rect x="288.969" y="168.457" width="73.8621" height="4.53539" rx="1" fill="#D1D5E6"/>
<rect x="375.789" y="168.457" width="149.02" height="4.53539" rx="1" fill="#D1D5E6"/>
<rect x="139.949" y="188.543" width="197.613" height="4.53539" rx="1" fill="#D1D5E6"/>
<rect x="350.52" y="188.543" width="73.8621" height="4.53539" rx="1" fill="#D1D5E6"/>
<rect x="437.34" y="188.543" width="73.8621" height="4.53539" rx="1" fill="#D1D5E6"/>
<rect x="139.949" y="208.628" width="112.089" height="4.53539" rx="1" fill="#D1D5E6"/>
<rect x="264.996" y="208.628" width="149.02" height="4.53539" rx="1" fill="#D1D5E6"/>
<rect x="139.949" y="248.799" width="136.062" height="4.53539" rx="1" fill="#D1D5E6"/>
<rect x="288.969" y="248.799" width="73.8621" height="4.53539" rx="1" fill="#D1D5E6"/>
<rect x="375.789" y="248.799" width="149.02" height="4.53539" rx="1" fill="#D1D5E6"/>
<rect x="139.949" y="268.884" width="197.613" height="4.53539" rx="1" fill="#D1D5E6"/>
<rect x="350.52" y="268.884" width="73.8621" height="4.53539" rx="1" fill="#D1D5E6"/>
<rect x="437.34" y="268.884" width="73.8621" height="4.53539" rx="1" fill="#D1D5E6"/>
<rect x="139.949" y="288.969" width="112.089" height="4.53539" rx="1" fill="#D1D5E6"/>
<rect x="264.996" y="288.969" width="149.02" height="4.53539" rx="1" fill="#D1D5E6"/>
<path d="M54.4258 173.457C54.4258 170.696 56.6644 168.457 59.4258 168.457H109.034C111.795 168.457 114.034 170.696 114.034 173.457V208.163C114.034 210.925 111.795 213.163 109.034 213.163H59.4258C56.6644 213.163 54.4258 210.925 54.4258 208.163V173.457Z" fill="#D1D5E5"/>
<path d="M54.4258 253.799C54.4258 251.037 56.6644 248.799 59.4258 248.799H109.034C111.795 248.799 114.034 251.037 114.034 253.799V288.505C114.034 291.266 111.795 293.505 109.034 293.505H59.4258C56.6644 293.505 54.4258 291.266 54.4258 288.505V253.799Z" fill="#D1D5E5"/>
<path d="M84.2301 256.574L98.4028 266.871L92.9893 283.531H75.4709L70.0575 266.871L84.2301 256.574Z" fill="#4767F6"/>
<rect width="21.6726" height="21.6726" transform="matrix(0.707107 -0.707107 -0.707107 -0.707107 84.2305 206.036)" fill="#FF5223"/>
<rect x="550.727" y="220.29" width="114.681" height="56.3684" rx="10" fill="#4767F6"/>
<path d="M601.888 260.353C601.888 260.673 601.632 260.897 601.312 260.897H597.92C597.632 260.897 597.376 260.641 597.312 260.353L595.84 254.273H588.48L587.008 260.353C586.944 260.641 586.688 260.897 586.4 260.897H583.008C582.688 260.897 582.432 260.673 582.432 260.353C582.432 260.321 582.464 260.257 582.464 260.193L587.712 240.129C588.48 237.153 590.784 236.865 592.16 236.865C593.536 236.865 595.84 237.153 596.608 240.129L601.856 260.193C601.856 260.257 601.888 260.321 601.888 260.353ZM594.976 250.625L592.672 241.121C592.576 240.737 592.48 240.609 592.16 240.609C591.84 240.609 591.744 240.737 591.648 241.121L589.344 250.625H594.976ZM621.424 244.545C621.424 250.209 617.136 252.033 612.208 252.033C611.376 252.033 610.096 251.937 609.36 251.905V260.257C609.36 260.609 609.104 260.897 608.752 260.897H605.552C605.2 260.897 604.912 260.609 604.912 260.257V238.241C604.912 237.601 605.296 237.377 605.936 237.281C607.6 237.025 609.872 236.865 612.208 236.865C617.136 236.865 621.424 238.593 621.424 244.257V244.545ZM617.008 244.545V244.257C617.008 241.569 615.408 240.545 612.208 240.545C611.536 240.545 609.936 240.609 609.36 240.673V248.289C609.872 248.321 611.664 248.385 612.208 248.385C615.664 248.385 617.008 247.105 617.008 244.545ZM629.391 260.257C629.391 260.609 629.103 260.897 628.751 260.897H625.583C625.231 260.897 624.943 260.609 624.943 260.257V237.729C624.943 237.377 625.231 237.121 625.583 237.121H628.751C629.103 237.121 629.391 237.377 629.391 237.729V260.257Z" fill="white"/>
<circle cx="42.1143" cy="95.2432" r="42.1143" fill="#F0027F"/>
<path d="M29.99 103.645C29.99 103.89 29.815 104.135 29.57 104.135H25.72C25.335 104.135 25.195 103.96 24.95 103.75L16.865 96.68C16.305 96.19 16.06 95.875 16.06 95.315C16.06 94.755 16.305 94.44 16.865 93.95L24.95 86.88C25.195 86.67 25.335 86.495 25.72 86.495H29.57C29.815 86.495 29.99 86.74 29.99 86.985C29.99 87.125 29.92 87.3 29.78 87.405L20.68 95.315L29.78 103.225C29.92 103.33 29.99 103.505 29.99 103.645ZM42.2359 83.695C42.3409 83.345 42.5159 82.995 42.9009 82.995H45.7359C46.0859 82.995 46.4009 83.205 46.2609 83.695L38.6659 108.265C38.5609 108.615 38.3859 109 38.0009 109H35.1659C34.6759 109 34.5009 108.615 34.6059 108.265L42.2359 83.695ZM64.8191 95.315C64.8191 95.875 64.5741 96.19 64.0141 96.68L55.9291 103.75C55.6841 103.96 55.5441 104.135 55.1591 104.135H51.3091C51.0641 104.135 50.8891 103.89 50.8891 103.645C50.8891 103.505 50.9591 103.33 51.0991 103.225L60.1991 95.315L51.0991 87.405C50.9591 87.3 50.8891 87.125 50.8891 86.985C50.8891 86.74 51.0641 86.495 51.3091 86.495H55.1591C55.5441 86.495 55.6841 86.67 55.9291 86.88L64.0141 93.95C64.5741 94.44 64.8191 94.755 64.8191 95.315Z" fill="white"/>
</svg>
