<svg width="407" height="424" viewBox="0 0 407 424" fill="none" xmlns="http://www.w3.org/2000/svg">
<rect x="1" y="117.126" width="405" height="305.623" rx="9" fill="white" stroke="#4767F6" stroke-width="2"/>
<path d="M0.5 126.126C0.5 120.879 4.75329 116.626 10 116.626H397C402.247 116.626 406.5 120.879 406.5 126.126V134.608H0.5V126.126Z" fill="#4767F6" stroke="#4767F6"/>
<rect x="18.9805" y="301.481" width="179.772" height="106.077" rx="10" fill="#F1F2F6"/>
<rect x="39.6406" y="333.305" width="23.4486" height="60.8546" fill="#D1D5E6"/>
<rect x="111.66" y="333.305" width="23.4486" height="60.8546" fill="#D1D5E6"/>
<rect x="147.391" y="315.439" width="23.4486" height="78.7202" fill="#FF5223"/>
<rect x="75.3711" y="349.495" width="23.4486" height="44.6639" fill="#D1D5E6"/>
<rect x="210.48" y="301.481" width="179.772" height="106.077" rx="10" fill="#F1F2F6"/>
<circle cx="238.954" cy="362.336" r="12.3409" fill="white" stroke="#F0027F"/>
<circle cx="238.953" cy="362.336" r="7.81619" fill="#F0027F"/>
<circle cx="279.708" cy="380.76" r="12.3409" fill="white" stroke="#F0027F"/>
<circle cx="320.466" cy="362.336" r="12.3409" fill="white" stroke="#F0027F"/>
<circle cx="361.22" cy="341.679" r="12.3409" fill="white" stroke="#F0027F"/>
<line x1="249.259" y1="369.722" x2="267.125" y2="380.33" stroke="#F0027F"/>
<line x1="292.306" y1="379.766" x2="310.171" y2="369.716" stroke="#F0027F"/>
<line x1="330.385" y1="354.596" x2="351.042" y2="349.013" stroke="#F0027F"/>
<rect x="18.4258" y="153.532" width="242.86" height="137.9" rx="10" fill="#F1F2F6"/>
<circle cx="86.5338" cy="218.295" r="39.1392" stroke="#FF5223"/>
<circle cx="86.5339" cy="218.295" r="53.655" stroke="#FF5223"/>
<path d="M132.43 219.528C132.43 225.393 131.274 231.201 129.03 236.62C126.785 242.039 123.495 246.963 119.348 251.11C115.2 255.258 110.277 258.548 104.858 260.792C99.4389 263.037 93.631 264.192 87.7656 264.192" stroke="#D1D5E6" stroke-width="11"/>
<path d="M41.0001 216.664C41.0001 210.799 42.1554 204.991 44.4 199.572C46.6446 194.153 49.9345 189.229 54.0819 185.082C58.2293 180.934 63.153 177.644 68.5719 175.4C73.9908 173.155 79.7987 172 85.6641 172" stroke="#4767F6" stroke-width="11"/>
<path d="M85.3008 264.192C79.4354 264.192 73.6275 263.037 68.2086 260.792C62.7898 258.548 57.866 255.258 53.7186 251.11C49.5712 246.963 46.2813 242.039 44.0367 236.62C41.7921 231.201 40.6369 225.393 40.6369 219.528" stroke="#D1D5E6" stroke-width="11"/>
<path d="M87.7656 172.514C93.631 172.514 99.4389 173.67 104.858 175.914C110.277 178.159 115.2 181.449 119.348 185.596C123.495 189.744 126.785 194.667 129.03 200.086C131.274 205.505 132.43 211.313 132.43 217.178" stroke="#D1D5E6" stroke-width="11"/>
<path d="M320.462 0L350.439 51.9218H290.485L320.462 0Z" fill="#4767F6"/>
<path d="M320.463 270.217L273.738 236.269L291.585 181.339L349.342 181.339L367.189 236.269L320.463 270.217Z" fill="#FF5223"/>
<rect x="291.988" y="57.5048" width="57.5048" height="118.359" fill="#F0027F"/>
<circle cx="321.019" cy="116.685" r="22.332" fill="white"/>
<line x1="302.539" y1="266.309" x2="302.539" y2="326.605" stroke="black"/>
<line x1="320.961" y1="283.058" x2="320.961" y2="343.354" stroke="black"/>
<line x1="339.945" y1="266.309" x2="339.945" y2="326.605" stroke="black"/>
<rect x="152.973" y="222.203" width="89.8861" height="3.90809" rx="1" fill="#D1D5E6"/>
<rect x="152.973" y="200.988" width="89.8861" height="12.8409" rx="1" fill="#D1D5E6"/>
<rect x="152.973" y="246.768" width="89.8861" height="3.90809" rx="1" fill="#D1D5E6"/>
<rect x="152.973" y="234.486" width="89.8861" height="3.90809" rx="1" fill="#D1D5E6"/>
<rect x="152.973" y="259.051" width="89.8861" height="3.90809" rx="1" fill="#D1D5E6"/>
<rect x="226.109" y="319.905" width="37.9643" height="3.90809" rx="1" fill="#D1D5E6"/>
<rect x="226.109" y="328.28" width="20.6571" height="3.90809" rx="1" fill="#D1D5E6"/>
<circle cx="279.707" cy="380.76" r="7.81619" fill="#D1D5E6"/>
<circle cx="320.465" cy="362.336" r="7.81619" fill="#D1D5E6"/>
<circle cx="361.219" cy="341.679" r="7.81619" fill="#D1D5E6"/>
</svg>
