<svg width="414" height="382" viewBox="0 0 414 382" fill="none" xmlns="http://www.w3.org/2000/svg">

<g id="articleTwo" clip-path="url(#clip0_0_1)">
<g id="wireframe">
<g id="Group 1033">
<path id="Vector" d="M173.519 62.7095H10C5.02944 62.7095 1 66.7389 1 71.7095V371.192C1 376.163 5.02944 380.192 10 380.192H173.519C178.49 380.192 182.519 376.163 182.519 371.192V71.7095C182.519 66.7389 178.49 62.7095 173.519 62.7095Z" fill="white" stroke="#4767F6" stroke-width="2"/>
<path id="Vector_2" d="M0.5 71.7095C0.5 66.4628 4.75329 62.2095 10 62.2095H173.519C178.765 62.2095 183.019 66.4628 183.019 71.7095V83.9818H0.5V71.7095Z" fill="#4767F6" stroke="#4767F6"/>
</g>
<g id="Group 1027">
<path id="Vector_3" d="M97.9356 177.245C92.126 178.802 85.9563 178.296 80.4779 175.814C74.9995 173.332 70.5512 169.027 67.891 163.632C65.2309 158.238 64.5234 152.088 65.8891 146.231C67.2549 140.373 70.6094 135.171 75.3811 131.509C80.1527 127.848 86.0463 125.954 92.0577 126.151C98.069 126.348 103.826 128.623 108.348 132.588C112.87 136.554 115.877 141.965 116.857 147.899C117.837 153.833 116.729 159.924 113.721 165.133" stroke="white" stroke-width="10" stroke-linecap="round"/>
<g id="Group 1032">
<path id="Vector_4" d="M154.818 102.328H28.7461C23.2232 102.328 18.7461 106.805 18.7461 112.328V247.773C18.7461 253.296 23.2232 257.773 28.7461 257.773H154.818C160.341 257.773 164.818 253.296 164.818 247.773V112.328C164.818 106.805 160.341 102.328 154.818 102.328Z" fill="#F1F2F6"/>
<path id="Vector_5" d="M154.818 197.626H28.7461C23.2232 197.626 18.7461 202.103 18.7461 207.626V247.773C18.7461 253.296 23.2232 257.773 28.7461 257.773H154.818C160.341 257.773 164.818 253.296 164.818 247.773V207.626C164.818 202.103 160.341 197.626 154.818 197.626Z" fill="#D1D5E6"/>
<path id="Vector_6" d="M117.578 152.339C117.578 158.393 115.479 164.26 111.638 168.94C107.798 173.62 102.453 176.823 96.5152 178.004C90.5775 179.186 84.4139 178.271 79.0746 175.417C73.7354 172.564 69.5509 167.947 67.2341 162.353C64.9173 156.76 64.6116 150.537 66.369 144.743C68.1264 138.95 71.8382 133.945 76.872 130.582C81.9058 127.218 87.9501 125.704 93.975 126.297C100 126.891 105.633 129.555 109.914 133.836" stroke="#D1D5E6" stroke-width="10" stroke-linecap="round"/>
</g>
</g>
<g id="Group 1029">
<g id="Group 1030">
<path id="Vector_7" d="M154.817 272.615H102.172C96.649 272.615 92.1719 277.092 92.1719 282.615V301.672C92.1719 307.194 96.649 311.672 102.172 311.672H154.817C160.34 311.672 164.817 307.194 164.817 301.672V282.615C164.817 277.092 160.34 272.615 154.817 272.615Z" fill="#F1F2F6"/>
<path id="Vector_8" d="M154.817 315.577H102.172C96.649 315.577 92.1719 320.054 92.1719 325.577V344.634C92.1719 350.156 96.649 354.634 102.172 354.634H154.817C160.34 354.634 164.817 350.156 164.817 344.634V325.577C164.817 320.054 160.34 315.577 154.817 315.577Z" fill="#F1F2F6"/>
</g>
</g>
<g id="Group 1028">
<g id="Group 1031">
<path id="Vector_9" d="M76.7046 272.615H28.7461C23.2232 272.615 18.7461 277.092 18.7461 282.615V344.634C18.7461 350.157 23.2232 354.634 28.7461 354.634H76.7046C82.2274 354.634 86.7046 350.157 86.7046 344.634V282.615C86.7046 277.092 82.2274 272.615 76.7046 272.615Z" fill="#F1F2F6"/>
<path id="Vector_10" d="M19.4917 280.868L83.657 350.088" stroke="#D1D5E6"/>
<path id="Vector_11" d="M84.0307 281.903L19.1147 350.42" stroke="#D1D5E6"/>
</g>
</g>
</g>
<g id="actual">
<g id="Group 1040">
<path id="Vector_12" d="M403.999 1H209.969C204.998 1 200.969 5.02944 200.969 10V362.6C200.969 367.571 204.998 371.6 209.969 371.6H403.999C408.969 371.6 412.999 367.571 412.999 362.6V10C412.999 5.02944 408.969 1 403.999 1Z" fill="white" stroke="#4767F6" stroke-width="2"/>
<path id="Vector_13" d="M200.469 10C200.469 4.7533 204.722 0.5 209.969 0.5H403.999C409.246 0.5 413.499 4.75329 413.499 10V26.0585H200.469V10Z" fill="#4767F6" stroke="#4767F6"/>
</g>
<g id="Group 1038">
<path id="Vector_14" d="M386.129 264.023H320.016C316.702 264.023 314.016 266.709 314.016 270.023V297.08C314.016 300.393 316.702 303.08 320.016 303.08H386.129C389.443 303.08 392.129 300.393 392.129 297.08V270.023C392.129 266.709 389.443 264.023 386.129 264.023Z" fill="#F1F2F6"/>
<path id="Vector_15" d="M342.879 284.306L331.188 295.232L320.262 283.541L331.953 272.615L342.879 284.306Z" fill="#FF5223"/>
<path id="Vector_16" d="M385.097 283.551H351.508V288.238H385.097V283.551Z" fill="#D1D5E5"/>
<path id="Vector_17" d="M374.161 291.362H351.508V295.268H374.161V291.362Z" fill="#D1D5E5"/>
</g>
<g id="Group 1036">
<path id="Vector_18" d="M293.081 264.023H231.844C226.321 264.023 221.844 268.5 221.844 274.023V336.042C221.844 341.565 226.321 346.042 231.844 346.042H293.081C298.604 346.042 303.081 341.565 303.081 336.042V274.023C303.081 268.5 298.604 264.023 293.081 264.023Z" fill="#F1F2F6"/>
<path id="Vector_19" d="M255.43 335.668C268.683 335.668 279.426 324.925 279.426 311.672C279.426 298.419 268.683 287.676 255.43 287.676C242.177 287.676 231.434 298.419 231.434 311.672C231.434 324.925 242.177 335.668 255.43 335.668Z" stroke="#FF5223" stroke-width="2"/>
<path id="Vector_20" d="M246.448 325.733C248.821 325.733 250.744 327.656 250.744 330.029C250.744 332.402 248.821 334.325 246.448 334.325C244.075 334.325 242.152 332.402 242.152 330.029C242.152 327.656 244.075 325.733 246.448 325.733Z" fill="#F0027F"/>
</g>
<g id="Group 1037">
<path id="Vector_21" d="M386.129 306.985H320.016C316.702 306.985 314.016 309.671 314.016 312.985V340.042C314.016 343.355 316.702 346.042 320.016 346.042H386.129C389.443 346.042 392.129 343.355 392.129 340.042V312.985C392.129 309.671 389.443 306.985 386.129 306.985Z" fill="#4767F6"/>
<path id="Vector_22" d="M385.097 325.732H351.508V330.419H385.097V325.732Z" fill="#D1D5E5"/>
<path id="Vector_23" d="M374.161 333.543H351.508V337.449H374.161V333.543Z" fill="#D1D5E5"/>
<path id="Vector_24" d="M333.155 317.14L343.184 324.426L339.353 336.216H326.956L323.125 324.426L333.155 317.14Z" fill="#F0027F"/>
</g>
<g id="Group 1039">
<path id="Vector_25" d="M382.127 39.8378H231.84C226.317 39.8378 221.84 44.3149 221.84 49.8378V239.181C221.84 244.704 226.317 249.181 231.84 249.181H382.127C387.65 249.181 392.127 244.704 392.127 239.181V49.8378C392.127 44.3149 387.65 39.8378 382.127 39.8378Z" fill="white"/>
<g id="Group 1034">
<path id="Vector_26" d="M314.202 134.771C305.474 137.11 296.205 136.35 287.975 132.621C279.744 128.892 273.061 122.424 269.065 114.32C265.068 106.216 264.006 96.9768 266.057 88.1769C268.109 79.3769 273.149 71.5607 280.318 66.06C287.486 60.5593 296.341 57.7143 305.372 58.01C314.403 58.3056 323.052 61.7235 329.846 67.6814C336.639 73.6392 341.157 81.7683 342.629 90.6835C344.101 99.5988 342.436 108.749 337.918 116.574" stroke="#F1F2F6" stroke-width="15" stroke-linecap="round"/>
<path id="Vector_27" d="M343.137 97.0437C343.137 106.08 340.004 114.836 334.271 121.821C328.539 128.806 320.562 133.587 311.7 135.35C302.837 137.113 293.638 135.748 285.669 131.489C277.7 127.229 271.454 120.338 267.996 111.99C264.539 103.642 264.082 94.353 266.705 85.7061C269.328 77.0593 274.868 69.5894 282.381 64.5693C289.894 59.5492 298.916 57.2895 307.908 58.1751C316.901 59.0608 325.308 63.0371 331.697 69.4265" stroke="#4767F6" stroke-width="15" stroke-linecap="round"/>
<path id="Vector_28" d="M301.932 97.844C301.932 104.592 299.3 107.224 294.176 107.224C291.74 107.224 289.92 106.888 288.996 106.692C288.604 106.608 288.352 106.468 288.352 106.104V104.368C288.352 103.976 288.576 103.78 288.884 103.78C288.912 103.78 288.968 103.78 288.996 103.78C290.06 103.948 292.496 104.144 294.176 104.144C297.004 104.144 298.04 102.884 298.124 99.048C297.228 99.216 295.744 99.356 294.232 99.356C290.592 99.356 287.372 97.788 287.372 93.196V92.916C287.372 88.772 289.976 85.972 294.596 85.972C298.768 85.972 301.932 88.548 301.932 94.624V97.844ZM298.124 96.22V94.624C298.124 89.948 296.64 88.996 294.596 88.996C292.692 88.996 291.18 89.836 291.18 92.916V93.196C291.18 95.828 292.972 96.528 295.016 96.528C295.828 96.528 297.284 96.388 298.124 96.22ZM320.213 101.428C320.213 101.736 319.961 101.988 319.653 101.988H317.581V106.44C317.581 106.748 317.385 107 317.077 107H314.193C313.885 107 313.689 106.748 313.689 106.44V101.988H305.289C304.981 101.988 304.729 101.736 304.729 101.428V99.16C304.729 98.852 304.813 98.544 305.037 98.264L313.661 86.7C313.857 86.42 314.081 86.196 314.473 86.196H317.021C317.329 86.196 317.581 86.448 317.581 86.756V98.908H319.653C319.961 98.908 320.213 99.16 320.213 99.468V101.428ZM313.717 98.908V91.796C313.717 91.684 313.689 91.628 313.633 91.628C313.577 91.628 313.493 91.712 313.437 91.796L308.537 98.6C308.481 98.656 308.453 98.74 308.453 98.768C308.453 98.852 308.537 98.908 308.677 98.908H313.717Z" fill="#1C1C1C"/>
</g>
<g id="Group 1035">
<path id="Vector_29" d="M382.127 150.758H231.84C226.317 150.758 221.84 155.235 221.84 160.758V239.181C221.84 244.703 226.317 249.181 231.84 249.181H382.127C387.65 249.181 392.127 244.703 392.127 239.181V160.758C392.127 155.235 387.65 150.758 382.127 150.758Z" fill="#F1F2F6"/>
<path id="Vector_30" d="M372.992 221.06H248.011C243.481 221.06 239.809 224.732 239.809 229.262V229.262C239.809 233.792 243.481 237.464 248.011 237.464H372.992C377.522 237.464 381.194 233.792 381.194 229.262C381.194 224.732 377.522 221.06 372.992 221.06Z" fill="#F0027F"/>
<path id="Vector_31" d="M323.386 171.068H292.922V177.317H323.386V171.068Z" fill="#D1D5E6"/>
<path id="Vector_32" d="M368.692 197.626H292.922V203.875H368.692V197.626Z" fill="#D1D5E6"/>
<path id="Vector_33" d="M349.163 184.347H292.922V190.596H349.163V184.347Z" fill="#D1D5E6"/>
<g id="Clip path group">
<mask id="mask0_0_1" style="mask-type:luminance" maskUnits="userSpaceOnUse" x="239" y="172" width="39" height="38">
<g id="clip0_2135_2045">
<path id="Vector_34" d="M277.303 172.63H239.809V209.343H277.303V172.63Z" fill="white"/>
</g>
</mask>
<g mask="url(#mask0_0_1)">
<g id="Group">
<path id="Vector_35" d="M277.303 190.987C277.303 192.904 277.005 194.755 276.446 196.491C275.594 199.145 274.146 201.539 272.252 203.52C272.212 203.567 272.172 203.61 272.128 203.654C272.071 203.713 272.011 203.772 271.955 203.827C268.553 207.229 263.808 209.343 258.556 209.343C257.743 209.343 256.935 209.292 256.151 209.198C256.143 209.194 256.139 209.194 256.131 209.194C254.201 208.946 252.359 208.414 250.658 207.638C250.517 207.575 250.376 207.509 250.236 207.442C247.465 206.099 245.085 204.099 243.303 201.653C243.15 201.441 242.997 201.228 242.853 201.008C242.491 200.472 242.161 199.917 241.863 199.346C240.549 196.838 239.809 193.999 239.809 190.987C239.809 180.848 248.201 172.63 258.556 172.63C268.911 172.63 277.303 180.848 277.303 190.987Z" fill="#EDDDD6"/>
<path id="Vector_36" d="M272.25 203.52C272.21 203.567 272.17 203.61 272.126 203.654C272.07 203.713 272.009 203.772 271.953 203.827C268.551 207.229 263.806 209.343 258.554 209.343C257.742 209.343 256.933 209.292 256.149 209.198C256.141 209.194 256.137 209.194 256.129 209.194C254.199 208.946 252.357 208.414 250.656 207.638C250.817 200.988 250.749 195.168 250.749 195.058C250.813 194.92 253.958 194.129 258.144 193.995C264.731 193.79 270.296 197.429 272.25 203.52Z" fill="#4767F6"/>
<path id="Vector_37" d="M256.153 209.198C256.153 209.198 256.141 209.194 256.133 209.194C254.202 208.946 252.361 208.414 250.66 207.638C250.519 207.575 250.378 207.509 250.237 207.442C247.467 206.099 245.086 204.099 243.305 201.653C246.916 196.806 249.867 195.393 250.752 195.058C250.933 194.987 251.026 194.964 251.026 194.964L256.153 209.198Z" fill="#4767F6"/>
<path id="Vector_38" d="M258.629 183.206C258.629 183.206 262.956 183.407 263.201 179.344C263.462 175.016 259.373 174.603 257.635 176.351C255.898 178.099 256.22 179.879 256.22 179.879C256.22 179.879 255.01 178.812 253.691 180.123C252.721 181.088 253.22 182.659 253.22 182.659C253.22 182.659 250.988 182.576 251.197 184.482C251.407 186.392 252.798 187.36 252.798 187.36L258.625 183.202L258.629 183.206Z" fill="#F0027F"/>
<path id="Vector_39" d="M254.672 190.688L255.122 195.192C255.122 195.192 256.079 196.409 258.794 196.365C260.812 196.334 261.472 195.822 261.472 195.822L260.965 193.57L260.467 191.373L255.504 190.79L254.672 190.691V190.688Z" fill="#FCA397"/>
<path id="Vector_40" d="M255.504 190.786C255.528 190.908 255.588 191.05 255.681 191.207C256.935 193.357 259.799 193.574 260.965 193.566L260.466 191.369L255.504 190.786Z" fill="#1C1C1C"/>
<path id="Vector_41" d="M260.465 181.005C260.465 181.005 263.445 186.419 262.805 189.648C262.166 192.877 259.19 192.617 257.381 192.148C255.571 191.68 254.67 190.691 254.67 190.691C254.67 190.691 253.074 191.369 251.851 189.963C250.629 188.557 251.16 186.785 252.065 186.317C252.969 185.848 254.14 186.419 254.14 186.419L253.13 184.856C253.13 184.856 256.11 176.264 260.469 181.001L260.465 181.005Z" fill="#FCA397"/>
<path id="Vector_42" d="M254.194 188.884C254.162 188.884 254.126 188.876 254.094 188.857L252.268 187.821C252.172 187.766 252.139 187.648 252.196 187.553C252.252 187.459 252.373 187.427 252.469 187.482L254.295 188.518C254.391 188.573 254.423 188.691 254.367 188.786C254.331 188.849 254.263 188.884 254.194 188.884Z" fill="#1C1C1C"/>
<path id="Vector_43" d="M252.704 189.042C252.632 189.042 252.563 189.002 252.527 188.935C252.475 188.841 252.515 188.719 252.611 188.672L253.54 188.195C253.637 188.144 253.761 188.183 253.81 188.278C253.862 188.372 253.822 188.494 253.725 188.542L252.796 189.018C252.768 189.034 252.736 189.042 252.704 189.042Z" fill="#1C1C1C"/>
<path id="Vector_44" d="M261.273 183.128C261.233 183.128 261.197 183.116 261.16 183.092C260.646 182.753 260.175 183.076 260.155 183.092C260.067 183.155 259.938 183.135 259.874 183.049C259.809 182.962 259.829 182.84 259.918 182.773C259.946 182.753 260.634 182.273 261.386 182.769C261.478 182.828 261.502 182.95 261.442 183.041C261.402 183.096 261.341 183.128 261.277 183.128H261.273Z" fill="#1C1C1C"/>
<path id="Vector_45" d="M260.656 188.254C260.656 188.254 260.632 188.254 260.616 188.254C260.507 188.234 260.435 188.128 260.455 188.022C260.789 186.341 259.792 185.246 259.783 185.238C259.707 185.159 259.715 185.033 259.796 184.958C259.876 184.884 260.005 184.892 260.081 184.97C260.129 185.021 261.223 186.222 260.853 188.097C260.833 188.191 260.749 188.254 260.656 188.254Z" fill="#1C1C1C"/>
<path id="Vector_46" d="M261.277 185.785C261.168 185.785 261.08 185.703 261.076 185.596L261.027 184.521C261.023 184.411 261.108 184.321 261.221 184.317C261.333 184.313 261.426 184.395 261.43 184.506L261.478 185.581C261.482 185.691 261.397 185.781 261.285 185.785C261.285 185.785 261.281 185.785 261.277 185.785Z" fill="#1C1C1C"/>
<path id="Vector_47" d="M258.257 186.069C258.149 186.069 258.06 185.986 258.056 185.88L258.008 184.805C258.004 184.695 258.088 184.604 258.201 184.6C258.314 184.592 258.406 184.679 258.41 184.789L258.458 185.864C258.462 185.974 258.378 186.065 258.265 186.069C258.265 186.069 258.261 186.069 258.257 186.069Z" fill="#1C1C1C"/>
<path id="Vector_48" d="M261.077 182.23C261.077 182.23 260.486 181.371 259.34 181.474C258.189 181.576 257.602 182.431 257.602 182.431C257.602 182.431 258.294 184.273 256.834 185.427C255.375 186.581 254.14 186.415 254.14 186.415L252.97 186.128L251.977 184.588L254.904 180.82L258.921 178.225L261.274 179.938L261.077 182.226V182.23Z" fill="#F0027F"/>
<path id="Vector_49" d="M259.704 189.408C259.31 189.408 258.622 189.298 258.2 188.601C258.143 188.506 258.176 188.388 258.268 188.329C258.365 188.274 258.485 188.305 258.546 188.396C259.008 189.156 259.897 189.002 259.933 188.994C260.041 188.975 260.146 189.046 260.166 189.152C260.186 189.258 260.118 189.361 260.009 189.384C259.993 189.384 259.877 189.408 259.704 189.408Z" fill="#1C1C1C"/>
<path id="Vector_50" d="M262.49 187.408C261.408 187.408 260.531 186.522 260.531 185.431C260.531 184.34 261.412 183.454 262.49 183.454C263.567 183.454 264.448 184.34 264.448 185.431C264.448 186.522 263.567 187.408 262.49 187.408ZM262.49 183.848C261.629 183.848 260.933 184.557 260.933 185.431C260.933 186.305 261.633 187.014 262.49 187.014C263.346 187.014 264.046 186.305 264.046 185.431C264.046 184.557 263.346 183.848 262.49 183.848Z" fill="white"/>
<path id="Vector_51" d="M257.831 187.849C256.717 187.849 255.812 186.963 255.812 185.872C255.812 184.781 256.717 183.895 257.831 183.895C258.945 183.895 259.85 184.781 259.85 185.872C259.85 186.963 258.945 187.849 257.831 187.849ZM257.831 184.289C256.938 184.289 256.215 184.998 256.215 185.872C256.215 186.746 256.938 187.455 257.831 187.455C258.724 187.455 259.448 186.746 259.448 185.872C259.448 184.998 258.724 184.289 257.831 184.289Z" fill="white"/>
<path id="Vector_52" d="M259.456 185.864C259.351 185.864 259.263 185.785 259.254 185.683C259.246 185.577 259.327 185.478 259.439 185.47L260.863 185.356C260.976 185.348 261.072 185.427 261.08 185.537C261.088 185.644 261.008 185.742 260.895 185.75L259.472 185.864C259.472 185.864 259.46 185.864 259.456 185.864Z" fill="white"/>
<path id="Vector_53" d="M252.965 186.329C252.917 186.329 252.865 186.309 252.829 186.274C252.748 186.199 252.744 186.073 252.821 185.994C253.902 184.868 256.013 185.907 256.106 185.955C256.206 186.006 256.243 186.124 256.194 186.219C256.146 186.317 256.021 186.352 255.925 186.305C255.905 186.297 253.991 185.356 253.118 186.266C253.078 186.305 253.026 186.329 252.973 186.329H252.965Z" fill="white"/>
<path id="Vector_54" d="M258.845 196.405C257.546 196.405 256.038 196.082 254.57 195.027C254.482 194.964 254.462 194.838 254.526 194.751C254.59 194.664 254.719 194.645 254.807 194.708C258.358 197.263 262.191 195.271 262.227 195.251C262.323 195.2 262.448 195.235 262.5 195.33C262.552 195.424 262.516 195.546 262.42 195.598C262.396 195.609 260.876 196.401 258.841 196.401L258.845 196.405Z" fill="white"/>
<path id="Vector_55" d="M256.835 183.765C256.798 183.765 256.762 183.758 256.726 183.734C256.634 183.675 256.605 183.557 256.662 183.462C257.213 182.604 258.069 182.667 258.443 182.824C258.544 182.868 258.592 182.982 258.552 183.08C258.508 183.183 258.391 183.226 258.29 183.187C258.254 183.171 257.506 182.887 257.004 183.671C256.963 183.73 256.899 183.762 256.835 183.762V183.765Z" fill="#1C1C1C"/>
</g>
</g>
</g>
</g>
</g>
</g>
</g>
<defs>
<clipPath id="clip0_0_1">
<rect width="414" height="382" fill="white"/>
</clipPath>
</defs>
</svg>
