<svg width="508" height="305" viewBox="0 0 508 305" fill="none" xmlns="http://www.w3.org/2000/svg">
<g filter="url(#filter0_d_1097_156)">
<rect x="100.477" width="339.203" height="246.766" rx="10" fill="white"/>
</g>
<rect x="243.746" y="167.386" width="263.253" height="51.8544" rx="9" fill="#F1F2F6"/>
<path d="M302.312 201.813V185.813H305.211V199.384H312.258V201.813H302.312ZM318.102 202.055C317.341 202.055 316.656 201.92 316.047 201.649C315.443 201.373 314.964 200.967 314.609 200.43C314.26 199.894 314.086 199.233 314.086 198.446C314.086 197.769 314.211 197.209 314.461 196.766C314.711 196.324 315.052 195.969 315.484 195.704C315.917 195.438 316.404 195.238 316.945 195.102C317.492 194.962 318.057 194.86 318.641 194.798C319.344 194.725 319.914 194.66 320.352 194.602C320.789 194.54 321.107 194.446 321.305 194.321C321.508 194.191 321.609 193.99 321.609 193.719V193.673C321.609 193.084 321.435 192.628 321.086 192.305C320.737 191.983 320.234 191.821 319.578 191.821C318.885 191.821 318.336 191.972 317.93 192.274C317.529 192.576 317.258 192.933 317.117 193.344L314.477 192.969C314.685 192.24 315.029 191.631 315.508 191.141C315.987 190.647 316.573 190.277 317.266 190.032C317.958 189.782 318.724 189.657 319.563 189.657C320.141 189.657 320.716 189.725 321.289 189.86C321.862 189.996 322.385 190.219 322.859 190.532C323.333 190.839 323.714 191.259 324 191.79C324.292 192.321 324.438 192.985 324.438 193.782V201.813H321.719V200.165H321.625C321.453 200.498 321.211 200.811 320.898 201.102C320.591 201.389 320.203 201.621 319.734 201.798C319.271 201.969 318.727 202.055 318.102 202.055ZM318.836 199.977C319.404 199.977 319.896 199.865 320.313 199.641C320.729 199.412 321.049 199.11 321.273 198.735C321.503 198.36 321.617 197.951 321.617 197.509V196.094C321.529 196.167 321.378 196.235 321.164 196.298C320.956 196.36 320.721 196.415 320.461 196.462C320.201 196.509 319.943 196.55 319.688 196.587C319.432 196.623 319.211 196.654 319.023 196.68C318.602 196.738 318.224 196.831 317.891 196.962C317.557 197.092 317.294 197.274 317.102 197.509C316.909 197.738 316.813 198.035 316.813 198.399C316.813 198.92 317.003 199.313 317.383 199.579C317.763 199.844 318.247 199.977 318.836 199.977ZM334.93 196.766V189.813H337.758V201.813H335.016V199.68H334.891C334.62 200.352 334.174 200.902 333.555 201.329C332.94 201.756 332.182 201.969 331.281 201.969C330.495 201.969 329.799 201.795 329.195 201.446C328.596 201.092 328.128 200.579 327.789 199.907C327.451 199.23 327.281 198.412 327.281 197.454V189.813H330.109V197.016C330.109 197.777 330.318 198.381 330.734 198.829C331.151 199.277 331.698 199.501 332.375 199.501C332.792 199.501 333.195 199.399 333.586 199.196C333.977 198.993 334.297 198.691 334.547 198.29C334.802 197.884 334.93 197.376 334.93 196.766ZM345.9 202.048C344.702 202.048 343.674 201.785 342.814 201.259C341.96 200.733 341.301 200.006 340.838 199.079C340.38 198.147 340.15 197.074 340.15 195.86C340.15 194.641 340.385 193.566 340.854 192.634C341.322 191.696 341.984 190.967 342.838 190.446C343.697 189.92 344.713 189.657 345.885 189.657C346.859 189.657 347.721 189.837 348.471 190.196C349.226 190.55 349.827 191.053 350.275 191.704C350.723 192.35 350.979 193.105 351.041 193.969H348.338C348.229 193.391 347.968 192.91 347.557 192.524C347.15 192.134 346.606 191.938 345.924 191.938C345.346 191.938 344.838 192.094 344.4 192.407C343.963 192.714 343.622 193.157 343.377 193.735C343.137 194.313 343.018 195.006 343.018 195.813C343.018 196.631 343.137 197.334 343.377 197.923C343.617 198.506 343.952 198.956 344.385 199.274C344.822 199.587 345.335 199.743 345.924 199.743C346.34 199.743 346.713 199.665 347.041 199.509C347.374 199.347 347.653 199.115 347.877 198.813C348.101 198.511 348.255 198.144 348.338 197.712H351.041C350.973 198.561 350.723 199.313 350.291 199.969C349.859 200.621 349.27 201.131 348.525 201.501C347.781 201.865 346.906 202.048 345.9 202.048ZM356.191 194.782V201.813H353.363V185.813H356.129V191.852H356.27C356.551 191.175 356.986 190.641 357.574 190.251C358.168 189.855 358.923 189.657 359.84 189.657C360.673 189.657 361.4 189.831 362.02 190.18C362.639 190.529 363.118 191.04 363.457 191.712C363.801 192.384 363.973 193.204 363.973 194.173V201.813H361.145V194.61C361.145 193.803 360.936 193.175 360.52 192.727C360.108 192.274 359.53 192.048 358.785 192.048C358.285 192.048 357.837 192.157 357.441 192.376C357.051 192.589 356.743 192.899 356.52 193.305C356.301 193.712 356.191 194.204 356.191 194.782ZM371.734 188.243V185.813H384.5V188.243H379.555V201.813H376.68V188.243H371.734ZM390.408 202.048C389.205 202.048 388.166 201.798 387.291 201.298C386.421 200.792 385.752 200.079 385.283 199.157C384.814 198.23 384.58 197.139 384.58 195.884C384.58 194.649 384.814 193.566 385.283 192.634C385.757 191.696 386.419 190.967 387.268 190.446C388.117 189.92 389.114 189.657 390.26 189.657C390.999 189.657 391.697 189.777 392.354 190.016C393.015 190.251 393.598 190.615 394.104 191.11C394.614 191.605 395.015 192.235 395.307 193.001C395.598 193.761 395.744 194.667 395.744 195.719V196.587H385.908V194.68H393.033C393.028 194.139 392.911 193.657 392.682 193.235C392.452 192.808 392.132 192.472 391.721 192.227C391.314 191.983 390.84 191.86 390.299 191.86C389.721 191.86 389.213 192.001 388.775 192.282C388.338 192.558 387.997 192.923 387.752 193.376C387.512 193.824 387.39 194.316 387.385 194.852V196.516C387.385 197.214 387.512 197.813 387.768 198.313C388.023 198.808 388.38 199.188 388.838 199.454C389.296 199.714 389.833 199.844 390.447 199.844C390.859 199.844 391.231 199.787 391.564 199.673C391.898 199.553 392.187 199.378 392.432 199.149C392.676 198.92 392.861 198.636 392.986 198.298L395.627 198.594C395.46 199.292 395.143 199.902 394.674 200.423C394.21 200.938 393.617 201.339 392.893 201.626C392.169 201.907 391.34 202.048 390.408 202.048ZM407.621 192.985L405.043 193.266C404.97 193.006 404.842 192.761 404.66 192.532C404.483 192.303 404.243 192.118 403.941 191.977C403.639 191.837 403.27 191.766 402.832 191.766C402.243 191.766 401.749 191.894 401.348 192.149C400.952 192.404 400.757 192.735 400.762 193.141C400.757 193.49 400.884 193.774 401.145 193.993C401.41 194.212 401.848 194.391 402.457 194.532L404.504 194.969C405.639 195.214 406.483 195.602 407.035 196.134C407.592 196.665 407.874 197.36 407.879 198.219C407.874 198.975 407.652 199.641 407.215 200.219C406.783 200.792 406.181 201.24 405.41 201.563C404.639 201.886 403.754 202.048 402.754 202.048C401.285 202.048 400.103 201.74 399.207 201.126C398.311 200.506 397.777 199.644 397.605 198.54L400.363 198.274C400.488 198.816 400.754 199.225 401.16 199.501C401.566 199.777 402.095 199.915 402.746 199.915C403.418 199.915 403.957 199.777 404.363 199.501C404.775 199.225 404.98 198.884 404.98 198.477C404.98 198.134 404.848 197.85 404.582 197.626C404.322 197.402 403.915 197.23 403.363 197.11L401.316 196.68C400.165 196.441 399.314 196.037 398.762 195.469C398.21 194.897 397.936 194.173 397.941 193.298C397.936 192.558 398.137 191.917 398.543 191.376C398.954 190.829 399.525 190.407 400.254 190.11C400.988 189.808 401.835 189.657 402.793 189.657C404.199 189.657 405.306 189.956 406.113 190.555C406.926 191.154 407.428 191.964 407.621 192.985ZM416.203 189.813V192.001H409.305V189.813H416.203ZM411.008 186.938H413.836V198.204C413.836 198.584 413.893 198.876 414.008 199.079C414.128 199.277 414.284 199.412 414.477 199.485C414.669 199.558 414.883 199.594 415.117 199.594C415.294 199.594 415.456 199.581 415.602 199.555C415.753 199.529 415.867 199.506 415.945 199.485L416.422 201.696C416.271 201.748 416.055 201.805 415.773 201.868C415.497 201.93 415.159 201.967 414.758 201.977C414.049 201.998 413.411 201.891 412.844 201.657C412.276 201.417 411.826 201.048 411.492 200.548C411.164 200.048 411.003 199.423 411.008 198.673V186.938ZM418.568 201.813V189.813H421.396V201.813H418.568ZM419.99 188.11C419.542 188.11 419.157 187.962 418.834 187.665C418.511 187.363 418.35 187.001 418.35 186.579C418.35 186.152 418.511 185.79 418.834 185.493C419.157 185.191 419.542 185.04 419.99 185.04C420.443 185.04 420.829 185.191 421.146 185.493C421.469 185.79 421.631 186.152 421.631 186.579C421.631 187.001 421.469 187.363 421.146 187.665C420.829 187.962 420.443 188.11 419.99 188.11ZM427.133 194.782V201.813H424.305V189.813H427.008V191.852H427.148C427.424 191.18 427.865 190.647 428.469 190.251C429.078 189.855 429.831 189.657 430.727 189.657C431.555 189.657 432.276 189.834 432.891 190.188C433.51 190.542 433.99 191.055 434.328 191.727C434.672 192.399 434.841 193.214 434.836 194.173V201.813H432.008V194.61C432.008 193.808 431.799 193.18 431.383 192.727C430.971 192.274 430.401 192.048 429.672 192.048C429.177 192.048 428.737 192.157 428.352 192.376C427.971 192.589 427.672 192.899 427.453 193.305C427.24 193.712 427.133 194.204 427.133 194.782ZM442.93 206.563C441.914 206.563 441.042 206.425 440.313 206.149C439.583 205.878 438.997 205.514 438.555 205.055C438.112 204.597 437.805 204.089 437.633 203.532L440.18 202.915C440.294 203.149 440.461 203.381 440.68 203.61C440.898 203.844 441.193 204.037 441.563 204.188C441.938 204.344 442.409 204.423 442.977 204.423C443.779 204.423 444.443 204.227 444.969 203.837C445.495 203.451 445.758 202.816 445.758 201.93V199.657H445.617C445.471 199.949 445.258 200.248 444.977 200.555C444.701 200.863 444.333 201.121 443.875 201.329C443.422 201.537 442.852 201.641 442.164 201.641C441.242 201.641 440.406 201.425 439.656 200.993C438.911 200.555 438.318 199.904 437.875 199.04C437.438 198.17 437.219 197.081 437.219 195.774C437.219 194.456 437.438 193.344 437.875 192.438C438.318 191.527 438.914 190.837 439.664 190.368C440.414 189.894 441.25 189.657 442.172 189.657C442.875 189.657 443.453 189.777 443.906 190.016C444.365 190.251 444.729 190.535 445 190.868C445.271 191.196 445.477 191.506 445.617 191.798H445.773V189.813H448.563V202.009C448.563 203.035 448.318 203.884 447.828 204.555C447.339 205.227 446.669 205.73 445.82 206.063C444.971 206.397 444.008 206.563 442.93 206.563ZM442.953 199.423C443.552 199.423 444.063 199.277 444.484 198.985C444.906 198.693 445.227 198.274 445.445 197.727C445.664 197.18 445.773 196.524 445.773 195.759C445.773 195.003 445.664 194.342 445.445 193.774C445.232 193.206 444.914 192.766 444.492 192.454C444.076 192.136 443.563 191.977 442.953 191.977C442.323 191.977 441.797 192.141 441.375 192.469C440.953 192.798 440.635 193.248 440.422 193.821C440.208 194.389 440.102 195.035 440.102 195.759C440.102 196.493 440.208 197.136 440.422 197.688C440.641 198.235 440.961 198.662 441.383 198.969C441.81 199.272 442.333 199.423 442.953 199.423Z" fill="#4767F6"/>
<rect x="243.746" y="167.386" width="263.253" height="51.8544" rx="9" stroke="#4767F6" stroke-width="2"/>
<path d="M100.133 10.0002C100.133 5.02968 104.162 1.00024 109.133 1.00024H431.133C436.103 1.00024 440.133 5.02968 440.133 10.0002V22.0002H100.133V10.0002Z" fill="#4767F6"/>
<circle cx="115.343" cy="10.8513" r="4.42089" fill="white"/>
<circle cx="127.401" cy="10.8513" r="4.42089" fill="white"/>
<circle cx="139.46" cy="10.8513" r="4.42089" fill="white"/>
<path d="M145.868 66.2486V64.2031L155.584 59.7145V62.2358L148.68 65.1974L148.759 65.0625V65.3892L148.68 65.2543L155.584 68.2159V70.7372L145.868 66.2486ZM158.778 71V60.0909H161.235V61.9446H161.363C161.591 61.3196 161.967 60.8319 162.493 60.4815C163.018 60.1264 163.645 59.9489 164.375 59.9489C165.113 59.9489 165.736 60.1288 166.243 60.4886C166.754 60.8437 167.114 61.3291 167.322 61.9446H167.436C167.677 61.3385 168.084 60.8556 168.657 60.4957C169.235 60.1312 169.919 59.9489 170.71 59.9489C171.714 59.9489 172.533 60.2661 173.167 60.9006C173.802 61.535 174.119 62.4607 174.119 63.6776V71H171.541V64.0753C171.541 63.3982 171.361 62.9034 171.001 62.5909C170.641 62.2737 170.201 62.1151 169.68 62.1151C169.06 62.1151 168.574 62.3092 168.224 62.6974C167.878 63.081 167.706 63.5805 167.706 64.196V71H165.184V63.9688C165.184 63.4053 165.014 62.9555 164.673 62.6193C164.337 62.2831 163.896 62.1151 163.352 62.1151C162.983 62.1151 162.646 62.2098 162.343 62.3991C162.04 62.5838 161.799 62.8466 161.619 63.1875C161.439 63.5237 161.349 63.9167 161.349 64.3665V71H158.778ZM179.866 71.2202C179.175 71.2202 178.553 71.0971 177.999 70.8509C177.449 70.5999 177.014 70.2306 176.692 69.7429C176.375 69.2552 176.216 68.6539 176.216 67.9389C176.216 67.3234 176.33 66.8144 176.557 66.4119C176.784 66.0095 177.094 65.6875 177.487 65.446C177.88 65.2045 178.323 65.0223 178.815 64.8991C179.313 64.7713 179.826 64.679 180.357 64.6222C180.996 64.5559 181.514 64.4967 181.912 64.4446C182.31 64.3878 182.598 64.3026 182.778 64.1889C182.963 64.0705 183.055 63.8883 183.055 63.642V63.5994C183.055 63.0644 182.897 62.6501 182.58 62.3565C182.262 62.063 181.805 61.9162 181.209 61.9162C180.579 61.9162 180.08 62.0535 179.71 62.3281C179.346 62.6027 179.099 62.9271 178.972 63.3011L176.571 62.9602C176.76 62.2973 177.073 61.7434 177.509 61.2983C177.944 60.8485 178.477 60.5123 179.107 60.2898C179.736 60.0625 180.432 59.9489 181.195 59.9489C181.72 59.9489 182.243 60.0104 182.764 60.1335C183.285 60.2566 183.761 60.4602 184.192 60.7443C184.623 61.0237 184.968 61.4048 185.229 61.8878C185.494 62.3707 185.626 62.9744 185.626 63.6989V71H183.155V69.5014H183.07C182.913 69.8045 182.693 70.0885 182.409 70.3537C182.13 70.6141 181.777 70.8248 181.351 70.9858C180.929 71.142 180.435 71.2202 179.866 71.2202ZM180.534 69.331C181.05 69.331 181.498 69.2292 181.876 69.0256C182.255 68.8172 182.546 68.5426 182.75 68.2017C182.958 67.8608 183.062 67.4891 183.062 67.0866V65.8011C182.982 65.8674 182.845 65.929 182.651 65.9858C182.461 66.0426 182.248 66.0923 182.011 66.1349C181.775 66.1776 181.54 66.2154 181.308 66.2486C181.076 66.2817 180.875 66.3101 180.705 66.3338C180.321 66.3859 179.978 66.4711 179.675 66.5895C179.372 66.7079 179.133 66.8736 178.957 67.0866C178.782 67.295 178.695 67.5649 178.695 67.8963C178.695 68.3698 178.867 68.7273 179.213 68.9688C179.559 69.2102 179.999 69.331 180.534 69.331ZM193.659 60.0909V62.0795H187.388V60.0909H193.659ZM188.936 57.4773H191.507V67.7188C191.507 68.0644 191.559 68.3295 191.663 68.5142C191.772 68.6941 191.914 68.8172 192.089 68.8835C192.265 68.9498 192.459 68.983 192.672 68.983C192.833 68.983 192.98 68.9711 193.112 68.9474C193.25 68.9238 193.354 68.9025 193.425 68.8835L193.858 70.8935C193.721 70.9408 193.524 70.9929 193.268 71.0497C193.018 71.1065 192.71 71.1397 192.345 71.1491C191.701 71.1681 191.121 71.071 190.605 70.858C190.089 70.6402 189.679 70.304 189.376 69.8494C189.078 69.3949 188.931 68.8267 188.936 68.1449V57.4773ZM202.07 63.8835V66H195.522V63.8835H202.07ZM207.913 71.2202C207.222 71.2202 206.599 71.0971 206.045 70.8509C205.496 70.5999 205.061 70.2306 204.739 69.7429C204.421 69.2552 204.263 68.6539 204.263 67.9389C204.263 67.3234 204.376 66.8144 204.604 66.4119C204.831 66.0095 205.141 65.6875 205.534 65.446C205.927 65.2045 206.37 65.0223 206.862 64.8991C207.359 64.7713 207.873 64.679 208.403 64.6222C209.043 64.5559 209.561 64.4967 209.959 64.4446C210.357 64.3878 210.645 64.3026 210.825 64.1889C211.01 64.0705 211.102 63.8883 211.102 63.642V63.5994C211.102 63.0644 210.944 62.6501 210.626 62.3565C210.309 62.063 209.852 61.9162 209.256 61.9162C208.626 61.9162 208.126 62.0535 207.757 62.3281C207.393 62.6027 207.146 62.9271 207.018 63.3011L204.618 62.9602C204.807 62.2973 205.12 61.7434 205.555 61.2983C205.991 60.8485 206.524 60.5123 207.153 60.2898C207.783 60.0625 208.479 59.9489 209.241 59.9489C209.767 59.9489 210.29 60.0104 210.811 60.1335C211.332 60.2566 211.808 60.4602 212.239 60.7443C212.67 61.0237 213.015 61.4048 213.276 61.8878C213.541 62.3707 213.673 62.9744 213.673 63.6989V71H211.202V69.5014H211.116C210.96 69.8045 210.74 70.0885 210.456 70.3537C210.177 70.6141 209.824 70.8248 209.398 70.9858C208.976 71.142 208.482 71.2202 207.913 71.2202ZM208.581 69.331C209.097 69.331 209.545 69.2292 209.923 69.0256C210.302 68.8172 210.593 68.5426 210.797 68.2017C211.005 67.8608 211.109 67.4891 211.109 67.0866V65.8011C211.029 65.8674 210.892 65.929 210.697 65.9858C210.508 66.0426 210.295 66.0923 210.058 66.1349C209.821 66.1776 209.587 66.2154 209.355 66.2486C209.123 66.2817 208.922 66.3101 208.751 66.3338C208.368 66.3859 208.025 66.4711 207.722 66.5895C207.419 66.7079 207.179 66.8736 207.004 67.0866C206.829 67.295 206.741 67.5649 206.741 67.8963C206.741 68.3698 206.914 68.7273 207.26 68.9688C207.606 69.2102 208.046 69.331 208.581 69.331ZM223.212 66.4119V60.0909H225.783V71H223.29V69.0611H223.176C222.93 69.6719 222.525 70.1714 221.962 70.5597C221.403 70.9479 220.714 71.142 219.895 71.142C219.18 71.142 218.548 70.9834 217.999 70.6662C217.454 70.3442 217.028 69.8778 216.72 69.267C216.412 68.6515 216.259 67.9081 216.259 67.0369V60.0909H218.83V66.6392C218.83 67.3305 219.019 67.8797 219.398 68.2869C219.777 68.6941 220.274 68.8977 220.889 68.8977C221.268 68.8977 221.635 68.8054 221.99 68.6207C222.345 68.4361 222.636 68.1615 222.864 67.7969C223.096 67.4276 223.212 66.9659 223.212 66.4119ZM233.874 60.0909V62.0795H227.603V60.0909H233.874ZM229.151 57.4773H231.722V67.7188C231.722 68.0644 231.774 68.3295 231.878 68.5142C231.987 68.6941 232.129 68.8172 232.304 68.8835C232.48 68.9498 232.674 68.983 232.887 68.983C233.048 68.983 233.194 68.9711 233.327 68.9474C233.464 68.9238 233.569 68.9025 233.64 68.8835L234.073 70.8935C233.935 70.9408 233.739 70.9929 233.483 71.0497C233.232 71.1065 232.925 71.1397 232.56 71.1491C231.916 71.1681 231.336 71.071 230.82 70.858C230.304 70.6402 229.894 70.304 229.591 69.8494C229.293 69.3949 229.146 68.8267 229.151 68.1449V57.4773ZM240.665 71.2131C239.6 71.2131 238.677 70.9787 237.896 70.5099C237.114 70.0412 236.508 69.3854 236.077 68.5426C235.651 67.6998 235.438 66.715 235.438 65.5881C235.438 64.4612 235.651 63.474 236.077 62.6264C236.508 61.7789 237.114 61.1207 237.896 60.652C238.677 60.1832 239.6 59.9489 240.665 59.9489C241.731 59.9489 242.654 60.1832 243.435 60.652C244.217 61.1207 244.82 61.7789 245.246 62.6264C245.677 63.474 245.893 64.4612 245.893 65.5881C245.893 66.715 245.677 67.6998 245.246 68.5426C244.82 69.3854 244.217 70.0412 243.435 70.5099C242.654 70.9787 241.731 71.2131 240.665 71.2131ZM240.68 69.1534C241.257 69.1534 241.74 68.9948 242.129 68.6776C242.517 68.3556 242.806 67.9247 242.995 67.3849C243.189 66.8452 243.286 66.2438 243.286 65.581C243.286 64.9134 243.189 64.3097 242.995 63.7699C242.806 63.2254 242.517 62.7921 242.129 62.4702C241.74 62.1482 241.257 61.9872 240.68 61.9872C240.088 61.9872 239.595 62.1482 239.202 62.4702C238.814 62.7921 238.523 63.2254 238.329 63.7699C238.139 64.3097 238.045 64.9134 238.045 65.581C238.045 66.2438 238.139 66.8452 238.329 67.3849C238.523 67.9247 238.814 68.3556 239.202 68.6776C239.595 68.9948 240.088 69.1534 240.68 69.1534ZM252.833 71.2131C251.744 71.2131 250.809 70.974 250.028 70.4957C249.252 70.0175 248.653 69.357 248.231 68.5142C247.815 67.6667 247.606 66.6913 247.606 65.5881C247.606 64.4801 247.819 63.5024 248.245 62.6548C248.672 61.8026 249.273 61.1397 250.049 60.6662C250.831 60.188 251.754 59.9489 252.819 59.9489C253.705 59.9489 254.488 60.1122 255.17 60.4389C255.857 60.7609 256.404 61.2178 256.811 61.8097C257.218 62.3968 257.45 63.0833 257.507 63.8693H255.049C254.95 63.3437 254.713 62.9058 254.339 62.5554C253.97 62.2003 253.475 62.0227 252.855 62.0227C252.329 62.0227 251.868 62.1648 251.47 62.4489C251.072 62.7282 250.762 63.1307 250.539 63.6562C250.322 64.1818 250.213 64.8116 250.213 65.5455C250.213 66.2888 250.322 66.928 250.539 67.4631C250.757 67.9934 251.063 68.4029 251.456 68.6918C251.853 68.9759 252.32 69.1179 252.855 69.1179C253.234 69.1179 253.572 69.0469 253.87 68.9048C254.173 68.758 254.427 68.5473 254.63 68.2727C254.834 67.9981 254.974 67.6643 255.049 67.2713H257.507C257.445 68.0431 257.218 68.7273 256.825 69.3239C256.432 69.9157 255.897 70.3797 255.22 70.7159C254.543 71.0473 253.747 71.2131 252.833 71.2131ZM264.376 71.2131C263.311 71.2131 262.388 70.9787 261.607 70.5099C260.825 70.0412 260.219 69.3854 259.788 68.5426C259.362 67.6998 259.149 66.715 259.149 65.5881C259.149 64.4612 259.362 63.474 259.788 62.6264C260.219 61.7789 260.825 61.1207 261.607 60.652C262.388 60.1832 263.311 59.9489 264.376 59.9489C265.442 59.9489 266.365 60.1832 267.146 60.652C267.928 61.1207 268.531 61.7789 268.957 62.6264C269.388 63.474 269.604 64.4612 269.604 65.5881C269.604 66.715 269.388 67.6998 268.957 68.5426C268.531 69.3854 267.928 70.0412 267.146 70.5099C266.365 70.9787 265.442 71.2131 264.376 71.2131ZM264.391 69.1534C264.968 69.1534 265.451 68.9948 265.839 68.6776C266.228 68.3556 266.517 67.9247 266.706 67.3849C266.9 66.8452 266.997 66.2438 266.997 65.581C266.997 64.9134 266.9 64.3097 266.706 63.7699C266.517 63.2254 266.228 62.7921 265.839 62.4702C265.451 62.1482 264.968 61.9872 264.391 61.9872C263.799 61.9872 263.306 62.1482 262.913 62.4702C262.525 62.7921 262.234 63.2254 262.04 63.7699C261.85 64.3097 261.756 64.9134 261.756 65.581C261.756 66.2438 261.85 66.8452 262.04 67.3849C262.234 67.9247 262.525 68.3556 262.913 68.6776C263.306 68.9948 263.799 69.1534 264.391 69.1534ZM271.786 71V60.0909H274.243V61.9446H274.371C274.598 61.3196 274.975 60.8319 275.5 60.4815C276.026 60.1264 276.653 59.9489 277.382 59.9489C278.121 59.9489 278.744 60.1288 279.25 60.4886C279.762 60.8437 280.122 61.3291 280.33 61.9446H280.444C280.685 61.3385 281.092 60.8556 281.665 60.4957C282.243 60.1312 282.927 59.9489 283.718 59.9489C284.721 59.9489 285.541 60.2661 286.175 60.9006C286.81 61.535 287.127 62.4607 287.127 63.6776V71H284.549V64.0753C284.549 63.3982 284.369 62.9034 284.009 62.5909C283.649 62.2737 283.209 62.1151 282.688 62.1151C282.068 62.1151 281.582 62.3092 281.232 62.6974C280.886 63.081 280.713 63.5805 280.713 64.196V71H278.192V63.9688C278.192 63.4053 278.022 62.9555 277.681 62.6193C277.345 62.2831 276.904 62.1151 276.36 62.1151C275.99 62.1151 275.654 62.2098 275.351 62.3991C275.048 62.5838 274.807 62.8466 274.627 63.1875C274.447 63.5237 274.357 63.9167 274.357 64.3665V71H271.786ZM289.735 75.0909V60.0909H292.263V61.8949H292.413C292.545 61.6297 292.732 61.348 292.974 61.0497C293.215 60.7467 293.542 60.4886 293.954 60.2756C294.366 60.0578 294.891 59.9489 295.531 59.9489C296.373 59.9489 297.133 60.1643 297.81 60.5952C298.492 61.0213 299.032 61.6534 299.43 62.4915C299.832 63.3248 300.033 64.3475 300.033 65.5597C300.033 66.7576 299.837 67.7756 299.444 68.6136C299.051 69.4517 298.516 70.0909 297.839 70.5312C297.162 70.9716 296.395 71.1918 295.538 71.1918C294.913 71.1918 294.394 71.0876 293.982 70.8793C293.57 70.6709 293.239 70.42 292.988 70.1264C292.742 69.8281 292.55 69.5464 292.413 69.2812H292.306V75.0909H289.735ZM292.256 65.5455C292.256 66.2509 292.356 66.8688 292.555 67.3991C292.758 67.9295 293.049 68.3437 293.428 68.642C293.812 68.9356 294.276 69.0824 294.82 69.0824C295.388 69.0824 295.864 68.9309 296.248 68.6278C296.631 68.3201 296.92 67.901 297.114 67.3707C297.313 66.8357 297.413 66.2273 297.413 65.5455C297.413 64.8684 297.316 64.267 297.121 63.7415C296.927 63.2159 296.638 62.804 296.255 62.5057C295.871 62.2074 295.393 62.0582 294.82 62.0582C294.271 62.0582 293.805 62.2027 293.421 62.4915C293.038 62.7803 292.746 63.1851 292.548 63.706C292.353 64.2268 292.256 64.84 292.256 65.5455ZM304.806 56.4545V71H302.235V56.4545H304.806ZM312.279 71.2131C311.186 71.2131 310.241 70.9858 309.446 70.5312C308.655 70.072 308.047 69.4233 307.62 68.5852C307.194 67.7424 306.981 66.7505 306.981 65.6094C306.981 64.4872 307.194 63.5024 307.62 62.6548C308.051 61.8026 308.653 61.1397 309.424 60.6662C310.196 60.188 311.103 59.9489 312.145 59.9489C312.817 59.9489 313.451 60.0578 314.048 60.2756C314.649 60.4886 315.18 60.8201 315.639 61.2699C316.103 61.7197 316.467 62.2926 316.733 62.9886C316.998 63.6799 317.13 64.5038 317.13 65.4602V66.2486H308.189V64.5156H314.666C314.661 64.0232 314.555 63.5852 314.346 63.2017C314.138 62.8134 313.847 62.508 313.473 62.2855C313.103 62.063 312.672 61.9517 312.18 61.9517C311.654 61.9517 311.193 62.0795 310.795 62.3352C310.397 62.5862 310.087 62.9176 309.865 63.3295C309.647 63.7367 309.536 64.1842 309.531 64.6719V66.1847C309.531 66.8191 309.647 67.3636 309.879 67.8182C310.111 68.268 310.435 68.6136 310.852 68.8551C311.269 69.0919 311.756 69.2102 312.315 69.2102C312.689 69.2102 313.028 69.1581 313.331 69.054C313.634 68.9451 313.896 68.7865 314.119 68.5781C314.342 68.3698 314.51 68.1117 314.623 67.804L317.024 68.0739C316.872 68.7083 316.583 69.2623 316.157 69.7358C315.736 70.2045 315.196 70.5691 314.538 70.8295C313.88 71.0852 313.127 71.2131 312.279 71.2131ZM324.753 60.0909V62.0795H318.482V60.0909H324.753ZM320.03 57.4773H322.601V67.7188C322.601 68.0644 322.653 68.3295 322.757 68.5142C322.866 68.6941 323.008 68.8172 323.183 68.8835C323.358 68.9498 323.553 68.983 323.766 68.983C323.927 68.983 324.073 68.9711 324.206 68.9474C324.343 68.9238 324.447 68.9025 324.518 68.8835L324.952 70.8935C324.814 70.9408 324.618 70.9929 324.362 71.0497C324.111 71.1065 323.804 71.1397 323.439 71.1491C322.795 71.1681 322.215 71.071 321.699 70.858C321.183 70.6402 320.773 70.304 320.47 69.8494C320.172 69.3949 320.025 68.8267 320.03 68.1449V57.4773ZM331.615 71.2131C330.522 71.2131 329.577 70.9858 328.782 70.5312C327.991 70.072 327.382 69.4233 326.956 68.5852C326.53 67.7424 326.317 66.7505 326.317 65.6094C326.317 64.4872 326.53 63.5024 326.956 62.6548C327.387 61.8026 327.989 61.1397 328.76 60.6662C329.532 60.188 330.439 59.9489 331.48 59.9489C332.153 59.9489 332.787 60.0578 333.384 60.2756C333.985 60.4886 334.516 60.8201 334.975 61.2699C335.439 61.7197 335.803 62.2926 336.069 62.9886C336.334 63.6799 336.466 64.5038 336.466 65.4602V66.2486H327.525V64.5156H334.002C333.997 64.0232 333.891 63.5852 333.682 63.2017C333.474 62.8134 333.183 62.508 332.809 62.2855C332.439 62.063 332.008 61.9517 331.516 61.9517C330.99 61.9517 330.529 62.0795 330.131 62.3352C329.733 62.5862 329.423 62.9176 329.201 63.3295C328.983 63.7367 328.872 64.1842 328.867 64.6719V66.1847C328.867 66.8191 328.983 67.3636 329.215 67.8182C329.447 68.268 329.771 68.6136 330.188 68.8551C330.605 69.0919 331.092 69.2102 331.651 69.2102C332.025 69.2102 332.364 69.1581 332.667 69.054C332.97 68.9451 333.232 68.7865 333.455 68.5781C333.677 68.3698 333.846 68.1117 333.959 67.804L336.36 68.0739C336.208 68.7083 335.919 69.2623 335.493 69.7358C335.072 70.2045 334.532 70.5691 333.874 70.8295C333.216 71.0852 332.463 71.2131 331.615 71.2131ZM150.804 100L153.19 85.4545H155.179L152.793 100H150.804ZM144.249 96.25L144.582 94.2614H155.776L155.442 96.25H144.249ZM145.69 100L148.077 85.4545H150.065L147.679 100H145.69ZM145.094 91.1932L145.42 89.2045H156.614L156.287 91.1932H145.094ZM161.331 100.22C160.64 100.22 160.017 100.097 159.463 99.8509C158.914 99.5999 158.479 99.2306 158.157 98.7429C157.839 98.2552 157.681 97.6539 157.681 96.9389C157.681 96.3234 157.794 95.8144 158.022 95.4119C158.249 95.0095 158.559 94.6875 158.952 94.446C159.345 94.2045 159.788 94.0223 160.28 93.8991C160.777 93.7713 161.291 93.679 161.821 93.6222C162.461 93.5559 162.979 93.4967 163.377 93.4446C163.775 93.3878 164.063 93.3026 164.243 93.1889C164.428 93.0705 164.52 92.8883 164.52 92.642V92.5994C164.52 92.0644 164.362 91.6501 164.044 91.3565C163.727 91.063 163.27 90.9162 162.674 90.9162C162.044 90.9162 161.544 91.0535 161.175 91.3281C160.81 91.6027 160.564 91.9271 160.436 92.3011L158.036 91.9602C158.225 91.2973 158.538 90.7434 158.973 90.2983C159.409 89.8485 159.942 89.5123 160.571 89.2898C161.201 89.0625 161.897 88.9489 162.659 88.9489C163.185 88.9489 163.708 89.0104 164.229 89.1335C164.75 89.2566 165.226 89.4602 165.657 89.7443C166.087 90.0237 166.433 90.4048 166.694 90.8878C166.959 91.3707 167.091 91.9744 167.091 92.6989V100H164.62V98.5014H164.534C164.378 98.8045 164.158 99.0885 163.874 99.3537C163.595 99.6141 163.242 99.8248 162.816 99.9858C162.394 100.142 161.9 100.22 161.331 100.22ZM161.999 98.331C162.515 98.331 162.962 98.2292 163.341 98.0256C163.72 97.8172 164.011 97.5426 164.215 97.2017C164.423 96.8608 164.527 96.4891 164.527 96.0866V94.8011C164.447 94.8674 164.31 94.929 164.115 94.9858C163.926 95.0426 163.713 95.0923 163.476 95.1349C163.239 95.1776 163.005 95.2154 162.773 95.2486C162.541 95.2817 162.34 95.3101 162.169 95.3338C161.786 95.3859 161.443 95.4711 161.14 95.5895C160.837 95.7079 160.597 95.8736 160.422 96.0866C160.247 96.295 160.159 96.5649 160.159 96.8963C160.159 97.3698 160.332 97.7273 160.678 97.9688C161.024 98.2102 161.464 98.331 161.999 98.331ZM176.63 95.4119V89.0909H179.201V100H176.708V98.0611H176.594C176.348 98.6719 175.943 99.1714 175.38 99.5597C174.821 99.9479 174.132 100.142 173.313 100.142C172.598 100.142 171.966 99.9834 171.417 99.6662C170.872 99.3442 170.446 98.8778 170.138 98.267C169.83 97.6515 169.676 96.9081 169.676 96.0369V89.0909H172.248V95.6392C172.248 96.3305 172.437 96.8797 172.816 97.2869C173.194 97.6941 173.692 97.8977 174.307 97.8977C174.686 97.8977 175.053 97.8054 175.408 97.6207C175.763 97.4361 176.054 97.1615 176.282 96.7969C176.514 96.4276 176.63 95.9659 176.63 95.4119ZM187.292 89.0909V91.0795H181.021V89.0909H187.292ZM182.569 86.4773H185.14V96.7188C185.14 97.0644 185.192 97.3295 185.296 97.5142C185.405 97.6941 185.547 97.8172 185.722 97.8835C185.897 97.9498 186.092 97.983 186.305 97.983C186.466 97.983 186.612 97.9711 186.745 97.9474C186.882 97.9238 186.987 97.9025 187.058 97.8835L187.491 99.8935C187.353 99.9408 187.157 99.9929 186.901 100.05C186.65 100.107 186.343 100.14 185.978 100.149C185.334 100.168 184.754 100.071 184.238 99.858C183.722 99.6402 183.312 99.304 183.009 98.8494C182.711 98.3949 182.564 97.8267 182.569 97.1449V86.4773ZM194.083 100.213C193.018 100.213 192.095 99.9787 191.314 99.5099C190.532 99.0412 189.926 98.3854 189.495 97.5426C189.069 96.6998 188.856 95.715 188.856 94.5881C188.856 93.4612 189.069 92.474 189.495 91.6264C189.926 90.7789 190.532 90.1207 191.314 89.652C192.095 89.1832 193.018 88.9489 194.083 88.9489C195.149 88.9489 196.072 89.1832 196.853 89.652C197.635 90.1207 198.238 90.7789 198.664 91.6264C199.095 92.474 199.311 93.4612 199.311 94.5881C199.311 95.715 199.095 96.6998 198.664 97.5426C198.238 98.3854 197.635 99.0412 196.853 99.5099C196.072 99.9787 195.149 100.213 194.083 100.213ZM194.098 98.1534C194.675 98.1534 195.158 97.9948 195.547 97.6776C195.935 97.3556 196.224 96.9247 196.413 96.3849C196.607 95.8452 196.704 95.2438 196.704 94.581C196.704 93.9134 196.607 93.3097 196.413 92.7699C196.224 92.2254 195.935 91.7921 195.547 91.4702C195.158 91.1482 194.675 90.9872 194.098 90.9872C193.506 90.9872 193.013 91.1482 192.62 91.4702C192.232 91.7921 191.941 92.2254 191.747 92.7699C191.557 93.3097 191.463 93.9134 191.463 94.581C191.463 95.2438 191.557 95.8452 191.747 96.3849C191.941 96.9247 192.232 97.3556 192.62 97.6776C193.013 97.9948 193.506 98.1534 194.098 98.1534ZM202.175 93.054V90.8594H211.628V93.054H202.175ZM202.175 97.5994V95.4048H211.628V97.5994H202.175ZM147.097 114.455V119.81H145.136V114.455H147.097ZM150.754 114.455V119.81H148.794V114.455H150.754ZM153.231 129V118.091H155.689V119.945H155.816C156.044 119.32 156.42 118.832 156.946 118.482C157.471 118.126 158.099 117.949 158.828 117.949C159.566 117.949 160.189 118.129 160.696 118.489C161.207 118.844 161.567 119.329 161.775 119.945H161.889C162.13 119.339 162.538 118.856 163.11 118.496C163.688 118.131 164.372 117.949 165.163 117.949C166.167 117.949 166.986 118.266 167.62 118.901C168.255 119.535 168.572 120.461 168.572 121.678V129H165.994V122.075C165.994 121.398 165.814 120.903 165.454 120.591C165.094 120.274 164.654 120.115 164.133 120.115C163.513 120.115 163.028 120.309 162.677 120.697C162.332 121.081 162.159 121.58 162.159 122.196V129H159.637V121.969C159.637 121.405 159.467 120.955 159.126 120.619C158.79 120.283 158.35 120.115 157.805 120.115C157.436 120.115 157.1 120.21 156.797 120.399C156.493 120.584 156.252 120.847 156.072 121.188C155.892 121.524 155.802 121.917 155.802 122.366V129H153.231ZM174.32 129.22C173.628 129.22 173.006 129.097 172.452 128.851C171.902 128.6 171.467 128.231 171.145 127.743C170.828 127.255 170.669 126.654 170.669 125.939C170.669 125.323 170.783 124.814 171.01 124.412C171.237 124.009 171.547 123.688 171.94 123.446C172.333 123.205 172.776 123.022 173.268 122.899C173.766 122.771 174.279 122.679 174.81 122.622C175.449 122.556 175.967 122.497 176.365 122.445C176.763 122.388 177.052 122.303 177.232 122.189C177.416 122.071 177.509 121.888 177.509 121.642V121.599C177.509 121.064 177.35 120.65 177.033 120.357C176.715 120.063 176.259 119.916 175.662 119.916C175.032 119.916 174.533 120.054 174.163 120.328C173.799 120.603 173.553 120.927 173.425 121.301L171.024 120.96C171.214 120.297 171.526 119.743 171.962 119.298C172.397 118.848 172.93 118.512 173.56 118.29C174.189 118.062 174.885 117.949 175.648 117.949C176.173 117.949 176.696 118.01 177.217 118.134C177.738 118.257 178.214 118.46 178.645 118.744C179.076 119.024 179.421 119.405 179.682 119.888C179.947 120.371 180.08 120.974 180.08 121.699V129H177.608V127.501H177.523C177.366 127.804 177.146 128.089 176.862 128.354C176.583 128.614 176.23 128.825 175.804 128.986C175.383 129.142 174.888 129.22 174.32 129.22ZM174.987 127.331C175.503 127.331 175.951 127.229 176.33 127.026C176.708 126.817 177 126.543 177.203 126.202C177.411 125.861 177.516 125.489 177.516 125.087V123.801C177.435 123.867 177.298 123.929 177.104 123.986C176.914 124.043 176.701 124.092 176.464 124.135C176.228 124.178 175.993 124.215 175.761 124.249C175.529 124.282 175.328 124.31 175.158 124.334C174.774 124.386 174.431 124.471 174.128 124.589C173.825 124.708 173.586 124.874 173.411 125.087C173.235 125.295 173.148 125.565 173.148 125.896C173.148 126.37 173.321 126.727 173.666 126.969C174.012 127.21 174.452 127.331 174.987 127.331ZM188.112 118.091V120.08H181.841V118.091H188.112ZM183.389 115.477H185.96V125.719C185.96 126.064 186.012 126.33 186.116 126.514C186.225 126.694 186.367 126.817 186.543 126.884C186.718 126.95 186.912 126.983 187.125 126.983C187.286 126.983 187.433 126.971 187.565 126.947C187.703 126.924 187.807 126.902 187.878 126.884L188.311 128.893C188.174 128.941 187.977 128.993 187.722 129.05C187.471 129.107 187.163 129.14 186.798 129.149C186.154 129.168 185.574 129.071 185.058 128.858C184.542 128.64 184.133 128.304 183.83 127.849C183.531 127.395 183.384 126.827 183.389 126.145V115.477ZM192.244 129H189.431L194.552 114.455H197.805L202.933 129H200.12L196.235 117.438H196.122L192.244 129ZM192.336 123.297H200.007V125.413H192.336V123.297ZM211.688 124.412V118.091H214.259V129H211.766V127.061H211.653C211.406 127.672 211.002 128.171 210.438 128.56C209.879 128.948 209.191 129.142 208.371 129.142C207.656 129.142 207.024 128.983 206.475 128.666C205.931 128.344 205.504 127.878 205.197 127.267C204.889 126.652 204.735 125.908 204.735 125.037V118.091H207.306V124.639C207.306 125.33 207.496 125.88 207.874 126.287C208.253 126.694 208.75 126.898 209.366 126.898C209.745 126.898 210.112 126.805 210.467 126.621C210.822 126.436 211.113 126.161 211.34 125.797C211.572 125.428 211.688 124.966 211.688 124.412ZM222.35 118.091V120.08H216.079V118.091H222.35ZM217.627 115.477H220.199V125.719C220.199 126.064 220.251 126.33 220.355 126.514C220.464 126.694 220.606 126.817 220.781 126.884C220.956 126.95 221.15 126.983 221.363 126.983C221.524 126.983 221.671 126.971 221.804 126.947C221.941 126.924 222.045 126.902 222.116 126.884L222.549 128.893C222.412 128.941 222.216 128.993 221.96 129.05C221.709 129.107 221.401 129.14 221.037 129.149C220.393 129.168 219.813 129.071 219.297 128.858C218.78 128.64 218.371 128.304 218.068 127.849C217.77 127.395 217.623 126.827 217.627 126.145V115.477ZM229.142 129.213C228.077 129.213 227.153 128.979 226.372 128.51C225.591 128.041 224.985 127.385 224.554 126.543C224.128 125.7 223.915 124.715 223.915 123.588C223.915 122.461 224.128 121.474 224.554 120.626C224.985 119.779 225.591 119.121 226.372 118.652C227.153 118.183 228.077 117.949 229.142 117.949C230.207 117.949 231.131 118.183 231.912 118.652C232.693 119.121 233.297 119.779 233.723 120.626C234.154 121.474 234.369 122.461 234.369 123.588C234.369 124.715 234.154 125.7 233.723 126.543C233.297 127.385 232.693 128.041 231.912 128.51C231.131 128.979 230.207 129.213 229.142 129.213ZM229.156 127.153C229.734 127.153 230.217 126.995 230.605 126.678C230.993 126.356 231.282 125.925 231.472 125.385C231.666 124.845 231.763 124.244 231.763 123.581C231.763 122.913 231.666 122.31 231.472 121.77C231.282 121.225 230.993 120.792 230.605 120.47C230.217 120.148 229.734 119.987 229.156 119.987C228.564 119.987 228.072 120.148 227.679 120.47C227.291 120.792 227 121.225 226.805 121.77C226.616 122.31 226.521 122.913 226.521 123.581C226.521 124.244 226.616 124.845 226.805 125.385C227 125.925 227.291 126.356 227.679 126.678C228.072 126.995 228.564 127.153 229.156 127.153ZM241.31 129.213C240.221 129.213 239.286 128.974 238.505 128.496C237.728 128.018 237.129 127.357 236.708 126.514C236.291 125.667 236.083 124.691 236.083 123.588C236.083 122.48 236.296 121.502 236.722 120.655C237.148 119.803 237.749 119.14 238.526 118.666C239.307 118.188 240.23 117.949 241.296 117.949C242.181 117.949 242.965 118.112 243.647 118.439C244.333 118.761 244.88 119.218 245.287 119.81C245.694 120.397 245.926 121.083 245.983 121.869H243.526C243.426 121.344 243.19 120.906 242.816 120.555C242.446 120.2 241.952 120.023 241.331 120.023C240.806 120.023 240.344 120.165 239.946 120.449C239.549 120.728 239.239 121.131 239.016 121.656C238.798 122.182 238.689 122.812 238.689 123.545C238.689 124.289 238.798 124.928 239.016 125.463C239.234 125.993 239.539 126.403 239.932 126.692C240.33 126.976 240.796 127.118 241.331 127.118C241.71 127.118 242.049 127.047 242.347 126.905C242.65 126.758 242.903 126.547 243.107 126.273C243.31 125.998 243.45 125.664 243.526 125.271H245.983C245.922 126.043 245.694 126.727 245.301 127.324C244.908 127.916 244.373 128.38 243.696 128.716C243.019 129.047 242.224 129.213 241.31 129.213ZM252.853 129.213C251.788 129.213 250.864 128.979 250.083 128.51C249.302 128.041 248.696 127.385 248.265 126.543C247.839 125.7 247.626 124.715 247.626 123.588C247.626 122.461 247.839 121.474 248.265 120.626C248.696 119.779 249.302 119.121 250.083 118.652C250.864 118.183 251.788 117.949 252.853 117.949C253.918 117.949 254.842 118.183 255.623 118.652C256.404 119.121 257.008 119.779 257.434 120.626C257.865 121.474 258.08 122.461 258.08 123.588C258.08 124.715 257.865 125.7 257.434 126.543C257.008 127.385 256.404 128.041 255.623 128.51C254.842 128.979 253.918 129.213 252.853 129.213ZM252.867 127.153C253.445 127.153 253.928 126.995 254.316 126.678C254.704 126.356 254.993 125.925 255.183 125.385C255.377 124.845 255.474 124.244 255.474 123.581C255.474 122.913 255.377 122.31 255.183 121.77C254.993 121.225 254.704 120.792 254.316 120.47C253.928 120.148 253.445 119.987 252.867 119.987C252.275 119.987 251.783 120.148 251.39 120.47C251.002 120.792 250.71 121.225 250.516 121.77C250.327 122.31 250.232 122.913 250.232 123.581C250.232 124.244 250.327 124.845 250.516 125.385C250.71 125.925 251.002 126.356 251.39 126.678C251.783 126.995 252.275 127.153 252.867 127.153ZM260.262 129V118.091H262.72V119.945H262.848C263.075 119.32 263.451 118.832 263.977 118.482C264.502 118.126 265.13 117.949 265.859 117.949C266.598 117.949 267.22 118.129 267.727 118.489C268.238 118.844 268.598 119.329 268.806 119.945H268.92C269.162 119.339 269.569 118.856 270.142 118.496C270.719 118.131 271.404 117.949 272.194 117.949C273.198 117.949 274.017 118.266 274.652 118.901C275.286 119.535 275.603 120.461 275.603 121.678V129H273.025V122.075C273.025 121.398 272.845 120.903 272.485 120.591C272.126 120.274 271.685 120.115 271.164 120.115C270.544 120.115 270.059 120.309 269.708 120.697C269.363 121.081 269.19 121.58 269.19 122.196V129H266.669V121.969C266.669 121.405 266.498 120.955 266.157 120.619C265.821 120.283 265.381 120.115 264.836 120.115C264.467 120.115 264.131 120.21 263.828 120.399C263.525 120.584 263.283 120.847 263.103 121.188C262.923 121.524 262.833 121.917 262.833 122.366V129H260.262ZM278.212 133.091V118.091H280.74V119.895H280.889C281.022 119.63 281.209 119.348 281.45 119.05C281.692 118.747 282.018 118.489 282.43 118.276C282.842 118.058 283.368 117.949 284.007 117.949C284.85 117.949 285.61 118.164 286.287 118.595C286.969 119.021 287.509 119.653 287.906 120.491C288.309 121.325 288.51 122.348 288.51 123.56C288.51 124.758 288.313 125.776 287.92 126.614C287.527 127.452 286.992 128.091 286.315 128.531C285.638 128.972 284.871 129.192 284.014 129.192C283.389 129.192 282.871 129.088 282.459 128.879C282.047 128.671 281.715 128.42 281.464 128.126C281.218 127.828 281.027 127.546 280.889 127.281H280.783V133.091H278.212ZM280.733 123.545C280.733 124.251 280.832 124.869 281.031 125.399C281.235 125.929 281.526 126.344 281.905 126.642C282.288 126.936 282.752 127.082 283.297 127.082C283.865 127.082 284.341 126.931 284.724 126.628C285.108 126.32 285.397 125.901 285.591 125.371C285.79 124.836 285.889 124.227 285.889 123.545C285.889 122.868 285.792 122.267 285.598 121.741C285.404 121.216 285.115 120.804 284.732 120.506C284.348 120.207 283.87 120.058 283.297 120.058C282.748 120.058 282.281 120.203 281.898 120.491C281.514 120.78 281.223 121.185 281.024 121.706C280.83 122.227 280.733 122.84 280.733 123.545ZM293.283 114.455V129H290.712V114.455H293.283ZM300.756 129.213C299.662 129.213 298.718 128.986 297.922 128.531C297.132 128.072 296.523 127.423 296.097 126.585C295.671 125.742 295.458 124.75 295.458 123.609C295.458 122.487 295.671 121.502 296.097 120.655C296.528 119.803 297.129 119.14 297.901 118.666C298.673 118.188 299.579 117.949 300.621 117.949C301.293 117.949 301.928 118.058 302.525 118.276C303.126 118.489 303.656 118.82 304.115 119.27C304.579 119.72 304.944 120.293 305.209 120.989C305.474 121.68 305.607 122.504 305.607 123.46V124.249H296.665V122.516H303.142C303.138 122.023 303.031 121.585 302.823 121.202C302.614 120.813 302.323 120.508 301.949 120.286C301.58 120.063 301.149 119.952 300.657 119.952C300.131 119.952 299.669 120.08 299.272 120.335C298.874 120.586 298.564 120.918 298.341 121.33C298.123 121.737 298.012 122.184 298.007 122.672V124.185C298.007 124.819 298.123 125.364 298.355 125.818C298.587 126.268 298.912 126.614 299.328 126.855C299.745 127.092 300.233 127.21 300.792 127.21C301.166 127.21 301.504 127.158 301.807 127.054C302.11 126.945 302.373 126.786 302.596 126.578C302.818 126.37 302.986 126.112 303.1 125.804L305.5 126.074C305.349 126.708 305.06 127.262 304.634 127.736C304.212 128.205 303.673 128.569 303.015 128.83C302.356 129.085 301.604 129.213 300.756 129.213ZM313.229 118.091V120.08H306.958V118.091H313.229ZM308.506 115.477H311.077V125.719C311.077 126.064 311.129 126.33 311.234 126.514C311.343 126.694 311.485 126.817 311.66 126.884C311.835 126.95 312.029 126.983 312.242 126.983C312.403 126.983 312.55 126.971 312.683 126.947C312.82 126.924 312.924 126.902 312.995 126.884L313.428 128.893C313.291 128.941 313.094 128.993 312.839 129.05C312.588 129.107 312.28 129.14 311.915 129.149C311.272 129.168 310.692 129.071 310.175 128.858C309.659 128.64 309.25 128.304 308.947 127.849C308.648 127.395 308.502 126.827 308.506 126.145V115.477ZM320.092 129.213C318.998 129.213 318.054 128.986 317.258 128.531C316.467 128.072 315.859 127.423 315.433 126.585C315.007 125.742 314.794 124.75 314.794 123.609C314.794 122.487 315.007 121.502 315.433 120.655C315.864 119.803 316.465 119.14 317.237 118.666C318.009 118.188 318.915 117.949 319.957 117.949C320.629 117.949 321.264 118.058 321.86 118.276C322.462 118.489 322.992 118.82 323.451 119.27C323.915 119.72 324.28 120.293 324.545 120.989C324.81 121.68 324.943 122.504 324.943 123.46V124.249H316.001V122.516H322.478C322.474 122.023 322.367 121.585 322.159 121.202C321.95 120.813 321.659 120.508 321.285 120.286C320.916 120.063 320.485 119.952 319.993 119.952C319.467 119.952 319.005 120.08 318.608 120.335C318.21 120.586 317.9 120.918 317.677 121.33C317.459 121.737 317.348 122.184 317.343 122.672V124.185C317.343 124.819 317.459 125.364 317.691 125.818C317.923 126.268 318.248 126.614 318.664 126.855C319.081 127.092 319.569 127.21 320.127 127.21C320.502 127.21 320.84 127.158 321.143 127.054C321.446 126.945 321.709 126.786 321.931 126.578C322.154 126.37 322.322 126.112 322.436 125.804L324.836 126.074C324.685 126.708 324.396 127.262 323.97 127.736C323.548 128.205 323.009 128.569 322.35 128.83C321.692 129.085 320.94 129.213 320.092 129.213ZM328.893 114.455V119.81H326.933V114.455H328.893ZM332.551 114.455V119.81H330.591V114.455H332.551ZM345.291 124.249L335.575 128.737V126.216L342.478 123.254L342.4 123.389V123.062L342.478 123.197L335.575 120.236V117.714L345.291 122.203V124.249Z" fill="#1C1C1C"/>
<circle cx="78.7721" cy="225.867" r="78.7721" fill="#F1F2F6"/>
<path d="M78.37 167.994L105.395 188.269L133.029 207.705L122.097 239.673L112.151 271.961L78.37 271.442L44.589 271.961L34.643 239.673L23.7113 207.705L51.3452 188.269L78.37 167.994Z" fill="#FF5223"/>
<defs>
<filter id="filter0_d_1097_156" x="94.4766" y="0" width="351.203" height="258.766" filterUnits="userSpaceOnUse" color-interpolation-filters="sRGB">
<feFlood flood-opacity="0" result="BackgroundImageFix"/>
<feColorMatrix in="SourceAlpha" type="matrix" values="0 0 0 0 0 0 0 0 0 0 0 0 0 0 0 0 0 0 127 0" result="hardAlpha"/>
<feOffset dy="6"/>
<feGaussianBlur stdDeviation="3"/>
<feComposite in2="hardAlpha" operator="out"/>
<feColorMatrix type="matrix" values="0 0 0 0 0 0 0 0 0 0 0 0 0 0 0 0 0 0 0.2 0"/>
<feBlend mode="normal" in2="BackgroundImageFix" result="effect1_dropShadow_1097_156"/>
<feBlend mode="normal" in="SourceGraphic" in2="effect1_dropShadow_1097_156" result="shape"/>
</filter>
</defs>
</svg>
