<svg width="527" height="484" viewBox="0 0 527 484" fill="none" xmlns="http://www.w3.org/2000/svg">
<rect x="37" y="92" width="454.55" height="361" rx="9" stroke="#4767F6" stroke-width="2"/>
<path d="M36.5 101C36.5 95.7533 40.7533 91.5 46 91.5H482.55C487.797 91.5 492.05 95.7533 492.05 101V112.899H36.5V101Z" fill="#4767F6" stroke="#4767F6"/>
<path d="M61 135C61 132.239 63.2386 130 66 130H129C131.761 130 134 132.239 134 135V429C134 431.761 131.761 434 129 434H66C63.2386 434 61 431.761 61 429V135Z" fill="#F1F2F6"/>
<path d="M150 342C150 339.239 152.239 337 155 337H467C469.761 337 472 339.239 472 342V428C472 430.761 469.761 433 467 433H155C152.239 433 150 430.761 150 428V342Z" fill="#F1F2F6"/>
<path d="M379 414C379 409.582 382.582 406 387 406H452C456.418 406 460 409.582 460 414C460 418.418 456.418 422 452 422H387C382.582 422 379 418.418 379 414Z" fill="#F0027F"/>
<path d="M160 352C160 349.239 162.239 347 165 347H247C249.761 347 252 349.239 252 352V417C252 419.761 249.761 422 247 422H165C162.239 422 160 419.761 160 417V352Z" fill="#D1D5E6"/>
<path d="M393.919 414.498C393.943 415.122 393.952 415.747 393.996 416.37C394.054 417.188 393.482 417.77 392.968 417.923C392.826 417.965 392.673 417.995 392.526 417.995C391.188 418.001 389.85 418.001 388.512 417.998C387.681 417.995 387.006 417.333 387 416.513C386.998 416.185 387.02 415.858 387.033 415.53C387.057 414.903 387.081 414.276 387.106 413.65C387.122 413.226 387.134 412.802 387.155 412.378C387.189 411.702 387.77 411.095 388.453 411.017C388.521 411.009 388.59 411.002 388.658 411.001C389.883 411.001 391.108 410.999 392.332 411.001C393.033 411.003 393.632 411.467 393.795 412.138C393.834 412.298 393.841 412.467 393.848 412.633C393.875 413.254 393.896 413.876 393.919 414.498V414.498ZM387.581 414.474C387.581 414.474 387.582 414.474 387.583 414.474C387.557 415.13 387.533 415.785 387.506 416.441C387.483 417.025 387.937 417.498 388.531 417.498C389.858 417.5 391.186 417.499 392.514 417.498C392.587 417.498 392.662 417.49 392.733 417.473C393.195 417.364 393.525 416.918 393.51 416.424C393.495 415.977 393.477 415.529 393.46 415.082C393.427 414.205 393.396 413.329 393.359 412.453C393.355 412.345 393.33 412.235 393.293 412.133C393.147 411.738 392.785 411.502 392.333 411.501C391.607 411.499 390.881 411.5 390.155 411.5C389.651 411.5 389.147 411.497 388.643 411.502C388.13 411.507 387.684 411.92 387.662 412.415C387.631 413.101 387.608 413.788 387.581 414.474Z" fill="white"/>
<path d="M390.497 415C389.127 414.995 388.016 414.233 388 413.285C387.997 413.104 388.123 413.002 388.351 413C388.581 412.998 388.709 413.097 388.714 413.277C388.732 413.916 389.392 414.421 390.325 414.49C391.227 414.556 392.015 414.155 392.224 413.572C392.26 413.47 392.275 413.362 392.284 413.256C392.297 413.096 392.426 413 392.644 413C392.862 413 392.998 413.1 393 413.258C393.009 414.135 392.043 414.89 390.797 414.982C390.697 414.989 390.597 414.994 390.497 415V415Z" fill="white"/>
<rect x="72" y="144" width="42" height="5" rx="1" fill="#D1D5E6"/>
<rect x="261" y="355" width="175" height="5" rx="1" fill="#D1D5E6"/>
<rect x="261" y="365" width="134" height="5" rx="1" fill="#D1D5E6"/>
<rect x="72" y="156" width="21" height="5" rx="1" fill="#D1D5E6"/>
<rect x="72" y="168" width="35" height="5" rx="1" fill="#D1D5E6"/>
<rect x="261" y="382" width="59" height="5" rx="1" fill="#D1D5E6"/>
<rect x="401" y="412" width="47" height="5" rx="1" fill="#FCABD5"/>
<rect x="261" y="391" width="22" height="5" rx="1" fill="#D1D5E6"/>
<path d="M150 235C150 232.239 152.239 230 155 230H467C469.761 230 472 232.239 472 235V321C472 323.761 469.761 326 467 326H155C152.239 326 150 323.761 150 321V235Z" fill="#F1F2F6"/>
<path d="M379 307C379 302.582 382.582 299 387 299H452C456.418 299 460 302.582 460 307C460 311.418 456.418 315 452 315H387C382.582 315 379 311.418 379 307Z" fill="#F0027F"/>
<path d="M160 245C160 242.239 162.239 240 165 240H247C249.761 240 252 242.239 252 245V310C252 312.761 249.761 315 247 315H165C162.239 315 160 312.761 160 310V245Z" fill="#D1D5E6"/>
<path d="M393.919 307.498C393.943 308.122 393.952 308.747 393.996 309.37C394.054 310.188 393.482 310.77 392.968 310.923C392.826 310.965 392.673 310.995 392.526 310.995C391.188 311.001 389.85 311.001 388.512 310.998C387.681 310.995 387.006 310.333 387 309.513C386.998 309.185 387.02 308.858 387.033 308.53C387.057 307.903 387.081 307.276 387.106 306.65C387.122 306.226 387.134 305.802 387.155 305.378C387.189 304.702 387.77 304.095 388.453 304.017C388.521 304.009 388.59 304.002 388.658 304.001C389.883 304.001 391.108 303.999 392.332 304.001C393.033 304.003 393.632 304.467 393.795 305.138C393.834 305.298 393.841 305.467 393.848 305.633C393.875 306.254 393.896 306.876 393.919 307.498V307.498ZM387.581 307.474C387.581 307.474 387.582 307.474 387.583 307.474C387.557 308.13 387.533 308.785 387.506 309.441C387.483 310.025 387.937 310.498 388.531 310.498C389.858 310.5 391.186 310.499 392.514 310.498C392.587 310.498 392.662 310.49 392.733 310.473C393.195 310.364 393.525 309.918 393.51 309.424C393.495 308.977 393.477 308.529 393.46 308.082C393.427 307.205 393.396 306.329 393.359 305.453C393.355 305.345 393.33 305.235 393.293 305.133C393.147 304.738 392.785 304.502 392.333 304.501C391.607 304.499 390.881 304.5 390.155 304.5C389.651 304.5 389.147 304.497 388.643 304.502C388.13 304.507 387.684 304.92 387.662 305.415C387.631 306.101 387.608 306.788 387.581 307.474Z" fill="white"/>
<path d="M390.497 308C389.127 307.995 388.016 307.233 388 306.285C387.997 306.104 388.123 306.002 388.351 306C388.581 305.998 388.709 306.097 388.714 306.277C388.732 306.916 389.392 307.421 390.325 307.49C391.227 307.556 392.015 307.155 392.224 306.572C392.26 306.47 392.275 306.362 392.284 306.256C392.297 306.096 392.426 306 392.644 306C392.862 306 392.998 306.1 393 306.258C393.009 307.135 392.043 307.89 390.797 307.982C390.697 307.989 390.597 307.994 390.497 308V308Z" fill="white"/>
<rect x="261" y="248" width="175" height="5" rx="1" fill="#D1D5E6"/>
<rect x="261" y="258" width="134" height="5" rx="1" fill="#D1D5E6"/>
<rect x="261" y="275" width="59" height="5" rx="1" fill="#D1D5E6"/>
<rect x="401" y="305" width="47" height="5" rx="1" fill="#FCABD5"/>
<rect x="261" y="284" width="22" height="5" rx="1" fill="#D1D5E6"/>
<rect width="43.0489" height="43.0489" transform="matrix(0.707107 -0.707107 -0.707107 -0.707107 206.516 307.577)" fill="#FF5223"/>
<path d="M193.5 127C193.5 124.515 195.515 122.5 198 122.5H510C512.485 122.5 514.5 124.515 514.5 127V213C514.5 215.485 512.485 217.5 510 217.5H198C195.515 217.5 193.5 215.485 193.5 213V127Z" fill="#4767F6" stroke="#4767F6"/>
<path d="M422 199C422 194.582 425.582 191 430 191H495C499.418 191 503 194.582 503 199C503 203.418 499.418 207 495 207H430C425.582 207 422 203.418 422 199Z" fill="#F0027F"/>
<path d="M203 137C203 134.239 205.239 132 208 132H290C292.761 132 295 134.239 295 137V202C295 204.761 292.761 207 290 207H208C205.239 207 203 204.761 203 202V137Z" fill="#F1F0EA"/>
<path d="M436.919 199.498C436.943 200.122 436.952 200.747 436.996 201.37C437.054 202.188 436.482 202.77 435.968 202.923C435.826 202.965 435.673 202.995 435.526 202.995C434.188 203.001 432.85 203.001 431.512 202.998C430.681 202.995 430.006 202.333 430 201.513C429.998 201.185 430.02 200.858 430.033 200.53C430.057 199.903 430.081 199.276 430.106 198.65C430.122 198.226 430.134 197.802 430.155 197.378C430.189 196.702 430.77 196.095 431.453 196.017C431.521 196.009 431.59 196.002 431.658 196.001C432.883 196.001 434.108 195.999 435.332 196.001C436.033 196.003 436.632 196.467 436.795 197.138C436.834 197.298 436.841 197.467 436.848 197.633C436.875 198.254 436.896 198.876 436.919 199.498V199.498ZM430.581 199.474C430.581 199.474 430.582 199.474 430.583 199.474C430.557 200.13 430.533 200.785 430.506 201.441C430.483 202.025 430.937 202.498 431.531 202.498C432.858 202.5 434.186 202.499 435.514 202.498C435.587 202.498 435.662 202.49 435.733 202.473C436.195 202.364 436.525 201.918 436.51 201.424C436.495 200.977 436.477 200.529 436.46 200.082C436.427 199.205 436.396 198.329 436.359 197.453C436.355 197.345 436.33 197.235 436.293 197.133C436.147 196.738 435.785 196.502 435.333 196.501C434.607 196.499 433.881 196.5 433.155 196.5C432.651 196.5 432.147 196.497 431.643 196.502C431.13 196.507 430.684 196.92 430.662 197.415C430.631 198.101 430.608 198.788 430.581 199.474Z" fill="white"/>
<path d="M433.497 200C432.127 199.995 431.016 199.233 431 198.285C430.997 198.104 431.123 198.002 431.351 198C431.581 197.998 431.709 198.097 431.714 198.277C431.732 198.916 432.392 199.421 433.325 199.49C434.227 199.556 435.015 199.155 435.224 198.572C435.26 198.47 435.275 198.362 435.284 198.256C435.297 198.096 435.426 198 435.644 198C435.862 198 435.998 198.1 436 198.258C436.009 199.135 435.043 199.89 433.797 199.982C433.697 199.989 433.597 199.994 433.497 200V200Z" fill="white"/>
<rect x="304" y="140" width="175" height="5" rx="1" fill="#D1D5E6"/>
<rect x="304" y="150" width="134" height="5" rx="1" fill="#D1D5E6"/>
<rect x="304" y="167" width="59" height="5" rx="1" fill="#D1D5E6"/>
<rect x="444" y="197" width="47" height="5" rx="1" fill="#FCABD5"/>
<rect x="304" y="176" width="22" height="5" rx="1" fill="#D1D5E6"/>
<circle cx="193" cy="382" r="21.5" fill="#4767F6" stroke="#4767F6"/>
<circle cx="38" cy="288" r="38" fill="#F0027F"/>
<path d="M54.607 285.989C54.7249 289.199 54.766 292.414 54.9803 295.616C55.2613 299.824 52.4819 302.816 49.9856 303.604C49.2964 303.822 48.5569 303.974 47.84 303.976C41.3407 304.004 34.8413 304.006 28.342 303.988C24.3083 303.976 21.0284 300.568 21.0007 296.353C20.9904 294.668 21.0991 292.982 21.1596 291.297C21.2755 288.074 21.3955 284.85 21.5135 281.628C21.5935 279.448 21.653 277.267 21.7545 275.088C21.9176 271.611 24.7401 268.489 28.059 268.085C28.3892 268.045 28.7225 268.008 29.0548 268.007C35.0024 268.003 40.9509 267.993 46.8985 268.007C50.3015 268.016 53.2122 270.4 54.006 273.852C54.1957 274.676 54.2285 275.546 54.2634 276.398C54.3937 279.594 54.4952 282.792 54.607 285.988V285.989ZM23.8221 285.869C23.8221 285.869 23.8273 285.869 23.8303 285.869C23.7073 289.239 23.5893 292.61 23.4601 295.98C23.3452 298.986 25.5513 301.417 28.4343 301.421C34.8834 301.427 41.3314 301.425 47.7805 301.417C48.1364 301.417 48.5005 301.377 48.8451 301.29C51.0912 300.727 52.6952 298.436 52.6183 295.895C52.5486 293.594 52.4573 291.293 52.3752 288.993C52.2163 284.485 52.0665 279.977 51.8871 275.47C51.8655 274.918 51.7465 274.349 51.565 273.829C50.8573 271.795 49.0994 270.581 46.9015 270.576C43.3765 270.567 39.8504 270.574 36.3244 270.574C33.8752 270.574 31.4271 270.556 28.9789 270.581C26.4867 270.607 24.3237 272.733 24.215 275.275C24.0642 278.805 23.9514 282.338 23.8221 285.869Z" fill="white"/>
<path d="M37.9887 284C33.0563 283.973 29.0559 279.783 29.0002 274.567C28.9895 273.574 29.4437 273.01 30.2633 273.001C31.0904 272.991 31.5532 273.532 31.5714 274.524C31.6357 278.035 34.0098 280.816 37.3706 281.194C40.6189 281.558 43.4536 279.354 44.2046 276.145C44.3364 275.582 44.3889 274.992 44.4211 274.411C44.4703 273.529 44.9342 272.998 45.7185 273C46.5016 273.002 46.9933 273.549 46.9998 274.421C47.0319 279.24 43.5554 283.396 39.0676 283.902C38.7087 283.942 38.3487 283.967 37.9887 283.998V284Z" fill="white"/>
<path d="M249.5 136L232.807 148.524L215.738 160.53L222.49 180.276L228.634 200.22L249.5 199.9L270.366 200.22L276.51 180.276L283.263 160.53L266.193 148.524L249.5 136Z" fill="#F0027F"/>
</svg>
