<svg
        width=""
        height=""
        viewBox="0 0 562 484"
        fill="none"
        xmlns="http://www.w3.org/2000/svg"
        id="faq"
      >
        <g id="faq">
          <g id="frame">
            <path
              id="Vector"
              d="M461 90H80C75.0294 90 71 94.0294 71 99V437C71 441.971 75.0294 446 80 446H461C465.971 446 470 441.971 470 437V99C470 94.0294 465.971 90 461 90Z"
              fill="white"
              stroke="#4767F6"
              stroke-width="2"
            />
            <path
              id="Vector_2"
              d="M71.5 101C71.5 95.7533 75.7533 91.5 81 91.5H462C467.247 91.5 471.5 95.7533 471.5 101V112.5H71.5V101Z"
              fill="#4767F6"
              stroke="#4767F6"
            />
          </g>
          <g id="section_2">
            <path
              id="Vector_3"
              d="M106 286.75H426"
              stroke="#989898"
              stroke-width="0.5"
            />
            <path
              id="Vector_4"
              d="M396.5 309L401 314H392L396.5 309Z"
              fill="#F0027F"
            />
            <path id="Vector_5" d="M388 307H125V316H388V307Z" fill="#D1D5E6" />
            <path id="Vector_6" d="M409 325H125V333H409V325Z" fill="#F1F2F6" />
            <path id="Vector_7" d="M367 340H125V348H367V340Z" fill="#F1F2F6" />
            <path id="Vector_8" d="M200 357H125V365H200V357Z" fill="#F1F2F6" />
            <path
              id="Vector_9"
              d="M111 319C115.418 319 119 315.418 119 311C119 306.582 115.418 303 111 303C106.582 303 103 306.582 103 311C103 315.418 106.582 319 111 319Z"
              fill="#FF5223"
            />
          </g>
          <g id="question_section">
            <path
              id="Vector_10"
              d="M53.5 319C83.0472 319 107 295.047 107 265.5C107 235.953 83.0472 212 53.5 212C23.9528 212 0 235.953 0 265.5C0 295.047 23.9528 319 53.5 319Z"
              fill="#F0027F"
            />
            <path
              id="Vector_11"
              d="M67.5599 247.68C67.5599 250.56 67.2399 253.68 61.8799 260L56.9999 265.76C54.8399 268.32 53.3199 269.76 53.3199 272.32V275.36C53.3199 276.16 52.5999 276.88 51.7199 276.88H45.0799C44.1999 276.88 43.5599 276.24 43.5599 275.36V272.32C43.5599 267.28 44.5199 264.96 48.2799 260.56L53.3999 254.64C55.3199 252.4 55.7199 250.24 55.7199 247.68V246.4C55.7199 244.48 54.3599 243.44 51.0799 243.44C47.1599 243.44 42.5999 243.92 39.0799 244.32C38.9199 244.32 38.8399 244.32 38.7599 244.32C37.7999 244.32 37.3999 243.68 37.3999 242.56V237.6C37.3999 236.32 37.4799 235.68 38.8399 235.36C42.1999 234.48 46.9199 233.92 51.0799 233.92C61.3999 233.92 67.5599 236.8 67.5599 246.4V247.68ZM53.6399 292.48C53.6399 293.36 52.9199 294 52.0399 294H44.8399C43.9599 294 43.2399 293.36 43.2399 292.48V283.44C43.2399 282.56 43.9599 281.84 44.8399 281.84H52.0399C52.9199 281.84 53.6399 282.56 53.6399 283.44V292.48Z"
              fill="white"
            />
          </g>
          <g id="color_section">
            <path
              id="Vector_12"
              d="M518 317H434C428.477 317 424 321.477 424 327V372C424 377.523 428.477 382 434 382H518C523.523 382 528 377.523 528 372V327C528 321.477 523.523 317 518 317Z"
              fill="#FF5223"
            />
            <path id="Vector_13" d="M509 333H439V340H509V333Z" fill="white" />
            <path id="Vector_14" d="M509 359H439V366H509V359Z" fill="white" />
            <path id="Vector_15" d="M482 346H439V353H482V346Z" fill="white" />
          </g>
          <g id="section_1">
            <g id="Group 1012">
              <path
                id="Vector_16"
                d="M396.472 218.804L400.979 223.797L391.979 223.811L396.472 218.804Z"
                fill="#F0027F"
              />
              <path
                id="Vector_17"
                d="M387.969 216.817L124.969 217.215L124.983 226.215L387.983 225.817L387.969 216.817Z"
                fill="#D1D5E6"
              />
              <path
                id="Vector_18"
                d="M408.996 234.785L124.997 235.215L125.009 243.215L409.008 242.785L408.996 234.785Z"
                fill="#F1F2F6"
              />
              <path
                id="Vector_19"
                d="M367.019 249.849L125.019 250.215L125.031 258.215L367.031 257.849L367.019 249.849Z"
                fill="#F1F2F6"
              />
              <path
                id="Vector_20"
                d="M200 267H125V275H200V267Z"
                fill="#F1F2F6"
              />
              <path
                id="Vector_21"
                d="M111 229C115.418 229 119 225.418 119 221C119 216.582 115.418 213 111 213C106.582 213 103 216.582 103 221C103 225.418 106.582 229 111 229Z"
                fill="#FF5223"
              />
            </g>
            <path id="Vector_22" d="M426 200H105V201H426V200Z" fill="#D1D5E6" />
          </g>
          <g id="text">
            <path
              id="text_2"
              d="M106.435 176V161.455H115.753V163.663H109.07V167.612H115.114V169.821H109.07V176H106.435ZM117.884 176V165.091H120.376V166.909H120.49C120.689 166.279 121.03 165.794 121.513 165.453C122 165.107 122.557 164.935 123.182 164.935C123.324 164.935 123.482 164.942 123.658 164.956C123.838 164.965 123.987 164.982 124.105 165.006V167.371C123.996 167.333 123.823 167.3 123.587 167.271C123.355 167.238 123.13 167.222 122.912 167.222C122.443 167.222 122.022 167.323 121.648 167.527C121.278 167.726 120.987 168.003 120.774 168.358C120.561 168.713 120.455 169.123 120.455 169.587V176H117.884ZM130.194 176.213C129.1 176.213 128.155 175.986 127.36 175.531C126.569 175.072 125.961 174.423 125.534 173.585C125.108 172.742 124.895 171.75 124.895 170.609C124.895 169.487 125.108 168.502 125.534 167.655C125.965 166.803 126.567 166.14 127.338 165.666C128.11 165.188 129.017 164.949 130.059 164.949C130.731 164.949 131.365 165.058 131.962 165.276C132.563 165.489 133.094 165.82 133.553 166.27C134.017 166.72 134.382 167.293 134.647 167.989C134.912 168.68 135.044 169.504 135.044 170.46V171.249H126.103V169.516H132.58C132.575 169.023 132.469 168.585 132.26 168.202C132.052 167.813 131.761 167.508 131.387 167.286C131.017 167.063 130.587 166.952 130.094 166.952C129.569 166.952 129.107 167.08 128.709 167.335C128.311 167.586 128.001 167.918 127.779 168.33C127.561 168.737 127.45 169.184 127.445 169.672V171.185C127.445 171.819 127.561 172.364 127.793 172.818C128.025 173.268 128.349 173.614 128.766 173.855C129.183 174.092 129.67 174.21 130.229 174.21C130.603 174.21 130.942 174.158 131.245 174.054C131.548 173.945 131.81 173.786 132.033 173.578C132.256 173.37 132.424 173.112 132.537 172.804L134.938 173.074C134.786 173.708 134.498 174.262 134.071 174.736C133.65 175.205 133.11 175.569 132.452 175.83C131.794 176.085 131.041 176.213 130.194 176.213ZM144.499 180.091V174.281H144.393C144.26 174.546 144.068 174.828 143.817 175.126C143.567 175.42 143.235 175.671 142.823 175.879C142.411 176.088 141.893 176.192 141.268 176.192C140.411 176.192 139.644 175.972 138.967 175.531C138.29 175.091 137.754 174.452 137.362 173.614C136.969 172.776 136.772 171.758 136.772 170.56C136.772 169.348 136.971 168.325 137.369 167.491C137.771 166.653 138.313 166.021 138.995 165.595C139.677 165.164 140.437 164.949 141.275 164.949C141.914 164.949 142.44 165.058 142.852 165.276C143.263 165.489 143.59 165.747 143.832 166.05C144.073 166.348 144.26 166.63 144.393 166.895H144.549V165.091H147.077V180.091H144.499ZM141.985 174.082C142.53 174.082 142.994 173.936 143.377 173.642C143.761 173.344 144.052 172.929 144.251 172.399C144.45 171.869 144.549 171.251 144.549 170.545C144.549 169.84 144.45 169.227 144.251 168.706C144.057 168.185 143.768 167.78 143.384 167.491C143.005 167.203 142.539 167.058 141.985 167.058C141.412 167.058 140.934 167.207 140.55 167.506C140.167 167.804 139.878 168.216 139.684 168.741C139.49 169.267 139.393 169.868 139.393 170.545C139.393 171.227 139.49 171.836 139.684 172.371C139.883 172.901 140.174 173.32 140.558 173.628C140.946 173.931 141.422 174.082 141.985 174.082ZM156.673 171.412V165.091H159.244V176H156.751V174.061H156.637C156.391 174.672 155.986 175.171 155.423 175.56C154.864 175.948 154.175 176.142 153.356 176.142C152.641 176.142 152.009 175.983 151.46 175.666C150.915 175.344 150.489 174.878 150.181 174.267C149.873 173.652 149.719 172.908 149.719 172.037V165.091H152.29V171.639C152.29 172.33 152.48 172.88 152.859 173.287C153.237 173.694 153.735 173.898 154.35 173.898C154.729 173.898 155.096 173.805 155.451 173.621C155.806 173.436 156.097 173.161 156.325 172.797C156.557 172.428 156.673 171.966 156.673 171.412ZM166.717 176.213C165.623 176.213 164.679 175.986 163.883 175.531C163.092 175.072 162.484 174.423 162.058 173.585C161.632 172.742 161.419 171.75 161.419 170.609C161.419 169.487 161.632 168.502 162.058 167.655C162.489 166.803 163.09 166.14 163.862 165.666C164.634 165.188 165.54 164.949 166.582 164.949C167.254 164.949 167.889 165.058 168.485 165.276C169.087 165.489 169.617 165.82 170.076 166.27C170.54 166.72 170.905 167.293 171.17 167.989C171.435 168.68 171.568 169.504 171.568 170.46V171.249H162.626V169.516H169.103C169.099 169.023 168.992 168.585 168.784 168.202C168.575 167.813 168.284 167.508 167.91 167.286C167.541 167.063 167.11 166.952 166.618 166.952C166.092 166.952 165.63 167.08 165.233 167.335C164.835 167.586 164.525 167.918 164.302 168.33C164.084 168.737 163.973 169.184 163.968 169.672V171.185C163.968 171.819 164.084 172.364 164.316 172.818C164.548 173.268 164.873 173.614 165.289 173.855C165.706 174.092 166.194 174.21 166.752 174.21C167.127 174.21 167.465 174.158 167.768 174.054C168.071 173.945 168.334 173.786 168.556 173.578C168.779 173.37 168.947 173.112 169.061 172.804L171.461 173.074C171.31 173.708 171.021 174.262 170.595 174.736C170.173 175.205 169.634 175.569 168.975 175.83C168.317 176.085 167.565 176.213 166.717 176.213ZM176.314 169.608V176H173.743V165.091H176.2V166.945H176.328C176.579 166.334 176.979 165.848 177.528 165.489C178.082 165.129 178.767 164.949 179.581 164.949C180.334 164.949 180.99 165.11 181.548 165.432C182.112 165.754 182.547 166.22 182.855 166.831C183.168 167.442 183.321 168.183 183.317 169.054V176H180.746V169.452C180.746 168.723 180.556 168.152 180.178 167.74C179.804 167.328 179.285 167.122 178.622 167.122C178.172 167.122 177.772 167.222 177.422 167.42C177.076 167.615 176.804 167.896 176.605 168.266C176.411 168.635 176.314 169.082 176.314 169.608ZM191.378 165.091V167.08H185.107V165.091H191.378ZM186.655 162.477H189.226V172.719C189.226 173.064 189.278 173.33 189.382 173.514C189.491 173.694 189.633 173.817 189.808 173.884C189.983 173.95 190.178 173.983 190.391 173.983C190.552 173.983 190.698 173.971 190.831 173.947C190.968 173.924 191.072 173.902 191.143 173.884L191.577 175.893C191.439 175.941 191.243 175.993 190.987 176.05C190.736 176.107 190.429 176.14 190.064 176.149C189.42 176.168 188.84 176.071 188.324 175.858C187.808 175.64 187.398 175.304 187.095 174.849C186.797 174.395 186.65 173.827 186.655 173.145V162.477ZM196.333 161.455V176H193.762V161.455H196.333ZM200.575 180.091C200.225 180.091 199.901 180.063 199.602 180.006C199.309 179.954 199.074 179.892 198.899 179.821L199.496 177.818C199.87 177.927 200.204 177.979 200.497 177.974C200.791 177.97 201.049 177.877 201.271 177.697C201.499 177.522 201.69 177.229 201.847 176.817L202.067 176.227L198.111 165.091H200.838L203.352 173.33H203.466L205.987 165.091H208.722L204.354 177.321C204.15 177.899 203.88 178.393 203.544 178.805C203.208 179.222 202.796 179.539 202.308 179.757C201.825 179.98 201.248 180.091 200.575 180.091ZM218.601 176.22C217.91 176.22 217.287 176.097 216.733 175.851C216.184 175.6 215.748 175.231 215.426 174.743C215.109 174.255 214.95 173.654 214.95 172.939C214.95 172.323 215.064 171.814 215.291 171.412C215.518 171.009 215.829 170.688 216.222 170.446C216.615 170.205 217.057 170.022 217.55 169.899C218.047 169.771 218.561 169.679 219.091 169.622C219.73 169.556 220.249 169.497 220.646 169.445C221.044 169.388 221.333 169.303 221.513 169.189C221.697 169.071 221.79 168.888 221.79 168.642V168.599C221.79 168.064 221.631 167.65 221.314 167.357C220.997 167.063 220.54 166.916 219.943 166.916C219.313 166.916 218.814 167.054 218.445 167.328C218.08 167.603 217.834 167.927 217.706 168.301L215.305 167.96C215.495 167.297 215.807 166.743 216.243 166.298C216.679 165.848 217.211 165.512 217.841 165.29C218.471 165.062 219.167 164.949 219.929 164.949C220.455 164.949 220.978 165.01 221.499 165.134C222.019 165.257 222.495 165.46 222.926 165.744C223.357 166.024 223.703 166.405 223.963 166.888C224.228 167.371 224.361 167.974 224.361 168.699V176H221.889V174.501H221.804C221.648 174.804 221.428 175.089 221.143 175.354C220.864 175.614 220.511 175.825 220.085 175.986C219.664 176.142 219.169 176.22 218.601 176.22ZM219.268 174.331C219.785 174.331 220.232 174.229 220.611 174.026C220.99 173.817 221.281 173.543 221.484 173.202C221.693 172.861 221.797 172.489 221.797 172.087V170.801C221.716 170.867 221.579 170.929 221.385 170.986C221.196 171.043 220.982 171.092 220.746 171.135C220.509 171.178 220.275 171.215 220.043 171.249C219.811 171.282 219.609 171.31 219.439 171.334C219.055 171.386 218.712 171.471 218.409 171.589C218.106 171.708 217.867 171.874 217.692 172.087C217.517 172.295 217.429 172.565 217.429 172.896C217.429 173.37 217.602 173.727 217.947 173.969C218.293 174.21 218.733 174.331 219.268 174.331ZM235.568 167.974L233.224 168.23C233.158 167.993 233.042 167.771 232.876 167.562C232.715 167.354 232.498 167.186 232.223 167.058C231.948 166.93 231.612 166.866 231.214 166.866C230.679 166.866 230.23 166.982 229.865 167.214C229.505 167.446 229.328 167.747 229.332 168.116C229.328 168.434 229.444 168.692 229.68 168.891C229.922 169.089 230.32 169.253 230.874 169.381L232.734 169.778C233.767 170.001 234.534 170.354 235.036 170.837C235.542 171.32 235.798 171.952 235.803 172.733C235.798 173.42 235.597 174.026 235.199 174.551C234.806 175.072 234.259 175.479 233.558 175.773C232.857 176.066 232.053 176.213 231.143 176.213C229.808 176.213 228.733 175.934 227.919 175.375C227.105 174.812 226.619 174.028 226.463 173.024L228.97 172.783C229.084 173.275 229.325 173.647 229.695 173.898C230.064 174.149 230.545 174.274 231.136 174.274C231.747 174.274 232.237 174.149 232.607 173.898C232.981 173.647 233.168 173.337 233.168 172.967C233.168 172.655 233.047 172.397 232.805 172.193C232.569 171.99 232.199 171.833 231.697 171.724L229.837 171.334C228.79 171.116 228.016 170.749 227.514 170.233C227.012 169.712 226.764 169.054 226.768 168.259C226.764 167.586 226.946 167.004 227.315 166.511C227.689 166.014 228.208 165.631 228.871 165.361C229.538 165.086 230.308 164.949 231.179 164.949C232.457 164.949 233.464 165.221 234.197 165.766C234.936 166.31 235.393 167.046 235.568 167.974ZM240.266 172.577L240.259 169.473H240.671L244.592 165.091H247.596L242.773 170.46H242.241L240.266 172.577ZM237.923 176V161.455H240.494V176H237.923ZM244.769 176L241.218 171.036L242.951 169.224L247.844 176H244.769ZM253.69 176.213C252.596 176.213 251.651 175.986 250.856 175.531C250.065 175.072 249.457 174.423 249.031 173.585C248.604 172.742 248.391 171.75 248.391 170.609C248.391 169.487 248.604 168.502 249.031 167.655C249.461 166.803 250.063 166.14 250.835 165.666C251.606 165.188 252.513 164.949 253.555 164.949C254.227 164.949 254.862 165.058 255.458 165.276C256.059 165.489 256.59 165.82 257.049 166.27C257.513 166.72 257.878 167.293 258.143 167.989C258.408 168.68 258.54 169.504 258.54 170.46V171.249H249.599V169.516H256.076C256.071 169.023 255.965 168.585 255.756 168.202C255.548 167.813 255.257 167.508 254.883 167.286C254.513 167.063 254.083 166.952 253.59 166.952C253.065 166.952 252.603 167.08 252.205 167.335C251.808 167.586 251.497 167.918 251.275 168.33C251.057 168.737 250.946 169.184 250.941 169.672V171.185C250.941 171.819 251.057 172.364 251.289 172.818C251.521 173.268 251.845 173.614 252.262 173.855C252.679 174.092 253.166 174.21 253.725 174.21C254.099 174.21 254.438 174.158 254.741 174.054C255.044 173.945 255.307 173.786 255.529 173.578C255.752 173.37 255.92 173.112 256.033 172.804L258.434 173.074C258.282 173.708 257.994 174.262 257.567 174.736C257.146 175.205 256.606 175.569 255.948 175.83C255.29 176.085 254.537 176.213 253.69 176.213ZM264.764 176.192C263.907 176.192 263.14 175.972 262.463 175.531C261.786 175.091 261.251 174.452 260.858 173.614C260.465 172.776 260.268 171.758 260.268 170.56C260.268 169.348 260.467 168.325 260.865 167.491C261.267 166.653 261.809 166.021 262.491 165.595C263.173 165.164 263.933 164.949 264.771 164.949C265.41 164.949 265.936 165.058 266.348 165.276C266.76 165.489 267.086 165.747 267.328 166.05C267.569 166.348 267.756 166.63 267.889 166.895H267.995V161.455H270.574V176H268.045V174.281H267.889C267.756 174.546 267.565 174.828 267.314 175.126C267.063 175.42 266.731 175.671 266.319 175.879C265.907 176.088 265.389 176.192 264.764 176.192ZM265.481 174.082C266.026 174.082 266.49 173.936 266.873 173.642C267.257 173.344 267.548 172.929 267.747 172.399C267.946 171.869 268.045 171.251 268.045 170.545C268.045 169.84 267.946 169.227 267.747 168.706C267.553 168.185 267.264 167.78 266.88 167.491C266.502 167.203 266.035 167.058 265.481 167.058C264.908 167.058 264.43 167.207 264.047 167.506C263.663 167.804 263.374 168.216 263.18 168.741C262.986 169.267 262.889 169.868 262.889 170.545C262.889 171.227 262.986 171.836 263.18 172.371C263.379 172.901 263.67 173.32 264.054 173.628C264.442 173.931 264.918 174.082 265.481 174.082ZM285.554 180.091V174.281H285.447C285.315 174.546 285.123 174.828 284.872 175.126C284.621 175.42 284.29 175.671 283.878 175.879C283.466 176.088 282.947 176.192 282.322 176.192C281.465 176.192 280.698 175.972 280.021 175.531C279.344 175.091 278.809 174.452 278.416 173.614C278.023 172.776 277.827 171.758 277.827 170.56C277.827 169.348 278.026 168.325 278.423 167.491C278.826 166.653 279.368 166.021 280.05 165.595C280.732 165.164 281.491 164.949 282.33 164.949C282.969 164.949 283.494 165.058 283.906 165.276C284.318 165.489 284.645 165.747 284.886 166.05C285.128 166.348 285.315 166.63 285.447 166.895H285.604V165.091H288.132V180.091H285.554ZM283.04 174.082C283.584 174.082 284.048 173.936 284.432 173.642C284.815 173.344 285.107 172.929 285.305 172.399C285.504 171.869 285.604 171.251 285.604 170.545C285.604 169.84 285.504 169.227 285.305 168.706C285.111 168.185 284.822 167.78 284.439 167.491C284.06 167.203 283.594 167.058 283.04 167.058C282.467 167.058 281.989 167.207 281.605 167.506C281.222 167.804 280.933 168.216 280.739 168.741C280.545 169.267 280.447 169.868 280.447 170.545C280.447 171.227 280.545 171.836 280.739 172.371C280.938 172.901 281.229 173.32 281.612 173.628C282 173.931 282.476 174.082 283.04 174.082ZM297.727 171.412V165.091H300.298V176H297.805V174.061H297.692C297.446 174.672 297.041 175.171 296.477 175.56C295.919 175.948 295.23 176.142 294.411 176.142C293.696 176.142 293.063 175.983 292.514 175.666C291.97 175.344 291.544 174.878 291.236 174.267C290.928 173.652 290.774 172.908 290.774 172.037V165.091H293.345V171.639C293.345 172.33 293.535 172.88 293.913 173.287C294.292 173.694 294.789 173.898 295.405 173.898C295.784 173.898 296.151 173.805 296.506 173.621C296.861 173.436 297.152 173.161 297.379 172.797C297.611 172.428 297.727 171.966 297.727 171.412ZM307.772 176.213C306.678 176.213 305.733 175.986 304.938 175.531C304.147 175.072 303.539 174.423 303.113 173.585C302.686 172.742 302.473 171.75 302.473 170.609C302.473 169.487 302.686 168.502 303.113 167.655C303.543 166.803 304.145 166.14 304.917 165.666C305.688 165.188 306.595 164.949 307.637 164.949C308.309 164.949 308.944 165.058 309.54 165.276C310.141 165.489 310.672 165.82 311.131 166.27C311.595 166.72 311.96 167.293 312.225 167.989C312.49 168.68 312.623 169.504 312.623 170.46V171.249H303.681V169.516H310.158C310.153 169.023 310.047 168.585 309.838 168.202C309.63 167.813 309.339 167.508 308.965 167.286C308.596 167.063 308.165 166.952 307.672 166.952C307.147 166.952 306.685 167.08 306.287 167.335C305.89 167.586 305.579 167.918 305.357 168.33C305.139 168.737 305.028 169.184 305.023 169.672V171.185C305.023 171.819 305.139 172.364 305.371 172.818C305.603 173.268 305.927 173.614 306.344 173.855C306.761 174.092 307.248 174.21 307.807 174.21C308.181 174.21 308.52 174.158 308.823 174.054C309.126 173.945 309.389 173.786 309.611 173.578C309.834 173.37 310.002 173.112 310.115 172.804L312.516 173.074C312.364 173.708 312.076 174.262 311.65 174.736C311.228 175.205 310.688 175.569 310.03 175.83C309.372 176.085 308.619 176.213 307.772 176.213ZM323.42 167.974L321.076 168.23C321.01 167.993 320.894 167.771 320.728 167.562C320.567 167.354 320.349 167.186 320.075 167.058C319.8 166.93 319.464 166.866 319.066 166.866C318.531 166.866 318.081 166.982 317.717 167.214C317.357 167.446 317.179 167.747 317.184 168.116C317.179 168.434 317.295 168.692 317.532 168.891C317.773 169.089 318.171 169.253 318.725 169.381L320.586 169.778C321.618 170.001 322.385 170.354 322.887 170.837C323.394 171.32 323.649 171.952 323.654 172.733C323.649 173.42 323.448 174.026 323.05 174.551C322.657 175.072 322.111 175.479 321.41 175.773C320.709 176.066 319.904 176.213 318.995 176.213C317.66 176.213 316.585 175.934 315.771 175.375C314.956 174.812 314.471 174.028 314.315 173.024L316.822 172.783C316.935 173.275 317.177 173.647 317.546 173.898C317.915 174.149 318.396 174.274 318.988 174.274C319.599 174.274 320.089 174.149 320.458 173.898C320.832 173.647 321.019 173.337 321.019 172.967C321.019 172.655 320.898 172.397 320.657 172.193C320.42 171.99 320.051 171.833 319.549 171.724L317.688 171.334C316.642 171.116 315.868 170.749 315.366 170.233C314.864 169.712 314.615 169.054 314.62 168.259C314.615 167.586 314.798 167.004 315.167 166.511C315.541 166.014 316.059 165.631 316.722 165.361C317.39 165.086 318.159 164.949 319.031 164.949C320.309 164.949 321.315 165.221 322.049 165.766C322.788 166.31 323.245 167.046 323.42 167.974ZM331.222 165.091V167.08H324.95V165.091H331.222ZM326.499 162.477H329.07V172.719C329.07 173.064 329.122 173.33 329.226 173.514C329.335 173.694 329.477 173.817 329.652 173.884C329.827 173.95 330.021 173.983 330.234 173.983C330.395 173.983 330.542 173.971 330.675 173.947C330.812 173.924 330.916 173.902 330.987 173.884L331.42 175.893C331.283 175.941 331.087 175.993 330.831 176.05C330.58 176.107 330.272 176.14 329.908 176.149C329.264 176.168 328.684 176.071 328.168 175.858C327.652 175.64 327.242 175.304 326.939 174.849C326.641 174.395 326.494 173.827 326.499 173.145V162.477ZM333.372 176V165.091H335.943V176H333.372ZM334.664 163.543C334.257 163.543 333.907 163.408 333.613 163.138C333.32 162.863 333.173 162.534 333.173 162.151C333.173 161.762 333.32 161.433 333.613 161.163C333.907 160.889 334.257 160.751 334.664 160.751C335.076 160.751 335.427 160.889 335.716 161.163C336.009 161.433 336.156 161.762 336.156 162.151C336.156 162.534 336.009 162.863 335.716 163.138C335.427 163.408 335.076 163.543 334.664 163.543ZM343.345 176.213C342.28 176.213 341.357 175.979 340.575 175.51C339.794 175.041 339.188 174.385 338.757 173.543C338.331 172.7 338.118 171.715 338.118 170.588C338.118 169.461 338.331 168.474 338.757 167.626C339.188 166.779 339.794 166.121 340.575 165.652C341.357 165.183 342.28 164.949 343.345 164.949C344.411 164.949 345.334 165.183 346.115 165.652C346.896 166.121 347.5 166.779 347.926 167.626C348.357 168.474 348.572 169.461 348.572 170.588C348.572 171.715 348.357 172.7 347.926 173.543C347.5 174.385 346.896 175.041 346.115 175.51C345.334 175.979 344.411 176.213 343.345 176.213ZM343.359 174.153C343.937 174.153 344.42 173.995 344.808 173.678C345.196 173.356 345.485 172.925 345.675 172.385C345.869 171.845 345.966 171.244 345.966 170.581C345.966 169.913 345.869 169.31 345.675 168.77C345.485 168.225 345.196 167.792 344.808 167.47C344.42 167.148 343.937 166.987 343.359 166.987C342.768 166.987 342.275 167.148 341.882 167.47C341.494 167.792 341.203 168.225 341.009 168.77C340.819 169.31 340.724 169.913 340.724 170.581C340.724 171.244 340.819 171.845 341.009 172.385C341.203 172.925 341.494 173.356 341.882 173.678C342.275 173.995 342.768 174.153 343.359 174.153ZM353.326 169.608V176H350.755V165.091H353.212V166.945H353.34C353.591 166.334 353.991 165.848 354.54 165.489C355.094 165.129 355.778 164.949 356.593 164.949C357.346 164.949 358.001 165.11 358.56 165.432C359.123 165.754 359.559 166.22 359.867 166.831C360.179 167.442 360.333 168.183 360.328 169.054V176H357.757V169.452C357.757 168.723 357.568 168.152 357.189 167.74C356.815 167.328 356.297 167.122 355.634 167.122C355.184 167.122 354.784 167.222 354.434 167.42C354.088 167.615 353.816 167.896 353.617 168.266C353.423 168.635 353.326 169.082 353.326 169.608Z"
              fill="black"
            />
          </g>
        </g>
      </svg>
      