<svg width="607" height="352" viewBox="0 0 607 352" fill="none" xmlns="http://www.w3.org/2000/svg">
<rect x="1.44531" y="1.94971" width="604.534" height="349.05" rx="9" fill="white" stroke="#4767F6" stroke-width="2"/>
<path d="M533.063 261.208C532.844 271.728 529.016 281.854 522.219 289.886C515.422 297.919 506.07 303.371 495.731 305.328C485.391 307.285 474.694 305.627 465.432 300.634C456.169 295.64 448.905 287.614 444.858 277.901C440.81 268.188 440.225 257.379 443.2 247.286C446.175 237.192 452.53 228.429 461.199 222.464C469.868 216.5 480.324 213.697 490.813 214.526C501.303 215.355 511.189 219.765 518.814 227.016L487.2 260.256L533.063 261.208Z" fill="#F1F2F6"/>
<path d="M453.745 228.872C457.866 224.479 462.812 220.94 468.301 218.458C473.79 215.976 479.714 214.599 485.735 214.406C491.756 214.214 497.756 215.209 503.392 217.335C509.029 219.462 514.191 222.677 518.585 226.798L487.202 260.255L453.745 228.872Z" fill="#F0027F"/>
<path d="M523.578 226.029C527.89 230.236 531.331 235.251 533.704 240.787C536.078 246.324 537.338 252.274 537.413 258.297L491.544 258.864L523.578 226.029Z" fill="#FF5223"/>
<path d="M0.945312 10.9497C0.945312 5.703 5.19861 1.44971 10.4453 1.44971H596.979C602.226 1.44971 606.479 5.703 606.479 10.9497V22.1116H0.945312V10.9497Z" fill="#4767F6" stroke="#4767F6"/>
<circle cx="16.0553" cy="11.462" r="4.14125" fill="white"/>
<circle cx="26.8873" cy="11.462" r="4.14125" fill="white"/>
<circle cx="37.7155" cy="11.462" r="4.14125" fill="white"/>
<rect x="50.1406" y="63.3871" width="111.495" height="4.45981" rx="1" fill="#D1D5E6"/>
<rect x="431.773" y="62.1127" width="133.794" height="4.45981" rx="1" fill="#D1D5E6"/>
<rect x="431.773" y="90.1459" width="110.221" height="4.45981" rx="1" fill="#D1D5E6"/>
<rect x="431.773" y="118.179" width="91.7446" height="4.45981" rx="1" fill="#D1D5E6"/>
<rect x="50.1406" y="95.8799" width="111.495" height="4.45981" rx="1" fill="#D1D5E6"/>
<rect x="50.1406" y="128.373" width="111.495" height="4.45981" rx="1" fill="#D1D5E6"/>
<rect x="50.1406" y="76.1294" width="85.3734" height="4.45981" rx="1" fill="#D1D5E6"/>
<rect x="431.773" y="76.1294" width="72.6311" height="4.45981" rx="1" fill="#D1D5E6"/>
<rect x="431.773" y="104.162" width="40.7754" height="4.45981" rx="1" fill="#D1D5E6"/>
<rect x="431.773" y="132.195" width="40.7754" height="4.45981" rx="1" fill="#D1D5E6"/>
<rect x="50.1406" y="108.622" width="85.3734" height="4.45981" rx="1" fill="#D1D5E6"/>
<rect x="50.1406" y="141.115" width="85.3734" height="4.45981" rx="1" fill="#D1D5E6"/>
<rect width="11.607" height="11.607" transform="matrix(0.707107 -0.707107 -0.707107 -0.707107 29.6758 112.295)" fill="#FF5223"/>
<circle cx="29.7544" cy="137.292" r="6.50827" fill="#4767F6" stroke="#4767F6"/>
<path d="M30.0751 63.3871L26.3303 66.1967L22.501 68.89L24.0158 73.3198L25.394 77.794L30.0751 77.7222L34.7562 77.794L36.1344 73.3198L37.6493 68.89L33.82 66.1967L30.0751 63.3871Z" fill="#F0027F"/>
<line x1="204.047" y1="22.6116" x2="204.047" y2="352" stroke="#4767F6" stroke-width="2"/>
<line x1="398.367" y1="22.6116" x2="398.367" y2="352" stroke="#4767F6" stroke-width="2"/>
<line x1="0.445312" y1="175.793" x2="606.979" y2="175.793" stroke="#4767F6" stroke-width="2"/>
<circle cx="296.067" cy="99.7026" r="32.4929" fill="#D1D5E5"/>
<path d="M296.066 81.2261L313.638 93.9929L306.926 114.65H285.206L278.494 93.9929L296.066 81.2261Z" fill="#4767F6"/>
<path d="M239.999 44.2737L256.965 56.6003L250.485 76.5451H229.514L223.033 56.6003L239.999 44.2737Z" fill="#F0027F"/>
<path d="M252.105 127.099L263.012 135.023L258.846 147.844H245.364L241.198 135.023L252.105 127.099Z" fill="#F0027F"/>
<path d="M358.508 76.1294L370.627 84.9341L365.998 99.1804H351.018L346.389 84.9341L358.508 76.1294Z" fill="#F0027F"/>
<path d="M326.466 148.35L335.573 141.733L344.68 148.35L341.201 159.056H329.944L326.466 148.35Z" stroke="#F0027F"/>
<rect x="46.3164" y="217.569" width="93.0188" height="93.0188" rx="10" fill="#F1F2F6"/>
<circle cx="92.8284" cy="264.078" r="30.8558" stroke="#FF5223" stroke-width="2"/>
<circle cx="5.73404" cy="5.73404" r="5.73404" transform="matrix(1 0 0 -1 76.2617 292.111)" fill="#F0027F"/>
<line x1="230.312" y1="203.552" x2="230.312" y2="314.41" stroke="#D1D5E5"/>
<line x1="296.57" y1="203.552" x2="296.57" y2="314.41" stroke="#D1D5E5"/>
<line x1="263.441" y1="203.552" x2="263.441" y2="314.41" stroke="#D1D5E5"/>
<line x1="329.699" y1="203.552" x2="329.699" y2="314.41" stroke="#D1D5E5"/>
<line x1="362.828" y1="203.552" x2="362.828" y2="314.41" stroke="#D1D5E5"/>
<line x1="229.579" y1="266.822" x2="263.346" y2="248.982" stroke="#4767F6"/>
<line x1="263.238" y1="249.022" x2="297.005" y2="273.869" stroke="#4767F6"/>
<line x1="296.337" y1="273.945" x2="329.467" y2="235.718" stroke="#4767F6"/>
<line x1="329.356" y1="235.569" x2="363.123" y2="246.4" stroke="#4767F6"/>
<line x1="230.23" y1="267.074" x2="221.31" y2="262.614" stroke="#4767F6"/>
<line x1="362.753" y1="246.647" x2="368.42" y2="243.878" stroke="#4767F6"/>
<circle cx="2.54846" cy="2.54846" r="2.54846" transform="matrix(1 0 0 -1 227.895 268.538)" fill="#FF5223"/>
<circle cx="2.54846" cy="2.54846" r="2.54846" transform="matrix(1 0 0 -1 260.387 251.973)" fill="#FF5223"/>
<circle cx="2.54846" cy="2.54846" r="2.54846" transform="matrix(1 0 0 -1 293.52 276.183)" fill="#FF5223"/>
<circle cx="2.54846" cy="2.54846" r="2.54846" transform="matrix(1 0 0 -1 327.285 238.594)" fill="#FF5223"/>
<circle cx="2.54846" cy="2.54846" r="2.54846" transform="matrix(1 0 0 -1 360.414 249.425)" fill="#FF5223"/>
</svg>
