<svg width="215" height="70" viewBox="0 0 215 70" fill="none" xmlns="http://www.w3.org/2000/svg">
<rect width="215" height="70" fill="#E0E0E0"/>
<g id="Jamstack_expand 1.1">
<rect width="1440" height="6436" transform="translate(-887 -2711)" fill="white"/>
<rect id="Rectangle 28" x="-890" y="-953" width="1446" height="1189" fill="white"/>
<g id="Group 905">
<g id="Group 841">
<rect id="Rectangle 327" x="-20.6055" y="-182" width="427.369" height="269.31" rx="9" fill="white" stroke="#4767F6" stroke-width="2"/>
<g id="Group 1076">
<rect id="Rectangle 333" x="0.0585938" y="0.663574" width="194.989" height="3.44677" rx="1" fill="#D1D5E6"/>
<rect id="Rectangle 334" x="0.0585938" y="22.3289" width="214.192" height="3.44677" rx="1" fill="#D1D5E6"/>
<rect id="Rectangle 335" x="0.0585938" y="43.9944" width="214.192" height="3.44677" rx="1" fill="#D1D5E6"/>
<rect id="Rectangle 336" x="0.0585938" y="11.4961" width="214.192" height="3.44677" rx="1" fill="#D1D5E6"/>
<rect id="Rectangle 337" x="0.0585938" y="33.1616" width="214.192" height="3.44677" rx="1" fill="#D1D5E6"/>
<rect id="Rectangle 338" x="0.0585938" y="65.6597" width="214.192" height="3.44677" rx="1" fill="#D1D5E6"/>
<rect id="Rectangle 339" x="0.0585938" y="54.8269" width="214.192" height="3.44677" rx="1" fill="#D1D5E6"/>
</g>
</g>
</g>
</g>
<g id="Blog">
<rect width="1440" height="2803" transform="translate(1333 -2701)" fill="white"/>
</g>
<g id="Blog Details">
<rect width="1440" height="6079" transform="translate(2920 -2701)" fill="white"/>
</g>
</svg>
