<svg width="615" height="360" viewBox="0 0 615 360" fill="none" xmlns="http://www.w3.org/2000/svg">
<rect width="615" height="360" fill="#F5F5F5"/>
<g id="Group 1015 1" clip-path="url(#clip0_0_1)" filter="url(#filter0_d_0_1)">
<g id="frame">
<path id="Vector" d="M600.979 1.94971H14.4453C9.47475 1.94971 5.44531 5.97914 5.44531 10.9497V342C5.44531 346.97 9.47475 351 14.4453 351H600.979C605.95 351 609.979 346.97 609.979 342V10.9497C609.979 5.97914 605.95 1.94971 600.979 1.94971Z" fill="white" stroke="#4767F6" stroke-width="2"/>
<path id="Vector_2" d="M4.94531 10.9497C4.94531 5.703 9.19861 1.44971 14.4453 1.44971H600.979C606.226 1.44971 610.479 5.703 610.479 10.9497V22.1116H4.94531V10.9497Z" fill="#4767F6" stroke="#4767F6"/>
<path id="Vector_3" d="M20.0553 15.6032C22.3425 15.6032 24.1966 13.7491 24.1966 11.462C24.1966 9.17484 22.3425 7.32074 20.0553 7.32074C17.7682 7.32074 15.9141 9.17484 15.9141 11.462C15.9141 13.7491 17.7682 15.6032 20.0553 15.6032Z" fill="white"/>
<path id="Vector_4" d="M30.8873 15.6032C33.1745 15.6032 35.0286 13.7491 35.0286 11.462C35.0286 9.17484 33.1745 7.32074 30.8873 7.32074C28.6002 7.32074 26.7461 9.17484 26.7461 11.462C26.7461 13.7491 28.6002 15.6032 30.8873 15.6032Z" fill="white"/>
<path id="Vector_5" d="M41.7155 15.6032C44.0026 15.6032 45.8567 13.7491 45.8567 11.462C45.8567 9.17484 44.0026 7.32074 41.7155 7.32074C39.4283 7.32074 37.5742 9.17484 37.5742 11.462C37.5742 13.7491 39.4283 15.6032 41.7155 15.6032Z" fill="white"/>
<path id="Vector_6" d="M208.047 22.6116V352" stroke="#4767F6" stroke-width="2"/>
<path id="Vector_7" d="M402.367 22.6116V352" stroke="#4767F6" stroke-width="2"/>
<path id="Vector_8" d="M4.44531 175.793H610.979" stroke="#4767F6" stroke-width="2"/>
</g>
<g id="scatter-shape">
<path id="Vector_9" d="M300.067 132.196C318.012 132.196 332.56 117.648 332.56 99.7026C332.56 81.7573 318.012 67.2097 300.067 67.2097C282.122 67.2097 267.574 81.7573 267.574 99.7026C267.574 117.648 282.122 132.196 300.067 132.196Z" fill="#D1D5E5"/>
<path id="Vector_10" d="M300.066 81.2261L317.638 93.9929L310.926 114.65H289.206L282.494 93.9929L300.066 81.2261Z" fill="#4767F6"/>
<path id="Vector_11" d="M243.999 44.2737L260.965 56.6003L254.485 76.5451H233.514L227.033 56.6003L243.999 44.2737Z" fill="#F0027F"/>
<path id="Vector_12" d="M256.105 127.099L267.012 135.023L262.846 147.844H249.364L245.198 135.023L256.105 127.099Z" fill="#F0027F"/>
<path id="Vector_13" d="M362.508 76.1294L374.627 84.9341L369.998 99.1804H355.018L350.389 84.9341L362.508 76.1294Z" fill="#F0027F"/>
<path id="Vector_14" d="M330.466 148.35L339.573 141.733L348.68 148.35L345.201 159.056H333.944L330.466 148.35Z" stroke="#F0027F"/>
</g>
<g id="line-chart">
<path id="Vector_15" d="M234.312 203.552V314.41" stroke="#D1D5E5"/>
<path id="Vector_16" d="M300.57 203.552V314.41" stroke="#D1D5E5"/>
<path id="Vector_17" d="M267.441 203.552V314.41" stroke="#D1D5E5"/>
<path id="Vector_18" d="M333.699 203.552V314.41" stroke="#D1D5E5"/>
<path id="Vector_19" d="M366.828 203.552V314.41" stroke="#D1D5E5"/>
<path id="Vector_20" d="M233.579 266.822L267.346 248.982" stroke="#4767F6"/>
<path id="Vector_21" d="M267.238 249.022L301.005 273.869" stroke="#4767F6"/>
<path id="Vector_22" d="M300.337 273.945L333.467 235.718" stroke="#4767F6"/>
<path id="Vector_23" d="M333.356 235.569L367.123 246.4" stroke="#4767F6"/>
<path id="Vector_24" d="M234.23 267.074L225.31 262.614" stroke="#4767F6"/>
<path id="Vector_25" d="M366.753 246.647L372.42 243.878" stroke="#4767F6"/>
<path id="Vector_26" d="M234.443 263.441C235.851 263.441 236.992 264.582 236.992 265.99C236.992 267.397 235.851 268.538 234.443 268.538C233.036 268.538 231.895 267.397 231.895 265.99C231.895 264.582 233.036 263.441 234.443 263.441Z" fill="#FF5223"/>
<path id="Vector_27" d="M266.936 246.876C268.343 246.876 269.484 248.017 269.484 249.425C269.484 250.832 268.343 251.973 266.936 251.973C265.528 251.973 264.387 250.832 264.387 249.425C264.387 248.017 265.528 246.876 266.936 246.876Z" fill="#FF5223"/>
<path id="Vector_28" d="M300.068 271.086C301.476 271.086 302.617 272.227 302.617 273.635C302.617 275.042 301.476 276.183 300.068 276.183C298.661 276.183 297.52 275.042 297.52 273.635C297.52 272.227 298.661 271.086 300.068 271.086Z" fill="#FF5223"/>
<path id="Vector_29" d="M333.834 233.497C335.241 233.497 336.382 234.638 336.382 236.046C336.382 237.453 335.241 238.594 333.834 238.594C332.426 238.594 331.285 237.453 331.285 236.046C331.285 234.638 332.426 233.497 333.834 233.497Z" fill="#FF5223"/>
<path id="Vector_30" d="M366.963 244.328C368.37 244.328 369.511 245.469 369.511 246.877C369.511 248.284 368.37 249.425 366.963 249.425C365.555 249.425 364.414 248.284 364.414 246.877C364.414 245.469 365.555 244.328 366.963 244.328Z" fill="#FF5223"/>
</g>
<g id="icon-list">
<path id="Vector_31" d="M164.636 63.3871H55.1406C54.5883 63.3871 54.1406 63.8348 54.1406 64.3871V66.8469C54.1406 67.3992 54.5883 67.8469 55.1406 67.8469H164.636C165.188 67.8469 165.636 67.3992 165.636 66.8469V64.3871C165.636 63.8348 165.188 63.3871 164.636 63.3871Z" fill="#D1D5E6"/>
<path id="Vector_32" d="M164.636 95.8799H55.1406C54.5883 95.8799 54.1406 96.3276 54.1406 96.8799V99.3397C54.1406 99.892 54.5883 100.34 55.1406 100.34H164.636C165.188 100.34 165.636 99.892 165.636 99.3397V96.8799C165.636 96.3276 165.188 95.8799 164.636 95.8799Z" fill="#D1D5E6"/>
<path id="Vector_33" d="M164.636 128.373H55.1406C54.5883 128.373 54.1406 128.821 54.1406 129.373V131.833C54.1406 132.385 54.5883 132.833 55.1406 132.833H164.636C165.188 132.833 165.636 132.385 165.636 131.833V129.373C165.636 128.821 165.188 128.373 164.636 128.373Z" fill="#D1D5E6"/>
<path id="Vector_34" d="M138.514 76.1294H55.1406C54.5883 76.1294 54.1406 76.5771 54.1406 77.1294V79.5892C54.1406 80.1415 54.5883 80.5892 55.1406 80.5892H138.514C139.066 80.5892 139.514 80.1415 139.514 79.5892V77.1294C139.514 76.5771 139.066 76.1294 138.514 76.1294Z" fill="#D1D5E6"/>
<path id="Vector_35" d="M138.514 108.622H55.1406C54.5883 108.622 54.1406 109.07 54.1406 109.622V112.082C54.1406 112.634 54.5883 113.082 55.1406 113.082H138.514C139.066 113.082 139.514 112.634 139.514 112.082V109.622C139.514 109.07 139.066 108.622 138.514 108.622Z" fill="#D1D5E6"/>
<path id="Vector_36" d="M138.514 141.115H55.1406C54.5883 141.115 54.1406 141.563 54.1406 142.115V144.575C54.1406 145.127 54.5883 145.575 55.1406 145.575H138.514C139.066 145.575 139.514 145.127 139.514 144.575V142.115C139.514 141.563 139.066 141.115 138.514 141.115Z" fill="#D1D5E6"/>
<path id="Vector_37" d="M41.8832 104.088L33.6758 112.295L25.4684 104.088L33.6758 95.8802L41.8832 104.088Z" fill="#FF5223"/>
<path id="Vector_38" d="M33.7544 143.8C37.3488 143.8 40.2626 140.886 40.2626 137.292C40.2626 133.698 37.3488 130.784 33.7544 130.784C30.1599 130.784 27.2461 133.698 27.2461 137.292C27.2461 140.886 30.1599 143.8 33.7544 143.8Z" fill="#4767F6" stroke="#4767F6"/>
<path id="Vector_39" d="M34.0751 63.3871L30.3303 66.1967L26.501 68.89L28.0158 73.3198L29.394 77.794L34.0751 77.7222L38.7562 77.794L40.1344 73.3198L41.6493 68.89L37.82 66.1967L34.0751 63.3871Z" fill="#F0027F"/>
</g>
<g id="box-text">
<path id="Vector_40" d="M568.567 62.1127H436.773C436.221 62.1127 435.773 62.5604 435.773 63.1127V65.5725C435.773 66.1248 436.221 66.5725 436.773 66.5725H568.567C569.119 66.5725 569.567 66.1248 569.567 65.5725V63.1127C569.567 62.5604 569.119 62.1127 568.567 62.1127Z" fill="#D1D5E6"/>
<path id="Vector_41" d="M544.994 90.1459H436.773C436.221 90.1459 435.773 90.5936 435.773 91.1459V93.6057C435.773 94.158 436.221 94.6057 436.773 94.6057H544.994C545.546 94.6057 545.994 94.158 545.994 93.6057V91.1459C545.994 90.5936 545.546 90.1459 544.994 90.1459Z" fill="#D1D5E6"/>
<path id="Vector_42" d="M526.518 118.179H436.773C436.221 118.179 435.773 118.627 435.773 119.179V121.639C435.773 122.191 436.221 122.639 436.773 122.639H526.518C527.07 122.639 527.518 122.191 527.518 121.639V119.179C527.518 118.627 527.07 118.179 526.518 118.179Z" fill="#D1D5E6"/>
<path id="Vector_43" d="M507.404 76.1294H436.773C436.221 76.1294 435.773 76.5771 435.773 77.1294V79.5892C435.773 80.1415 436.221 80.5892 436.773 80.5892H507.404C507.956 80.5892 508.404 80.1415 508.404 79.5892V77.1294C508.404 76.5771 507.956 76.1294 507.404 76.1294Z" fill="#D1D5E6"/>
<path id="Vector_44" d="M475.548 104.162H436.773C436.221 104.162 435.773 104.61 435.773 105.162V107.622C435.773 108.174 436.221 108.622 436.773 108.622H475.548C476.101 108.622 476.548 108.174 476.548 107.622V105.162C476.548 104.61 476.101 104.162 475.548 104.162Z" fill="#D1D5E6"/>
<path id="Vector_45" d="M475.548 132.195H436.773C436.221 132.195 435.773 132.643 435.773 133.195V135.655C435.773 136.207 436.221 136.655 436.773 136.655H475.548C476.101 136.655 476.548 136.207 476.548 135.655V133.195C476.548 132.643 476.101 132.195 475.548 132.195Z" fill="#D1D5E6"/>
</g>
<g id="pie-chart">
<g id="Group 1024">
<path id="pie" d="M537.063 261.208C536.844 271.728 533.016 281.854 526.219 289.886C519.422 297.919 510.07 303.371 499.731 305.328C489.391 307.285 478.694 305.627 469.432 300.634C460.169 295.64 452.905 287.614 448.858 277.901C444.81 268.188 444.225 257.379 447.2 247.286C450.175 237.192 456.53 228.429 465.199 222.464C473.868 216.5 484.324 213.697 494.813 214.526C505.303 215.355 515.189 219.765 522.814 227.016L491.2 260.256L537.063 261.208Z" fill="#F1F2F6"/>
<path id="pie_1" d="M457.745 228.872C461.866 224.479 466.812 220.94 472.301 218.458C477.79 215.976 483.714 214.599 489.735 214.406C495.756 214.214 501.756 215.209 507.392 217.335C513.029 219.462 518.191 222.677 522.585 226.798L491.202 260.255L457.745 228.872Z" fill="#F0027F"/>
<path id="pie_2" d="M527.578 226.029C531.89 230.236 535.331 235.251 537.704 240.787C540.078 246.324 541.338 252.274 541.413 258.297L495.544 258.864L527.578 226.029Z" fill="#FF5223"/>
</g>
</g>
<g id="dot-square">
<path id="Vector_46" d="M133.335 217.569H60.3164C54.7936 217.569 50.3164 222.046 50.3164 227.569V300.588C50.3164 306.111 54.7936 310.588 60.3164 310.588H133.335C138.858 310.588 143.335 306.111 143.335 300.588V227.569C143.335 222.046 138.858 217.569 133.335 217.569Z" fill="#F1F2F6"/>
<path id="Vector_47" d="M96.8285 294.934C113.87 294.934 127.684 281.119 127.684 264.078C127.684 247.037 113.87 233.222 96.8285 233.222C79.7873 233.222 65.9727 247.037 65.9727 264.078C65.9727 281.119 79.7873 294.934 96.8285 294.934Z" stroke="#FF5223" stroke-width="2"/>
<path id="Vector_48" d="M85.9958 280.643C89.1626 280.643 91.7298 283.21 91.7298 286.377C91.7298 289.544 89.1626 292.111 85.9958 292.111C82.8289 292.111 80.2617 289.544 80.2617 286.377C80.2617 283.21 82.8289 280.643 85.9958 280.643Z" fill="#F0027F"/>
</g>
</g>
<defs>
<filter id="filter0_d_0_1" x="0" y="0" width="615" height="360" filterUnits="userSpaceOnUse" color-interpolation-filters="sRGB">
<feFlood flood-opacity="0" result="BackgroundImageFix"/>
<feColorMatrix in="SourceAlpha" type="matrix" values="0 0 0 0 0 0 0 0 0 0 0 0 0 0 0 0 0 0 127 0" result="hardAlpha"/>
<feOffset dy="4"/>
<feGaussianBlur stdDeviation="2"/>
<feComposite in2="hardAlpha" operator="out"/>
<feColorMatrix type="matrix" values="0 0 0 0 0 0 0 0 0 0 0 0 0 0 0 0 0 0 0.25 0"/>
<feBlend mode="normal" in2="BackgroundImageFix" result="effect1_dropShadow_0_1"/>
<feBlend mode="normal" in="SourceGraphic" in2="effect1_dropShadow_0_1" result="shape"/>
</filter>
<clipPath id="clip0_0_1">
<rect width="607" height="352" fill="white" transform="translate(4)"/>
</clipPath>
</defs>
</svg>
