<svg width="518" height="349" viewBox="0 0 518 349" fill="none" xmlns="http://www.w3.org/2000/svg">
<rect width="518" height="349" fill="#F5F5F5"/>
<g id="jamstackOne 1" clip-path="url(#clip0_0_1)">
<g id="desktop">
<g id="Group 1056">
<path id="Vector" d="M274.251 205.329H62.0586C61.5063 205.329 61.0586 205.777 61.0586 206.329V207.776C61.0586 208.328 61.5063 208.776 62.0586 208.776H274.251C274.803 208.776 275.251 208.328 275.251 207.776V206.329C275.251 205.777 274.803 205.329 274.251 205.329Z" fill="#D1D5E6"/>
<path id="Vector_2" d="M274.251 226.994H62.0586C61.5063 226.994 61.0586 227.442 61.0586 227.994V229.441C61.0586 229.993 61.5063 230.441 62.0586 230.441H274.251C274.803 230.441 275.251 229.993 275.251 229.441V227.994C275.251 227.442 274.803 226.994 274.251 226.994Z" fill="#D1D5E6"/>
<path id="Vector_3" d="M274.251 194.496H62.0586C61.5063 194.496 61.0586 194.944 61.0586 195.496V196.943C61.0586 197.495 61.5063 197.943 62.0586 197.943H274.251C274.803 197.943 275.251 197.495 275.251 196.943V195.496C275.251 194.944 274.803 194.496 274.251 194.496Z" fill="#D1D5E6"/>
<path id="Vector_4" d="M274.251 216.162H62.0586C61.5063 216.162 61.0586 216.61 61.0586 217.162V218.609C61.0586 219.161 61.5063 219.609 62.0586 219.609H274.251C274.803 219.609 275.251 219.161 275.251 218.609V217.162C275.251 216.61 274.803 216.162 274.251 216.162Z" fill="#D1D5E6"/>
<path id="Vector_5" d="M274.251 248.66H62.0586C61.5063 248.66 61.0586 249.108 61.0586 249.66V251.107C61.0586 251.659 61.5063 252.107 62.0586 252.107H274.251C274.803 252.107 275.251 251.659 275.251 251.107V249.66C275.251 249.108 274.803 248.66 274.251 248.66Z" fill="#D1D5E6"/>
</g>
<g id="desktop-frame">
<path id="Vector_6" d="M460.474 0.5H51.1055C46.1349 0.5 42.1055 4.52944 42.1055 9.5V260.81C42.1055 265.781 46.1349 269.81 51.1055 269.81H460.474C465.445 269.81 469.474 265.781 469.474 260.81V9.5C469.474 4.52944 465.445 0.5 460.474 0.5Z" fill="white" stroke="#4767F6" stroke-width="2"/>
<path id="Vector_7" d="M41 9.5C41 4.25329 45.2533 0 50.5 0H459.868C465.115 0 469.368 4.25329 469.368 9.5V15.7414H41V9.5Z" fill="#4767F6" stroke="#4767F6"/>
</g>
<g id="desktop-3">
<path id="Vector_8" d="M429.942 178.24H301.731C296.208 178.24 291.731 182.717 291.731 188.24V241.607C291.731 247.13 296.208 251.607 301.731 251.607H429.942C435.465 251.607 439.942 247.13 439.942 241.607V188.24C439.942 182.717 435.465 178.24 429.942 178.24Z" fill="#F1F2F6"/>
<path id="Vector_9" d="M341.2 190.057H311.96C306.438 190.057 301.96 194.534 301.96 200.057V229.296C301.96 234.819 306.438 239.296 311.96 239.296H341.2C346.723 239.296 351.2 234.819 351.2 229.296V200.057C351.2 194.534 346.723 190.057 341.2 190.057Z" fill="white"/>
<path id="Vector_10" d="M326.577 229.926C334.999 229.926 341.827 223.099 341.827 214.677C341.827 206.255 334.999 199.428 326.577 199.428C318.156 199.428 311.328 206.255 311.328 214.677C311.328 223.099 318.156 229.926 326.577 229.926Z" stroke="#FF5223" stroke-width="2"/>
<path id="Vector_11" d="M320.669 223.54C322.301 223.54 323.623 224.863 323.623 226.495C323.623 228.126 322.301 229.449 320.669 229.449C319.037 229.449 317.714 228.126 317.714 226.495C317.714 224.863 319.037 223.54 320.669 223.54Z" fill="#F0027F"/>
<path id="Vector_12" d="M416.181 208.276H360.078C359.526 208.276 359.078 208.724 359.078 209.276V210.723C359.078 211.275 359.526 211.723 360.078 211.723H416.181C416.733 211.723 417.181 211.275 417.181 210.723V209.276C417.181 208.724 416.733 208.276 416.181 208.276Z" fill="white"/>
<path id="Vector_13" d="M422.09 215.662H360.078C359.526 215.662 359.078 216.11 359.078 216.662V218.109C359.078 218.661 359.526 219.109 360.078 219.109H422.09C422.642 219.109 423.09 218.661 423.09 218.109V216.662C423.09 216.11 422.642 215.662 422.09 215.662Z" fill="white"/>
<path id="Vector_14" d="M422.09 223.048H360.078C359.526 223.048 359.078 223.496 359.078 224.048V225.495C359.078 226.047 359.526 226.495 360.078 226.495H422.09C422.642 226.495 423.09 226.047 423.09 225.495V224.048C423.09 223.496 422.642 223.048 422.09 223.048Z" fill="white"/>
</g>
<g id="desktop-1">
<path id="Vector_15" d="M265.251 41.8535H71.0586C65.5357 41.8535 61.0586 46.3307 61.0586 51.8535V153.475C61.0586 158.998 65.5357 163.475 71.0586 163.475H265.251C270.773 163.475 275.251 158.998 275.251 153.475V51.8535C275.251 46.3307 270.773 41.8535 265.251 41.8535Z" fill="#F1F2F6"/>
<path id="Vector_16" d="M168.647 81.2454L158.575 88.8018L148.276 96.0457L152.351 107.96L156.057 119.993L168.647 119.8L181.237 119.993L184.944 107.96L189.018 96.0457L178.719 88.8018L168.647 81.2454Z" fill="#FF5223"/>
<path id="Vector_17" d="M162.218 74.5214L162.21 74.5232L162.203 74.5248L141.492 78.9056L139.905 100.016L139.904 100.023L139.903 100.031L137.67 121.082L157.256 129.115L157.263 129.118L157.27 129.121L176.601 137.75L190.293 121.605L190.298 121.599L190.303 121.593L204.484 105.875L193.36 87.8642L193.356 87.8577L193.352 87.8511L182.785 69.5072L162.218 74.5214Z" stroke="#1C1C1C"/>
<path id="Vector_18" d="M138.302 76.6451L138.297 76.651L138.292 76.6568L118.872 98.6255L134.533 123.415L134.537 123.421L134.541 123.428L149.433 148.686L177.848 141.453L177.856 141.451L177.863 141.449L206.487 135.091L208.389 105.831V105.823L208.39 105.815L211.188 76.6277L183.948 65.7776L183.94 65.7747L183.933 65.7717L157.039 54.0911L138.302 76.6451Z" stroke="#1C1C1C"/>
<path id="Vector_19" d="M147.711 136.64C147.711 132.183 143.883 128.523 139.102 128.523C134.32 128.523 130.492 132.183 130.492 136.64C130.492 141.097 134.32 144.757 139.102 144.757C143.883 144.757 147.711 141.097 147.711 136.64Z" fill="#4767F6" stroke="#4767F6"/>
<path id="Vector_20" d="M143.928 136.582L139.418 141.093L134.907 136.582L139.418 132.072L143.928 136.582Z" fill="#F0027F"/>
<path id="Vector_21" d="M212.999 75.3516L208.488 79.8621L203.978 75.3516L208.488 70.8411L212.999 75.3516Z" fill="#F0027F"/>
</g>
<g id="desktop-2">
<path id="Vector_22" d="M423.939 61.0571H291.023C290.471 61.0571 290.023 61.5048 290.023 62.0571V63.5039C290.023 64.0562 290.471 64.5039 291.023 64.5039H423.939C424.491 64.5039 424.939 64.0562 424.939 63.5039V62.0571C424.939 61.5048 424.491 61.0571 423.939 61.0571Z" fill="#D1D5E6"/>
<path id="Vector_23" d="M437.234 42.3459H291.023C290.471 42.3459 290.023 42.7936 290.023 43.3459V52.671C290.023 53.2233 290.471 53.671 291.023 53.671H437.234C437.786 53.671 438.234 53.2233 438.234 52.671V43.3459C438.234 42.7936 437.786 42.3459 437.234 42.3459Z" fill="#D1D5E6"/>
<path id="Vector_24" d="M437.839 136.886H291.628C291.076 136.886 290.628 137.334 290.628 137.886V162.475C290.628 163.028 291.076 163.475 291.628 163.475H437.839C438.392 163.475 438.839 163.028 438.839 162.475V137.886C438.839 137.334 438.392 136.886 437.839 136.886Z" fill="#FF5223"/>
<path id="Vector_25" d="M437.234 82.7224H291.023C290.471 82.7224 290.023 83.1701 290.023 83.7224V85.1692C290.023 85.7215 290.471 86.1692 291.023 86.1692H437.234C437.786 86.1692 438.234 85.7215 438.234 85.1692V83.7224C438.234 83.1701 437.786 82.7224 437.234 82.7224Z" fill="#D1D5E6"/>
<path id="Vector_26" d="M437.234 104.388H291.023C290.471 104.388 290.023 104.836 290.023 105.388V106.835C290.023 107.387 290.471 107.835 291.023 107.835H437.234C437.786 107.835 438.234 107.387 438.234 106.835V105.388C438.234 104.836 437.786 104.388 437.234 104.388Z" fill="#D1D5E6"/>
<path id="Vector_27" d="M437.234 71.8896H291.023C290.471 71.8896 290.023 72.3373 290.023 72.8896V74.3364C290.023 74.8887 290.471 75.3364 291.023 75.3364H437.234C437.786 75.3364 438.234 74.8887 438.234 74.3364V72.8896C438.234 72.3373 437.786 71.8896 437.234 71.8896Z" fill="#D1D5E6"/>
<path id="Vector_28" d="M437.234 93.5552H291.023C290.471 93.5552 290.023 94.0029 290.023 94.5552V96.002C290.023 96.5543 290.471 97.002 291.023 97.002H437.234C437.786 97.002 438.234 96.5543 438.234 96.002V94.5552C438.234 94.0029 437.786 93.5552 437.234 93.5552Z" fill="#D1D5E6"/>
<path id="Vector_29" d="M437.839 126.053H291.628C291.076 126.053 290.628 126.501 290.628 127.053V128.5C290.628 129.052 291.076 129.5 291.628 129.5H437.839C438.392 129.5 438.839 129.052 438.839 128.5V127.053C438.839 126.501 438.392 126.053 437.839 126.053Z" fill="#D1D5E6"/>
<path id="Vector_30" d="M437.234 115.22H291.023C290.471 115.22 290.023 115.668 290.023 116.22V117.667C290.023 118.219 290.471 118.667 291.023 118.667H437.234C437.786 118.667 438.234 118.219 438.234 117.667V116.22C438.234 115.668 437.786 115.22 437.234 115.22Z" fill="#D1D5E6"/>
</g>
</g>
<g id="tablet">
<g id="tab-frame">
<path id="Vector_31" d="M0.5 185.785C0.5 180.538 4.75329 176.285 10 176.285H263.772C269.019 176.285 273.272 180.538 273.272 185.785V186.118H0.5V185.785Z" fill="#4767F6" stroke="#4767F6"/>
<path id="Vector_32" d="M263.772 176H10C5.02944 176 1 180.029 1 185V337.831C1 342.802 5.02944 346.831 10 346.831H263.772C268.743 346.831 272.772 342.802 272.772 337.831V185C272.772 180.029 268.743 176 263.772 176Z" fill="white" stroke="#4767F6" stroke-width="2"/>
</g>
<g id="tablet-4">
<path id="Vector_33" d="M250.476 281.358H140.484C134.961 281.358 130.484 285.835 130.484 291.358V326.014C130.484 331.537 134.961 336.014 140.484 336.014H250.476C255.999 336.014 260.476 331.537 260.476 326.014V291.358C260.476 285.835 255.999 281.358 250.476 281.358Z" fill="#F1F2F6"/>
<path id="Vector_34" d="M169.233 287.759H146.887C141.364 287.759 136.887 292.236 136.887 297.759V320.105C136.887 325.628 141.364 330.105 146.887 330.105H169.233C174.756 330.105 179.233 325.628 179.233 320.105V297.759C179.233 292.236 174.756 287.759 169.233 287.759Z" fill="white"/>
<path id="Vector_35" d="M158.061 322.211C165.395 322.211 171.34 316.266 171.34 308.932C171.34 301.598 165.395 295.652 158.061 295.652C150.727 295.652 144.781 301.598 144.781 308.932C144.781 316.266 150.727 322.211 158.061 322.211Z" stroke="#FF5223" stroke-width="2"/>
<path id="Vector_36" d="M153.134 316.318C154.494 316.318 155.596 317.53 155.596 319.026C155.596 320.522 154.494 321.734 153.134 321.734C151.774 321.734 150.672 320.522 150.672 319.026C150.672 317.53 151.774 316.318 153.134 316.318Z" fill="#F0027F"/>
<path id="Vector_37" d="M241.259 301.546H185.156C184.604 301.546 184.156 301.994 184.156 302.546V303.993C184.156 304.545 184.604 304.993 185.156 304.993H241.259C241.811 304.993 242.259 304.545 242.259 303.993V302.546C242.259 301.994 241.811 301.546 241.259 301.546Z" fill="#D1D5E6"/>
<path id="Vector_38" d="M247.167 308.932H185.156C184.604 308.932 184.156 309.38 184.156 309.932V311.379C184.156 311.931 184.604 312.379 185.156 312.379H247.167C247.72 312.379 248.167 311.931 248.167 311.379V309.932C248.167 309.38 247.72 308.932 247.167 308.932Z" fill="#D1D5E6"/>
<path id="Vector_39" d="M247.167 316.318H185.156C184.604 316.318 184.156 316.766 184.156 317.318V318.765C184.156 319.317 184.604 319.765 185.156 319.765H247.167C247.72 319.765 248.167 319.317 248.167 318.765V317.318C248.167 316.766 247.72 316.318 247.167 316.318Z" fill="#D1D5E6"/>
</g>
<g id="tablet-3">
<path id="Vector_40" d="M111.264 300.069H14.7852C14.2329 300.069 13.7852 300.517 13.7852 301.069V302.516C13.7852 303.068 14.2329 303.516 14.7852 303.516H111.264C111.817 303.516 112.264 303.068 112.264 302.516V301.069C112.264 300.517 111.817 300.069 111.264 300.069Z" fill="#D1D5E6"/>
<path id="Vector_41" d="M121.112 281.358H14.7852C14.2329 281.358 13.7852 281.806 13.7852 282.358V291.683C13.7852 292.235 14.2329 292.683 14.7852 292.683H121.112C121.664 292.683 122.112 292.235 122.112 291.683V282.358C122.112 281.806 121.664 281.358 121.112 281.358Z" fill="#D1D5E6"/>
<path id="Vector_42" d="M121.112 321.734H14.7852C14.2329 321.734 13.7852 322.182 13.7852 322.734V324.181C13.7852 324.733 14.2329 325.181 14.7852 325.181H121.112C121.664 325.181 122.112 324.733 122.112 324.181V322.734C122.112 322.182 121.664 321.734 121.112 321.734Z" fill="#D1D5E6"/>
<path id="Vector_43" d="M121.112 310.901H14.7852C14.2329 310.901 13.7852 311.349 13.7852 311.901V313.348C13.7852 313.9 14.2329 314.348 14.7852 314.348H121.112C121.664 314.348 122.112 313.9 122.112 313.348V311.901C122.112 311.349 121.664 310.901 121.112 310.901Z" fill="#D1D5E6"/>
<path id="Vector_44" d="M121.112 333.352H14.7852C14.2329 333.352 13.7852 333.8 13.7852 334.352V335.799C13.7852 336.351 14.2329 336.799 14.7852 336.799H121.112C121.664 336.799 122.112 336.351 122.112 335.799V334.352C122.112 333.8 121.664 333.352 121.112 333.352Z" fill="#D1D5E6"/>
</g>
<g id="tablet-2">
<g id="Group 1054">
<path id="Vector_45" d="M247.659 216.854H131.484C130.932 216.854 130.484 217.302 130.484 217.854V219.301C130.484 219.853 130.932 220.301 131.484 220.301H247.659C248.211 220.301 248.659 219.853 248.659 219.301V217.854C248.659 217.302 248.211 216.854 247.659 216.854Z" fill="#D1D5E6"/>
<path id="Vector_46" d="M259.476 198.143H131.484C130.932 198.143 130.484 198.591 130.484 199.143V208.468C130.484 209.02 130.932 209.468 131.484 209.468H259.476C260.028 209.468 260.476 209.02 260.476 208.468V199.143C260.476 198.591 260.028 198.143 259.476 198.143Z" fill="#D1D5E6"/>
<path id="Vector_47" d="M259.476 238.519H131.484C130.932 238.519 130.484 238.967 130.484 239.519V240.966C130.484 241.518 130.932 241.966 131.484 241.966H259.476C260.028 241.966 260.476 241.518 260.476 240.966V239.519C260.476 238.967 260.028 238.519 259.476 238.519Z" fill="#D1D5E6"/>
<path id="Vector_48" d="M259.476 227.686H131.484C130.932 227.686 130.484 228.134 130.484 228.686V230.133C130.484 230.685 130.932 231.133 131.484 231.133H259.476C260.028 231.133 260.476 230.685 260.476 230.133V228.686C260.476 228.134 260.028 227.686 259.476 227.686Z" fill="#D1D5E6"/>
<path id="Vector_49" d="M259.476 249.352H131.484C130.932 249.352 130.484 249.8 130.484 250.352V251.799C130.484 252.351 130.932 252.799 131.484 252.799H259.476C260.028 252.799 260.476 252.351 260.476 251.799V250.352C260.476 249.8 260.028 249.352 259.476 249.352Z" fill="#D1D5E6"/>
</g>
<path id="Vector_50" d="M259.476 260.184H131.484C130.932 260.184 130.484 260.632 130.484 261.184V271.001C130.484 271.554 130.932 272.001 131.484 272.001H259.476C260.028 272.001 260.476 271.554 260.476 271.001V261.184C260.476 260.632 260.028 260.184 259.476 260.184Z" fill="#FF5223"/>
</g>
<g id="tablet-1">
<path id="Vector_51" d="M112.112 198.143H23.7852C18.2623 198.143 13.7852 202.62 13.7852 208.143V262.002C13.7852 267.525 18.2623 272.002 23.7852 272.002H112.112C117.635 272.002 122.112 267.525 122.112 262.002V208.143C122.112 202.62 117.635 198.143 112.112 198.143Z" fill="#F1F2F6"/>
<path id="Vector_52" d="M67.7794 223.334L61.412 228.111L54.9012 232.69L57.4768 240.222L59.8202 247.83L67.7794 247.707L75.7385 247.83L78.0818 240.222L80.6575 232.69L74.1466 228.111L67.7794 223.334Z" fill="#FF5223"/>
<path id="Vector_53" d="M63.7818 219.374L63.7743 219.375L63.7668 219.377L50.9019 222.098L49.9162 235.211L49.9156 235.218L49.9148 235.226L48.5273 248.302L60.6935 253.292L60.7006 253.295L60.7077 253.298L72.7151 258.658L81.2199 248.629L81.2249 248.623L81.23 248.618L90.0385 238.854L83.1285 227.667L83.1245 227.66L83.1207 227.653L76.5572 216.259L63.7818 219.374Z" stroke="#1C1C1C"/>
<path id="Vector_54" d="M48.862 220.645L48.8571 220.651L48.852 220.657L36.7537 234.343L46.5098 249.786L46.5139 249.793L46.5178 249.8L55.7957 265.535L73.4981 261.029L73.5056 261.027L73.513 261.025L91.3454 257.064L92.53 238.835L92.5305 238.828L92.5312 238.82L94.2744 220.636L77.304 213.877L77.2969 213.874L77.2898 213.871L60.5348 206.594L48.862 220.645Z" stroke="#1C1C1C"/>
<path id="Vector_55" d="M54.2313 258.294C54.2313 255.599 51.9413 253.378 49.0689 253.378C46.1965 253.378 43.9062 255.599 43.9062 258.294C43.9062 260.989 46.1965 263.21 49.0689 263.21C51.9413 263.21 54.2313 260.989 54.2313 258.294Z" fill="#4767F6" stroke="#4767F6"/>
<path id="Vector_56" d="M52.2573 258.152L49.4258 260.983L46.5943 258.152L49.4258 255.32L52.2573 258.152Z" fill="#F0027F"/>
<path id="Vector_57" d="M95.6127 219.715L92.7812 222.546L89.9498 219.715L92.7812 216.883L95.6127 219.715Z" fill="#F0027F"/>
</g>
</g>
<g id="mobile">
<g id="Group 1046">
<path id="Vector_58" d="M508.603 109.819H412.891C407.92 109.819 403.891 113.848 403.891 118.819V283.96C403.891 288.931 407.92 292.96 412.891 292.96H508.603C513.574 292.96 517.603 288.931 517.603 283.96V118.819C517.603 113.848 513.574 109.819 508.603 109.819Z" fill="white" stroke="#4767F6" stroke-width="2"/>
<path id="Vector_59" d="M403.391 118.819C403.391 113.573 407.644 109.319 412.891 109.319H508.573C513.82 109.319 518.074 113.573 518.074 118.819V122.674H403.391V118.819Z" fill="#4767F6" stroke="#4767F6"/>
</g>
<path id="Vector_60" d="M496.785 155.597H424.708C419.185 155.597 414.708 160.074 414.708 165.597V230.289C414.708 235.812 419.185 240.289 424.708 240.289H496.785C502.308 240.289 506.785 235.812 506.785 230.289V165.597C506.785 160.074 502.308 155.597 496.785 155.597Z" fill="#F1F2F6"/>
<path id="Vector_61" d="M461.24 182.679L453.947 188.151L446.489 193.396L449.439 202.024L452.123 210.737L461.24 210.598L470.357 210.737L473.041 202.024L475.991 193.396L468.534 188.151L461.24 182.679Z" fill="#FF5223"/>
<path id="Vector_62" d="M456.559 177.718L456.552 177.72L456.544 177.721L441.49 180.906L440.336 196.25L440.335 196.258V196.266L438.711 211.568L452.948 217.406L452.955 217.409L452.962 217.412L467.014 223.685L476.966 211.949L476.971 211.943L476.976 211.938L487.284 200.512L479.198 187.42L479.194 187.414L479.19 187.407L471.509 174.073L456.559 177.718Z" stroke="#1C1C1C"/>
<path id="Vector_63" d="M439.128 179.227L439.123 179.233L439.118 179.239L424.976 195.237L436.38 213.289L436.384 213.295L436.388 213.302L447.233 231.695L467.926 226.428L467.933 226.426L467.941 226.424L488.785 221.794L490.169 200.486L490.17 200.479L490.171 200.471L492.208 179.216L472.372 171.315L472.364 171.312L472.357 171.309L452.772 162.803L439.128 179.227Z" stroke="#1C1C1C"/>
<path id="Vector_64" d="M445.721 223.055C445.721 219.814 442.987 217.154 439.574 217.154C436.161 217.154 433.426 219.814 433.426 223.055C433.426 226.297 436.161 228.956 439.574 228.956C442.987 228.956 445.721 226.297 445.721 223.055Z" fill="#4767F6" stroke="#4767F6"/>
<path id="Vector_65" d="M443.144 222.994L439.844 226.294L436.543 222.994L439.844 219.694L443.144 222.994Z" fill="#F0027F"/>
<path id="Vector_66" d="M493.679 178.195L490.378 181.495L487.078 178.195L490.378 174.895L493.679 178.195Z" fill="#F0027F"/>
<path id="Vector_67" d="M505.179 138.363H433.812C433.26 138.363 432.812 138.811 432.812 139.363V140.81C432.812 141.362 433.26 141.81 433.812 141.81H505.179C505.731 141.81 506.179 141.362 506.179 140.81V139.363C506.179 138.811 505.731 138.363 505.179 138.363Z" fill="#D1D5E6"/>
<path id="Vector_68" d="M505.785 266.878H415.708C415.155 266.878 414.708 267.326 414.708 267.878V269.325C414.708 269.877 415.155 270.325 415.708 270.325H505.785C506.338 270.325 506.785 269.877 506.785 269.325V267.878C506.785 267.326 506.338 266.878 505.785 266.878Z" fill="#D1D5E6"/>
<path id="Vector_69" d="M505.785 281.65H415.708C415.155 281.65 414.708 282.098 414.708 282.65V284.097C414.708 284.649 415.155 285.097 415.708 285.097H505.785C506.338 285.097 506.785 284.649 506.785 284.097V282.65C506.785 282.098 506.338 281.65 505.785 281.65Z" fill="#D1D5E6"/>
<path id="Vector_70" d="M505.784 145.749H434.417C433.865 145.749 433.417 146.197 433.417 146.749V148.196C433.417 148.748 433.865 149.196 434.417 149.196H505.784C506.337 149.196 506.784 148.748 506.784 148.196V146.749C506.784 146.197 506.337 145.749 505.784 145.749Z" fill="#D1D5E6"/>
<path id="Vector_71" d="M505.785 274.264H415.708C415.155 274.264 414.708 274.712 414.708 275.264V276.711C414.708 277.263 415.155 277.711 415.708 277.711H505.785C506.338 277.711 506.785 277.263 506.785 276.711V275.264C506.785 274.712 506.338 274.264 505.785 274.264Z" fill="#D1D5E6"/>
<path id="Vector_72" d="M420.01 149.196C423.273 149.196 425.919 146.55 425.919 143.287C425.919 140.024 423.273 137.378 420.01 137.378C416.747 137.378 414.101 140.024 414.101 143.287C414.101 146.55 416.747 149.196 420.01 149.196Z" fill="#D1D5E5"/>
<path id="Vector_73" d="M506.785 244.72H414.708V259H506.785V244.72Z" fill="#FF5223"/>
</g>
</g>
<defs>
<clipPath id="clip0_0_1">
<rect width="518" height="349" fill="white"/>
</clipPath>
</defs>
</svg>
