<svg width="247" height="34" viewBox="0 0 247 34" fill="none" xmlns="http://www.w3.org/2000/svg">
<path d="M18.3627 2.42V24.464C18.3627 27.192 17.5267 29.348 15.8547 30.932C14.2121 32.516 12.0414 33.308 9.34272 33.308C6.64405 33.308 4.45872 32.516 2.78672 30.932C1.14405 29.348 0.322719 27.192 0.322719 24.464H5.38272C5.41205 25.8133 5.74939 26.884 6.39472 27.676C7.06939 28.468 8.05205 28.864 9.34272 28.864C10.6334 28.864 11.6161 28.468 12.2907 27.676C12.9654 26.8547 13.3027 25.784 13.3027 24.464V2.42H18.3627ZM24.8507 20.768C24.8507 18.3333 25.3493 16.1773 26.3467 14.3C27.3733 12.4227 28.752 10.9707 30.4827 9.944C32.2427 8.888 34.1787 8.36 36.2907 8.36C38.1973 8.36 39.8547 8.74133 41.2627 9.504C42.7 10.2373 43.844 11.1613 44.6947 12.276V8.756H49.7547V33H44.6947V29.392C43.844 30.536 42.6853 31.4893 41.2187 32.252C39.752 33.0147 38.08 33.396 36.2027 33.396C34.12 33.396 32.2133 32.868 30.4827 31.812C28.752 30.7267 27.3733 29.2307 26.3467 27.324C25.3493 25.388 24.8507 23.2027 24.8507 20.768ZM44.6947 20.856C44.6947 19.184 44.3427 17.732 43.6387 16.5C42.964 15.268 42.0693 14.3293 40.9547 13.684C39.84 13.0387 38.6373 12.716 37.3467 12.716C36.056 12.716 34.8533 13.0387 33.7387 13.684C32.624 14.3 31.7147 15.224 31.0107 16.456C30.336 17.6587 29.9987 19.096 29.9987 20.768C29.9987 22.44 30.336 23.9067 31.0107 25.168C31.7147 26.4293 32.624 27.3973 33.7387 28.072C34.8827 28.7173 36.0853 29.04 37.3467 29.04C38.6373 29.04 39.84 28.7173 40.9547 28.072C42.0693 27.4267 42.964 26.488 43.6387 25.256C44.3427 23.9947 44.6947 22.528 44.6947 20.856ZM85.691 8.36C87.5976 8.36 89.299 8.756 90.795 9.548C92.3203 10.34 93.5083 11.5133 94.359 13.068C95.239 14.6227 95.679 16.5 95.679 18.7V33H90.707V19.448C90.707 17.2773 90.1643 15.62 89.079 14.476C87.9936 13.3027 86.5123 12.716 84.635 12.716C82.7576 12.716 81.2616 13.3027 80.147 14.476C79.0616 15.62 78.519 17.2773 78.519 19.448V33H73.547V19.448C73.547 17.2773 73.0043 15.62 71.919 14.476C70.8336 13.3027 69.3523 12.716 67.475 12.716C65.5976 12.716 64.1016 13.3027 62.987 14.476C61.9016 15.62 61.359 17.2773 61.359 19.448V33H56.343V8.756H61.359V11.528C62.1803 10.5307 63.2216 9.75333 64.483 9.196C65.7443 8.63867 67.0936 8.36 68.531 8.36C70.467 8.36 72.1976 8.77067 73.723 9.592C75.2483 10.4133 76.4216 11.6013 77.243 13.156C77.9763 11.6893 79.1203 10.5307 80.675 9.68C82.2296 8.8 83.9016 8.36 85.691 8.36ZM110.862 33.396C108.955 33.396 107.239 33.0587 105.714 32.384C104.218 31.68 103.03 30.7413 102.15 29.568C101.27 28.3653 100.8 27.0307 100.742 25.564H105.934C106.022 26.5907 106.506 27.456 107.386 28.16C108.295 28.8347 109.424 29.172 110.774 29.172C112.182 29.172 113.267 28.908 114.03 28.38C114.822 27.8227 115.218 27.1187 115.218 26.268C115.218 25.3587 114.778 24.684 113.898 24.244C113.047 23.804 111.683 23.32 109.806 22.792C107.987 22.2933 106.506 21.8093 105.362 21.34C104.218 20.8707 103.22 20.152 102.37 19.184C101.548 18.216 101.138 16.94 101.138 15.356C101.138 14.0653 101.519 12.892 102.282 11.836C103.044 10.7507 104.13 9.9 105.538 9.284C106.975 8.668 108.618 8.36 110.466 8.36C113.223 8.36 115.438 9.064 117.11 10.472C118.811 11.8507 119.72 13.7427 119.838 16.148H114.822C114.734 15.0627 114.294 14.1973 113.502 13.552C112.71 12.9067 111.639 12.584 110.29 12.584C108.97 12.584 107.958 12.8333 107.254 13.332C106.55 13.8307 106.198 14.4907 106.198 15.312C106.198 15.9573 106.432 16.5 106.902 16.94C107.371 17.38 107.943 17.732 108.618 17.996C109.292 18.2307 110.29 18.5387 111.61 18.92C113.37 19.3893 114.807 19.8733 115.922 20.372C117.066 20.8413 118.048 21.5453 118.87 22.484C119.691 23.4227 120.116 24.6693 120.146 26.224C120.146 27.6027 119.764 28.8347 119.002 29.92C118.239 31.0053 117.154 31.856 115.746 32.472C114.367 33.088 112.739 33.396 110.862 33.396ZM131.418 12.848V26.268C131.418 27.1773 131.623 27.8373 132.034 28.248C132.474 28.6293 133.207 28.82 134.234 28.82H137.314V33H133.354C131.095 33 129.364 32.472 128.162 31.416C126.959 30.36 126.358 28.644 126.358 26.268V12.848H123.498V8.756H126.358V2.728H131.418V8.756H137.314V12.848H131.418ZM140.265 20.768C140.265 18.3333 140.763 16.1773 141.761 14.3C142.787 12.4227 144.166 10.9707 145.897 9.944C147.657 8.888 149.593 8.36 151.705 8.36C153.611 8.36 155.269 8.74133 156.677 9.504C158.114 10.2373 159.258 11.1613 160.109 12.276V8.756H165.169V33H160.109V29.392C159.258 30.536 158.099 31.4893 156.633 32.252C155.166 33.0147 153.494 33.396 151.617 33.396C149.534 33.396 147.627 32.868 145.897 31.812C144.166 30.7267 142.787 29.2307 141.761 27.324C140.763 25.388 140.265 23.2027 140.265 20.768ZM160.109 20.856C160.109 19.184 159.757 17.732 159.053 16.5C158.378 15.268 157.483 14.3293 156.369 13.684C155.254 13.0387 154.051 12.716 152.761 12.716C151.47 12.716 150.267 13.0387 149.153 13.684C148.038 14.3 147.129 15.224 146.425 16.456C145.75 17.6587 145.413 19.096 145.413 20.768C145.413 22.44 145.75 23.9067 146.425 25.168C147.129 26.4293 148.038 27.3973 149.153 28.072C150.297 28.7173 151.499 29.04 152.761 29.04C154.051 29.04 155.254 28.7173 156.369 28.072C157.483 27.4267 158.378 26.488 159.053 25.256C159.757 23.9947 160.109 22.528 160.109 20.856ZM170.085 20.856C170.085 18.3627 170.584 16.1773 171.581 14.3C172.608 12.3933 174.016 10.9267 175.805 9.9C177.594 8.87333 179.648 8.36 181.965 8.36C184.898 8.36 187.318 9.064 189.225 10.472C191.161 11.8507 192.466 13.8307 193.141 16.412H187.729C187.289 15.2093 186.585 14.2707 185.617 13.596C184.649 12.9213 183.432 12.584 181.965 12.584C179.912 12.584 178.269 13.3173 177.037 14.784C175.834 16.2213 175.233 18.2453 175.233 20.856C175.233 23.4667 175.834 25.5053 177.037 26.972C178.269 28.4387 179.912 29.172 181.965 29.172C184.869 29.172 186.79 27.896 187.729 25.344H193.141C192.437 27.808 191.117 29.7733 189.181 31.24C187.245 32.6773 184.84 33.396 181.965 33.396C179.648 33.396 177.594 32.8827 175.805 31.856C174.016 30.8 172.608 29.3333 171.581 27.456C170.584 25.5493 170.085 23.3493 170.085 20.856ZM207.732 20.9L218.908 33H212.132L203.156 22.572V33H198.14V0.44H203.156V19.36L211.956 8.756H218.908L207.732 20.9ZM246.131 19.228H237.243V28.336H232.579V19.228H223.691V15.004H232.579V5.896H237.243V15.004H246.131V19.228Z" fill="#F0027F"/>
</svg>
