<svg width="518" height="349" viewBox="0 0 518 349" fill="none" xmlns="http://www.w3.org/2000/svg">
<rect x="40.3945" y="1" width="427.369" height="269.31" rx="9" fill="white" stroke="#4767F6" stroke-width="2"/>
<path d="M39.8945 10C39.8945 4.75329 44.1478 0.5 49.3945 0.5H458.763C464.01 0.5 468.263 4.75329 468.263 10V16.2414H39.8945V10Z" fill="#4767F6" stroke="#4767F6"/>
<rect x="290.023" y="61.0571" width="134.916" height="3.44677" rx="1" fill="#D1D5E6"/>
<rect x="61.0586" y="183.664" width="194.989" height="3.44677" rx="1" fill="#D1D5E6"/>
<rect x="290.023" y="42.3459" width="148.211" height="11.3251" rx="1" fill="#D1D5E6"/>
<rect x="290.023" y="136.886" width="148.211" height="26.5894" rx="1" fill="#FF5223"/>
<rect x="290.023" y="82.7224" width="148.211" height="3.44677" rx="1" fill="#D1D5E6"/>
<rect x="61.0586" y="205.329" width="214.192" height="3.44677" rx="1" fill="#D1D5E6"/>
<rect x="290.023" y="104.388" width="148.211" height="3.44677" rx="1" fill="#D1D5E6"/>
<rect x="61.0586" y="226.994" width="214.192" height="3.44677" rx="1" fill="#D1D5E6"/>
<rect x="290.023" y="71.8896" width="148.211" height="3.44677" rx="1" fill="#D1D5E6"/>
<rect x="61.0586" y="194.496" width="214.192" height="3.44677" rx="1" fill="#D1D5E6"/>
<rect x="290.023" y="93.5552" width="148.211" height="3.44677" rx="1" fill="#D1D5E6"/>
<rect x="61.0586" y="216.162" width="214.192" height="3.44677" rx="1" fill="#D1D5E6"/>
<rect x="290.023" y="126.053" width="148.211" height="3.44677" rx="1" fill="#D1D5E6"/>
<rect x="61.0586" y="248.66" width="214.192" height="3.44677" rx="1" fill="#D1D5E6"/>
<rect x="290.023" y="115.22" width="148.211" height="3.44677" rx="1" fill="#D1D5E6"/>
<rect x="61.0586" y="237.827" width="214.192" height="3.44677" rx="1" fill="#D1D5E6"/>
<rect x="61.0586" y="41.8535" width="214.192" height="121.622" rx="10" fill="#F1F2F6"/>
<path d="M168.647 81.2454L158.575 88.8018L148.276 96.0457L152.351 107.96L156.057 119.993L168.647 119.8L181.237 119.993L184.944 107.96L189.018 96.0457L178.719 88.8018L168.647 81.2454Z" fill="#FF5223"/>
<path d="M162.218 74.5214L162.21 74.5232L162.203 74.5248L141.492 78.9056L139.905 100.016L139.904 100.023L139.903 100.031L137.67 121.082L157.256 129.115L157.263 129.118L157.27 129.121L176.601 137.75L190.293 121.605L190.298 121.599L190.303 121.593L204.484 105.875L193.36 87.8642L193.356 87.8577L193.352 87.8511L182.785 69.5072L162.218 74.5214Z" stroke="#1C1C1C"/>
<path d="M138.302 76.6451L138.297 76.651L138.292 76.6568L118.872 98.6255L134.533 123.415L134.537 123.421L134.541 123.428L149.433 148.686L177.848 141.453L177.856 141.451L177.863 141.449L206.487 135.091L208.389 105.831L208.389 105.823L208.39 105.815L211.188 76.6277L183.948 65.7776L183.94 65.7747L183.933 65.7717L157.039 54.0911L138.302 76.6451Z" stroke="#1C1C1C"/>
<path d="M147.711 136.64C147.711 132.183 143.883 128.523 139.102 128.523C134.32 128.523 130.492 132.183 130.492 136.64C130.492 141.097 134.32 144.757 139.102 144.757C143.883 144.757 147.711 141.097 147.711 136.64Z" fill="#4767F6" stroke="#4767F6"/>
<rect width="6.37882" height="6.37882" transform="matrix(0.707107 -0.707107 -0.707107 -0.707107 139.418 141.093)" fill="#F0027F"/>
<rect width="6.37882" height="6.37882" transform="matrix(0.707107 -0.707107 -0.707107 -0.707107 208.488 79.8621)" fill="#F0027F"/>
<rect x="290.02" y="178.74" width="148.211" height="73.3669" rx="10" fill="#F1F2F6"/>
<rect x="300.855" y="190.557" width="49.2395" height="49.2395" rx="10" fill="white"/>
<circle cx="325.472" cy="215.177" r="15.2491" stroke="#FF5223" stroke-width="2"/>
<circle cx="2.95437" cy="2.95437" r="2.95437" transform="matrix(1 0 0 -1 316.609 229.949)" fill="#F0027F"/>
<rect x="357.973" y="208.776" width="58.1027" height="3.44677" rx="1" fill="white"/>
<rect x="357.973" y="216.162" width="64.0114" height="3.44677" rx="1" fill="white"/>
<rect x="357.973" y="223.548" width="64.0114" height="3.44677" rx="1" fill="white"/>
<rect x="1" y="176.785" width="271.772" height="170.831" rx="9" fill="white" stroke="#4767F6" stroke-width="2"/>
<path d="M0.5 185.785C0.5 180.538 4.75329 176.285 10 176.285H263.772C269.019 176.285 273.272 180.538 273.272 185.785V186.118H0.5V185.785Z" fill="#4767F6" stroke="#4767F6"/>
<rect x="130.484" y="282.143" width="129.992" height="54.6559" rx="10" fill="#F1F2F6"/>
<rect x="136.887" y="288.544" width="42.346" height="42.346" rx="10" fill="white"/>
<circle cx="158.061" cy="309.717" r="13.2795" stroke="#FF5223" stroke-width="2"/>
<ellipse cx="2.46198" cy="2.70817" rx="2.46198" ry="2.70817" transform="matrix(1 0 0 -1 150.672 322.519)" fill="#F0027F"/>
<rect x="13.7852" y="300.854" width="98.4791" height="3.44677" rx="1" fill="#D1D5E6"/>
<rect x="184.156" y="302.331" width="58.1027" height="3.44677" rx="1" fill="#D1D5E6"/>
<rect x="13.7852" y="282.143" width="108.327" height="11.3251" rx="1" fill="#D1D5E6"/>
<rect x="13.7852" y="322.519" width="108.327" height="3.44677" rx="1" fill="#D1D5E6"/>
<rect x="13.7852" y="311.686" width="108.327" height="3.44677" rx="1" fill="#D1D5E6"/>
<rect x="184.156" y="309.717" width="64.0114" height="3.44677" rx="1" fill="#D1D5E6"/>
<rect x="184.156" y="317.103" width="64.0114" height="3.44677" rx="1" fill="#D1D5E6"/>
<rect x="13.7852" y="333.352" width="108.327" height="3.44677" rx="1" fill="#D1D5E6"/>
<rect x="13.7852" y="198.928" width="108.327" height="73.8593" rx="10" fill="#F1F2F6"/>
<rect x="130.484" y="217.639" width="118.175" height="3.44677" rx="1" fill="#D1D5E6"/>
<rect x="130.484" y="198.928" width="129.992" height="11.3251" rx="1" fill="#D1D5E6"/>
<rect x="130.484" y="239.304" width="129.992" height="3.44677" rx="1" fill="#D1D5E6"/>
<rect x="130.484" y="228.471" width="129.992" height="3.44677" rx="1" fill="#D1D5E6"/>
<rect x="130.484" y="250.137" width="129.992" height="3.44677" rx="1" fill="#D1D5E6"/>
<rect x="130.484" y="260.969" width="129.992" height="11.8175" rx="1" fill="#FF5223"/>
<path d="M67.7794 224.119L61.4121 228.896L54.9013 233.475L57.4769 241.007L59.8203 248.615L67.7794 248.492L75.7386 248.615L78.0819 241.007L80.6576 233.475L74.1467 228.896L67.7794 224.119Z" fill="#FF5223"/>
<path d="M67.7794 224.119L61.4121 228.896L54.9013 233.475L57.4769 241.007L59.8203 248.615L67.7794 248.492L75.7386 248.615L78.0819 241.007L80.6576 233.475L74.1467 228.896L67.7794 224.119Z" fill="#FF5223"/>
<path d="M63.7818 220.159L63.7743 220.16L63.7668 220.162L50.9019 222.883L49.9162 235.996L49.9156 236.003L49.9148 236.011L48.5273 249.087L60.6935 254.077L60.7006 254.08L60.7077 254.083L72.7151 259.443L81.2199 249.414L81.2249 249.408L81.23 249.403L90.0385 239.639L83.1285 228.452L83.1245 228.445L83.1207 228.438L76.5572 217.044L63.7818 220.159Z" stroke="#1C1C1C"/>
<path d="M48.8619 221.43L48.857 221.436L48.8519 221.442L36.7536 235.128L46.5097 250.571L46.5138 250.578L46.5177 250.585L55.7956 266.32L73.498 261.814L73.5055 261.812L73.5129 261.81L91.3453 257.849L92.5299 239.62L92.5304 239.613L92.5311 239.605L94.2743 221.421L77.3039 214.662L77.2968 214.659L77.2897 214.656L60.5347 207.379L48.8619 221.43Z" stroke="#1C1C1C"/>
<path d="M54.2313 259.079C54.2313 256.384 51.9412 254.163 49.0688 254.163C46.1964 254.163 43.9062 256.384 43.9062 259.079C43.9062 261.774 46.1964 263.995 49.0688 263.995C51.9412 263.995 54.2313 261.774 54.2313 259.079Z" fill="#4767F6" stroke="#4767F6"/>
<rect width="4.00431" height="4.00431" transform="matrix(0.707107 -0.707107 -0.707107 -0.707107 49.4258 261.768)" fill="#F0027F"/>
<rect width="4.00431" height="4.00431" transform="matrix(0.707107 -0.707107 -0.707107 -0.707107 92.7812 223.331)" fill="#F0027F"/>
<rect x="403.285" y="109.819" width="113.713" height="183.141" rx="9" fill="white" stroke="#4767F6" stroke-width="2"/>
<path d="M402.785 118.819C402.785 113.573 407.038 109.319 412.285 109.319H507.968C513.215 109.319 517.468 113.573 517.468 118.819V122.674H402.785V118.819Z" fill="#4767F6" stroke="#4767F6"/>
<rect x="414.102" y="155.597" width="92.0779" height="84.692" rx="10" fill="#F1F2F6"/>
<path d="M460.634 182.679L453.341 188.151L445.883 193.396L448.833 202.024L451.517 210.737L460.634 210.598L469.751 210.737L472.435 202.024L475.385 193.396L467.928 188.151L460.634 182.679Z" fill="#FF5223"/>
<path d="M455.954 177.718L455.947 177.72L455.939 177.721L440.885 180.906L439.731 196.25L439.73 196.258L439.73 196.266L438.106 211.568L452.343 217.406L452.35 217.409L452.357 217.412L466.409 223.685L476.361 211.949L476.366 211.943L476.371 211.938L486.679 200.512L478.593 187.42L478.589 187.414L478.585 187.407L470.904 174.073L455.954 177.718Z" stroke="#1C1C1C"/>
<path d="M438.523 179.227L438.518 179.233L438.513 179.239L424.371 195.237L435.775 213.289L435.779 213.295L435.783 213.302L446.628 231.695L467.321 226.428L467.328 226.426L467.336 226.424L488.18 221.794L489.564 200.486L489.565 200.479L489.566 200.471L491.603 179.216L471.767 171.315L471.759 171.312L471.752 171.309L452.167 162.803L438.523 179.227Z" stroke="#1C1C1C"/>
<path d="M445.115 223.055C445.115 219.814 442.381 217.154 438.968 217.154C435.555 217.154 432.82 219.814 432.82 223.055C432.82 226.297 435.555 228.956 438.968 228.956C442.381 228.956 445.115 226.297 445.115 223.055Z" fill="#4767F6" stroke="#4767F6"/>
<rect width="4.66705" height="4.66705" transform="matrix(0.707107 -0.707107 -0.707107 -0.707107 439.238 226.294)" fill="#F0027F"/>
<rect width="4.66705" height="4.66705" transform="matrix(0.707107 -0.707107 -0.707107 -0.707107 489.773 181.495)" fill="#F0027F"/>
<rect x="432.812" y="138.363" width="73.3669" height="3.44677" rx="1" fill="#D1D5E6"/>
<rect x="414.102" y="266.878" width="92.0779" height="3.44677" rx="1" fill="#D1D5E6"/>
<rect x="414.102" y="281.65" width="92.0779" height="3.44677" rx="1" fill="#D1D5E6"/>
<rect x="432.812" y="145.749" width="73.3669" height="3.44677" rx="1" fill="#D1D5E6"/>
<rect x="414.102" y="274.264" width="92.0779" height="3.44677" rx="1" fill="#D1D5E6"/>
<circle cx="420.01" cy="143.287" r="5.90875" fill="#D1D5E5"/>
<rect x="414.102" y="244.72" width="92.0779" height="14.2795" fill="#FF5223"/>
</svg>
