<svg width="447" height="263" viewBox="0 0 447 263" fill="none" xmlns="http://www.w3.org/2000/svg">
<rect x="32.7969" y="1.68677" width="412.208" height="259.73" rx="9" fill="white" stroke="#4767F6" stroke-width="2"/>
<rect x="191.785" y="208.741" width="94" height="28.5005" rx="14.2503" fill="#F0027F"/>
<path d="M216.191 220.499C216.131 219.941 215.88 219.506 215.436 219.195C214.998 218.884 214.426 218.728 213.723 218.728C213.229 218.728 212.805 218.803 212.451 218.952C212.098 219.101 211.827 219.303 211.64 219.559C211.452 219.815 211.356 220.107 211.352 220.435C211.352 220.708 211.414 220.944 211.537 221.144C211.665 221.345 211.838 221.515 212.055 221.656C212.272 221.792 212.513 221.907 212.777 222.001C213.042 222.095 213.308 222.173 213.576 222.237L214.804 222.544C215.298 222.659 215.773 222.815 216.229 223.011C216.689 223.207 217.1 223.454 217.463 223.752C217.829 224.051 218.119 224.411 218.332 224.833C218.545 225.254 218.652 225.749 218.652 226.316C218.652 227.083 218.456 227.758 218.064 228.342C217.672 228.921 217.105 229.375 216.363 229.703C215.626 230.027 214.733 230.189 213.685 230.189C212.667 230.189 211.782 230.031 211.032 229.716C210.287 229.401 209.703 228.941 209.281 228.335C208.863 227.73 208.637 226.993 208.603 226.124H210.936C210.971 226.58 211.111 226.959 211.358 227.262C211.605 227.564 211.927 227.79 212.324 227.939C212.724 228.088 213.172 228.163 213.666 228.163C214.181 228.163 214.633 228.086 215.021 227.933C215.413 227.775 215.72 227.558 215.941 227.281C216.163 226.999 216.276 226.671 216.28 226.296C216.276 225.955 216.176 225.674 215.98 225.453C215.784 225.227 215.509 225.039 215.155 224.89C214.806 224.737 214.397 224.6 213.928 224.481L212.439 224.098C211.36 223.821 210.508 223.401 209.882 222.838C209.26 222.272 208.949 221.519 208.949 220.582C208.949 219.811 209.157 219.135 209.575 218.556C209.997 217.976 210.57 217.526 211.294 217.207C212.019 216.883 212.839 216.721 213.755 216.721C214.684 216.721 215.498 216.883 216.197 217.207C216.9 217.526 217.452 217.972 217.853 218.543C218.253 219.11 218.46 219.762 218.473 220.499H216.191ZM226.921 225.862V220.173H229.235V229.991H226.992V228.246H226.889C226.668 228.796 226.303 229.245 225.796 229.595C225.294 229.944 224.673 230.119 223.936 230.119C223.293 230.119 222.724 229.976 222.23 229.691C221.74 229.401 221.356 228.981 221.079 228.431C220.802 227.877 220.664 227.208 220.664 226.424V220.173H222.977V226.066C222.977 226.688 223.148 227.183 223.489 227.549C223.83 227.916 224.277 228.099 224.831 228.099C225.172 228.099 225.502 228.016 225.822 227.85C226.142 227.683 226.404 227.436 226.608 227.108C226.817 226.776 226.921 226.36 226.921 225.862ZM231.717 229.991V216.9H234.031V221.796H234.127C234.246 221.558 234.414 221.304 234.632 221.036C234.849 220.763 235.143 220.531 235.514 220.339C235.885 220.143 236.358 220.045 236.933 220.045C237.691 220.045 238.375 220.239 238.985 220.627C239.598 221.01 240.084 221.579 240.442 222.333C240.804 223.083 240.985 224.004 240.985 225.095C240.985 226.173 240.809 227.089 240.455 227.843C240.101 228.598 239.62 229.173 239.01 229.569C238.401 229.965 237.711 230.164 236.939 230.164C236.377 230.164 235.91 230.07 235.539 229.882C235.169 229.695 234.87 229.469 234.645 229.205C234.423 228.936 234.25 228.683 234.127 228.444H233.993V229.991H231.717ZM233.986 225.082C233.986 225.717 234.076 226.273 234.255 226.75C234.438 227.227 234.7 227.6 235.041 227.869C235.386 228.133 235.804 228.265 236.294 228.265C236.805 228.265 237.233 228.129 237.578 227.856C237.924 227.579 238.184 227.202 238.358 226.725C238.537 226.243 238.627 225.696 238.627 225.082C238.627 224.473 238.539 223.931 238.365 223.458C238.19 222.985 237.93 222.615 237.585 222.346C237.24 222.078 236.809 221.943 236.294 221.943C235.799 221.943 235.38 222.073 235.034 222.333C234.689 222.593 234.427 222.958 234.248 223.426C234.074 223.895 233.986 224.447 233.986 225.082ZM242.953 229.991V220.173H245.164V221.841H245.279C245.484 221.279 245.823 220.84 246.296 220.524C246.769 220.205 247.333 220.045 247.99 220.045C248.654 220.045 249.215 220.207 249.671 220.531C250.131 220.85 250.455 221.287 250.642 221.841H250.744C250.962 221.296 251.328 220.861 251.844 220.537C252.364 220.209 252.98 220.045 253.691 220.045C254.595 220.045 255.332 220.33 255.903 220.901C256.474 221.473 256.759 222.306 256.759 223.401V229.991H254.439V223.759C254.439 223.149 254.277 222.704 253.953 222.423C253.629 222.137 253.233 221.995 252.764 221.995C252.206 221.995 251.769 222.169 251.454 222.519C251.143 222.864 250.987 223.313 250.987 223.867V229.991H248.718V223.663C248.718 223.156 248.565 222.751 248.258 222.448C247.955 222.146 247.559 221.995 247.069 221.995C246.737 221.995 246.434 222.08 246.161 222.25C245.889 222.416 245.671 222.653 245.509 222.96C245.347 223.262 245.267 223.616 245.267 224.021V229.991H242.953ZM259.107 229.991V220.173H261.421V229.991H259.107ZM260.27 218.779C259.904 218.779 259.588 218.658 259.324 218.415C259.06 218.168 258.928 217.872 258.928 217.526C258.928 217.177 259.06 216.881 259.324 216.638C259.588 216.391 259.904 216.267 260.27 216.267C260.641 216.267 260.956 216.391 261.216 216.638C261.48 216.881 261.613 217.177 261.613 217.526C261.613 217.872 261.48 218.168 261.216 218.415C260.956 218.658 260.641 218.779 260.27 218.779ZM268.703 220.173V221.963H263.059V220.173H268.703ZM264.452 217.821H266.766V227.038C266.766 227.349 266.813 227.588 266.907 227.754C267.005 227.916 267.133 228.026 267.29 228.086C267.448 228.146 267.623 228.176 267.814 228.176C267.959 228.176 268.091 228.165 268.211 228.144C268.334 228.122 268.428 228.103 268.492 228.086L268.882 229.895C268.758 229.938 268.581 229.985 268.351 230.036C268.126 230.087 267.849 230.117 267.52 230.125C266.941 230.142 266.419 230.055 265.954 229.863C265.49 229.667 265.121 229.365 264.849 228.955C264.58 228.546 264.448 228.035 264.452 227.421V217.821Z" fill="white"/>
<path d="M32.0664 10.6868C32.0664 5.44007 36.3197 1.18677 41.5664 1.18677H435.774C441.021 1.18677 445.274 5.44006 445.274 10.6868V16.3371H32.0664V10.6868Z" fill="#4767F6" stroke="#4767F6"/>
<path d="M184.064 59.4483C184.064 59.5023 184.037 59.5293 184.037 59.5833L179.609 76.5123C178.961 79.0233 177.017 79.2663 175.856 79.2663C174.695 79.2663 172.751 79.0233 172.103 76.5123L167.675 59.5833C167.675 59.5293 167.648 59.5023 167.648 59.4483C167.648 59.1783 167.864 58.9893 168.134 58.9893H170.996C171.239 58.9893 171.455 59.2053 171.509 59.4483L175.424 75.6753C175.505 75.9993 175.586 76.1073 175.856 76.1073C176.126 76.1073 176.207 75.9993 176.288 75.6753L180.203 59.4483C180.257 59.2053 180.473 58.9893 180.716 58.9893H183.578C183.848 58.9893 184.064 59.1783 184.064 59.4483ZM197.576 72.0033C197.576 72.4353 197.414 72.6783 197.036 72.6783H188.234V72.7593C188.234 74.3253 188.882 76.1883 191.474 76.1883C193.445 76.1883 195.308 76.0263 196.442 75.9183C196.469 75.9183 196.496 75.9183 196.523 75.9183C196.793 75.9183 197.009 76.0533 197.009 76.3233V78.1053C197.009 78.5373 196.928 78.7263 196.442 78.8073C194.687 79.1313 193.634 79.2663 191.204 79.2663C188.504 79.2663 184.67 77.8083 184.67 72.4893V70.4913C184.67 66.2793 187.019 63.6333 191.15 63.6333C195.308 63.6333 197.576 66.4683 197.576 70.4913V72.0033ZM193.985 70.1403V70.0323C193.985 67.9263 192.824 66.7113 191.15 66.7113C189.476 66.7113 188.261 67.8993 188.261 70.0323V70.1403H193.985ZM208.463 66.1173C208.463 66.4143 208.22 66.6573 207.923 66.6573C206.465 66.6573 205.331 67.0353 204.197 67.6293V78.4833C204.197 78.7803 203.954 79.0503 203.657 79.0503H201.173C200.876 79.0503 200.633 78.7803 200.633 78.4833V64.3623C200.633 64.0653 200.876 63.8223 201.173 63.8223H203.522C203.819 63.8223 204.062 64.0653 204.062 64.3623V64.9293C205.385 63.9033 206.843 63.6333 207.923 63.6333C208.22 63.6333 208.463 63.8763 208.463 64.1733V66.1173ZM214.484 61.2573C214.484 61.5543 214.241 61.7973 213.944 61.7973H211.325C211.028 61.7973 210.758 61.5543 210.758 61.2573V58.8813C210.758 58.5843 211.028 58.3413 211.325 58.3413H213.944C214.241 58.3413 214.484 58.5843 214.484 58.8813V61.2573ZM214.403 78.4833C214.403 78.7803 214.16 79.0503 213.863 79.0503H211.379C211.082 79.0503 210.839 78.7803 210.839 78.4833V64.3623C210.839 64.0653 211.082 63.8223 211.379 63.8223H213.863C214.16 63.8223 214.403 64.0653 214.403 64.3623V78.4833ZM226.353 60.4203C226.353 60.7443 226.137 60.8793 225.948 60.8793H224.733C223.437 60.8793 223.14 61.1763 223.14 62.4993V63.8223H231.591C231.888 63.8223 232.131 64.0653 232.131 64.3623V78.4833C232.131 78.7803 231.888 79.0503 231.591 79.0503H229.107C228.81 79.0503 228.567 78.7803 228.567 78.4833V66.4953H223.14V78.4833C223.14 78.7803 222.897 79.0503 222.6 79.0503H220.143C219.846 79.0503 219.576 78.7803 219.576 78.4833V66.4953L217.173 66.1173C216.876 66.0633 216.633 65.9013 216.633 65.6043V64.3623C216.633 64.0653 216.876 63.8223 217.173 63.8223H219.576V62.4993C219.576 59.0163 221.439 58.1793 224.247 58.1793C224.895 58.1793 225.354 58.2873 225.867 58.3953C226.083 58.4493 226.353 58.5843 226.353 58.8273V60.4203ZM232.212 61.2573C232.212 61.5543 231.969 61.7973 231.672 61.7973H229.053C228.756 61.7973 228.486 61.5543 228.486 61.2573V58.8813C228.486 58.5843 228.756 58.3413 229.053 58.3413H231.672C231.969 58.3413 232.212 58.5843 232.212 58.8813V61.2573ZM245.394 78.2133C245.394 78.6453 245.286 78.8073 244.827 78.9153C244.206 79.0773 242.991 79.2663 241.344 79.2663C237.834 79.2663 235.188 77.1063 235.188 72.7053V70.1943C235.188 65.7933 237.834 63.6333 241.344 63.6333C242.991 63.6333 244.206 63.8223 244.827 63.9843C245.286 64.0923 245.394 64.2543 245.394 64.6863V66.4413C245.394 66.7113 245.178 66.8463 244.908 66.8463C244.881 66.8463 244.854 66.8463 244.827 66.8463C243.747 66.7113 243.099 66.6573 241.344 66.6573C240.075 66.6573 238.752 67.3863 238.752 70.1943V72.7053C238.752 75.5133 240.075 76.2423 241.344 76.2423C243.099 76.2423 243.747 76.1883 244.827 76.0533C244.854 76.0533 244.881 76.0533 244.908 76.0533C245.178 76.0533 245.394 76.1883 245.394 76.4583V78.2133ZM259.644 78.5103C259.644 78.8073 259.401 79.0503 259.104 79.0503H256.809C256.512 79.0503 256.269 78.8073 256.269 78.5103V78.0783C255.027 78.8343 253.758 79.2663 252.462 79.2663C250.221 79.2663 247.791 78.4023 247.791 74.7573V74.6493C247.791 71.5713 249.681 69.9783 254.379 69.9783H256.08V68.7903C256.08 67.0353 255.297 66.6033 253.704 66.6033C251.976 66.6033 250.194 66.7113 249.303 66.8193C249.249 66.8193 249.195 66.8193 249.168 66.8193C248.898 66.8193 248.682 66.7383 248.682 66.3603V64.6323C248.682 64.3353 248.844 64.1463 249.195 64.0653C250.275 63.8493 251.841 63.6333 253.704 63.6333C257.538 63.6333 259.644 65.3343 259.644 68.7903V78.5103ZM256.08 75.6753V72.3543H254.379C251.922 72.3543 251.382 73.1373 251.382 74.6493V74.7573C251.382 76.0803 251.976 76.4313 253.326 76.4313C254.298 76.4313 255.297 76.1073 256.08 75.6753ZM270.89 78.5913C270.89 78.8613 270.728 79.0233 270.377 79.0773C269.729 79.1853 269.135 79.2663 268.541 79.2663C265.49 79.2663 264.248 78.5913 264.248 74.9733V66.4953L261.71 66.1173C261.413 66.0633 261.17 65.8743 261.17 65.5773V64.3623C261.17 64.0653 261.413 63.8223 261.71 63.8223H264.248V61.6083C264.248 61.3113 264.491 61.1223 264.788 61.0683L267.299 60.6363C267.326 60.6363 267.38 60.6363 267.407 60.6363C267.65 60.6363 267.839 60.7713 267.839 61.0413V63.8223H270.269C270.566 63.8223 270.809 64.0653 270.809 64.3623V65.9553C270.809 66.2523 270.566 66.4953 270.269 66.4953H267.839V74.9733C267.839 76.3233 267.92 76.4853 268.892 76.4853H270.323C270.674 76.4853 270.89 76.6203 270.89 76.8903V78.5913ZM277.053 61.2573C277.053 61.5543 276.81 61.7973 276.513 61.7973H273.894C273.597 61.7973 273.327 61.5543 273.327 61.2573V58.8813C273.327 58.5843 273.597 58.3413 273.894 58.3413H276.513C276.81 58.3413 277.053 58.5843 277.053 58.8813V61.2573ZM276.972 78.4833C276.972 78.7803 276.729 79.0503 276.432 79.0503H273.948C273.651 79.0503 273.408 78.7803 273.408 78.4833V64.3623C273.408 64.0653 273.651 63.8223 273.948 63.8223H276.432C276.729 63.8223 276.972 64.0653 276.972 64.3623V78.4833ZM292.999 72.5433C292.999 76.4043 290.785 79.2663 286.546 79.2663C282.307 79.2663 280.093 76.4043 280.093 72.5433V70.3563C280.093 66.4953 282.307 63.6333 286.546 63.6333C290.785 63.6333 292.999 66.4953 292.999 70.3563V72.5433ZM289.435 72.5433V70.3563C289.435 68.1423 288.436 66.7113 286.546 66.7113C284.656 66.7113 283.657 68.1423 283.657 70.3563V72.5433C283.657 74.7573 284.656 76.1883 286.546 76.1883C288.436 76.1883 289.435 74.7573 289.435 72.5433ZM308.53 78.4833C308.53 78.7803 308.287 79.0503 307.99 79.0503H305.506C305.209 79.0503 304.966 78.7803 304.966 78.4833V69.6813C304.966 67.3323 304.75 66.6573 302.671 66.6573C301.753 66.6573 300.754 67.0353 299.62 67.6293V78.4833C299.62 78.7803 299.377 79.0503 299.08 79.0503H296.596C296.299 79.0503 296.056 78.7803 296.056 78.4833V64.3623C296.056 64.0653 296.299 63.8223 296.596 63.8223H298.945C299.242 63.8223 299.485 64.0653 299.485 64.3623V64.9293C301.051 63.9303 302.077 63.6333 303.859 63.6333C307.747 63.6333 308.53 66.2523 308.53 69.6813V78.4833Z" fill="#FF5223"/>
<rect x="111.367" y="126.564" width="41.8008" height="47.9759" fill="#F1F2F6"/>
<rect x="164.566" y="126.564" width="41.8008" height="47.9759" fill="#F1F2F6"/>
<rect x="217.77" y="126.564" width="41.8008" height="47.9759" fill="#F1F2F6"/>
<rect x="270.969" y="126.564" width="41.8008" height="47.9759" fill="#F1F2F6"/>
<rect x="324.172" y="126.564" width="41.8008" height="47.9759" fill="#F1F2F6"/>
<path d="M138.924 156.763C138.924 160.759 136.413 163.054 132.039 163.054C130.284 163.054 128.637 162.892 127.287 162.568C126.99 162.487 126.774 162.379 126.774 162.028V161.029C126.774 160.759 126.936 160.624 127.179 160.624C127.233 160.624 127.26 160.624 127.314 160.624C129.015 160.921 130.689 161.002 132.039 161.002C135.09 161.002 136.44 159.517 136.44 156.763V156.358C136.44 153.658 134.766 152.74 130.797 152.74H127.557C127.314 152.74 127.125 152.524 127.125 152.281V152.254L127.881 143.263C127.908 142.993 128.151 142.804 128.421 142.804H137.709C138.006 142.804 138.249 142.966 138.249 143.263V144.451C138.249 144.748 138.006 144.883 137.709 144.883H129.96L129.528 150.715H130.797C135.819 150.715 138.924 152.038 138.924 156.358V156.763Z" fill="#D1D5E5"/>
<path d="M191.934 156.8C191.934 160.85 189.153 162.578 185.211 162.578C183.51 162.578 181.944 162.335 180.648 162.038C180.378 161.984 180.135 161.795 180.135 161.525V160.607C180.135 160.31 180.324 160.148 180.594 160.148C180.621 160.148 180.648 160.148 180.675 160.148C182.295 160.364 183.942 160.526 185.211 160.526C188.154 160.526 189.423 159.392 189.423 156.8V156.233C189.423 154.802 188.721 152.939 186.264 152.939H181.35C181.053 152.939 180.837 152.75 180.837 152.453V151.508C180.837 151.211 181.053 150.995 181.35 150.995H186.264C188.856 150.995 189.423 149.213 189.423 147.782V147.404C189.423 145.19 188.262 144.191 185.211 144.191C183.645 144.191 182.43 144.38 180.675 144.596C180.648 144.596 180.621 144.596 180.594 144.596C180.324 144.596 180.135 144.434 180.135 144.137V143.192C180.135 142.949 180.378 142.733 180.648 142.679C181.944 142.409 183.483 142.139 185.211 142.139C189.234 142.139 191.934 143.408 191.934 147.404V147.782C191.934 149.591 191.043 151.157 189.369 151.994C191.286 152.939 191.934 154.667 191.934 156.233V156.8Z" fill="#D1D5E5"/>
<path d="M245.137 157.276C245.137 161.326 242.356 163.054 238.414 163.054C236.713 163.054 235.147 162.811 233.851 162.514C233.581 162.46 233.338 162.271 233.338 162.001V161.083C233.338 160.786 233.527 160.624 233.797 160.624C233.824 160.624 233.851 160.624 233.878 160.624C235.498 160.84 237.145 161.002 238.414 161.002C241.357 161.002 242.626 159.868 242.626 157.276V156.709C242.626 155.278 241.924 153.415 239.467 153.415H234.553C234.256 153.415 234.04 153.226 234.04 152.929V151.984C234.04 151.687 234.256 151.471 234.553 151.471H239.467C242.059 151.471 242.626 149.689 242.626 148.258V147.88C242.626 145.666 241.465 144.667 238.414 144.667C236.848 144.667 235.633 144.856 233.878 145.072C233.851 145.072 233.824 145.072 233.797 145.072C233.527 145.072 233.338 144.91 233.338 144.613V143.668C233.338 143.425 233.581 143.209 233.851 143.155C235.147 142.885 236.686 142.615 238.414 142.615C242.437 142.615 245.137 143.884 245.137 147.88V148.258C245.137 150.067 244.246 151.633 242.572 152.47C244.489 153.415 245.137 155.143 245.137 156.709V157.276Z" fill="#D1D5E5"/>
<path d="M299.147 156.8C299.147 160.742 296.177 162.578 292.586 162.578H292.316C288.725 162.578 285.755 160.742 285.755 156.8V156.287C285.755 154.64 286.673 152.858 288.374 151.913C286.673 151.049 285.809 149.483 285.809 147.701V147.458C285.809 143.732 288.617 142.139 292.316 142.139H292.586C296.285 142.139 299.093 143.732 299.093 147.458V147.701C299.093 149.483 298.229 151.049 296.528 151.913C298.229 152.858 299.147 154.64 299.147 156.287V156.8ZM296.717 147.701V147.458C296.717 145.298 295.259 144.137 292.586 144.137H292.316C289.643 144.137 288.185 145.298 288.185 147.458V147.701C288.185 149.375 289.13 150.941 291.614 150.941H293.288C295.772 150.941 296.717 149.375 296.717 147.701ZM296.69 156.8V156.287C296.69 154.748 295.772 152.885 293.288 152.885H291.614C289.13 152.885 288.212 154.748 288.212 156.287V156.8C288.212 159.122 289.643 160.526 292.316 160.526H292.586C295.259 160.526 296.69 159.122 296.69 156.8Z" fill="#D1D5E5"/>
<path d="M240.121 183.14C240.121 182.864 240.345 182.64 240.621 182.64H300.847C301.123 182.64 301.347 182.864 301.347 183.14V199.06C301.347 199.337 301.123 199.56 300.847 199.56H243.195C242.547 199.56 241.972 199.977 241.77 200.593L241.096 202.645C240.919 203.186 240.121 203.058 240.121 202.489V183.14Z" fill="white"/>
<path d="M240.121 183.14C240.121 182.864 240.345 182.64 240.621 182.64H300.847C301.123 182.64 301.347 182.864 301.347 183.14V199.06C301.347 199.337 301.123 199.56 300.847 199.56H243.195C242.547 199.56 241.972 199.977 241.77 200.593L241.096 202.645C240.919 203.186 240.121 203.058 240.121 202.489V183.14Z" fill="#4767F6"/>
<path d="M240.121 183.14C240.121 182.864 240.345 182.64 240.621 182.64H300.847C301.123 182.64 301.347 182.864 301.347 183.14V199.06C301.347 199.337 301.123 199.56 300.847 199.56H243.195C242.547 199.56 241.972 199.977 241.77 200.593L241.096 202.645C240.919 203.186 240.121 203.058 240.121 202.489V183.14Z" stroke="#4767F6"/>
<path d="M267.388 194.546L267.518 192.245L265.587 193.512L264.893 192.307L266.956 191.273L264.893 190.239L265.587 189.034L267.518 190.301L267.388 188H268.768L268.643 190.301L270.575 189.034L271.268 190.239L269.2 191.273L271.268 192.307L270.575 193.512L268.643 192.245L268.768 194.546H267.388Z" fill="white"/>
<path d="M258.841 194.546L258.972 192.245L257.04 193.512L256.347 192.307L258.409 191.273L256.347 190.239L257.04 189.034L258.972 190.301L258.841 188H260.222L260.097 190.301L262.028 189.034L262.722 190.239L260.653 191.273L262.722 192.307L262.028 193.512L260.097 192.245L260.222 194.546H258.841Z" fill="white"/>
<path d="M275.939 194.546L276.069 192.245L274.137 193.512L273.444 192.307L275.507 191.273L273.444 190.239L274.137 189.034L276.069 190.301L275.939 188H277.319L277.194 190.301L279.126 189.034L279.819 190.239L277.751 191.273L279.819 192.307L279.126 193.512L277.194 192.245L277.319 194.546H275.939Z" fill="white"/>
<path d="M284.489 194.546L284.62 192.245L282.688 193.512L281.995 192.307L284.058 191.273L281.995 190.239L282.688 189.034L284.62 190.301L284.489 188H285.87L285.745 190.301L287.677 189.034L288.37 190.239L286.302 191.273L288.37 192.307L287.677 193.512L285.745 192.245L285.87 194.546H284.489Z" fill="white"/>
<path d="M293.036 194.546L293.167 192.245L291.235 193.512L290.542 192.307L292.604 191.273L290.542 190.239L291.235 189.034L293.167 190.301L293.036 188H294.417L294.292 190.301L296.224 189.034L296.917 190.239L294.849 191.273L296.917 192.307L296.224 193.512L294.292 192.245L294.417 194.546H293.036Z" fill="white"/>
<path d="M245.467 194.49C245.296 194.49 245.149 194.431 245.027 194.311C244.905 194.191 244.844 194.048 244.844 193.88V189.462C244.844 189.294 244.905 189.15 245.027 189.031C245.149 188.911 245.296 188.851 245.467 188.851H246.195V187.874C246.195 187.339 246.387 186.883 246.772 186.506C247.158 186.129 247.623 185.94 248.17 185.94C248.716 185.94 249.182 186.129 249.566 186.506C249.951 186.883 250.143 187.339 250.143 187.874V188.851H250.87C251.042 188.851 251.189 188.911 251.311 189.031C251.433 189.15 251.494 189.294 251.494 189.462V193.88C251.494 194.048 251.433 194.191 251.311 194.311C251.189 194.431 251.042 194.49 250.87 194.49H245.467ZM248.171 192.455C248.391 192.455 248.579 192.38 248.735 192.23C248.891 192.081 248.969 191.901 248.969 191.691C248.969 191.488 248.89 191.303 248.733 191.136C248.576 190.97 248.388 190.887 248.167 190.887C247.947 190.887 247.758 190.97 247.603 191.136C247.447 191.303 247.369 191.489 247.369 191.696C247.369 191.903 247.447 192.081 247.604 192.231C247.761 192.38 247.95 192.455 248.171 192.455ZM246.818 188.851H249.52V187.874C249.52 187.507 249.388 187.194 249.126 186.937C248.864 186.68 248.545 186.551 248.17 186.551C247.795 186.551 247.476 186.68 247.213 186.937C246.95 187.194 246.818 187.507 246.818 187.874V188.851Z" fill="white"/>
<rect x="135.121" y="97.5886" width="213.279" height="5.70011" rx="1" fill="#D1D5E6"/>
<circle cx="31.567" cy="69.5631" r="30.8756" fill="#F0027F"/>
<path d="M23.8477 81.9134C23.3578 81.9134 22.9385 81.7406 22.5897 81.3951C22.2408 81.0496 22.0664 80.6342 22.0664 80.149V67.3871C22.0664 66.9019 22.2408 66.4866 22.5897 66.1411C22.9385 65.7956 23.3578 65.6228 23.8477 65.6228H25.9259V62.7999C25.9259 61.2542 26.4761 59.9366 27.5767 58.8471C28.6772 57.7576 30.0083 57.2129 31.5697 57.2129C33.1312 57.2129 34.4612 57.7576 35.5596 58.8471C36.6581 59.9366 37.2073 61.2542 37.2073 62.7999V65.6228H39.2855C39.7753 65.6228 40.1947 65.7956 40.5435 66.1411C40.8923 66.4866 41.0668 66.9019 41.0668 67.3871V80.149C41.0668 80.6342 40.8923 81.0496 40.5435 81.3951C40.1947 81.7406 39.7753 81.9134 39.2855 81.9134H23.8477ZM31.5716 76.0323C32.2016 76.0323 32.7393 75.8164 33.1846 75.3845C33.6299 74.9526 33.8526 74.4334 33.8526 73.8269C33.8526 73.2388 33.6282 72.7046 33.1796 72.2243C32.731 71.744 32.1916 71.5039 31.5616 71.5039C30.9316 71.5039 30.3939 71.744 29.9486 72.2243C29.5033 72.7046 29.2806 73.2437 29.2806 73.8416C29.2806 74.4395 29.5049 74.9541 29.9536 75.3854C30.4022 75.8167 30.9416 76.0323 31.5716 76.0323ZM27.7071 65.6228H35.426V62.7999C35.426 61.738 35.0512 60.8355 34.3014 60.0922C33.5516 59.3489 32.6412 58.9772 31.5701 58.9772C30.499 58.9772 29.5874 59.3489 28.8353 60.0922C28.0832 60.8355 27.7071 61.738 27.7071 62.7999V65.6228Z" fill="white"/>
</svg>
