<svg width="283" height="38" viewBox="0 0 283 38" fill="none" xmlns="http://www.w3.org/2000/svg">
<path d="M14.5592 26.5105V2.09325H21.4691V26.5105C21.4691 29.8668 20.4729 32.4921 18.4804 34.3865C16.488 36.281 13.9163 37.2282 10.7538 37.2282C7.59137 37.2282 5.00811 36.281 3.00406 34.3865C0.994214 32.4921 -0.0078125 29.8668 -0.0078125 26.5105H6.95424C6.98899 27.9372 7.33073 29.0423 7.99102 29.8258C8.65132 30.6093 9.57225 30.9952 10.7538 30.9952C11.9354 30.9952 12.8679 30.6035 13.5398 29.8258C14.2117 29.0482 14.5534 27.9431 14.5534 26.5105H14.5592ZM29.2826 33.2639C26.8326 30.5918 25.6047 27.1771 25.6047 23.0257C25.6047 18.8743 26.821 15.4772 29.2595 12.8343C31.6921 10.1914 34.7909 8.86998 38.5383 8.86998C42.2858 8.86998 45.1529 10.4311 47.128 13.5535V9.26758H54.0379V36.8774H47.128V32.2407C45.0544 35.5969 42.1758 37.275 38.492 37.275C34.8083 37.275 31.7385 35.936 29.2884 33.2639H29.2826ZM44.9559 29.0306C46.404 27.5864 47.128 25.5984 47.128 23.0783C47.128 20.5582 46.404 18.5702 44.9559 17.126C43.5079 15.6818 41.8109 14.9568 39.8705 14.9568C37.9302 14.9568 36.2447 15.6701 34.8083 17.0968C33.3776 18.5235 32.6594 20.4998 32.6594 23.0257C32.6594 25.5516 33.3834 27.5455 34.8314 29.0072C36.2794 30.469 37.9649 31.1999 39.8937 31.1999C41.8224 31.1999 43.5021 30.4748 44.9559 29.0306ZM68.4022 9.26758V13.4014C70.1456 10.3785 72.9779 8.86413 76.8933 8.86413C78.9669 8.86413 80.8204 9.34359 82.4479 10.3084C84.0755 11.2731 85.3382 12.653 86.2243 14.4422C87.18 12.7173 88.489 11.355 90.1514 10.3551C91.8137 9.36113 93.6787 8.85829 95.7523 8.85829C99.0132 8.85829 101.637 9.88737 103.624 11.9455C105.616 14.0037 106.612 16.898 106.612 20.6167V36.8598H99.7025V21.6107C99.7025 19.4531 99.158 17.7984 98.0749 16.6524C96.986 15.5064 95.509 14.9334 93.6324 14.9334C91.7558 14.9334 90.2672 15.5064 89.1667 16.6524C88.0662 17.7984 87.516 19.4531 87.516 21.6107V36.8598H80.6061V21.6107C80.6061 19.4531 80.0616 17.7984 78.9785 16.6524C77.8954 15.5064 76.4126 14.9334 74.536 14.9334C72.6594 14.9334 71.1708 15.5064 70.0703 16.6524C68.9698 17.7984 68.4138 19.4531 68.4138 21.6107V36.8598H61.4517V9.26758H68.4138H68.4022ZM112.236 17.3424C112.236 14.9509 113.239 12.9395 115.248 11.314C117.252 9.68857 119.923 8.86998 123.247 8.86998C126.572 8.86998 129.236 9.67687 131.246 11.2848C133.25 12.8986 134.322 15.0796 134.455 17.8394H127.348C127.151 15.5122 125.738 14.3487 123.102 14.3487C121.788 14.3487 120.762 14.6176 120.044 15.1439C119.32 15.676 118.955 16.4068 118.955 17.3365C118.955 18.2662 119.5 18.9971 120.583 19.5292C121.672 20.0612 122.987 20.4764 124.533 20.7746C126.08 21.0728 127.62 21.447 129.149 21.8972C130.678 22.3474 131.987 23.1426 133.076 24.2887C134.159 25.4347 134.704 26.9549 134.704 28.8494C134.704 31.3402 133.661 33.3691 131.57 34.9303C129.479 36.4915 126.815 37.275 123.572 37.275C120.328 37.275 117.675 36.5032 115.602 34.9595C113.528 33.4159 112.393 31.1999 112.196 28.3056H119.303C119.563 30.6327 121.029 31.7963 123.699 31.7963C124.985 31.7963 126.022 31.5039 126.809 30.9251C127.597 30.3462 127.997 29.5802 127.997 28.633C127.997 27.6858 127.452 26.9374 126.369 26.3878C125.286 25.8381 123.965 25.4171 122.419 25.1189C120.872 24.8207 119.332 24.4524 117.803 24.0255C116.274 23.5929 114.965 22.8211 113.876 21.7101C112.787 20.5992 112.248 19.1433 112.248 17.3482L112.236 17.3424ZM151.234 30.9952H154.542V36.8774H150.146C147.348 36.8774 145.193 36.2283 143.682 34.9361C142.17 33.6381 141.411 31.4981 141.411 28.5102V15.0035H138.498V9.27343H141.411V2.44407H148.373V9.27343H154.495V15.0035H148.373V28.5102C148.373 29.4048 148.587 30.048 149.016 30.4281C149.445 30.8081 150.186 31.0011 151.24 31.0011L151.234 30.9952ZM161.724 33.2639C159.274 30.5918 158.046 27.1771 158.046 23.0257C158.046 18.8743 159.262 15.4772 161.701 12.8343C164.133 10.1914 167.232 8.86998 170.98 8.86998C174.727 8.86998 177.594 10.4311 179.569 13.5535V9.26758H186.479V36.8774H179.569V32.2407C177.496 35.5969 174.617 37.275 170.933 37.275C167.249 37.275 164.18 35.936 161.73 33.2639H161.724ZM177.397 29.0306C178.845 27.5864 179.569 25.5984 179.569 23.0783C179.569 20.5582 178.845 18.5702 177.397 17.126C175.949 15.6818 174.252 14.9568 172.312 14.9568C170.371 14.9568 168.686 15.6701 167.249 17.0968C165.819 18.5235 165.101 20.4998 165.101 23.0257C165.101 25.5516 165.825 27.5455 167.273 29.0072C168.721 30.469 170.406 31.1999 172.335 31.1999C174.264 31.1999 175.943 30.4748 177.397 29.0306ZM195.712 33.3925C193.209 30.8023 191.958 27.3642 191.958 23.0783C191.958 18.7924 193.209 15.3544 195.712 12.7641C198.214 10.1739 201.452 8.87583 205.437 8.87583C208.761 8.87583 211.541 9.68857 213.777 11.3199C216.013 12.9454 217.513 15.255 218.272 18.2487H210.771C209.885 15.9566 208.107 14.8106 205.442 14.8106C203.432 14.8106 201.863 15.5473 200.728 17.0266C199.592 18.5059 199.025 20.5232 199.025 23.0842C199.025 25.6452 199.592 27.6624 200.728 29.1359C201.863 30.6152 203.432 31.3519 205.442 31.3519C208.072 31.3519 209.85 30.1883 210.771 27.8612H218.272C217.484 30.7497 215.961 33.0417 213.708 34.7373C211.454 36.433 208.697 37.2808 205.437 37.2808C201.457 37.2808 198.214 35.9828 195.712 33.3925ZM230.464 36.8832H223.502V0H230.464V21.0786L239.424 9.6184C239.598 9.39622 239.859 9.26758 240.137 9.26758H249.126L236.98 23.2187L249.126 36.8715H239.847L230.47 25.3587V36.8715L230.464 36.8832ZM253.516 29.9486H266.983H269.711V24.3471V21.8855H282.998V16.284H269.711H266.983V21.8855V24.3471H253.516M272.236 32.4102H261.614V38.0117H272.236H274.964V32.4102V29.9486H282.992V24.3471H274.964H273.233H272.231V32.4102H272.236ZM253.516 21.8855H264.232V21.4119V16.284V13.3488H274.97V7.74735H264.232H261.509V16.284H253.528" fill="url(#paint0_linear_2790_1994)"/>
<defs>
<linearGradient id="paint0_linear_2790_1994" x1="-0.00202044" y1="19.0029" x2="282.998" y2="19.0029" gradientUnits="userSpaceOnUse">
<stop stop-color="#F0027F"/>
<stop offset="1" stop-color="#4E63F1"/>
</linearGradient>
</defs>
</svg>
