<svg width="326" height="551" viewBox="0 0 326 551" fill="none" xmlns="http://www.w3.org/2000/svg">
<rect x="1.04688" y="1" width="272" height="549" rx="9" fill="white" stroke="#1C1C1C" stroke-width="2"/>
<path d="M0.546875 10C0.546875 4.75329 4.80017 0.5 10.0469 0.5H264.047C269.294 0.5 273.547 4.7533 273.547 10V33.5H0.546875V10Z" fill="#4767F6" stroke="#4767F6"/>
<circle cx="4" cy="4" r="3.5" transform="matrix(1 0 0 -1 248 55)" fill="#4767F6" stroke="#4767F6"/>
<circle cx="4" cy="4" r="3.5" transform="matrix(1 0 0 -1 248 65)" fill="#4767F6" stroke="#4767F6"/>
<circle cx="4" cy="4" r="3.5" transform="matrix(1 0 0 -1 248 75)" fill="#4767F6" stroke="#4767F6"/>
<path d="M83.5 447C83.5 444.515 85.5147 442.5 88 442.5H321C323.485 442.5 325.5 444.515 325.5 447V531C325.5 533.485 323.485 535.5 321 535.5H88C85.5147 535.5 83.5 533.485 83.5 531V447Z" fill="#4767F6" stroke="#4767F6"/>
<rect x="203" y="466" width="109" height="8" rx="1" fill="#D1D5E6"/>
<rect x="44" y="57" width="187" height="8" rx="1" fill="#D1D5E6"/>
<rect x="203" y="484" width="55" height="8" rx="1" fill="#D1D5E6"/>
<rect x="203" y="502" width="90" height="8" rx="1" fill="#D1D5E6"/>
<path d="M33 51C29.0948 55.2645 23 61.92 23 61.92L33 72" stroke="#4767F6" stroke-width="3" stroke-linecap="round" stroke-linejoin="round"/>
<rect width="40.7857" height="40.7857" transform="matrix(0.707107 -0.707107 -0.707107 -0.707107 129.84 516.68)" fill="#F0027F"/>
<rect width="40.7857" height="40.7857" transform="matrix(0.707107 -0.707107 -0.707107 -0.707107 152.84 516.68)" fill="#FFC7E4"/>
<path d="M15 97C15 94.2386 17.2386 92 20 92H251C253.761 92 256 94.2386 256 97V427C256 429.761 253.761 432 251 432H20C17.2386 432 15 429.761 15 427V97Z" fill="#F1F2F6"/>
<path d="M137.419 171.122L117.53 186.043L97.1932 200.348L105.238 223.874L112.558 247.636L137.419 247.255L162.28 247.636L169.6 223.874L177.645 200.348L157.308 186.043L137.419 171.122Z" fill="#FF5223"/>
<path d="M124.56 156.86L124.553 156.862L124.546 156.864L82.8543 165.682L79.6599 208.176L79.6593 208.184L79.6585 208.191L75.1622 250.567L114.589 266.736L114.596 266.739L114.603 266.742L153.516 284.114L181.077 251.613L181.082 251.607L181.087 251.601L209.633 219.962L187.24 183.706L187.236 183.699L187.232 183.693L165.962 146.767L124.56 156.86Z" stroke="#1C1C1C"/>
<path d="M76.5724 161.263L76.5675 161.269L76.5624 161.275L37.5661 205.39L69.0129 255.168L69.017 255.175L69.0209 255.181L98.926 305.901L155.986 291.376L155.993 291.374L156.001 291.373L213.48 278.605L217.298 219.849L217.298 219.841L217.299 219.833L222.918 161.222L168.218 139.434L168.21 139.432L168.203 139.429L114.197 115.973L76.5724 161.263Z" stroke="#1C1C1C"/>
<circle cx="16.6021" cy="16.6021" r="16.1021" transform="matrix(1 0 0 -1 200.277 175.865)" fill="#4767F6" stroke="#4767F6"/>
<circle cx="18.1833" cy="18.1833" r="17.6833" transform="matrix(1 0 0 -1 60.3398 299.195)" fill="#4767F6" stroke="#4767F6"/>
<path d="M159.164 214.209C159.164 219.742 157.169 224.812 153.863 228.732C153.448 229.225 153.008 229.703 152.554 230.158C151.819 230.892 151.031 231.578 150.195 232.202C149.789 232.511 149.369 232.806 148.939 233.086C148.891 233.12 148.842 233.149 148.789 233.178C148.18 233.575 147.547 233.942 146.895 234.27C146.745 234.348 146.595 234.425 146.441 234.498C145.74 234.836 145.02 235.14 144.285 235.406C143.309 235.759 142.304 236.049 141.27 236.262C139.772 236.576 138.225 236.74 136.635 236.74C135.954 236.74 135.277 236.711 134.611 236.648C133.915 236.585 133.229 236.494 132.552 236.363C132.175 236.295 131.803 236.218 131.436 236.131C130.363 235.88 129.324 235.551 128.319 235.145C127.425 234.792 126.56 234.382 125.724 233.918C125.627 233.864 125.53 233.811 125.439 233.753C124.868 233.434 124.317 233.091 123.786 232.714C123.327 232.4 122.877 232.062 122.442 231.704C122.389 231.665 122.341 231.627 122.288 231.583C121.674 231.071 121.084 230.53 120.524 229.959C120.364 229.8 120.21 229.636 120.06 229.471C119.63 229.007 119.219 228.524 118.833 228.026C118.451 227.533 118.088 227.026 117.75 226.504C115.445 222.966 114.102 218.747 114.102 214.209C114.102 201.764 124.192 191.677 136.635 191.677C149.079 191.677 159.164 201.764 159.164 214.209Z" fill="#EDDDD6"/>
<path d="M153.859 228.732C153.444 229.225 153.004 229.704 152.55 230.158C151.815 230.893 151.027 231.579 150.191 232.202C149.785 232.512 149.365 232.807 148.935 233.087C148.887 233.121 148.838 233.15 148.785 233.179L148.92 223.271C148.92 223.271 151.255 225.446 153.859 228.732Z" fill="#FFBF69"/>
<path d="M146.896 234.27C146.747 234.347 146.597 234.425 146.442 234.497C144.818 235.285 143.084 235.884 141.271 236.261C139.773 236.575 138.227 236.74 136.637 236.74C135.956 236.74 135.279 236.711 134.612 236.648C133.916 236.585 133.23 236.493 132.554 236.363C132.177 236.295 131.805 236.218 131.437 236.131C130.364 235.88 129.325 235.551 128.32 235.145L133.017 219.215C133.017 219.215 136.681 218.664 140.832 219.099C143.543 219.385 145.712 228.185 146.896 234.27Z" fill="#7772D3"/>
<path d="M140.825 219.099L133.682 219.549C133.682 219.549 132.967 226.972 132.547 236.363C132.17 236.295 131.798 236.218 131.43 236.131C129.406 235.652 127.492 234.903 125.718 233.917C125.622 233.864 125.525 233.811 125.433 233.753C124.863 233.434 124.312 233.091 123.781 232.714C123.321 232.4 122.872 232.061 122.437 231.704C122.384 231.665 122.336 231.626 122.282 231.583C121.669 231.071 121.079 230.529 120.519 229.959C120.359 229.8 120.204 229.635 120.055 229.471C120.19 226.402 120.61 224.116 121.466 223.318C125.264 219.786 134.687 218.606 134.687 218.606L139.095 218.543C139.095 218.543 139.791 218.746 140.825 219.099Z" fill="#FFBF69"/>
<path d="M150.195 232.201C149.789 232.511 149.368 232.806 148.938 233.086C148.281 233.516 147.6 233.912 146.894 234.27C146.744 234.347 146.594 234.425 146.44 234.497C145.739 234.835 145.019 235.14 144.284 235.406L144.27 235.232C143.004 222.076 140.969 219.273 140.844 219.104C143.564 220.037 148.619 222.023 149.547 224.164C149.9 224.981 150.098 228.103 150.195 232.201Z" fill="#FFBF69"/>
<path d="M136.343 202.213C136.343 202.213 131.699 191.851 126.398 197.115C121.966 201.517 128.838 208.308 132.815 206.37C136.792 204.432 136.338 202.213 136.338 202.213H136.343Z" fill="#1C1C1C"/>
<path d="M143.417 210.671C143.417 210.671 145.326 208.501 144.722 205.186C144.311 202.938 143.301 202.223 143.301 202.223C143.301 202.223 144.785 199.13 140.242 199.376C135.7 199.628 133.061 201.894 133.061 201.894C133.061 201.894 130.969 200.904 130.075 203.339C129.176 205.775 130.157 209.332 130.157 209.332L143.417 210.666V210.671Z" fill="#1C1C1C"/>
<path d="M133.496 214.551L133.714 220.095C133.714 220.095 134.777 221.651 138.029 221.786C140.455 221.888 141.17 220.617 141.17 220.617L140.397 215.789L134.492 214.73L133.501 214.551H133.496Z" fill="#F0027F"/>
<path d="M133.488 214.213C133.508 214.363 133.57 214.542 133.672 214.74C135.02 217.461 139.432 218.442 140.829 218.515L140.389 215.789L133.488 214.213Z" fill="#1C1C1C"/>
<path d="M141.132 203.107C141.132 203.107 144.312 209.946 143.316 213.851C142.321 217.756 138.769 217.229 136.638 216.528C134.507 215.828 133.492 214.552 133.492 214.552C133.492 214.552 131.53 215.267 130.167 213.46C128.804 211.652 129.568 209.525 130.684 209.013C131.801 208.501 133.163 209.284 133.163 209.284L132.066 207.302C132.066 207.302 136.251 196.993 141.137 203.102L141.132 203.107Z" fill="#F0027F"/>
<path d="M133.158 209.289C133.158 209.289 136.14 209.844 138.155 206.51C140.175 203.175 139.963 201.817 139.963 201.817L142.065 205.2C142.065 205.2 142.49 202.827 141.523 201.329C140.557 199.835 139.576 200.159 139.576 200.159L133.047 201.889L131.395 207.167L133.149 209.284L133.158 209.289Z" fill="#1C1C1C"/>
<path d="M141.015 211.913C141.015 211.913 140.972 211.913 140.947 211.903C140.817 211.865 140.744 211.734 140.783 211.604C141.15 210.337 140.184 208.984 140.174 208.97C140.097 208.863 140.121 208.709 140.227 208.631C140.334 208.554 140.483 208.578 140.566 208.684C140.609 208.747 141.682 210.241 141.247 211.734C141.218 211.84 141.121 211.908 141.015 211.908V211.913Z" fill="#1C1C1C"/>
<path d="M132.917 212.556C132.854 212.556 132.792 212.531 132.743 212.483L130.834 210.526C130.743 210.429 130.743 210.279 130.834 210.183C130.931 210.091 131.086 210.091 131.178 210.183L133.086 212.14C133.178 212.237 133.178 212.386 133.086 212.483C133.038 212.527 132.98 212.551 132.917 212.551V212.556Z" fill="#1C1C1C"/>
<path d="M130.92 212.058C130.804 212.058 130.703 211.976 130.684 211.855C130.659 211.724 130.751 211.599 130.882 211.575L132.177 211.357C132.307 211.338 132.433 211.425 132.457 211.555C132.481 211.686 132.389 211.811 132.259 211.836L130.964 212.053C130.964 212.053 130.935 212.053 130.925 212.053L130.92 212.058Z" fill="#1C1C1C"/>
<path d="M142.269 206.234C142.269 206.234 142.245 206.234 142.23 206.234L141.003 206.036C140.872 206.017 140.78 205.891 140.805 205.761C140.824 205.63 140.95 205.538 141.08 205.558L142.308 205.756C142.438 205.775 142.53 205.901 142.511 206.031C142.491 206.152 142.39 206.234 142.274 206.234H142.269Z" fill="#1C1C1C"/>
<path d="M137.182 207.114C137.095 207.114 137.013 207.065 136.969 206.983C136.906 206.867 136.955 206.717 137.071 206.659L139.066 205.611C139.187 205.548 139.332 205.596 139.395 205.712C139.458 205.828 139.41 205.978 139.294 206.036L137.298 207.085C137.264 207.104 137.225 207.114 137.187 207.114H137.182Z" fill="#1C1C1C"/>
<path d="M142.309 209.071C142.207 209.071 142.11 209.008 142.077 208.902L141.676 207.66C141.651 207.583 141.666 207.5 141.714 207.438L142.091 206.964C142.173 206.858 142.328 206.843 142.429 206.925C142.536 207.007 142.55 207.162 142.468 207.264L142.173 207.636L142.536 208.757C142.574 208.883 142.507 209.018 142.381 209.061C142.357 209.071 142.333 209.071 142.309 209.071Z" fill="#1C1C1C"/>
<path d="M138.34 209.457C138.238 209.457 138.142 209.395 138.108 209.288L137.707 208.046C137.682 207.969 137.697 207.882 137.75 207.819L138.272 207.195C138.359 207.094 138.509 207.08 138.61 207.166C138.712 207.253 138.726 207.403 138.639 207.505L138.204 208.027L138.562 209.143C138.601 209.269 138.533 209.404 138.407 209.448C138.383 209.457 138.359 209.457 138.335 209.457H138.34Z" fill="#1C1C1C"/>
<path d="M140.04 213.75C139.174 213.75 138.218 212.827 138.092 212.701C137.995 212.609 137.995 212.455 138.092 212.358C138.189 212.261 138.338 212.261 138.435 212.358C138.754 212.672 139.779 213.504 140.315 213.199C140.431 213.131 140.576 213.175 140.644 213.291C140.711 213.407 140.668 213.557 140.552 213.62C140.392 213.711 140.218 213.75 140.04 213.75Z" fill="#1C1C1C"/>
<path d="M123.782 232.714C123.323 232.4 122.873 232.061 122.438 231.704C122.385 231.665 122.337 231.626 122.284 231.583C121.67 231.071 121.081 230.529 120.52 229.959C119.921 229.345 119.355 228.702 118.829 228.026C118.447 227.533 118.084 227.025 117.746 226.503C120.781 223.599 123.294 222.004 123.294 222.004L123.782 232.714Z" fill="#FFBF69"/>
<path d="M138.511 222.052C138.346 222.052 138.177 222.043 137.999 222.028C135.824 221.83 133.659 220.356 133.567 220.293C133.456 220.216 133.427 220.066 133.504 219.96C133.582 219.849 133.727 219.82 133.843 219.897C133.862 219.911 135.993 221.357 138.042 221.545C140.188 221.743 140.922 220.545 140.951 220.496C141.019 220.38 141.169 220.342 141.28 220.409C141.396 220.477 141.434 220.622 141.367 220.738C141.333 220.796 140.589 222.052 138.506 222.052H138.511Z" fill="white"/>
<rect width="12.7279" height="12.7279" transform="matrix(0.707107 -0.707107 -0.707107 -0.707107 79.1758 290.176)" fill="#F0027F"/>
<rect width="12.7279" height="12.7279" transform="matrix(0.707107 -0.707107 -0.707107 -0.707107 217 168)" fill="#F0027F"/>
<rect x="33" y="361" width="211" height="8" rx="1" fill="#D1D5E6"/>
<rect x="33" y="379" width="107" height="8" rx="1" fill="#D1D5E6"/>
<rect x="33" y="397" width="174" height="8" rx="1" fill="#D1D5E6"/>
</svg>
