<svg width="1022" height="551" viewBox="0 0 1022 551" fill="none" xmlns="http://www.w3.org/2000/svg">
<rect width="1022" height="551" fill="#F5F5F5"/>
<g id="Pricing-Desktop">
<path id="pricing-text" d="M66.1198 121.982V104.51C66.1198 103.938 65.6518 103.47 65.0798 103.47H59.9318C59.3598 103.47 58.9438 103.938 58.9438 104.51V117.77C57.3318 117.874 55.7198 117.926 53.7958 117.926C50.7278 117.926 47.1398 115.534 47.1398 108.15V100.662C47.1398 93.2778 50.4679 90.8338 53.9519 90.8338C58.9439 90.8338 62.5318 91.0418 64.9238 91.2498C64.9758 91.2498 65.0278 91.2498 65.0798 91.2498C65.9118 91.2498 66.1198 90.8858 66.1198 90.1578V86.6738C66.1198 85.9978 65.8079 85.7378 65.1319 85.5818C63.4159 85.2698 58.9439 84.6458 53.9519 84.6458C47.7639 84.6458 39.8598 88.3378 39.8598 100.662V108.15C39.8598 120.422 48.1798 124.114 53.7958 124.114C59.1518 124.114 62.5319 123.75 65.1319 123.23C65.8079 123.074 66.1198 122.658 66.1198 121.982ZM97.3598 110.126V107.214C97.3598 99.4658 92.9918 94.0058 84.9838 94.0058C77.0278 94.0058 72.5038 99.1018 72.5038 107.214V111.062C72.5038 121.306 79.8878 124.114 85.0878 124.114C89.7678 124.114 91.7958 123.854 95.1758 123.23C96.1118 123.074 96.2679 122.71 96.2679 121.878V118.446C96.2679 117.926 95.8518 117.666 95.3318 117.666C95.2798 117.666 95.2278 117.666 95.1758 117.666C92.9918 117.874 89.4038 118.186 85.6078 118.186C80.6158 118.186 79.3678 114.598 79.3678 111.582V111.426H96.3199C97.0479 111.426 97.3598 110.958 97.3598 110.126ZM90.4438 106.538H79.4198V106.33C79.4198 102.222 81.7598 99.9338 84.9838 99.9338C88.2078 99.9338 90.4438 102.274 90.4438 106.33V106.538ZM118.612 122.814V119.538C118.612 119.018 118.196 118.758 117.52 118.758H114.764C112.892 118.758 112.736 118.446 112.736 115.846V99.5178H117.416C117.988 99.5178 118.456 99.0498 118.456 98.4778V95.4098C118.456 94.8378 117.988 94.3698 117.416 94.3698H112.736V89.0138C112.736 88.4938 112.372 88.2338 111.904 88.2338C111.852 88.2338 111.748 88.2338 111.696 88.2338L106.86 89.0658C106.288 89.1698 105.82 89.5338 105.82 90.1058V94.3698H100.932C100.36 94.3698 99.8918 94.8378 99.8918 95.4098V97.7498C99.8918 98.3218 100.36 98.6858 100.932 98.7898L105.82 99.5178V115.846C105.82 122.814 108.212 124.114 114.088 124.114C115.232 124.114 116.376 123.958 117.624 123.75C118.3 123.646 118.612 123.334 118.612 122.814ZM160.746 95.2538C160.746 94.7858 160.33 94.3698 159.81 94.3698H154.506C153.986 94.3698 153.57 94.7858 153.466 95.2538L147.85 117.614C147.85 117.614 147.85 117.614 147.694 117.614C147.642 117.614 147.538 117.614 147.434 117.614H147.382C147.07 117.614 146.862 117.354 146.654 116.47L141.402 95.3058C141.298 94.8378 140.882 94.3698 140.414 94.3698H135.162C134.486 94.3698 134.174 94.6818 134.174 95.2018C134.174 95.3058 134.174 95.4098 134.226 95.5658L141.038 119.382C142.182 123.334 144.054 123.698 145.562 123.698H146.342L145.926 125.258C145.198 127.962 144.054 128.586 141.818 128.586C140.362 128.586 137.398 128.326 135.942 128.274C135.89 128.274 135.89 128.274 135.838 128.274C135.266 128.274 134.798 128.638 134.798 129.21V132.538C134.798 133.058 135.318 133.266 135.89 133.422C137.086 133.786 139.686 134.098 141.402 134.098C148.474 134.098 150.398 131.602 152.01 125.934L160.694 95.5658C160.746 95.4618 160.746 95.3578 160.746 95.2538ZM188.055 111.166V106.954C188.055 99.5178 183.791 94.0058 175.627 94.0058C167.463 94.0058 163.199 99.5178 163.199 106.954V111.166C163.199 118.602 167.463 124.114 175.627 124.114C183.791 124.114 188.055 118.602 188.055 111.166ZM181.191 111.166C181.191 115.43 179.267 118.186 175.627 118.186C171.987 118.186 170.063 115.43 170.063 111.166V106.954C170.063 102.69 171.987 99.9338 175.627 99.9338C179.267 99.9338 181.191 102.69 181.191 106.954V111.166ZM217.967 122.658V95.4618C217.967 94.8898 217.499 94.3698 216.927 94.3698H212.143C211.571 94.3698 211.103 94.8898 211.103 95.4618V116.262C209.647 117.042 207.151 118.342 205.227 118.342C203.615 118.342 202.731 118.03 202.003 117.406C201.015 116.522 200.807 115.014 200.807 112.414V95.4618C200.807 94.8898 200.339 94.3698 199.767 94.3698H194.983C194.411 94.3698 193.943 94.8898 193.943 95.4618V112.414C193.943 116.73 194.619 119.954 196.543 121.878C198.051 123.386 200.339 124.062 202.939 124.062C206.267 124.062 208.399 123.23 211.103 121.462V122.658C211.103 123.23 211.571 123.698 212.143 123.698H216.927C217.499 123.698 217.967 123.23 217.967 122.658ZM239.796 98.7898V95.0458C239.796 94.4738 239.328 94.0058 238.756 94.0058C236.676 94.0058 233.868 94.5258 231.32 96.5018V95.4098C231.32 94.8378 230.852 94.3698 230.28 94.3698H225.756C225.184 94.3698 224.716 94.8378 224.716 95.4098V122.606C224.716 123.178 225.184 123.698 225.756 123.698H230.54C231.112 123.698 231.58 123.178 231.58 122.606V101.702C233.764 100.558 235.948 99.8298 238.756 99.8298C239.328 99.8298 239.796 99.3618 239.796 98.7898ZM276.924 116.002C276.924 113.35 276.3 110.75 271.932 108.098L265.12 103.938C263.82 103.158 263.04 102.638 263.04 101.806C263.04 100.194 264.132 99.6218 266.628 99.6218C269.592 99.6218 273.752 100.038 275.208 100.246C275.26 100.246 275.312 100.246 275.416 100.246C275.936 100.246 276.248 99.8818 276.248 99.2578V96.2418C276.248 95.6178 275.936 95.2018 275.312 95.0458C272.66 94.4738 270.268 94.0058 266.056 94.0058C259.452 94.0058 256.176 96.6058 256.176 101.806C256.176 104.822 257.996 107.422 260.544 108.982L267.668 113.35C269.332 114.39 269.956 115.014 269.956 116.002C269.956 117.406 269.488 118.498 266.264 118.498C264.704 118.498 260.024 118.238 257.528 117.926C257.476 117.926 257.424 117.926 257.32 117.926C256.8 117.926 256.436 118.342 256.436 118.758V121.878C256.436 122.502 256.8 122.918 257.424 123.074C260.336 123.854 264.704 124.114 266.732 124.114C273.544 124.114 276.924 120.526 276.924 116.002ZM306.681 122.658V95.4618C306.681 94.8898 306.213 94.3698 305.641 94.3698H300.857C300.285 94.3698 299.817 94.8898 299.817 95.4618V116.262C298.361 117.042 295.865 118.342 293.941 118.342C292.329 118.342 291.445 118.03 290.717 117.406C289.729 116.522 289.521 115.014 289.521 112.414V95.4618C289.521 94.8898 289.053 94.3698 288.481 94.3698H283.697C283.125 94.3698 282.657 94.8898 282.657 95.4618V112.414C282.657 116.73 283.333 119.954 285.257 121.878C286.765 123.386 289.053 124.062 291.653 124.062C294.981 124.062 297.113 123.23 299.817 121.462V122.658C299.817 123.23 300.285 123.698 300.857 123.698H305.641C306.213 123.698 306.681 123.23 306.681 122.658ZM320.607 89.4298V84.8538C320.607 84.2818 320.139 83.8138 319.567 83.8138H314.523C313.951 83.8138 313.431 84.2818 313.431 84.8538V89.4298C313.431 90.0018 313.951 90.4698 314.523 90.4698H319.567C320.139 90.4698 320.607 90.0018 320.607 89.4298ZM320.451 122.606V95.4098C320.451 94.8378 319.983 94.3698 319.411 94.3698H314.627C314.055 94.3698 313.587 94.8378 313.587 95.4098V122.606C313.587 123.178 314.055 123.698 314.627 123.698H319.411C319.983 123.698 320.451 123.178 320.451 122.606ZM343.725 122.814V119.538C343.725 119.018 343.309 118.758 342.633 118.758H339.877C338.005 118.758 337.849 118.446 337.849 115.846V99.5178H342.529C343.101 99.5178 343.569 99.0498 343.569 98.4778V95.4098C343.569 94.8378 343.101 94.3698 342.529 94.3698H337.849V89.0138C337.849 88.4938 337.485 88.2338 337.017 88.2338C336.965 88.2338 336.861 88.2338 336.809 88.2338L331.973 89.0658C331.401 89.1698 330.933 89.5338 330.933 90.1058V94.3698H326.045C325.473 94.3698 325.005 94.8378 325.005 95.4098V97.7498C325.005 98.3218 325.473 98.6858 326.045 98.7898L330.933 99.5178V115.846C330.933 122.814 333.325 124.114 339.201 124.114C340.345 124.114 341.489 123.958 342.737 123.75C343.413 123.646 343.725 123.334 343.725 122.814ZM370.155 122.658V103.938C370.155 97.2818 366.099 94.0058 358.715 94.0058C355.127 94.0058 352.111 94.4218 350.031 94.8378C349.355 94.9938 349.043 95.3578 349.043 95.9298V99.2578C349.043 99.9858 349.459 100.142 349.979 100.142C350.031 100.142 350.135 100.142 350.239 100.142C351.955 99.9338 355.387 99.7258 358.715 99.7258C361.783 99.7258 363.291 100.558 363.291 103.938V106.226H360.015C350.967 106.226 347.327 109.294 347.327 115.222V115.43C347.327 122.45 352.007 124.114 356.323 124.114C358.819 124.114 361.263 123.282 363.655 121.826V122.658C363.655 123.23 364.123 123.698 364.695 123.698H369.115C369.687 123.698 370.155 123.23 370.155 122.658ZM363.291 117.198C361.783 118.03 359.859 118.654 357.987 118.654C355.387 118.654 354.243 117.978 354.243 115.43V115.222C354.243 112.31 355.283 110.802 360.015 110.802H363.291V117.198ZM401.191 111.062V107.058C401.191 98.9458 397.135 94.0058 388.763 94.0058C387.515 94.0058 385.695 94.1098 383.771 94.3698V85.1658C383.771 84.5938 383.303 84.1258 382.731 84.1258H377.947C377.375 84.1258 376.907 84.5938 376.907 85.1658V121.358C376.907 122.138 377.115 122.45 378.311 122.762C381.535 123.594 385.435 124.114 388.763 124.114C397.135 124.114 401.191 119.174 401.191 111.062ZM394.327 111.062C394.327 115.326 393.235 118.498 388.763 118.498C386.891 118.498 384.759 118.342 383.771 118.134V99.9858C385.227 99.7778 387.515 99.6218 388.763 99.6218C393.235 99.6218 394.327 102.794 394.327 107.058V111.062ZM414.043 122.606V85.1658C414.043 84.5938 413.627 84.1258 413.055 84.1258H408.219C407.647 84.1258 407.179 84.5938 407.179 85.1658V122.606C407.179 123.178 407.647 123.698 408.219 123.698H413.055C413.627 123.698 414.043 123.178 414.043 122.606ZM445.059 110.126V107.214C445.059 99.4658 440.691 94.0058 432.683 94.0058C424.727 94.0058 420.203 99.1018 420.203 107.214V111.062C420.203 121.306 427.587 124.114 432.787 124.114C437.467 124.114 439.495 123.854 442.875 123.23C443.811 123.074 443.967 122.71 443.967 121.878V118.446C443.967 117.926 443.551 117.666 443.031 117.666C442.979 117.666 442.927 117.666 442.875 117.666C440.691 117.874 437.103 118.186 433.307 118.186C428.315 118.186 427.067 114.598 427.067 111.582V111.426H444.019C444.747 111.426 445.059 110.958 445.059 110.126ZM438.143 106.538H427.119V106.33C427.119 102.222 429.459 99.9338 432.683 99.9338C435.907 99.9338 438.143 102.274 438.143 106.33V106.538ZM66.1198 183.982V166.51C66.1198 165.938 65.6518 165.47 65.0798 165.47H59.9318C59.3598 165.47 58.9438 165.938 58.9438 166.51V179.77C57.3318 179.874 55.7198 179.926 53.7958 179.926C50.7278 179.926 47.1398 177.534 47.1398 170.15V162.662C47.1398 155.278 50.4679 152.834 53.9519 152.834C58.9439 152.834 62.5318 153.042 64.9238 153.25C64.9758 153.25 65.0278 153.25 65.0798 153.25C65.9118 153.25 66.1198 152.886 66.1198 152.158V148.674C66.1198 147.998 65.8079 147.738 65.1319 147.582C63.4159 147.27 58.9439 146.646 53.9519 146.646C47.7639 146.646 39.8598 150.338 39.8598 162.662V170.15C39.8598 182.422 48.1798 186.114 53.7958 186.114C59.1518 186.114 62.5319 185.75 65.1319 185.23C65.8079 185.074 66.1198 184.658 66.1198 183.982ZM97.3598 173.166V168.954C97.3598 161.518 93.0959 156.006 84.9319 156.006C76.7679 156.006 72.5038 161.518 72.5038 168.954V173.166C72.5038 180.602 76.7679 186.114 84.9319 186.114C93.0959 186.114 97.3598 180.602 97.3598 173.166ZM90.4958 173.166C90.4958 177.43 88.5719 180.186 84.9319 180.186C81.2919 180.186 79.3678 177.43 79.3678 173.166V168.954C79.3678 164.69 81.2919 161.934 84.9319 161.934C88.5719 161.934 90.4958 164.69 90.4958 168.954V173.166ZM127.219 173.166V168.954C127.219 161.518 122.955 156.006 114.791 156.006C106.627 156.006 102.363 161.518 102.363 168.954V173.166C102.363 180.602 106.627 186.114 114.791 186.114C122.955 186.114 127.219 180.602 127.219 173.166ZM120.355 173.166C120.355 177.43 118.431 180.186 114.791 180.186C111.151 180.186 109.227 177.43 109.227 173.166V168.954C109.227 164.69 111.151 161.934 114.791 161.934C118.431 161.934 120.355 164.69 120.355 168.954V173.166ZM156.351 183.358V147.166C156.351 146.594 155.883 146.126 155.311 146.126H150.527C149.955 146.126 149.487 146.594 149.487 147.166V156.37C147.563 156.11 145.743 156.006 144.495 156.006C136.123 156.006 132.067 160.946 132.067 169.058V173.062C132.067 181.174 136.123 186.114 144.495 186.114C147.823 186.114 151.723 185.594 154.947 184.762C156.143 184.45 156.351 184.138 156.351 183.358ZM149.487 180.134C148.499 180.342 146.367 180.498 144.495 180.498C140.023 180.498 138.931 177.326 138.931 173.062V169.058C138.931 164.794 140.023 161.622 144.495 161.622C145.743 161.622 148.031 161.778 149.487 161.986V180.134ZM174.194 171.346V168.07C174.194 167.498 173.778 167.082 173.206 167.082H163.014C162.442 167.082 161.974 167.498 161.974 168.07V171.346C161.974 171.918 162.442 172.282 163.014 172.282H173.206C173.778 172.282 174.194 171.918 174.194 171.346ZM203.277 151.794V148.466C203.277 147.738 203.017 147.478 202.237 147.374C200.573 147.114 198.545 146.646 192.357 146.646C185.597 146.646 180.345 148.466 180.345 157.306V184.658C180.345 185.23 180.813 185.698 181.385 185.698H186.481C187.053 185.698 187.521 185.23 187.521 184.658V168.746H201.613C202.185 168.746 202.653 168.278 202.653 167.706V163.962C202.653 163.39 202.185 162.922 201.613 162.922H187.521V157.306C187.521 153.874 188.613 152.834 191.629 152.834H202.237C202.809 152.834 203.277 152.366 203.277 151.794ZM229.186 184.658V165.938C229.186 159.282 225.13 156.006 217.746 156.006C214.158 156.006 211.142 156.422 209.062 156.838C208.386 156.994 208.074 157.358 208.074 157.93V161.258C208.074 161.986 208.49 162.142 209.01 162.142C209.062 162.142 209.166 162.142 209.27 162.142C210.986 161.934 214.418 161.726 217.746 161.726C220.814 161.726 222.322 162.558 222.322 165.938V168.226H219.046C209.998 168.226 206.358 171.294 206.358 177.222V177.43C206.358 184.45 211.038 186.114 215.354 186.114C217.85 186.114 220.294 185.282 222.686 183.826V184.658C222.686 185.23 223.154 185.698 223.726 185.698H228.146C228.718 185.698 229.186 185.23 229.186 184.658ZM222.322 179.198C220.814 180.03 218.89 180.654 217.018 180.654C214.418 180.654 213.274 179.978 213.274 177.43V177.222C213.274 174.31 214.314 172.802 219.046 172.802H222.322V179.198ZM255.647 178.002C255.647 175.35 255.023 172.75 250.655 170.098L243.843 165.938C242.543 165.158 241.763 164.638 241.763 163.806C241.763 162.194 242.855 161.622 245.351 161.622C248.315 161.622 252.475 162.038 253.931 162.246C253.983 162.246 254.035 162.246 254.139 162.246C254.659 162.246 254.971 161.882 254.971 161.258V158.242C254.971 157.618 254.659 157.202 254.035 157.046C251.383 156.474 248.991 156.006 244.779 156.006C238.175 156.006 234.899 158.606 234.899 163.806C234.899 166.822 236.719 169.422 239.267 170.982L246.391 175.35C248.055 176.39 248.679 177.014 248.679 178.002C248.679 179.406 248.211 180.498 244.987 180.498C243.427 180.498 238.747 180.238 236.251 179.926C236.199 179.926 236.147 179.926 236.043 179.926C235.523 179.926 235.159 180.342 235.159 180.758V183.878C235.159 184.502 235.523 184.918 236.147 185.074C239.059 185.854 243.427 186.114 245.455 186.114C252.267 186.114 255.647 182.526 255.647 178.002ZM277.252 184.814V181.538C277.252 181.018 276.836 180.758 276.16 180.758H273.404C271.532 180.758 271.376 180.446 271.376 177.846V161.518H276.056C276.628 161.518 277.096 161.05 277.096 160.478V157.41C277.096 156.838 276.628 156.37 276.056 156.37H271.376V151.014C271.376 150.494 271.012 150.234 270.544 150.234C270.492 150.234 270.388 150.234 270.336 150.234L265.5 151.066C264.928 151.17 264.46 151.534 264.46 152.106V156.37H259.572C259 156.37 258.532 156.838 258.532 157.41V159.75C258.532 160.322 259 160.686 259.572 160.79L264.46 161.518V177.846C264.46 184.814 266.852 186.114 272.728 186.114C273.872 186.114 275.016 185.958 276.264 185.75C276.94 185.646 277.252 185.334 277.252 184.814ZM293.022 171.346V168.07C293.022 167.498 292.606 167.082 292.034 167.082H281.842C281.27 167.082 280.802 167.498 280.802 168.07V171.346C280.802 171.918 281.27 172.282 281.842 172.282H292.034C292.606 172.282 293.022 171.918 293.022 171.346ZM322.209 184.086V180.602C322.209 179.978 321.949 179.51 321.169 179.51C321.169 179.51 321.117 179.51 321.065 179.51C319.245 179.666 315.709 179.926 312.953 179.926C308.585 179.926 305.413 177.43 305.413 170.202V162.558C305.413 155.174 308.585 152.834 312.953 152.834C315.709 152.834 319.245 153.094 321.065 153.25C321.117 153.25 321.169 153.25 321.169 153.25C321.949 153.25 322.209 152.782 322.209 152.158V148.674C322.209 147.946 321.741 147.686 321.065 147.478C320.285 147.27 316.853 146.646 312.849 146.646C306.609 146.646 298.133 149.506 298.133 162.558V170.202C298.133 183.046 306.609 186.114 312.849 186.114C316.853 186.114 320.285 185.49 321.065 185.282C321.741 185.074 322.209 184.814 322.209 184.086ZM351.978 184.606V167.498C351.978 161.102 349.846 156.006 342.67 156.006C338.978 156.006 336.794 156.734 334.818 157.93V147.166C334.818 146.594 334.35 146.126 333.778 146.126H328.994C328.422 146.126 327.954 146.594 327.954 147.166V184.606C327.954 185.178 328.422 185.698 328.994 185.698H333.778C334.35 185.698 334.818 185.178 334.818 184.606V163.598C337.002 162.454 339.082 161.83 340.85 161.83C344.334 161.83 345.114 162.974 345.114 167.498V184.606C345.114 185.178 345.582 185.698 346.154 185.698H350.938C351.51 185.698 351.978 185.178 351.978 184.606ZM382.7 172.126V169.214C382.7 161.466 378.332 156.006 370.324 156.006C362.368 156.006 357.844 161.102 357.844 169.214V173.062C357.844 183.306 365.228 186.114 370.428 186.114C375.108 186.114 377.136 185.854 380.516 185.23C381.452 185.074 381.608 184.71 381.608 183.878V180.446C381.608 179.926 381.192 179.666 380.672 179.666C380.62 179.666 380.568 179.666 380.516 179.666C378.332 179.874 374.744 180.186 370.948 180.186C365.956 180.186 364.708 176.598 364.708 173.582V173.426H381.66C382.388 173.426 382.7 172.958 382.7 172.126ZM375.784 168.538H364.76V168.33C364.76 164.222 367.1 161.934 370.324 161.934C373.548 161.934 375.784 164.274 375.784 168.33V168.538ZM410.323 184.658V165.938C410.323 159.282 406.267 156.006 398.883 156.006C395.295 156.006 392.279 156.422 390.199 156.838C389.523 156.994 389.211 157.358 389.211 157.93V161.258C389.211 161.986 389.627 162.142 390.147 162.142C390.199 162.142 390.303 162.142 390.407 162.142C392.123 161.934 395.555 161.726 398.883 161.726C401.951 161.726 403.459 162.558 403.459 165.938V168.226H400.183C391.135 168.226 387.495 171.294 387.495 177.222V177.43C387.495 184.45 392.175 186.114 396.491 186.114C398.987 186.114 401.431 185.282 403.823 183.826V184.658C403.823 185.23 404.291 185.698 404.863 185.698H409.283C409.855 185.698 410.323 185.23 410.323 184.658ZM403.459 179.198C401.951 180.03 400.027 180.654 398.155 180.654C395.555 180.654 394.411 179.978 394.411 177.43V177.222C394.411 174.31 395.451 172.802 400.183 172.802H403.459V179.198ZM441.359 173.062V169.058C441.359 160.946 437.303 156.006 428.931 156.006C425.603 156.006 421.703 156.526 418.479 157.358C417.283 157.67 417.075 157.982 417.075 158.762V194.954C417.075 195.526 417.543 195.994 418.115 195.994H422.899C423.471 195.994 423.939 195.526 423.939 194.954V185.75C425.863 186.01 427.683 186.114 428.931 186.114C437.303 186.114 441.359 181.174 441.359 173.062ZM434.495 173.062C434.495 177.326 433.403 180.498 428.931 180.498C427.683 180.498 425.395 180.342 423.939 180.134V161.986C424.927 161.778 427.059 161.622 428.931 161.622C433.403 161.622 434.495 164.794 434.495 169.058V173.062ZM58.9958 246.086V242.706C58.9958 242.186 58.5798 241.926 58.0598 241.926C58.0078 241.926 57.9558 241.926 57.9038 241.926C55.8238 242.186 54.5758 242.29 51.1958 242.29C48.7518 242.29 46.2038 240.886 46.2038 235.478V230.642C46.2038 225.234 48.7518 223.83 51.1958 223.83C54.5758 223.83 55.8238 223.934 57.9038 224.194C57.9558 224.194 58.0078 224.194 58.0598 224.194C58.5798 224.194 58.9958 223.934 58.9958 223.414V220.034C58.9958 219.202 58.7878 218.89 57.9038 218.682C56.7078 218.37 54.3678 218.006 51.1958 218.006C44.4358 218.006 39.3398 222.166 39.3398 230.642V235.478C39.3398 243.954 44.4358 248.114 51.1958 248.114C54.3678 248.114 56.7078 247.75 57.9038 247.438C58.7878 247.23 58.9958 246.918 58.9958 246.086ZM79.7838 222.79V219.046C79.7838 218.474 79.3159 218.006 78.7439 218.006C76.6639 218.006 73.8558 218.526 71.3078 220.502V219.41C71.3078 218.838 70.8399 218.37 70.2679 218.37H65.7439C65.1719 218.37 64.7038 218.838 64.7038 219.41V246.606C64.7038 247.178 65.1719 247.698 65.7439 247.698H70.5278C71.0998 247.698 71.5678 247.178 71.5678 246.606V225.702C73.7518 224.558 75.9359 223.83 78.7439 223.83C79.3159 223.83 79.7838 223.362 79.7838 222.79ZM104.671 246.658V227.938C104.671 221.282 100.615 218.006 93.2309 218.006C89.6429 218.006 86.6268 218.422 84.5468 218.838C83.8708 218.994 83.5589 219.358 83.5589 219.93V223.258C83.5589 223.986 83.9748 224.142 84.4948 224.142C84.5468 224.142 84.6509 224.142 84.7549 224.142C86.4709 223.934 89.9029 223.726 93.2309 223.726C96.2989 223.726 97.8069 224.558 97.8069 227.938V230.226H94.5309C85.4829 230.226 81.8428 233.294 81.8428 239.222V239.43C81.8428 246.45 86.5229 248.114 90.8389 248.114C93.3349 248.114 95.7789 247.282 98.1709 245.826V246.658C98.1709 247.23 98.6388 247.698 99.2108 247.698H103.631C104.203 247.698 104.671 247.23 104.671 246.658ZM97.8069 241.198C96.2989 242.03 94.3749 242.654 92.5029 242.654C89.9029 242.654 88.7589 241.978 88.7589 239.43V239.222C88.7589 236.31 89.7989 234.802 94.5309 234.802H97.8069V241.198ZM126.527 211.818V208.75C126.527 208.282 126.007 208.022 125.591 207.918C124.603 207.71 123.719 207.502 122.471 207.502C117.063 207.502 113.475 209.114 113.475 215.822V218.37H108.847C108.275 218.37 107.807 218.838 107.807 219.41V221.802C107.807 222.374 108.275 222.686 108.847 222.79L113.475 223.518V246.606C113.475 247.178 113.995 247.698 114.567 247.698H119.299C119.871 247.698 120.339 247.178 120.339 246.606V223.518H125.331C125.903 223.518 126.371 223.102 126.371 222.53V219.41C126.371 218.838 125.903 218.37 125.331 218.37H120.339V215.822C120.339 213.274 120.911 212.702 123.407 212.702H125.747C126.111 212.702 126.527 212.442 126.527 211.818ZM147.303 246.814V243.538C147.303 243.018 146.887 242.758 146.211 242.758H143.455C141.583 242.758 141.427 242.446 141.427 239.846V223.518H146.107C146.679 223.518 147.147 223.05 147.147 222.478V219.41C147.147 218.838 146.679 218.37 146.107 218.37H141.427V213.014C141.427 212.494 141.063 212.234 140.595 212.234C140.543 212.234 140.439 212.234 140.387 212.234L135.551 213.066C134.979 213.17 134.511 213.534 134.511 214.106V218.37H129.623C129.051 218.37 128.583 218.838 128.583 219.41V221.75C128.583 222.322 129.051 222.686 129.623 222.79L134.511 223.518V239.846C134.511 246.814 136.903 248.114 142.779 248.114C143.923 248.114 145.067 247.958 146.315 247.75C146.991 247.646 147.303 247.334 147.303 246.814ZM158.705 226.17V220.294C158.705 219.722 158.237 219.254 157.665 219.254H153.037C152.465 219.254 151.997 219.722 151.997 220.294V226.17C151.997 226.742 152.465 227.158 153.037 227.158H157.665C158.237 227.158 158.705 226.742 158.705 226.17ZM158.705 246.658V240.782C158.705 240.21 158.237 239.794 157.665 239.794H153.037C152.465 239.794 151.997 240.21 151.997 240.782V246.658C151.997 247.23 152.465 247.698 153.037 247.698H157.665C158.237 247.698 158.705 247.23 158.705 246.658Z" fill="#1C1C1C"/>
<g id="pricing-frame">
<g id="pricing-frame_2">
<path id="Vector" d="M1012 1H10C5.02944 1 1 5.02944 1 10V541C1 545.971 5.02944 550 10 550H1012C1016.97 550 1021 545.971 1021 541V10C1021 5.02944 1016.97 1 1012 1Z" stroke="#1C1C1C" stroke-width="2"/>
<path id="Vector_2" d="M0.5 10C0.5 4.75329 4.7533 0.5 10 0.5H1012C1017.25 0.5 1021.5 4.7533 1021.5 10V33.5H0.5V10Z" fill="#4767F6" stroke="#4767F6"/>
</g>
<path id="Vector_3" d="M36.5 24C40.0899 24 43 21.0899 43 17.5C43 13.9101 40.0899 11 36.5 11C32.9101 11 30 13.9101 30 17.5C30 21.0899 32.9101 24 36.5 24Z" fill="white"/>
<path id="Vector_4" d="M53.5 24C57.0899 24 60 21.0899 60 17.5C60 13.9101 57.0899 11 53.5 11C49.9101 11 47 13.9101 47 17.5C47 21.0899 49.9101 24 53.5 24Z" fill="white"/>
<path id="Vector_5" d="M70.5 24C74.0899 24 77 21.0899 77 17.5C77 13.9101 74.0899 11 70.5 11C66.9101 11 64 13.9101 64 17.5C64 21.0899 66.9101 24 70.5 24Z" fill="white"/>
<path id="Vector_6" d="M647 148C649.761 148 652 150.239 652 153C652 155.761 649.761 158 647 158C644.239 158 642 155.761 642 153C642 150.239 644.239 148 647 148Z" fill="#F7734F"/>
</g>
<g id="shape-box">
<path id="Vector_7" d="M563 83.6977C563 80.9363 565.239 78.6978 568 78.6978H991C993.76 78.6978 996 80.9363 996 83.6978V506.698C996 509.459 993.76 511.698 991 511.698H568C565.239 511.698 563 509.459 563 506.698V83.6977Z" fill="#F1F2F6"/>
<path id="Vector_8" d="M664 131.5C681.397 131.5 695.5 145.603 695.5 163C695.5 180.397 681.397 194.5 664 194.5C646.603 194.5 632.5 180.397 632.5 163C632.5 145.603 646.603 131.5 664 131.5Z" fill="#4767F6" stroke="#4767F6"/>
<path id="Vector_9" d="M799 344.698C841.526 344.698 876 379.172 876 421.698C876 464.224 841.526 498.698 799 498.698C756.474 498.698 722 464.224 722 421.698C722 379.172 756.474 344.698 799 344.698Z" fill="#FF5223"/>
<path id="Vector_10" fill-rule="evenodd" clip-rule="evenodd" d="M904.5 185C950.06 185 987 221.937 987 267.5C987 313.063 950.06 350 904.5 350C858.937 350 822 313.063 822 267.5C822 221.937 858.937 185 904.5 185ZM904 196C943.76 196 976 228.235 976 268C976 307.765 943.76 340 904 340C864.235 340 832 307.765 832 268C832 228.235 864.235 196 904 196Z" fill="#FF5223"/>
<path id="Vector_11" d="M752.906 277.423L668.18 356.604L588.999 271.878L673.725 192.697L752.906 277.423Z" fill="#F0027F"/>
<path id="Vector_12" d="M874.632 329.942L874.643 329.954L874.653 329.965L887.81 344.28L877.748 360.916L877.74 360.929L877.732 360.942L868.184 377.879L849.253 373.45L849.238 373.446L849.223 373.443L830.164 369.596L828.527 350.223L828.526 350.207L828.524 350.192L826.293 330.878L844.212 323.334L844.227 323.328L844.24 323.321L861.92 315.231L874.632 329.942Z" fill="#4767F6" stroke="#4767F6" stroke-width="2"/>
<path id="Vector_13" d="M729.542 341.365L729.554 341.374L729.567 341.383L775.112 373.418L757.095 426.107L757.09 426.121L757.085 426.136L740.693 479.352L685.015 478.498H685H684.985L629.307 479.352L612.915 426.136L612.91 426.121L612.905 426.107L594.888 373.418L640.433 341.383L640.446 341.374L640.458 341.365L685 307.948L729.542 341.365Z" stroke="#4767F6" stroke-width="2"/>
</g>
<g id="review">
<path id="Vector_14" d="M343 378H-62V487H343V378Z" fill="white"/>
<g id="Clip path group">
<mask id="mask0_0_1" style="mask-type:luminance" maskUnits="userSpaceOnUse" x="-41" y="399" width="68" height="68">
<g id="clip0_2790_2158">
<path id="Vector_15" d="M27 399H-41V467H27V399Z" fill="white"/>
</g>
</mask>
<g mask="url(#mask0_0_1)">
<g id="Group">
<path id="Vector_16" d="M27 433C27 439.206 25.3372 445.026 22.4273 450.036C22.3179 450.226 22.2012 450.416 22.0845 450.605C21.8147 451.057 21.5302 451.51 21.2312 451.947C21.1073 452.13 20.9833 452.312 20.8447 452.494C16.4106 458.846 9.8468 463.587 2.2038 465.738C2.0433 465.782 1.8756 465.826 1.7151 465.87C-1.0635 466.606 -3.988 467 -7 467C-18.749 467 -29.1124 461.042 -35.2021 451.976C-35.7782 451.138 -36.3106 450.263 -36.7992 449.373C-39.4758 444.516 -41 438.937 -41 433C-41 414.221 -25.7795 399 -7 399C11.7795 399 27 414.221 27 433Z" fill="#EDDDD6"/>
<path id="Vector_17" d="M-21.5722 428.369C-21.5722 428.369 -25.2114 409.043 -11.0703 405.505C3.07089 401.968 3.92419 422.039 3.92419 422.039C3.92419 422.039 19.3124 424.971 19.4145 439.936C19.5385 458.642 1.46639 455.492 1.46639 455.492L-15.6576 448.52C-15.6576 448.52 -32.8107 439.177 -21.5649 428.369H-21.5722Z" fill="#1C1C1C"/>
<path id="Vector_18" d="M20.8456 452.494C16.4114 458.846 9.84773 463.587 2.20473 465.738C2.04423 465.782 1.87653 465.826 1.71603 465.87C-1.06257 466.606 -3.98707 467 -6.99907 467C-18.7481 467 -29.1115 461.042 -35.2012 451.976C-30.6357 445.734 -24.9107 441.008 -21.0163 439.33C-15.2548 436.851 -6.11667 435.188 2.32143 437.602C2.34323 437.609 2.37243 437.609 2.40163 437.617C4.93953 438.346 7.40463 439.44 9.70193 440.993C14.6684 444.348 18.2857 448.242 20.8456 452.494Z" fill="#FF5223"/>
<path id="Vector_19" d="M-15.191 413.302C-15.191 413.302 -19.6251 423.439 -18.028 429.142C-16.4308 434.838 -11.2382 433.941 -8.1387 432.84C-5.0318 431.738 -3.5951 429.835 -3.5951 429.835C-3.5951 429.835 -0.692502 430.82 1.2474 428.121C3.1874 425.423 1.9913 422.323 0.3358 421.616C-1.3197 420.908 -3.2888 422.104 -3.2888 422.104L-1.7427 419.158C-1.7427 419.158 -8.2408 404.178 -15.1983 413.309L-15.191 413.302Z" fill="#FCA397"/>
<path id="Vector_20" d="M-13.8111 411.799C-13.8111 411.799 -14.132 417.196 -8.70596 419.646C-3.27996 422.097 0.344746 421.616 0.344746 421.616L-0.00535965 414.578L-6.80246 407.197L-12.8776 409.13L-13.8184 411.799H-13.8111Z" fill="#1C1C1C"/>
<path id="Vector_21" d="M22.0842 450.605C21.8144 451.058 21.5299 451.51 21.2309 451.947C21.107 452.13 20.983 452.312 20.8444 452.494C16.4103 458.846 9.84654 463.587 2.20354 465.738C2.04304 465.782 1.87534 465.826 1.71484 465.87L2.18165 437.58C2.18165 437.58 2.23264 437.587 2.32024 437.602C2.34204 437.609 2.37124 437.609 2.40044 437.617C4.07784 437.901 15.0683 440.074 20.9684 448.724C21.3695 449.3 21.7341 449.934 22.0842 450.605Z" fill="#FF5223"/>
<path id="Vector_22" d="M-3.06947 426.83C-3.16437 426.83 -3.26647 426.794 -3.33937 426.713C-3.47797 426.568 -3.46337 426.334 -3.31747 426.196L-0.188767 423.322C-0.042867 423.184 0.190432 423.198 0.329032 423.344C0.467632 423.49 0.453028 423.723 0.307128 423.862L-2.82157 426.735C-2.89447 426.801 -2.98197 426.83 -3.06947 426.83Z" fill="#1C1C1C"/>
<path id="Vector_23" d="M0.0956244 426.451C0.0446244 426.451 -0.00647328 426.444 -0.0501733 426.422L-1.91717 425.605C-2.09957 425.525 -2.18707 425.306 -2.10687 425.124C-2.02657 424.941 -1.80778 424.854 -1.62548 424.934L0.241529 425.751C0.423829 425.831 0.511327 426.05 0.431127 426.232C0.372827 426.371 0.234224 426.451 0.0956244 426.451Z" fill="#1C1C1C"/>
</g>
</g>
</g>
<path id="Vector_24" d="M61.034 412.727C61.034 414.261 60.757 415.587 60.203 416.705C59.649 417.822 58.889 418.684 57.923 419.29C56.957 419.896 55.854 420.199 54.614 420.199C53.373 420.199 52.27 419.896 51.304 419.29C50.338 418.684 49.578 417.822 49.024 416.705C48.47 415.587 48.193 414.261 48.193 412.727C48.193 411.193 48.47 409.867 49.024 408.75C49.578 407.633 50.338 406.771 51.304 406.165C52.27 405.559 53.373 405.256 54.614 405.256C55.854 405.256 56.957 405.559 57.923 406.165C58.889 406.771 59.649 407.633 60.203 408.75C60.757 409.867 61.034 411.193 61.034 412.727ZM59.33 412.727C59.33 411.468 59.119 410.405 58.697 409.538C58.281 408.672 57.715 408.016 57 407.571C56.29 407.126 55.494 406.903 54.614 406.903C53.733 406.903 52.935 407.126 52.22 407.571C51.51 408.016 50.944 408.672 50.523 409.538C50.106 410.405 49.898 411.468 49.898 412.727C49.898 413.987 50.106 415.05 50.523 415.916C50.944 416.783 51.51 417.438 52.22 417.884C52.935 418.329 53.733 418.551 54.614 418.551C55.494 418.551 56.29 418.329 57 417.884C57.715 417.438 58.281 416.783 58.697 415.916C59.119 415.05 59.33 413.987 59.33 412.727ZM70.643 415.54V409.091H72.32V420H70.643V418.153H70.53C70.274 418.707 69.876 419.179 69.337 419.567C68.797 419.95 68.115 420.142 67.291 420.142C66.609 420.142 66.003 419.993 65.473 419.695C64.943 419.392 64.526 418.937 64.223 418.331C63.92 417.72 63.768 416.951 63.768 416.023V409.091H65.445V415.909C65.445 416.705 65.667 417.339 66.112 417.812C66.562 418.286 67.135 418.523 67.831 418.523C68.248 418.523 68.671 418.416 69.102 418.203C69.538 417.99 69.902 417.663 70.196 417.223C70.494 416.783 70.643 416.222 70.643 415.54ZM75.39 420V409.091H77.009V410.739H77.123C77.321 410.199 77.681 409.761 78.202 409.425C78.723 409.089 79.31 408.92 79.963 408.92C80.087 408.92 80.24 408.923 80.425 408.928C80.61 408.932 80.749 408.939 80.844 408.949V410.653C80.787 410.639 80.657 410.618 80.453 410.589C80.255 410.556 80.044 410.54 79.821 410.54C79.291 410.54 78.818 410.651 78.401 410.874C77.989 411.091 77.662 411.394 77.421 411.783C77.184 412.166 77.066 412.604 77.066 413.097V420H75.39ZM93.2 409.091V410.511H87.547V409.091H93.2ZM89.195 406.477H90.871V416.875C90.871 417.348 90.939 417.704 91.077 417.94C91.219 418.172 91.399 418.329 91.616 418.409C91.839 418.485 92.073 418.523 92.32 418.523C92.504 418.523 92.656 418.513 92.774 418.494C92.893 418.471 92.987 418.452 93.058 418.438L93.399 419.943C93.286 419.986 93.127 420.028 92.923 420.071C92.72 420.118 92.462 420.142 92.149 420.142C91.676 420.142 91.212 420.04 90.757 419.837C90.307 419.633 89.933 419.323 89.635 418.906C89.341 418.49 89.195 417.964 89.195 417.33V406.477ZM100.178 420.227C99.127 420.227 98.22 419.995 97.458 419.531C96.701 419.062 96.116 418.409 95.704 417.571C95.297 416.728 95.093 415.748 95.093 414.631C95.093 413.513 95.297 412.528 95.704 411.676C96.116 410.819 96.689 410.152 97.423 409.673C98.161 409.19 99.023 408.949 100.008 408.949C100.576 408.949 101.137 409.044 101.691 409.233C102.245 409.422 102.749 409.73 103.204 410.156C103.658 410.578 104.021 411.136 104.29 411.832C104.56 412.528 104.695 413.385 104.695 414.403V415.114H96.286V413.665H102.991C102.991 413.049 102.868 412.5 102.621 412.017C102.38 411.534 102.034 411.153 101.585 410.874C101.139 410.594 100.614 410.455 100.008 410.455C99.34 410.455 98.763 410.62 98.275 410.952C97.792 411.278 97.42 411.705 97.16 412.23C96.899 412.756 96.769 413.319 96.769 413.92V414.886C96.769 415.71 96.911 416.409 97.195 416.982C97.484 417.55 97.884 417.983 98.396 418.281C98.907 418.575 99.501 418.722 100.178 418.722C100.619 418.722 101.016 418.66 101.371 418.537C101.731 418.409 102.041 418.22 102.302 417.969C102.562 417.713 102.763 417.396 102.906 417.017L104.525 417.472C104.354 418.021 104.068 418.504 103.665 418.92C103.263 419.332 102.766 419.654 102.174 419.886C101.582 420.114 100.917 420.227 100.178 420.227ZM110.455 420.256C109.764 420.256 109.137 420.125 108.573 419.865C108.01 419.6 107.562 419.219 107.231 418.722C106.899 418.22 106.734 417.614 106.734 416.903C106.734 416.278 106.857 415.772 107.103 415.384C107.349 414.991 107.678 414.683 108.09 414.46C108.502 414.238 108.957 414.072 109.454 413.963C109.956 413.849 110.46 413.759 110.967 413.693C111.629 413.608 112.167 413.544 112.579 413.501C112.996 413.454 113.299 413.376 113.488 413.267C113.682 413.158 113.779 412.969 113.779 412.699V412.642C113.779 411.941 113.587 411.397 113.204 411.009C112.825 410.62 112.25 410.426 111.478 410.426C110.678 410.426 110.05 410.601 109.596 410.952C109.141 411.302 108.822 411.676 108.637 412.074L107.046 411.506C107.33 410.843 107.709 410.327 108.183 409.957C108.661 409.583 109.182 409.323 109.745 409.176C110.313 409.025 110.872 408.949 111.421 408.949C111.772 408.949 112.174 408.991 112.629 409.077C113.088 409.157 113.531 409.325 113.957 409.581C114.388 409.837 114.745 410.223 115.029 410.739C115.313 411.255 115.455 411.946 115.455 412.812V420H113.779V418.523H113.694C113.58 418.759 113.391 419.013 113.126 419.283C112.861 419.553 112.508 419.782 112.067 419.972C111.627 420.161 111.09 420.256 110.455 420.256ZM110.711 418.75C111.374 418.75 111.933 418.62 112.387 418.359C112.846 418.099 113.192 417.763 113.424 417.351C113.661 416.939 113.779 416.506 113.779 416.051V414.517C113.708 414.602 113.552 414.68 113.31 414.751C113.074 414.818 112.799 414.877 112.487 414.929C112.179 414.976 111.878 415.019 111.585 415.057C111.296 415.09 111.061 415.118 110.881 415.142C110.446 415.199 110.039 415.291 109.66 415.419C109.286 415.542 108.983 415.729 108.751 415.98C108.523 416.226 108.41 416.562 108.41 416.989C108.41 417.571 108.625 418.011 109.056 418.31C109.492 418.603 110.043 418.75 110.711 418.75ZM118.515 420V409.091H120.134V410.795H120.276C120.503 410.213 120.87 409.761 121.377 409.439C121.883 409.112 122.492 408.949 123.202 408.949C123.922 408.949 124.521 409.112 124.999 409.439C125.482 409.761 125.858 410.213 126.128 410.795H126.242C126.521 410.232 126.94 409.785 127.499 409.453C128.058 409.117 128.728 408.949 129.509 408.949C130.484 408.949 131.282 409.254 131.902 409.865C132.523 410.471 132.833 411.416 132.833 412.699V420H131.157V412.699C131.157 411.894 130.936 411.319 130.496 410.973C130.056 410.627 129.537 410.455 128.941 410.455C128.174 410.455 127.579 410.687 127.158 411.151C126.737 411.61 126.526 412.192 126.526 412.898V420H124.821V412.528C124.821 411.908 124.62 411.409 124.218 411.03C123.815 410.646 123.297 410.455 122.662 410.455C122.227 410.455 121.819 410.571 121.441 410.803C121.067 411.035 120.764 411.357 120.532 411.768C120.304 412.176 120.191 412.647 120.191 413.182V420H118.515ZM143.199 413.438V420H141.522V405.455H143.199V410.795H143.341C143.596 410.232 143.98 409.785 144.491 409.453C145.007 409.117 145.694 408.949 146.551 408.949C147.294 408.949 147.945 409.098 148.504 409.396C149.063 409.69 149.496 410.142 149.804 410.753C150.116 411.359 150.272 412.131 150.272 413.068V420H148.596V413.182C148.596 412.315 148.371 411.645 147.922 411.172C147.476 410.694 146.859 410.455 146.068 410.455C145.519 410.455 145.026 410.571 144.591 410.803C144.16 411.035 143.819 411.373 143.568 411.818C143.322 412.263 143.199 412.803 143.199 413.438ZM156.549 420.256C155.858 420.256 155.23 420.125 154.667 419.865C154.103 419.6 153.656 419.219 153.325 418.722C152.993 418.22 152.827 417.614 152.827 416.903C152.827 416.278 152.951 415.772 153.197 415.384C153.443 414.991 153.772 414.683 154.184 414.46C154.596 414.238 155.05 414.072 155.548 413.963C156.049 413.849 156.554 413.759 157.06 413.693C157.723 413.608 158.261 413.544 158.673 413.501C159.089 413.454 159.392 413.376 159.582 413.267C159.776 413.158 159.873 412.969 159.873 412.699V412.642C159.873 411.941 159.681 411.397 159.298 411.009C158.919 410.62 158.344 410.426 157.572 410.426C156.772 410.426 156.144 410.601 155.69 410.952C155.235 411.302 154.915 411.676 154.731 412.074L153.14 411.506C153.424 410.843 153.803 410.327 154.276 409.957C154.754 409.583 155.275 409.323 155.839 409.176C156.407 409.025 156.966 408.949 157.515 408.949C157.865 408.949 158.268 408.991 158.722 409.077C159.182 409.157 159.624 409.325 160.05 409.581C160.481 409.837 160.839 410.223 161.123 410.739C161.407 411.255 161.549 411.946 161.549 412.812V420H159.873V418.523H159.788C159.674 418.759 159.485 419.013 159.219 419.283C158.954 419.553 158.602 419.782 158.161 419.972C157.721 420.161 157.183 420.256 156.549 420.256ZM156.805 418.75C157.468 418.75 158.026 418.62 158.481 418.359C158.94 418.099 159.286 417.763 159.518 417.351C159.754 416.939 159.873 416.506 159.873 416.051V414.517C159.802 414.602 159.646 414.68 159.404 414.751C159.167 414.818 158.893 414.877 158.58 414.929C158.272 414.976 157.972 415.019 157.678 415.057C157.389 415.09 157.155 415.118 156.975 415.142C156.54 415.199 156.132 415.291 155.754 415.419C155.379 415.542 155.076 415.729 154.844 415.98C154.617 416.226 154.504 416.562 154.504 416.989C154.504 417.571 154.719 418.011 155.15 418.31C155.585 418.603 156.137 418.75 156.805 418.75ZM172.336 411.534L170.83 411.96C170.735 411.709 170.596 411.465 170.411 411.229C170.231 410.987 169.985 410.788 169.672 410.632C169.36 410.476 168.96 410.398 168.472 410.398C167.804 410.398 167.248 410.552 166.803 410.859C166.363 411.162 166.142 411.548 166.142 412.017C166.142 412.434 166.294 412.763 166.597 413.004C166.9 413.246 167.373 413.447 168.017 413.608L169.637 414.006C170.612 414.242 171.339 414.605 171.817 415.092C172.295 415.575 172.534 416.198 172.534 416.96C172.534 417.585 172.355 418.144 171.995 418.636C171.64 419.129 171.142 419.517 170.503 419.801C169.864 420.085 169.121 420.227 168.273 420.227C167.16 420.227 166.239 419.986 165.51 419.503C164.781 419.02 164.319 418.314 164.125 417.386L165.716 416.989C165.868 417.576 166.154 418.016 166.576 418.31C167.002 418.603 167.558 418.75 168.245 418.75C169.026 418.75 169.646 418.584 170.105 418.253C170.569 417.917 170.801 417.514 170.801 417.045C170.801 416.667 170.669 416.349 170.404 416.094C170.139 415.833 169.731 415.639 169.182 415.511L167.364 415.085C166.365 414.848 165.631 414.482 165.162 413.984C164.698 413.482 164.466 412.855 164.466 412.102C164.466 411.487 164.639 410.942 164.985 410.469C165.335 409.995 165.811 409.624 166.412 409.354C167.018 409.084 167.705 408.949 168.472 408.949C169.551 408.949 170.399 409.186 171.015 409.659C171.635 410.133 172.075 410.758 172.336 411.534ZM182.359 413.438V420H180.683V405.455H182.359V410.795H182.501C182.756 410.232 183.14 409.785 183.651 409.453C184.167 409.117 184.854 408.949 185.711 408.949C186.454 408.949 187.105 409.098 187.664 409.396C188.223 409.69 188.656 410.142 188.964 410.753C189.276 411.359 189.433 412.131 189.433 413.068V420H187.756V413.182C187.756 412.315 187.531 411.645 187.082 411.172C186.637 410.694 186.019 410.455 185.228 410.455C184.679 410.455 184.186 410.571 183.751 410.803C183.32 411.035 182.979 411.373 182.728 411.818C182.482 412.263 182.359 412.803 182.359 413.438ZM195.709 420.256C195.018 420.256 194.391 420.125 193.827 419.865C193.264 419.6 192.816 419.219 192.485 418.722C192.153 418.22 191.988 417.614 191.988 416.903C191.988 416.278 192.111 415.772 192.357 415.384C192.603 414.991 192.932 414.683 193.344 414.46C193.756 414.238 194.211 414.072 194.708 413.963C195.21 413.849 195.714 413.759 196.221 413.693C196.883 413.608 197.421 413.544 197.833 413.501C198.249 413.454 198.552 413.376 198.742 413.267C198.936 413.158 199.033 412.969 199.033 412.699V412.642C199.033 411.941 198.841 411.397 198.458 411.009C198.079 410.62 197.504 410.426 196.732 410.426C195.932 410.426 195.304 410.601 194.85 410.952C194.395 411.302 194.076 411.676 193.891 412.074L192.3 411.506C192.584 410.843 192.963 410.327 193.436 409.957C193.915 409.583 194.435 409.323 194.999 409.176C195.567 409.025 196.126 408.949 196.675 408.949C197.025 408.949 197.428 408.991 197.882 409.077C198.342 409.157 198.784 409.325 199.211 409.581C199.641 409.837 199.999 410.223 200.283 410.739C200.567 411.255 200.709 411.946 200.709 412.812V420H199.033V418.523H198.948C198.834 418.759 198.645 419.013 198.38 419.283C198.114 419.553 197.762 419.782 197.321 419.972C196.881 420.161 196.344 420.256 195.709 420.256ZM195.965 418.75C196.628 418.75 197.186 418.62 197.641 418.359C198.1 418.099 198.446 417.763 198.678 417.351C198.915 416.939 199.033 416.506 199.033 416.051V414.517C198.962 414.602 198.806 414.68 198.564 414.751C198.328 414.818 198.053 414.877 197.74 414.929C197.433 414.976 197.132 415.019 196.838 415.057C196.55 415.09 196.315 415.118 196.135 415.142C195.7 415.199 195.292 415.291 194.914 415.419C194.54 415.542 194.237 415.729 194.005 415.98C193.777 416.226 193.664 416.562 193.664 416.989C193.664 417.571 193.879 418.011 194.31 418.31C194.746 418.603 195.297 418.75 195.965 418.75ZM205.445 413.438V420H203.768V409.091H205.388V410.795H205.53C205.786 410.241 206.174 409.796 206.695 409.46C207.215 409.119 207.888 408.949 208.712 408.949C209.45 408.949 210.097 409.1 210.651 409.403C211.205 409.702 211.635 410.156 211.943 410.767C212.251 411.373 212.405 412.14 212.405 413.068V420H210.729V413.182C210.729 412.325 210.506 411.657 210.061 411.179C209.616 410.696 209.005 410.455 208.229 410.455C207.694 410.455 207.215 410.571 206.794 410.803C206.377 411.035 206.048 411.373 205.807 411.818C205.565 412.263 205.445 412.803 205.445 413.438ZM219.587 420.227C218.678 420.227 217.875 419.998 217.179 419.538C216.483 419.074 215.939 418.421 215.546 417.578C215.153 416.731 214.956 415.729 214.956 414.574C214.956 413.428 215.153 412.434 215.546 411.591C215.939 410.748 216.486 410.097 217.186 409.638C217.887 409.179 218.697 408.949 219.615 408.949C220.326 408.949 220.887 409.067 221.299 409.304C221.715 409.536 222.033 409.801 222.25 410.099C222.473 410.393 222.646 410.634 222.769 410.824H222.911V405.455H224.587V420H222.968V418.324H222.769C222.646 418.523 222.471 418.774 222.243 419.077C222.016 419.375 221.692 419.643 221.27 419.879C220.849 420.111 220.288 420.227 219.587 420.227ZM219.814 418.722C220.487 418.722 221.055 418.546 221.519 418.196C221.983 417.841 222.336 417.351 222.577 416.726C222.819 416.096 222.939 415.369 222.939 414.545C222.939 413.731 222.821 413.018 222.584 412.408C222.347 411.792 221.997 411.314 221.533 410.973C221.069 410.627 220.496 410.455 219.814 410.455C219.104 410.455 218.512 410.637 218.039 411.001C217.57 411.361 217.217 411.851 216.98 412.472C216.748 413.087 216.632 413.778 216.632 414.545C216.632 415.322 216.751 416.027 216.988 416.662C217.229 417.292 217.584 417.794 218.053 418.168C218.526 418.537 219.114 418.722 219.814 418.722ZM235.617 411.534L234.111 411.96C234.016 411.709 233.877 411.465 233.692 411.229C233.512 410.987 233.266 410.788 232.953 410.632C232.641 410.476 232.241 410.398 231.753 410.398C231.086 410.398 230.529 410.552 230.084 410.859C229.644 411.162 229.424 411.548 229.424 412.017C229.424 412.434 229.575 412.763 229.878 413.004C230.181 413.246 230.655 413.447 231.299 413.608L232.918 414.006C233.893 414.242 234.62 414.605 235.098 415.092C235.577 415.575 235.816 416.198 235.816 416.96C235.816 417.585 235.636 418.144 235.276 418.636C234.921 419.129 234.424 419.517 233.784 419.801C233.145 420.085 232.402 420.227 231.554 420.227C230.442 420.227 229.521 419.986 228.792 419.503C228.062 419.02 227.601 418.314 227.407 417.386L228.998 416.989C229.149 417.576 229.435 418.016 229.857 418.31C230.283 418.603 230.839 418.75 231.526 418.75C232.307 418.75 232.927 418.584 233.387 418.253C233.851 417.917 234.083 417.514 234.083 417.045C234.083 416.667 233.95 416.349 233.685 416.094C233.42 415.833 233.013 415.639 232.463 415.511L230.645 415.085C229.646 414.848 228.912 414.482 228.444 413.984C227.98 413.482 227.748 412.855 227.748 412.102C227.748 411.487 227.92 410.942 228.266 410.469C228.616 409.995 229.092 409.624 229.694 409.354C230.3 409.084 230.986 408.949 231.753 408.949C232.833 408.949 233.68 409.186 234.296 409.659C234.916 410.133 235.356 410.758 235.617 411.534ZM248.396 420.227C247.411 420.227 246.547 419.993 245.803 419.524C245.065 419.055 244.487 418.4 244.07 417.557C243.658 416.714 243.452 415.729 243.452 414.602C243.452 413.466 243.658 412.474 244.07 411.626C244.487 410.779 245.065 410.121 245.803 409.652C246.547 409.183 247.411 408.949 248.396 408.949C249.38 408.949 250.242 409.183 250.981 409.652C251.724 410.121 252.302 410.779 252.714 411.626C253.13 412.474 253.339 413.466 253.339 414.602C253.339 415.729 253.13 416.714 252.714 417.557C252.302 418.4 251.724 419.055 250.981 419.524C250.242 419.993 249.38 420.227 248.396 420.227ZM248.396 418.722C249.144 418.722 249.759 418.53 250.242 418.146C250.725 417.763 251.083 417.259 251.315 416.634C251.547 416.009 251.663 415.331 251.663 414.602C251.663 413.873 251.547 413.194 251.315 412.564C251.083 411.934 250.725 411.425 250.242 411.037C249.759 410.649 249.144 410.455 248.396 410.455C247.647 410.455 247.032 410.649 246.549 411.037C246.066 411.425 245.709 411.934 245.477 412.564C245.245 413.194 245.129 413.873 245.129 414.602C245.129 415.331 245.245 416.009 245.477 416.634C245.709 417.259 246.066 417.763 246.549 418.146C247.032 418.53 247.647 418.722 248.396 418.722ZM257.574 413.438V420H255.897V409.091H257.517V410.795H257.659C257.914 410.241 258.303 409.796 258.824 409.46C259.344 409.119 260.017 408.949 260.841 408.949C261.579 408.949 262.225 409.1 262.779 409.403C263.333 409.702 263.764 410.156 264.072 410.767C264.38 411.373 264.534 412.14 264.534 413.068V420H262.858V413.182C262.858 412.325 262.635 411.657 262.19 411.179C261.745 410.696 261.134 410.455 260.358 410.455C259.823 410.455 259.344 410.571 258.923 410.803C258.506 411.035 258.177 411.373 257.936 411.818C257.694 412.263 257.574 412.803 257.574 413.438ZM277.653 420.227C276.669 420.227 275.804 419.993 275.061 419.524C274.322 419.055 273.745 418.4 273.328 417.557C272.916 416.714 272.71 415.729 272.71 414.602C272.71 413.466 272.916 412.474 273.328 411.626C273.745 410.779 274.322 410.121 275.061 409.652C275.804 409.183 276.669 408.949 277.653 408.949C278.638 408.949 279.5 409.183 280.239 409.652C280.982 410.121 281.56 410.779 281.972 411.626C282.388 412.474 282.597 413.466 282.597 414.602C282.597 415.729 282.388 416.714 281.972 417.557C281.56 418.4 280.982 419.055 280.239 419.524C279.5 419.993 278.638 420.227 277.653 420.227ZM277.653 418.722C278.402 418.722 279.017 418.53 279.5 418.146C279.983 417.763 280.34 417.259 280.572 416.634C280.804 416.009 280.92 415.331 280.92 414.602C280.92 413.873 280.804 413.194 280.572 412.564C280.34 411.934 279.983 411.425 279.5 411.037C279.017 410.649 278.402 410.455 277.653 410.455C276.905 410.455 276.29 410.649 275.807 411.037C275.324 411.425 274.966 411.934 274.734 412.564C274.502 413.194 274.386 413.873 274.386 414.602C274.386 415.331 274.502 416.009 274.734 416.634C274.966 417.259 275.324 417.763 275.807 418.146C276.29 418.53 276.905 418.722 277.653 418.722ZM286.831 413.438V420H285.155V409.091H286.775V410.795H286.917C287.172 410.241 287.56 409.796 288.081 409.46C288.602 409.119 289.275 408.949 290.098 408.949C290.837 408.949 291.483 409.1 292.037 409.403C292.591 409.702 293.022 410.156 293.33 410.767C293.638 411.373 293.792 412.14 293.792 413.068V420H292.115V413.182C292.115 412.325 291.893 411.657 291.448 411.179C291.003 410.696 290.392 410.455 289.615 410.455C289.08 410.455 288.602 410.571 288.181 410.803C287.764 411.035 287.435 411.373 287.194 411.818C286.952 412.263 286.831 412.803 286.831 413.438ZM53.278 433.091V434.511H47.625V433.091H53.278ZM49.273 430.477H50.949V440.875C50.949 441.348 51.018 441.704 51.155 441.94C51.297 442.172 51.477 442.329 51.695 442.409C51.917 442.485 52.152 442.523 52.398 442.523C52.582 442.523 52.734 442.513 52.852 442.494C52.971 442.471 53.065 442.452 53.136 442.438L53.477 443.943C53.364 443.986 53.205 444.028 53.001 444.071C52.798 444.118 52.54 444.142 52.227 444.142C51.754 444.142 51.29 444.04 50.835 443.837C50.385 443.633 50.011 443.323 49.713 442.906C49.42 442.49 49.273 441.964 49.273 441.33V430.477ZM57.71 437.438V444H56.034V429.455H57.71V434.795H57.852C58.108 434.232 58.491 433.785 59.003 433.453C59.519 433.117 60.205 432.949 61.062 432.949C61.806 432.949 62.457 433.098 63.016 433.396C63.574 433.69 64.008 434.142 64.315 434.753C64.628 435.359 64.784 436.131 64.784 437.068V444H63.108V437.182C63.108 436.315 62.883 435.645 62.433 435.172C61.988 434.694 61.37 434.455 60.58 434.455C60.03 434.455 59.538 434.571 59.102 434.803C58.671 435.035 58.33 435.373 58.08 435.818C57.833 436.263 57.71 436.803 57.71 437.438ZM72.424 444.227C71.373 444.227 70.467 443.995 69.704 443.531C68.947 443.062 68.362 442.409 67.95 441.571C67.543 440.728 67.339 439.748 67.339 438.631C67.339 437.513 67.543 436.528 67.95 435.676C68.362 434.819 68.935 434.152 69.669 433.673C70.407 433.19 71.269 432.949 72.254 432.949C72.822 432.949 73.383 433.044 73.937 433.233C74.491 433.422 74.995 433.73 75.45 434.156C75.904 434.578 76.267 435.136 76.537 435.832C76.806 436.528 76.941 437.385 76.941 438.403V439.114H68.532V437.665H75.237C75.237 437.049 75.114 436.5 74.868 436.017C74.626 435.534 74.28 435.153 73.831 434.874C73.386 434.594 72.86 434.455 72.254 434.455C71.586 434.455 71.009 434.62 70.521 434.952C70.038 435.278 69.666 435.705 69.406 436.23C69.145 436.756 69.015 437.319 69.015 437.92V438.886C69.015 439.71 69.157 440.409 69.441 440.982C69.73 441.55 70.13 441.983 70.642 442.281C71.153 442.575 71.747 442.722 72.424 442.722C72.865 442.722 73.262 442.66 73.618 442.537C73.977 442.409 74.288 442.22 74.548 441.969C74.808 441.713 75.01 441.396 75.152 441.017L76.771 441.472C76.6 442.021 76.314 442.504 75.912 442.92C75.509 443.332 75.012 443.654 74.42 443.886C73.828 444.114 73.163 444.227 72.424 444.227ZM85.116 444V433.091H86.735V434.795H86.877C87.105 434.213 87.472 433.761 87.978 433.439C88.485 433.112 89.093 432.949 89.804 432.949C90.523 432.949 91.122 433.112 91.6 433.439C92.083 433.761 92.46 434.213 92.73 434.795H92.843C93.123 434.232 93.542 433.785 94.1 433.453C94.659 433.117 95.329 432.949 96.11 432.949C97.086 432.949 97.884 433.254 98.504 433.865C99.124 434.471 99.434 435.416 99.434 436.699V444H97.758V436.699C97.758 435.894 97.538 435.319 97.098 434.973C96.657 434.627 96.139 434.455 95.542 434.455C94.775 434.455 94.181 434.687 93.76 435.151C93.338 435.61 93.127 436.192 93.127 436.898V444H91.423V436.528C91.423 435.908 91.222 435.409 90.819 435.03C90.417 434.646 89.898 434.455 89.264 434.455C88.828 434.455 88.421 434.571 88.042 434.803C87.668 435.035 87.365 435.357 87.133 435.768C86.906 436.176 86.792 436.647 86.792 437.182V444H85.116ZM106.931 444.227C105.946 444.227 105.082 443.993 104.338 443.524C103.6 443.055 103.022 442.4 102.605 441.557C102.194 440.714 101.988 439.729 101.988 438.602C101.988 437.466 102.194 436.474 102.605 435.626C103.022 434.779 103.6 434.121 104.338 433.652C105.082 433.183 105.946 432.949 106.931 432.949C107.916 432.949 108.777 433.183 109.516 433.652C110.259 434.121 110.837 434.779 111.249 435.626C111.666 436.474 111.874 437.466 111.874 438.602C111.874 439.729 111.666 440.714 111.249 441.557C110.837 442.4 110.259 443.055 109.516 443.524C108.777 443.993 107.916 444.227 106.931 444.227ZM106.931 442.722C107.679 442.722 108.294 442.53 108.777 442.146C109.26 441.763 109.618 441.259 109.85 440.634C110.082 440.009 110.198 439.331 110.198 438.602C110.198 437.873 110.082 437.194 109.85 436.564C109.618 435.934 109.26 435.425 108.777 435.037C108.294 434.649 107.679 434.455 106.931 434.455C106.183 434.455 105.567 434.649 105.084 435.037C104.601 435.425 104.244 435.934 104.012 436.564C103.78 437.194 103.664 437.873 103.664 438.602C103.664 439.331 103.78 440.009 104.012 440.634C104.244 441.259 104.601 441.763 105.084 442.146C105.567 442.53 106.183 442.722 106.931 442.722ZM118.552 444.227C117.643 444.227 116.84 443.998 116.144 443.538C115.448 443.074 114.904 442.421 114.511 441.578C114.118 440.731 113.921 439.729 113.921 438.574C113.921 437.428 114.118 436.434 114.511 435.591C114.904 434.748 115.451 434.097 116.151 433.638C116.852 433.179 117.662 432.949 118.58 432.949C119.29 432.949 119.852 433.067 120.263 433.304C120.68 433.536 120.997 433.801 121.215 434.099C121.438 434.393 121.611 434.634 121.734 434.824H121.876V429.455H123.552V444H121.933V442.324H121.734C121.611 442.523 121.435 442.774 121.208 443.077C120.981 443.375 120.656 443.643 120.235 443.879C119.814 444.111 119.253 444.227 118.552 444.227ZM118.779 442.722C119.451 442.722 120.02 442.546 120.484 442.196C120.948 441.841 121.3 441.351 121.542 440.726C121.783 440.096 121.904 439.369 121.904 438.545C121.904 437.731 121.786 437.018 121.549 436.408C121.312 435.792 120.962 435.314 120.498 434.973C120.034 434.627 119.461 434.455 118.779 434.455C118.069 434.455 117.477 434.637 117.004 435.001C116.535 435.361 116.182 435.851 115.945 436.472C115.713 437.087 115.597 437.778 115.597 438.545C115.597 439.322 115.716 440.027 115.952 440.662C116.194 441.292 116.549 441.794 117.018 442.168C117.491 442.537 118.078 442.722 118.779 442.722ZM131.428 444.227C130.377 444.227 129.47 443.995 128.708 443.531C127.951 443.062 127.366 442.409 126.954 441.571C126.547 440.728 126.343 439.748 126.343 438.631C126.343 437.513 126.547 436.528 126.954 435.676C127.366 434.819 127.939 434.152 128.673 433.673C129.411 433.19 130.273 432.949 131.258 432.949C131.826 432.949 132.387 433.044 132.941 433.233C133.495 433.422 133.999 433.73 134.454 434.156C134.908 434.578 135.271 435.136 135.54 435.832C135.81 436.528 135.945 437.385 135.945 438.403V439.114H127.536V437.665H134.241C134.241 437.049 134.118 436.5 133.871 436.017C133.63 435.534 133.284 435.153 132.835 434.874C132.389 434.594 131.864 434.455 131.258 434.455C130.59 434.455 130.013 434.62 129.525 434.952C129.042 435.278 128.67 435.705 128.41 436.23C128.149 436.756 128.019 437.319 128.019 437.92V438.886C128.019 439.71 128.161 440.409 128.445 440.982C128.734 441.55 129.134 441.983 129.646 442.281C130.157 442.575 130.751 442.722 131.428 442.722C131.869 442.722 132.266 442.66 132.621 442.537C132.981 442.409 133.291 442.22 133.552 441.969C133.812 441.713 134.013 441.396 134.156 441.017L135.775 441.472C135.604 442.021 135.318 442.504 134.915 442.92C134.513 443.332 134.016 443.654 133.424 443.886C132.832 444.114 132.167 444.227 131.428 444.227ZM138.495 444V433.091H140.114V434.739H140.228C140.427 434.199 140.787 433.761 141.308 433.425C141.828 433.089 142.415 432.92 143.069 432.92C143.192 432.92 143.346 432.923 143.531 432.928C143.715 432.932 143.855 432.939 143.95 432.949V434.653C143.893 434.639 143.763 434.618 143.559 434.589C143.36 434.556 143.149 434.54 142.927 434.54C142.397 434.54 141.923 434.651 141.506 434.874C141.094 435.091 140.768 435.394 140.526 435.783C140.29 436.166 140.171 436.604 140.171 437.097V444H138.495ZM147.613 437.438V444H145.936V433.091H147.556V434.795H147.698C147.953 434.241 148.342 433.796 148.863 433.46C149.383 433.119 150.056 432.949 150.88 432.949C151.618 432.949 152.265 433.1 152.819 433.403C153.373 433.702 153.803 434.156 154.111 434.767C154.419 435.373 154.573 436.14 154.573 437.068V444H152.897V437.182C152.897 436.325 152.674 435.657 152.229 435.179C151.784 434.696 151.173 434.455 150.397 434.455C149.862 434.455 149.383 434.571 148.962 434.803C148.545 435.035 148.216 435.373 147.975 435.818C147.733 436.263 147.613 436.803 147.613 437.438ZM166.471 444.256C165.78 444.256 165.152 444.125 164.589 443.865C164.025 443.6 163.578 443.219 163.246 442.722C162.915 442.22 162.749 441.614 162.749 440.903C162.749 440.278 162.872 439.772 163.119 439.384C163.365 438.991 163.694 438.683 164.106 438.46C164.518 438.238 164.972 438.072 165.469 437.963C165.971 437.849 166.476 437.759 166.982 437.693C167.645 437.608 168.183 437.544 168.594 437.501C169.011 437.454 169.314 437.376 169.504 437.267C169.698 437.158 169.795 436.969 169.795 436.699V436.642C169.795 435.941 169.603 435.397 169.219 435.009C168.841 434.62 168.265 434.426 167.494 434.426C166.693 434.426 166.066 434.601 165.612 434.952C165.157 435.302 164.837 435.676 164.653 436.074L163.062 435.506C163.346 434.843 163.725 434.327 164.198 433.957C164.676 433.583 165.197 433.323 165.761 433.176C166.329 433.025 166.888 432.949 167.437 432.949C167.787 432.949 168.19 432.991 168.644 433.077C169.103 433.157 169.546 433.325 169.972 433.581C170.403 433.837 170.761 434.223 171.045 434.739C171.329 435.255 171.471 435.946 171.471 436.812V444H169.795V442.523H169.71C169.596 442.759 169.406 443.013 169.141 443.283C168.876 443.553 168.523 443.782 168.083 443.972C167.643 444.161 167.105 444.256 166.471 444.256ZM166.727 442.75C167.389 442.75 167.948 442.62 168.403 442.359C168.862 442.099 169.208 441.763 169.44 441.351C169.676 440.939 169.795 440.506 169.795 440.051V438.517C169.724 438.602 169.567 438.68 169.326 438.751C169.089 438.818 168.815 438.877 168.502 438.929C168.194 438.976 167.894 439.019 167.6 439.057C167.311 439.09 167.077 439.118 166.897 439.142C166.461 439.199 166.054 439.291 165.675 439.419C165.301 439.542 164.998 439.729 164.766 439.98C164.539 440.226 164.425 440.562 164.425 440.989C164.425 441.571 164.641 442.011 165.072 442.31C165.507 442.603 166.059 442.75 166.727 442.75ZM176.206 437.438V444H174.53V433.091H176.15V434.795H176.292C176.547 434.241 176.935 433.796 177.456 433.46C177.977 433.119 178.65 432.949 179.473 432.949C180.212 432.949 180.858 433.1 181.412 433.403C181.966 433.702 182.397 434.156 182.705 434.767C183.013 435.373 183.167 436.14 183.167 437.068V444H181.49V437.182C181.49 436.325 181.268 435.657 180.823 435.179C180.378 434.696 179.767 434.455 178.99 434.455C178.455 434.455 177.977 434.571 177.556 434.803C177.139 435.035 176.81 435.373 176.569 435.818C176.327 436.263 176.206 436.803 176.206 437.438ZM190.349 444.227C189.44 444.227 188.637 443.998 187.941 443.538C187.245 443.074 186.701 442.421 186.308 441.578C185.915 440.731 185.718 439.729 185.718 438.574C185.718 437.428 185.915 436.434 186.308 435.591C186.701 434.748 187.247 434.097 187.948 433.638C188.649 433.179 189.459 432.949 190.377 432.949C191.087 432.949 191.648 433.067 192.06 433.304C192.477 433.536 192.794 433.801 193.012 434.099C193.235 434.393 193.407 434.634 193.531 434.824H193.673V429.455H195.349V444H193.729V442.324H193.531C193.407 442.523 193.232 442.774 193.005 443.077C192.778 443.375 192.453 443.643 192.032 443.879C191.611 444.111 191.049 444.227 190.349 444.227ZM190.576 442.722C191.248 442.722 191.817 442.546 192.281 442.196C192.745 441.841 193.097 441.351 193.339 440.726C193.58 440.096 193.701 439.369 193.701 438.545C193.701 437.731 193.583 437.018 193.346 436.408C193.109 435.792 192.759 435.314 192.295 434.973C191.831 434.627 191.258 434.455 190.576 434.455C189.866 434.455 189.274 434.637 188.8 435.001C188.332 435.361 187.979 435.851 187.742 436.472C187.51 437.087 187.394 437.778 187.394 438.545C187.394 439.322 187.513 440.027 187.749 440.662C187.991 441.292 188.346 441.794 188.815 442.168C189.288 442.537 189.875 442.722 190.576 442.722ZM209.021 433.091V434.511H203.367V433.091H209.021ZM205.015 430.477H206.691V440.875C206.691 441.348 206.76 441.704 206.897 441.94C207.039 442.172 207.219 442.329 207.437 442.409C207.659 442.485 207.894 442.523 208.14 442.523C208.325 442.523 208.476 442.513 208.594 442.494C208.713 442.471 208.808 442.452 208.879 442.438L209.219 443.943C209.106 443.986 208.947 444.028 208.744 444.071C208.54 444.118 208.282 444.142 207.969 444.142C207.496 444.142 207.032 444.04 206.577 443.837C206.128 443.633 205.754 443.323 205.455 442.906C205.162 442.49 205.015 441.964 205.015 441.33V430.477ZM211.542 444V433.091H213.161V434.739H213.275C213.474 434.199 213.834 433.761 214.354 433.425C214.875 433.089 215.462 432.92 216.116 432.92C216.239 432.92 216.393 432.923 216.577 432.928C216.762 432.932 216.902 432.939 216.996 432.949V434.653C216.94 434.639 216.809 434.618 216.606 434.589C216.407 434.556 216.196 434.54 215.974 434.54C215.443 434.54 214.97 434.651 214.553 434.874C214.141 435.091 213.815 435.394 213.573 435.783C213.336 436.166 213.218 436.604 213.218 437.097V444H211.542ZM223.225 444.227C222.174 444.227 221.267 443.995 220.505 443.531C219.747 443.062 219.163 442.409 218.751 441.571C218.344 440.728 218.14 439.748 218.14 438.631C218.14 437.513 218.344 436.528 218.751 435.676C219.163 434.819 219.736 434.152 220.469 433.673C221.208 433.19 222.07 432.949 223.055 432.949C223.623 432.949 224.184 433.044 224.738 433.233C225.292 433.422 225.796 433.73 226.251 434.156C226.705 434.578 227.067 435.136 227.337 435.832C227.607 436.528 227.742 437.385 227.742 438.403V439.114H219.333V437.665H226.038C226.038 437.049 225.915 436.5 225.668 436.017C225.427 435.534 225.081 435.153 224.631 434.874C224.186 434.594 223.661 434.455 223.055 434.455C222.387 434.455 221.809 434.62 221.322 434.952C220.839 435.278 220.467 435.705 220.207 436.23C219.946 436.756 219.816 437.319 219.816 437.92V438.886C219.816 439.71 219.958 440.409 220.242 440.982C220.531 441.55 220.931 441.983 221.442 442.281C221.954 442.575 222.548 442.722 223.225 442.722C223.665 442.722 224.063 442.66 224.418 442.537C224.778 442.409 225.088 442.22 225.349 441.969C225.609 441.713 225.81 441.396 225.952 441.017L227.572 441.472C227.401 442.021 227.115 442.504 226.712 442.92C226.31 443.332 225.813 443.654 225.221 443.886C224.629 444.114 223.964 444.227 223.225 444.227ZM231.968 437.438V444H230.292V433.091H231.911V434.795H232.053C232.309 434.241 232.697 433.796 233.218 433.46C233.739 433.119 234.411 432.949 235.235 432.949C235.974 432.949 236.62 433.1 237.174 433.403C237.728 433.702 238.159 434.156 238.467 434.767C238.774 435.373 238.928 436.14 238.928 437.068V444H237.252V437.182C237.252 436.325 237.03 435.657 236.585 435.179C236.139 434.696 235.529 434.455 234.752 434.455C234.217 434.455 233.739 434.571 233.317 434.803C232.901 435.035 232.572 435.373 232.33 435.818C232.089 436.263 231.968 436.803 231.968 437.438ZM246.11 444.227C245.201 444.227 244.399 443.998 243.703 443.538C243.007 443.074 242.462 442.421 242.069 441.578C241.676 440.731 241.48 439.729 241.48 438.574C241.48 437.428 241.676 436.434 242.069 435.591C242.462 434.748 243.009 434.097 243.71 433.638C244.411 433.179 245.22 432.949 246.139 432.949C246.849 432.949 247.41 433.067 247.822 433.304C248.239 433.536 248.556 433.801 248.774 434.099C248.996 434.393 249.169 434.634 249.292 434.824H249.434V429.455H251.11V444H249.491V442.324H249.292C249.169 442.523 248.994 442.774 248.767 443.077C248.539 443.375 248.215 443.643 247.794 443.879C247.372 444.111 246.811 444.227 246.11 444.227ZM246.338 442.722C247.01 442.722 247.578 442.546 248.042 442.196C248.506 441.841 248.859 441.351 249.1 440.726C249.342 440.096 249.463 439.369 249.463 438.545C249.463 437.731 249.344 437.018 249.108 436.408C248.871 435.792 248.52 435.314 248.056 434.973C247.592 434.627 247.02 434.455 246.338 434.455C245.627 434.455 245.036 434.637 244.562 435.001C244.093 435.361 243.741 435.851 243.504 436.472C243.272 437.087 243.156 437.778 243.156 438.545C243.156 439.322 243.274 440.027 243.511 440.662C243.752 441.292 244.108 441.794 244.576 442.168C245.05 442.537 245.637 442.722 246.338 442.722ZM255.493 448.091C255.208 448.091 254.955 448.067 254.733 448.02C254.51 447.977 254.356 447.935 254.271 447.892L254.697 446.415C255.104 446.519 255.464 446.557 255.777 446.528C256.089 446.5 256.366 446.36 256.608 446.109C256.854 445.863 257.079 445.463 257.282 444.909L257.595 444.057L253.561 433.091H255.379L258.39 441.784H258.504L261.515 433.091H263.333L258.703 445.591C258.494 446.154 258.236 446.621 257.929 446.99C257.621 447.364 257.263 447.641 256.856 447.821C256.454 448.001 255.999 448.091 255.493 448.091ZM53.278 457.091V458.511H47.625V457.091H53.278ZM49.273 454.477H50.949V464.875C50.949 465.348 51.018 465.704 51.155 465.94C51.297 466.172 51.477 466.329 51.695 466.409C51.917 466.485 52.152 466.523 52.398 466.523C52.582 466.523 52.734 466.513 52.852 466.494C52.971 466.471 53.065 466.452 53.136 466.438L53.477 467.943C53.364 467.986 53.205 468.028 53.001 468.071C52.798 468.118 52.54 468.142 52.227 468.142C51.754 468.142 51.29 468.04 50.835 467.837C50.385 467.633 50.011 467.323 49.713 466.906C49.42 466.49 49.273 465.964 49.273 465.33V454.477ZM60.114 468.227C59.129 468.227 58.265 467.993 57.522 467.524C56.783 467.055 56.206 466.4 55.789 465.557C55.377 464.714 55.171 463.729 55.171 462.602C55.171 461.466 55.377 460.474 55.789 459.626C56.206 458.779 56.783 458.121 57.522 457.652C58.265 457.183 59.129 456.949 60.114 456.949C61.099 456.949 61.961 457.183 62.7 457.652C63.443 458.121 64.021 458.779 64.433 459.626C64.849 460.474 65.058 461.466 65.058 462.602C65.058 463.729 64.849 464.714 64.433 465.557C64.021 466.4 63.443 467.055 62.7 467.524C61.961 467.993 61.099 468.227 60.114 468.227ZM60.114 466.722C60.862 466.722 61.478 466.53 61.961 466.146C62.444 465.763 62.801 465.259 63.033 464.634C63.265 464.009 63.381 463.331 63.381 462.602C63.381 461.873 63.265 461.194 63.033 460.564C62.801 459.934 62.444 459.425 61.961 459.037C61.478 458.649 60.862 458.455 60.114 458.455C59.366 458.455 58.751 458.649 58.268 459.037C57.785 459.425 57.427 459.934 57.195 460.564C56.963 461.194 56.847 461.873 56.847 462.602C56.847 463.331 56.963 464.009 57.195 464.634C57.427 465.259 57.785 465.763 58.268 466.146C58.751 466.53 59.366 466.722 60.114 466.722ZM72.048 468.227C71.063 468.227 70.199 467.993 69.456 467.524C68.717 467.055 68.139 466.4 67.723 465.557C67.311 464.714 67.105 463.729 67.105 462.602C67.105 461.466 67.311 460.474 67.723 459.626C68.139 458.779 68.717 458.121 69.456 457.652C70.199 457.183 71.063 456.949 72.048 456.949C73.033 456.949 73.895 457.183 74.633 457.652C75.377 458.121 75.954 458.779 76.366 459.626C76.783 460.474 76.991 461.466 76.991 462.602C76.991 463.729 76.783 464.714 76.366 465.557C75.954 466.4 75.377 467.055 74.633 467.524C73.895 467.993 73.033 468.227 72.048 468.227ZM72.048 466.722C72.796 466.722 73.412 466.53 73.895 466.146C74.377 465.763 74.735 465.259 74.967 464.634C75.199 464.009 75.315 463.331 75.315 462.602C75.315 461.873 75.199 461.194 74.967 460.564C74.735 459.934 74.377 459.425 73.895 459.037C73.412 458.649 72.796 458.455 72.048 458.455C71.3 458.455 70.684 458.649 70.201 459.037C69.718 459.425 69.361 459.934 69.129 460.564C68.897 461.194 68.781 461.873 68.781 462.602C68.781 463.331 68.897 464.009 69.129 464.634C69.361 465.259 69.718 465.763 70.201 466.146C70.684 466.53 71.3 466.722 72.048 466.722ZM81.226 453.455V468H79.55V453.455H81.226ZM92.023 459.534L90.517 459.96C90.423 459.709 90.283 459.465 90.098 459.229C89.918 458.987 89.672 458.788 89.36 458.632C89.047 458.476 88.647 458.398 88.159 458.398C87.492 458.398 86.935 458.552 86.49 458.859C86.05 459.162 85.83 459.548 85.83 460.017C85.83 460.434 85.981 460.763 86.284 461.004C86.587 461.246 87.061 461.447 87.705 461.608L89.324 462.006C90.3 462.242 91.026 462.605 91.505 463.092C91.983 463.575 92.222 464.198 92.222 464.96C92.222 465.585 92.042 466.144 91.682 466.636C91.327 467.129 90.83 467.517 90.191 467.801C89.551 468.085 88.808 468.227 87.961 468.227C86.848 468.227 85.927 467.986 85.198 467.503C84.469 467.02 84.007 466.314 83.813 465.386L85.404 464.989C85.555 465.576 85.842 466.016 86.263 466.31C86.689 466.603 87.246 466.75 87.932 466.75C88.713 466.75 89.334 466.584 89.793 466.253C90.257 465.917 90.489 465.514 90.489 465.045C90.489 464.667 90.356 464.349 90.091 464.094C89.826 463.833 89.419 463.639 88.87 463.511L87.051 463.085C86.052 462.848 85.319 462.482 84.85 461.984C84.386 461.482 84.154 460.855 84.154 460.102C84.154 459.487 84.327 458.942 84.672 458.469C85.023 457.995 85.498 457.624 86.1 457.354C86.706 457.084 87.392 456.949 88.159 456.949C89.239 456.949 90.087 457.186 90.702 457.659C91.322 458.133 91.763 458.758 92.023 459.534Z" fill="#1C1C1C"/>
</g>
<g id="jamstack-logo">
<path id="Vector_25" d="M925 441H1114C1119.52 441 1124 436.523 1124 431V245C1124 239.477 1119.52 235 1114 235L925 235C919.477 235 915 239.477 915 245V431C915 436.523 919.477 441 925 441Z" fill="url(#paint0_linear_0_1)"/>
<path id="Vector_26" d="M959.88 364.041H1014.64H1025.77V342.428V332.922H1079.8V311.35H1025.77H1014.64V332.922V342.428H959.88" fill="white"/>
<path id="Vector_27" d="M1037.92 376.553H996.6V398.125H1037.92H1048.56V376.553V367.047H1079.8V345.475H1048.56H1041.82H1037.92V376.553Z" fill="white"/>
<path id="Vector_28" d="M959.88 329.916H1002.17V328.088V308.344V299.284H1043.97V277.672H1002.17H991.56V308.344H959.88" fill="white"/>
</g>
</g>
<defs>
<linearGradient id="paint0_linear_0_1" x1="916.5" y1="338" x2="1124" y2="338" gradientUnits="userSpaceOnUse">
<stop stop-color="#F0027F"/>
<stop offset="1" stop-color="#4E63F1"/>
</linearGradient>
</defs>
</svg>
