<svg width="1193" height="551" viewBox="0 0 1193 551" fill="none" xmlns="http://www.w3.org/2000/svg">
<path d="M629 83.6977C629 80.9363 631.239 78.6978 634 78.6978H1057C1059.76 78.6978 1062 80.9363 1062 83.6978V506.698C1062 509.459 1059.76 511.698 1057 511.698H634C631.239 511.698 629 509.459 629 506.698V83.6977Z" fill="#F1F2F6"/>
<path d="M132.12 121.982V104.51C132.12 103.938 131.652 103.47 131.08 103.47H125.932C125.36 103.47 124.944 103.938 124.944 104.51V117.77C123.332 117.874 121.72 117.926 119.796 117.926C116.728 117.926 113.14 115.534 113.14 108.15V100.662C113.14 93.2778 116.468 90.8338 119.952 90.8338C124.944 90.8338 128.532 91.0418 130.924 91.2498C130.976 91.2498 131.028 91.2498 131.08 91.2498C131.912 91.2498 132.12 90.8858 132.12 90.1578V86.6738C132.12 85.9978 131.808 85.7378 131.132 85.5818C129.416 85.2698 124.944 84.6458 119.952 84.6458C113.764 84.6458 105.86 88.3378 105.86 100.662V108.15C105.86 120.422 114.18 124.114 119.796 124.114C125.152 124.114 128.532 123.75 131.132 123.23C131.808 123.074 132.12 122.658 132.12 121.982ZM163.36 110.126V107.214C163.36 99.4658 158.992 94.0058 150.984 94.0058C143.028 94.0058 138.504 99.1018 138.504 107.214V111.062C138.504 121.306 145.888 124.114 151.088 124.114C155.768 124.114 157.796 123.854 161.176 123.23C162.112 123.074 162.268 122.71 162.268 121.878V118.446C162.268 117.926 161.852 117.666 161.332 117.666C161.28 117.666 161.228 117.666 161.176 117.666C158.992 117.874 155.404 118.186 151.608 118.186C146.616 118.186 145.368 114.598 145.368 111.582V111.426H162.32C163.048 111.426 163.36 110.958 163.36 110.126ZM156.444 106.538H145.42V106.33C145.42 102.222 147.76 99.9338 150.984 99.9338C154.208 99.9338 156.444 102.274 156.444 106.33V106.538ZM184.612 122.814V119.538C184.612 119.018 184.196 118.758 183.52 118.758H180.764C178.892 118.758 178.736 118.446 178.736 115.846V99.5178H183.416C183.988 99.5178 184.456 99.0498 184.456 98.4778V95.4098C184.456 94.8378 183.988 94.3698 183.416 94.3698H178.736V89.0138C178.736 88.4938 178.372 88.2338 177.904 88.2338C177.852 88.2338 177.748 88.2338 177.696 88.2338L172.86 89.0658C172.288 89.1698 171.82 89.5338 171.82 90.1058V94.3698H166.932C166.36 94.3698 165.892 94.8378 165.892 95.4098V97.7498C165.892 98.3218 166.36 98.6858 166.932 98.7898L171.82 99.5178V115.846C171.82 122.814 174.212 124.114 180.088 124.114C181.232 124.114 182.376 123.958 183.624 123.75C184.3 123.646 184.612 123.334 184.612 122.814ZM226.746 95.2538C226.746 94.7858 226.33 94.3698 225.81 94.3698H220.506C219.986 94.3698 219.57 94.7858 219.466 95.2538L213.85 117.614C213.85 117.614 213.85 117.614 213.694 117.614C213.642 117.614 213.538 117.614 213.434 117.614H213.382C213.07 117.614 212.862 117.354 212.654 116.47L207.402 95.3058C207.298 94.8378 206.882 94.3698 206.414 94.3698H201.162C200.486 94.3698 200.174 94.6818 200.174 95.2018C200.174 95.3058 200.174 95.4098 200.226 95.5658L207.038 119.382C208.182 123.334 210.054 123.698 211.562 123.698H212.342L211.926 125.258C211.198 127.962 210.054 128.586 207.818 128.586C206.362 128.586 203.398 128.326 201.942 128.274C201.89 128.274 201.89 128.274 201.838 128.274C201.266 128.274 200.798 128.638 200.798 129.21V132.538C200.798 133.058 201.318 133.266 201.89 133.422C203.086 133.786 205.686 134.098 207.402 134.098C214.474 134.098 216.398 131.602 218.01 125.934L226.694 95.5658C226.746 95.4618 226.746 95.3578 226.746 95.2538ZM254.055 111.166V106.954C254.055 99.5178 249.791 94.0058 241.627 94.0058C233.463 94.0058 229.199 99.5178 229.199 106.954V111.166C229.199 118.602 233.463 124.114 241.627 124.114C249.791 124.114 254.055 118.602 254.055 111.166ZM247.191 111.166C247.191 115.43 245.267 118.186 241.627 118.186C237.987 118.186 236.063 115.43 236.063 111.166V106.954C236.063 102.69 237.987 99.9338 241.627 99.9338C245.267 99.9338 247.191 102.69 247.191 106.954V111.166ZM283.967 122.658V95.4618C283.967 94.8898 283.499 94.3698 282.927 94.3698H278.143C277.571 94.3698 277.103 94.8898 277.103 95.4618V116.262C275.647 117.042 273.151 118.342 271.227 118.342C269.615 118.342 268.731 118.03 268.003 117.406C267.015 116.522 266.807 115.014 266.807 112.414V95.4618C266.807 94.8898 266.339 94.3698 265.767 94.3698H260.983C260.411 94.3698 259.943 94.8898 259.943 95.4618V112.414C259.943 116.73 260.619 119.954 262.543 121.878C264.051 123.386 266.339 124.062 268.939 124.062C272.267 124.062 274.399 123.23 277.103 121.462V122.658C277.103 123.23 277.571 123.698 278.143 123.698H282.927C283.499 123.698 283.967 123.23 283.967 122.658ZM305.796 98.7898V95.0458C305.796 94.4738 305.328 94.0058 304.756 94.0058C302.676 94.0058 299.868 94.5258 297.32 96.5018V95.4098C297.32 94.8378 296.852 94.3698 296.28 94.3698H291.756C291.184 94.3698 290.716 94.8378 290.716 95.4098V122.606C290.716 123.178 291.184 123.698 291.756 123.698H296.54C297.112 123.698 297.58 123.178 297.58 122.606V101.702C299.764 100.558 301.948 99.8298 304.756 99.8298C305.328 99.8298 305.796 99.3618 305.796 98.7898ZM342.924 116.002C342.924 113.35 342.3 110.75 337.932 108.098L331.12 103.938C329.82 103.158 329.04 102.638 329.04 101.806C329.04 100.194 330.132 99.6218 332.628 99.6218C335.592 99.6218 339.752 100.038 341.208 100.246C341.26 100.246 341.312 100.246 341.416 100.246C341.936 100.246 342.248 99.8818 342.248 99.2578V96.2418C342.248 95.6178 341.936 95.2018 341.312 95.0458C338.66 94.4738 336.268 94.0058 332.056 94.0058C325.452 94.0058 322.176 96.6058 322.176 101.806C322.176 104.822 323.996 107.422 326.544 108.982L333.668 113.35C335.332 114.39 335.956 115.014 335.956 116.002C335.956 117.406 335.488 118.498 332.264 118.498C330.704 118.498 326.024 118.238 323.528 117.926C323.476 117.926 323.424 117.926 323.32 117.926C322.8 117.926 322.436 118.342 322.436 118.758V121.878C322.436 122.502 322.8 122.918 323.424 123.074C326.336 123.854 330.704 124.114 332.732 124.114C339.544 124.114 342.924 120.526 342.924 116.002ZM372.681 122.658V95.4618C372.681 94.8898 372.213 94.3698 371.641 94.3698H366.857C366.285 94.3698 365.817 94.8898 365.817 95.4618V116.262C364.361 117.042 361.865 118.342 359.941 118.342C358.329 118.342 357.445 118.03 356.717 117.406C355.729 116.522 355.521 115.014 355.521 112.414V95.4618C355.521 94.8898 355.053 94.3698 354.481 94.3698H349.697C349.125 94.3698 348.657 94.8898 348.657 95.4618V112.414C348.657 116.73 349.333 119.954 351.257 121.878C352.765 123.386 355.053 124.062 357.653 124.062C360.981 124.062 363.113 123.23 365.817 121.462V122.658C365.817 123.23 366.285 123.698 366.857 123.698H371.641C372.213 123.698 372.681 123.23 372.681 122.658ZM386.607 89.4298V84.8538C386.607 84.2818 386.139 83.8138 385.567 83.8138H380.523C379.951 83.8138 379.431 84.2818 379.431 84.8538V89.4298C379.431 90.0018 379.951 90.4698 380.523 90.4698H385.567C386.139 90.4698 386.607 90.0018 386.607 89.4298ZM386.451 122.606V95.4098C386.451 94.8378 385.983 94.3698 385.411 94.3698H380.627C380.055 94.3698 379.587 94.8378 379.587 95.4098V122.606C379.587 123.178 380.055 123.698 380.627 123.698H385.411C385.983 123.698 386.451 123.178 386.451 122.606ZM409.725 122.814V119.538C409.725 119.018 409.309 118.758 408.633 118.758H405.877C404.005 118.758 403.849 118.446 403.849 115.846V99.5178H408.529C409.101 99.5178 409.569 99.0498 409.569 98.4778V95.4098C409.569 94.8378 409.101 94.3698 408.529 94.3698H403.849V89.0138C403.849 88.4938 403.485 88.2338 403.017 88.2338C402.965 88.2338 402.861 88.2338 402.809 88.2338L397.973 89.0658C397.401 89.1698 396.933 89.5338 396.933 90.1058V94.3698H392.045C391.473 94.3698 391.005 94.8378 391.005 95.4098V97.7498C391.005 98.3218 391.473 98.6858 392.045 98.7898L396.933 99.5178V115.846C396.933 122.814 399.325 124.114 405.201 124.114C406.345 124.114 407.489 123.958 408.737 123.75C409.413 123.646 409.725 123.334 409.725 122.814ZM436.155 122.658V103.938C436.155 97.2818 432.099 94.0058 424.715 94.0058C421.127 94.0058 418.111 94.4218 416.031 94.8378C415.355 94.9938 415.043 95.3578 415.043 95.9298V99.2578C415.043 99.9858 415.459 100.142 415.979 100.142C416.031 100.142 416.135 100.142 416.239 100.142C417.955 99.9338 421.387 99.7258 424.715 99.7258C427.783 99.7258 429.291 100.558 429.291 103.938V106.226H426.015C416.967 106.226 413.327 109.294 413.327 115.222V115.43C413.327 122.45 418.007 124.114 422.323 124.114C424.819 124.114 427.263 123.282 429.655 121.826V122.658C429.655 123.23 430.123 123.698 430.695 123.698H435.115C435.687 123.698 436.155 123.23 436.155 122.658ZM429.291 117.198C427.783 118.03 425.859 118.654 423.987 118.654C421.387 118.654 420.243 117.978 420.243 115.43V115.222C420.243 112.31 421.283 110.802 426.015 110.802H429.291V117.198ZM467.191 111.062V107.058C467.191 98.9458 463.135 94.0058 454.763 94.0058C453.515 94.0058 451.695 94.1098 449.771 94.3698V85.1658C449.771 84.5938 449.303 84.1258 448.731 84.1258H443.947C443.375 84.1258 442.907 84.5938 442.907 85.1658V121.358C442.907 122.138 443.115 122.45 444.311 122.762C447.535 123.594 451.435 124.114 454.763 124.114C463.135 124.114 467.191 119.174 467.191 111.062ZM460.327 111.062C460.327 115.326 459.235 118.498 454.763 118.498C452.891 118.498 450.759 118.342 449.771 118.134V99.9858C451.227 99.7778 453.515 99.6218 454.763 99.6218C459.235 99.6218 460.327 102.794 460.327 107.058V111.062ZM480.043 122.606V85.1658C480.043 84.5938 479.627 84.1258 479.055 84.1258H474.219C473.647 84.1258 473.179 84.5938 473.179 85.1658V122.606C473.179 123.178 473.647 123.698 474.219 123.698H479.055C479.627 123.698 480.043 123.178 480.043 122.606ZM511.059 110.126V107.214C511.059 99.4658 506.691 94.0058 498.683 94.0058C490.727 94.0058 486.203 99.1018 486.203 107.214V111.062C486.203 121.306 493.587 124.114 498.787 124.114C503.467 124.114 505.495 123.854 508.875 123.23C509.811 123.074 509.967 122.71 509.967 121.878V118.446C509.967 117.926 509.551 117.666 509.031 117.666C508.979 117.666 508.927 117.666 508.875 117.666C506.691 117.874 503.103 118.186 499.307 118.186C494.315 118.186 493.067 114.598 493.067 111.582V111.426H510.019C510.747 111.426 511.059 110.958 511.059 110.126ZM504.143 106.538H493.119V106.33C493.119 102.222 495.459 99.9338 498.683 99.9338C501.907 99.9338 504.143 102.274 504.143 106.33V106.538ZM132.12 183.982V166.51C132.12 165.938 131.652 165.47 131.08 165.47H125.932C125.36 165.47 124.944 165.938 124.944 166.51V179.77C123.332 179.874 121.72 179.926 119.796 179.926C116.728 179.926 113.14 177.534 113.14 170.15V162.662C113.14 155.278 116.468 152.834 119.952 152.834C124.944 152.834 128.532 153.042 130.924 153.25C130.976 153.25 131.028 153.25 131.08 153.25C131.912 153.25 132.12 152.886 132.12 152.158V148.674C132.12 147.998 131.808 147.738 131.132 147.582C129.416 147.27 124.944 146.646 119.952 146.646C113.764 146.646 105.86 150.338 105.86 162.662V170.15C105.86 182.422 114.18 186.114 119.796 186.114C125.152 186.114 128.532 185.75 131.132 185.23C131.808 185.074 132.12 184.658 132.12 183.982ZM163.36 173.166V168.954C163.36 161.518 159.096 156.006 150.932 156.006C142.768 156.006 138.504 161.518 138.504 168.954V173.166C138.504 180.602 142.768 186.114 150.932 186.114C159.096 186.114 163.36 180.602 163.36 173.166ZM156.496 173.166C156.496 177.43 154.572 180.186 150.932 180.186C147.292 180.186 145.368 177.43 145.368 173.166V168.954C145.368 164.69 147.292 161.934 150.932 161.934C154.572 161.934 156.496 164.69 156.496 168.954V173.166ZM193.219 173.166V168.954C193.219 161.518 188.955 156.006 180.791 156.006C172.627 156.006 168.363 161.518 168.363 168.954V173.166C168.363 180.602 172.627 186.114 180.791 186.114C188.955 186.114 193.219 180.602 193.219 173.166ZM186.355 173.166C186.355 177.43 184.431 180.186 180.791 180.186C177.151 180.186 175.227 177.43 175.227 173.166V168.954C175.227 164.69 177.151 161.934 180.791 161.934C184.431 161.934 186.355 164.69 186.355 168.954V173.166ZM222.351 183.358V147.166C222.351 146.594 221.883 146.126 221.311 146.126H216.527C215.955 146.126 215.487 146.594 215.487 147.166V156.37C213.563 156.11 211.743 156.006 210.495 156.006C202.123 156.006 198.067 160.946 198.067 169.058V173.062C198.067 181.174 202.123 186.114 210.495 186.114C213.823 186.114 217.723 185.594 220.947 184.762C222.143 184.45 222.351 184.138 222.351 183.358ZM215.487 180.134C214.499 180.342 212.367 180.498 210.495 180.498C206.023 180.498 204.931 177.326 204.931 173.062V169.058C204.931 164.794 206.023 161.622 210.495 161.622C211.743 161.622 214.031 161.778 215.487 161.986V180.134ZM240.194 171.346V168.07C240.194 167.498 239.778 167.082 239.206 167.082H229.014C228.442 167.082 227.974 167.498 227.974 168.07V171.346C227.974 171.918 228.442 172.282 229.014 172.282H239.206C239.778 172.282 240.194 171.918 240.194 171.346ZM269.277 151.794V148.466C269.277 147.738 269.017 147.478 268.237 147.374C266.573 147.114 264.545 146.646 258.357 146.646C251.597 146.646 246.345 148.466 246.345 157.306V184.658C246.345 185.23 246.813 185.698 247.385 185.698H252.481C253.053 185.698 253.521 185.23 253.521 184.658V168.746H267.613C268.185 168.746 268.653 168.278 268.653 167.706V163.962C268.653 163.39 268.185 162.922 267.613 162.922H253.521V157.306C253.521 153.874 254.613 152.834 257.629 152.834H268.237C268.809 152.834 269.277 152.366 269.277 151.794ZM295.186 184.658V165.938C295.186 159.282 291.13 156.006 283.746 156.006C280.158 156.006 277.142 156.422 275.062 156.838C274.386 156.994 274.074 157.358 274.074 157.93V161.258C274.074 161.986 274.49 162.142 275.01 162.142C275.062 162.142 275.166 162.142 275.27 162.142C276.986 161.934 280.418 161.726 283.746 161.726C286.814 161.726 288.322 162.558 288.322 165.938V168.226H285.046C275.998 168.226 272.358 171.294 272.358 177.222V177.43C272.358 184.45 277.038 186.114 281.354 186.114C283.85 186.114 286.294 185.282 288.686 183.826V184.658C288.686 185.23 289.154 185.698 289.726 185.698H294.146C294.718 185.698 295.186 185.23 295.186 184.658ZM288.322 179.198C286.814 180.03 284.89 180.654 283.018 180.654C280.418 180.654 279.274 179.978 279.274 177.43V177.222C279.274 174.31 280.314 172.802 285.046 172.802H288.322V179.198ZM321.647 178.002C321.647 175.35 321.023 172.75 316.655 170.098L309.843 165.938C308.543 165.158 307.763 164.638 307.763 163.806C307.763 162.194 308.855 161.622 311.351 161.622C314.315 161.622 318.475 162.038 319.931 162.246C319.983 162.246 320.035 162.246 320.139 162.246C320.659 162.246 320.971 161.882 320.971 161.258V158.242C320.971 157.618 320.659 157.202 320.035 157.046C317.383 156.474 314.991 156.006 310.779 156.006C304.175 156.006 300.899 158.606 300.899 163.806C300.899 166.822 302.719 169.422 305.267 170.982L312.391 175.35C314.055 176.39 314.679 177.014 314.679 178.002C314.679 179.406 314.211 180.498 310.987 180.498C309.427 180.498 304.747 180.238 302.251 179.926C302.199 179.926 302.147 179.926 302.043 179.926C301.523 179.926 301.159 180.342 301.159 180.758V183.878C301.159 184.502 301.523 184.918 302.147 185.074C305.059 185.854 309.427 186.114 311.455 186.114C318.267 186.114 321.647 182.526 321.647 178.002ZM343.252 184.814V181.538C343.252 181.018 342.836 180.758 342.16 180.758H339.404C337.532 180.758 337.376 180.446 337.376 177.846V161.518H342.056C342.628 161.518 343.096 161.05 343.096 160.478V157.41C343.096 156.838 342.628 156.37 342.056 156.37H337.376V151.014C337.376 150.494 337.012 150.234 336.544 150.234C336.492 150.234 336.388 150.234 336.336 150.234L331.5 151.066C330.928 151.17 330.46 151.534 330.46 152.106V156.37H325.572C325 156.37 324.532 156.838 324.532 157.41V159.75C324.532 160.322 325 160.686 325.572 160.79L330.46 161.518V177.846C330.46 184.814 332.852 186.114 338.728 186.114C339.872 186.114 341.016 185.958 342.264 185.75C342.94 185.646 343.252 185.334 343.252 184.814ZM359.022 171.346V168.07C359.022 167.498 358.606 167.082 358.034 167.082H347.842C347.27 167.082 346.802 167.498 346.802 168.07V171.346C346.802 171.918 347.27 172.282 347.842 172.282H358.034C358.606 172.282 359.022 171.918 359.022 171.346ZM388.209 184.086V180.602C388.209 179.978 387.949 179.51 387.169 179.51C387.169 179.51 387.117 179.51 387.065 179.51C385.245 179.666 381.709 179.926 378.953 179.926C374.585 179.926 371.413 177.43 371.413 170.202V162.558C371.413 155.174 374.585 152.834 378.953 152.834C381.709 152.834 385.245 153.094 387.065 153.25C387.117 153.25 387.169 153.25 387.169 153.25C387.949 153.25 388.209 152.782 388.209 152.158V148.674C388.209 147.946 387.741 147.686 387.065 147.478C386.285 147.27 382.853 146.646 378.849 146.646C372.609 146.646 364.133 149.506 364.133 162.558V170.202C364.133 183.046 372.609 186.114 378.849 186.114C382.853 186.114 386.285 185.49 387.065 185.282C387.741 185.074 388.209 184.814 388.209 184.086ZM417.978 184.606V167.498C417.978 161.102 415.846 156.006 408.67 156.006C404.978 156.006 402.794 156.734 400.818 157.93V147.166C400.818 146.594 400.35 146.126 399.778 146.126H394.994C394.422 146.126 393.954 146.594 393.954 147.166V184.606C393.954 185.178 394.422 185.698 394.994 185.698H399.778C400.35 185.698 400.818 185.178 400.818 184.606V163.598C403.002 162.454 405.082 161.83 406.85 161.83C410.334 161.83 411.114 162.974 411.114 167.498V184.606C411.114 185.178 411.582 185.698 412.154 185.698H416.938C417.51 185.698 417.978 185.178 417.978 184.606ZM448.7 172.126V169.214C448.7 161.466 444.332 156.006 436.324 156.006C428.368 156.006 423.844 161.102 423.844 169.214V173.062C423.844 183.306 431.228 186.114 436.428 186.114C441.108 186.114 443.136 185.854 446.516 185.23C447.452 185.074 447.608 184.71 447.608 183.878V180.446C447.608 179.926 447.192 179.666 446.672 179.666C446.62 179.666 446.568 179.666 446.516 179.666C444.332 179.874 440.744 180.186 436.948 180.186C431.956 180.186 430.708 176.598 430.708 173.582V173.426H447.66C448.388 173.426 448.7 172.958 448.7 172.126ZM441.784 168.538H430.76V168.33C430.76 164.222 433.1 161.934 436.324 161.934C439.548 161.934 441.784 164.274 441.784 168.33V168.538ZM476.323 184.658V165.938C476.323 159.282 472.267 156.006 464.883 156.006C461.295 156.006 458.279 156.422 456.199 156.838C455.523 156.994 455.211 157.358 455.211 157.93V161.258C455.211 161.986 455.627 162.142 456.147 162.142C456.199 162.142 456.303 162.142 456.407 162.142C458.123 161.934 461.555 161.726 464.883 161.726C467.951 161.726 469.459 162.558 469.459 165.938V168.226H466.183C457.135 168.226 453.495 171.294 453.495 177.222V177.43C453.495 184.45 458.175 186.114 462.491 186.114C464.987 186.114 467.431 185.282 469.823 183.826V184.658C469.823 185.23 470.291 185.698 470.863 185.698H475.283C475.855 185.698 476.323 185.23 476.323 184.658ZM469.459 179.198C467.951 180.03 466.027 180.654 464.155 180.654C461.555 180.654 460.411 179.978 460.411 177.43V177.222C460.411 174.31 461.451 172.802 466.183 172.802H469.459V179.198ZM507.359 173.062V169.058C507.359 160.946 503.303 156.006 494.931 156.006C491.603 156.006 487.703 156.526 484.479 157.358C483.283 157.67 483.075 157.982 483.075 158.762V194.954C483.075 195.526 483.543 195.994 484.115 195.994H488.899C489.471 195.994 489.939 195.526 489.939 194.954V185.75C491.863 186.01 493.683 186.114 494.931 186.114C503.303 186.114 507.359 181.174 507.359 173.062ZM500.495 173.062C500.495 177.326 499.403 180.498 494.931 180.498C493.683 180.498 491.395 180.342 489.939 180.134V161.986C490.927 161.778 493.059 161.622 494.931 161.622C499.403 161.622 500.495 164.794 500.495 169.058V173.062ZM124.996 246.086V242.706C124.996 242.186 124.58 241.926 124.06 241.926C124.008 241.926 123.956 241.926 123.904 241.926C121.824 242.186 120.576 242.29 117.196 242.29C114.752 242.29 112.204 240.886 112.204 235.478V230.642C112.204 225.234 114.752 223.83 117.196 223.83C120.576 223.83 121.824 223.934 123.904 224.194C123.956 224.194 124.008 224.194 124.06 224.194C124.58 224.194 124.996 223.934 124.996 223.414V220.034C124.996 219.202 124.788 218.89 123.904 218.682C122.708 218.37 120.368 218.006 117.196 218.006C110.436 218.006 105.34 222.166 105.34 230.642V235.478C105.34 243.954 110.436 248.114 117.196 248.114C120.368 248.114 122.708 247.75 123.904 247.438C124.788 247.23 124.996 246.918 124.996 246.086ZM145.784 222.79V219.046C145.784 218.474 145.316 218.006 144.744 218.006C142.664 218.006 139.856 218.526 137.308 220.502V219.41C137.308 218.838 136.84 218.37 136.268 218.37H131.744C131.172 218.37 130.704 218.838 130.704 219.41V246.606C130.704 247.178 131.172 247.698 131.744 247.698H136.528C137.1 247.698 137.568 247.178 137.568 246.606V225.702C139.752 224.558 141.936 223.83 144.744 223.83C145.316 223.83 145.784 223.362 145.784 222.79ZM170.671 246.658V227.938C170.671 221.282 166.615 218.006 159.231 218.006C155.643 218.006 152.627 218.422 150.547 218.838C149.871 218.994 149.559 219.358 149.559 219.93V223.258C149.559 223.986 149.975 224.142 150.495 224.142C150.547 224.142 150.651 224.142 150.755 224.142C152.471 223.934 155.903 223.726 159.231 223.726C162.299 223.726 163.807 224.558 163.807 227.938V230.226H160.531C151.483 230.226 147.843 233.294 147.843 239.222V239.43C147.843 246.45 152.523 248.114 156.839 248.114C159.335 248.114 161.779 247.282 164.171 245.826V246.658C164.171 247.23 164.639 247.698 165.211 247.698H169.631C170.203 247.698 170.671 247.23 170.671 246.658ZM163.807 241.198C162.299 242.03 160.375 242.654 158.503 242.654C155.903 242.654 154.759 241.978 154.759 239.43V239.222C154.759 236.31 155.799 234.802 160.531 234.802H163.807V241.198ZM192.527 211.818V208.75C192.527 208.282 192.007 208.022 191.591 207.918C190.603 207.71 189.719 207.502 188.471 207.502C183.063 207.502 179.475 209.114 179.475 215.822V218.37H174.847C174.275 218.37 173.807 218.838 173.807 219.41V221.802C173.807 222.374 174.275 222.686 174.847 222.79L179.475 223.518V246.606C179.475 247.178 179.995 247.698 180.567 247.698H185.299C185.871 247.698 186.339 247.178 186.339 246.606V223.518H191.331C191.903 223.518 192.371 223.102 192.371 222.53V219.41C192.371 218.838 191.903 218.37 191.331 218.37H186.339V215.822C186.339 213.274 186.911 212.702 189.407 212.702H191.747C192.111 212.702 192.527 212.442 192.527 211.818ZM213.303 246.814V243.538C213.303 243.018 212.887 242.758 212.211 242.758H209.455C207.583 242.758 207.427 242.446 207.427 239.846V223.518H212.107C212.679 223.518 213.147 223.05 213.147 222.478V219.41C213.147 218.838 212.679 218.37 212.107 218.37H207.427V213.014C207.427 212.494 207.063 212.234 206.595 212.234C206.543 212.234 206.439 212.234 206.387 212.234L201.551 213.066C200.979 213.17 200.511 213.534 200.511 214.106V218.37H195.623C195.051 218.37 194.583 218.838 194.583 219.41V221.75C194.583 222.322 195.051 222.686 195.623 222.79L200.511 223.518V239.846C200.511 246.814 202.903 248.114 208.779 248.114C209.923 248.114 211.067 247.958 212.315 247.75C212.991 247.646 213.303 247.334 213.303 246.814ZM224.705 226.17V220.294C224.705 219.722 224.237 219.254 223.665 219.254H219.037C218.465 219.254 217.997 219.722 217.997 220.294V226.17C217.997 226.742 218.465 227.158 219.037 227.158H223.665C224.237 227.158 224.705 226.742 224.705 226.17ZM224.705 246.658V240.782C224.705 240.21 224.237 239.794 223.665 239.794H219.037C218.465 239.794 217.997 240.21 217.997 240.782V246.658C217.997 247.23 218.465 247.698 219.037 247.698H223.665C224.237 247.698 224.705 247.23 224.705 246.658Z" fill="#1C1C1C"/>
<rect x="67" y="1" width="1020" height="549" rx="9" stroke="#1C1C1C" stroke-width="2"/>
<path d="M66.5 10C66.5 4.75329 70.7533 0.5 76 0.5H1078C1083.25 0.5 1087.5 4.7533 1087.5 10V33.5H66.5V10Z" fill="#4767F6" stroke="#4767F6"/>
<circle cx="102.5" cy="17.5" r="6.5" fill="white"/>
<circle cx="119.5" cy="17.5" r="6.5" fill="white"/>
<circle cx="136.5" cy="17.5" r="6.5" fill="white"/>
<g filter="url(#filter0_d_579_3)">
<rect x="4" y="378" width="405" height="109" fill="white"/>
</g>
<path d="M127.034 412.727C127.034 414.261 126.757 415.587 126.203 416.705C125.649 417.822 124.889 418.684 123.923 419.29C122.957 419.896 121.854 420.199 120.614 420.199C119.373 420.199 118.27 419.896 117.304 419.29C116.338 418.684 115.578 417.822 115.024 416.705C114.47 415.587 114.193 414.261 114.193 412.727C114.193 411.193 114.47 409.867 115.024 408.75C115.578 407.633 116.338 406.771 117.304 406.165C118.27 405.559 119.373 405.256 120.614 405.256C121.854 405.256 122.957 405.559 123.923 406.165C124.889 406.771 125.649 407.633 126.203 408.75C126.757 409.867 127.034 411.193 127.034 412.727ZM125.33 412.727C125.33 411.468 125.119 410.405 124.697 409.538C124.281 408.672 123.715 408.016 123 407.571C122.29 407.126 121.494 406.903 120.614 406.903C119.733 406.903 118.935 407.126 118.22 407.571C117.51 408.016 116.944 408.672 116.523 409.538C116.106 410.405 115.898 411.468 115.898 412.727C115.898 413.987 116.106 415.05 116.523 415.916C116.944 416.783 117.51 417.438 118.22 417.884C118.935 418.329 119.733 418.551 120.614 418.551C121.494 418.551 122.29 418.329 123 417.884C123.715 417.438 124.281 416.783 124.697 415.916C125.119 415.05 125.33 413.987 125.33 412.727ZM136.643 415.54V409.091H138.32V420H136.643V418.153H136.53C136.274 418.707 135.876 419.179 135.337 419.567C134.797 419.95 134.115 420.142 133.291 420.142C132.609 420.142 132.003 419.993 131.473 419.695C130.943 419.392 130.526 418.937 130.223 418.331C129.92 417.72 129.768 416.951 129.768 416.023V409.091H131.445V415.909C131.445 416.705 131.667 417.339 132.112 417.812C132.562 418.286 133.135 418.523 133.831 418.523C134.248 418.523 134.671 418.416 135.102 418.203C135.538 417.99 135.902 417.663 136.196 417.223C136.494 416.783 136.643 416.222 136.643 415.54ZM141.39 420V409.091H143.009V410.739H143.123C143.321 410.199 143.681 409.761 144.202 409.425C144.723 409.089 145.31 408.92 145.963 408.92C146.087 408.92 146.24 408.923 146.425 408.928C146.61 408.932 146.749 408.939 146.844 408.949V410.653C146.787 410.639 146.657 410.618 146.453 410.589C146.255 410.556 146.044 410.54 145.821 410.54C145.291 410.54 144.818 410.651 144.401 410.874C143.989 411.091 143.662 411.394 143.421 411.783C143.184 412.166 143.066 412.604 143.066 413.097V420H141.39ZM159.2 409.091V410.511H153.547V409.091H159.2ZM155.195 406.477H156.871V416.875C156.871 417.348 156.939 417.704 157.077 417.94C157.219 418.172 157.399 418.329 157.616 418.409C157.839 418.485 158.073 418.523 158.32 418.523C158.504 418.523 158.656 418.513 158.774 418.494C158.893 418.471 158.987 418.452 159.058 418.438L159.399 419.943C159.286 419.986 159.127 420.028 158.923 420.071C158.72 420.118 158.462 420.142 158.149 420.142C157.676 420.142 157.212 420.04 156.757 419.837C156.307 419.633 155.933 419.323 155.635 418.906C155.341 418.49 155.195 417.964 155.195 417.33V406.477ZM166.178 420.227C165.127 420.227 164.22 419.995 163.458 419.531C162.701 419.062 162.116 418.409 161.704 417.571C161.297 416.728 161.093 415.748 161.093 414.631C161.093 413.513 161.297 412.528 161.704 411.676C162.116 410.819 162.689 410.152 163.423 409.673C164.161 409.19 165.023 408.949 166.008 408.949C166.576 408.949 167.137 409.044 167.691 409.233C168.245 409.422 168.749 409.73 169.204 410.156C169.658 410.578 170.021 411.136 170.29 411.832C170.56 412.528 170.695 413.385 170.695 414.403V415.114H162.286V413.665H168.991C168.991 413.049 168.868 412.5 168.621 412.017C168.38 411.534 168.034 411.153 167.585 410.874C167.139 410.594 166.614 410.455 166.008 410.455C165.34 410.455 164.763 410.62 164.275 410.952C163.792 411.278 163.42 411.705 163.16 412.23C162.899 412.756 162.769 413.319 162.769 413.92V414.886C162.769 415.71 162.911 416.409 163.195 416.982C163.484 417.55 163.884 417.983 164.396 418.281C164.907 418.575 165.501 418.722 166.178 418.722C166.619 418.722 167.016 418.66 167.371 418.537C167.731 418.409 168.041 418.22 168.302 417.969C168.562 417.713 168.763 417.396 168.906 417.017L170.525 417.472C170.354 418.021 170.068 418.504 169.665 418.92C169.263 419.332 168.766 419.654 168.174 419.886C167.582 420.114 166.917 420.227 166.178 420.227ZM176.455 420.256C175.764 420.256 175.137 420.125 174.573 419.865C174.01 419.6 173.562 419.219 173.231 418.722C172.899 418.22 172.734 417.614 172.734 416.903C172.734 416.278 172.857 415.772 173.103 415.384C173.349 414.991 173.678 414.683 174.09 414.46C174.502 414.238 174.957 414.072 175.454 413.963C175.956 413.849 176.46 413.759 176.967 413.693C177.629 413.608 178.167 413.544 178.579 413.501C178.996 413.454 179.299 413.376 179.488 413.267C179.682 413.158 179.779 412.969 179.779 412.699V412.642C179.779 411.941 179.587 411.397 179.204 411.009C178.825 410.62 178.25 410.426 177.478 410.426C176.678 410.426 176.05 410.601 175.596 410.952C175.141 411.302 174.822 411.676 174.637 412.074L173.046 411.506C173.33 410.843 173.709 410.327 174.183 409.957C174.661 409.583 175.182 409.323 175.745 409.176C176.313 409.025 176.872 408.949 177.421 408.949C177.772 408.949 178.174 408.991 178.629 409.077C179.088 409.157 179.531 409.325 179.957 409.581C180.388 409.837 180.745 410.223 181.029 410.739C181.313 411.255 181.455 411.946 181.455 412.812V420H179.779V418.523H179.694C179.58 418.759 179.391 419.013 179.126 419.283C178.861 419.553 178.508 419.782 178.067 419.972C177.627 420.161 177.09 420.256 176.455 420.256ZM176.711 418.75C177.374 418.75 177.933 418.62 178.387 418.359C178.846 418.099 179.192 417.763 179.424 417.351C179.661 416.939 179.779 416.506 179.779 416.051V414.517C179.708 414.602 179.552 414.68 179.31 414.751C179.074 414.818 178.799 414.877 178.487 414.929C178.179 414.976 177.878 415.019 177.585 415.057C177.296 415.09 177.061 415.118 176.881 415.142C176.446 415.199 176.039 415.291 175.66 415.419C175.286 415.542 174.983 415.729 174.751 415.98C174.523 416.226 174.41 416.562 174.41 416.989C174.41 417.571 174.625 418.011 175.056 418.31C175.492 418.603 176.043 418.75 176.711 418.75ZM184.515 420V409.091H186.134V410.795H186.276C186.503 410.213 186.87 409.761 187.377 409.439C187.883 409.112 188.492 408.949 189.202 408.949C189.922 408.949 190.521 409.112 190.999 409.439C191.482 409.761 191.858 410.213 192.128 410.795H192.242C192.521 410.232 192.94 409.785 193.499 409.453C194.058 409.117 194.728 408.949 195.509 408.949C196.484 408.949 197.282 409.254 197.902 409.865C198.523 410.471 198.833 411.416 198.833 412.699V420H197.157V412.699C197.157 411.894 196.936 411.319 196.496 410.973C196.056 410.627 195.537 410.455 194.941 410.455C194.174 410.455 193.579 410.687 193.158 411.151C192.737 411.61 192.526 412.192 192.526 412.898V420H190.821V412.528C190.821 411.908 190.62 411.409 190.218 411.03C189.815 410.646 189.297 410.455 188.662 410.455C188.227 410.455 187.819 410.571 187.441 410.803C187.067 411.035 186.764 411.357 186.532 411.768C186.304 412.176 186.191 412.647 186.191 413.182V420H184.515ZM209.199 413.438V420H207.522V405.455H209.199V410.795H209.341C209.596 410.232 209.98 409.785 210.491 409.453C211.007 409.117 211.694 408.949 212.551 408.949C213.294 408.949 213.945 409.098 214.504 409.396C215.063 409.69 215.496 410.142 215.804 410.753C216.116 411.359 216.272 412.131 216.272 413.068V420H214.596V413.182C214.596 412.315 214.371 411.645 213.922 411.172C213.476 410.694 212.859 410.455 212.068 410.455C211.519 410.455 211.026 410.571 210.591 410.803C210.16 411.035 209.819 411.373 209.568 411.818C209.322 412.263 209.199 412.803 209.199 413.438ZM222.549 420.256C221.858 420.256 221.23 420.125 220.667 419.865C220.103 419.6 219.656 419.219 219.325 418.722C218.993 418.22 218.827 417.614 218.827 416.903C218.827 416.278 218.951 415.772 219.197 415.384C219.443 414.991 219.772 414.683 220.184 414.46C220.596 414.238 221.05 414.072 221.548 413.963C222.049 413.849 222.554 413.759 223.06 413.693C223.723 413.608 224.261 413.544 224.673 413.501C225.089 413.454 225.392 413.376 225.582 413.267C225.776 413.158 225.873 412.969 225.873 412.699V412.642C225.873 411.941 225.681 411.397 225.298 411.009C224.919 410.62 224.344 410.426 223.572 410.426C222.772 410.426 222.144 410.601 221.69 410.952C221.235 411.302 220.915 411.676 220.731 412.074L219.14 411.506C219.424 410.843 219.803 410.327 220.276 409.957C220.754 409.583 221.275 409.323 221.839 409.176C222.407 409.025 222.966 408.949 223.515 408.949C223.865 408.949 224.268 408.991 224.722 409.077C225.182 409.157 225.624 409.325 226.05 409.581C226.481 409.837 226.839 410.223 227.123 410.739C227.407 411.255 227.549 411.946 227.549 412.812V420H225.873V418.523H225.788C225.674 418.759 225.485 419.013 225.219 419.283C224.954 419.553 224.602 419.782 224.161 419.972C223.721 420.161 223.183 420.256 222.549 420.256ZM222.805 418.75C223.468 418.75 224.026 418.62 224.481 418.359C224.94 418.099 225.286 417.763 225.518 417.351C225.754 416.939 225.873 416.506 225.873 416.051V414.517C225.802 414.602 225.646 414.68 225.404 414.751C225.167 414.818 224.893 414.877 224.58 414.929C224.272 414.976 223.972 415.019 223.678 415.057C223.389 415.09 223.155 415.118 222.975 415.142C222.54 415.199 222.132 415.291 221.754 415.419C221.379 415.542 221.076 415.729 220.844 415.98C220.617 416.226 220.504 416.562 220.504 416.989C220.504 417.571 220.719 418.011 221.15 418.31C221.585 418.603 222.137 418.75 222.805 418.75ZM238.336 411.534L236.83 411.96C236.735 411.709 236.596 411.465 236.411 411.229C236.231 410.987 235.985 410.788 235.672 410.632C235.36 410.476 234.96 410.398 234.472 410.398C233.804 410.398 233.248 410.552 232.803 410.859C232.363 411.162 232.142 411.548 232.142 412.017C232.142 412.434 232.294 412.763 232.597 413.004C232.9 413.246 233.373 413.447 234.017 413.608L235.637 414.006C236.612 414.242 237.339 414.605 237.817 415.092C238.295 415.575 238.534 416.198 238.534 416.96C238.534 417.585 238.355 418.144 237.995 418.636C237.64 419.129 237.142 419.517 236.503 419.801C235.864 420.085 235.121 420.227 234.273 420.227C233.16 420.227 232.239 419.986 231.51 419.503C230.781 419.02 230.319 418.314 230.125 417.386L231.716 416.989C231.868 417.576 232.154 418.016 232.576 418.31C233.002 418.603 233.558 418.75 234.245 418.75C235.026 418.75 235.646 418.584 236.105 418.253C236.569 417.917 236.801 417.514 236.801 417.045C236.801 416.667 236.669 416.349 236.404 416.094C236.139 415.833 235.731 415.639 235.182 415.511L233.364 415.085C232.365 414.848 231.631 414.482 231.162 413.984C230.698 413.482 230.466 412.855 230.466 412.102C230.466 411.487 230.639 410.942 230.985 410.469C231.335 409.995 231.811 409.624 232.412 409.354C233.018 409.084 233.705 408.949 234.472 408.949C235.551 408.949 236.399 409.186 237.015 409.659C237.635 410.133 238.075 410.758 238.336 411.534ZM248.359 413.438V420H246.683V405.455H248.359V410.795H248.501C248.756 410.232 249.14 409.785 249.651 409.453C250.167 409.117 250.854 408.949 251.711 408.949C252.454 408.949 253.105 409.098 253.664 409.396C254.223 409.69 254.656 410.142 254.964 410.753C255.276 411.359 255.433 412.131 255.433 413.068V420H253.756V413.182C253.756 412.315 253.531 411.645 253.082 411.172C252.637 410.694 252.019 410.455 251.228 410.455C250.679 410.455 250.186 410.571 249.751 410.803C249.32 411.035 248.979 411.373 248.728 411.818C248.482 412.263 248.359 412.803 248.359 413.438ZM261.709 420.256C261.018 420.256 260.391 420.125 259.827 419.865C259.264 419.6 258.816 419.219 258.485 418.722C258.153 418.22 257.988 417.614 257.988 416.903C257.988 416.278 258.111 415.772 258.357 415.384C258.603 414.991 258.932 414.683 259.344 414.46C259.756 414.238 260.211 414.072 260.708 413.963C261.21 413.849 261.714 413.759 262.221 413.693C262.883 413.608 263.421 413.544 263.833 413.501C264.249 413.454 264.552 413.376 264.742 413.267C264.936 413.158 265.033 412.969 265.033 412.699V412.642C265.033 411.941 264.841 411.397 264.458 411.009C264.079 410.62 263.504 410.426 262.732 410.426C261.932 410.426 261.304 410.601 260.85 410.952C260.395 411.302 260.076 411.676 259.891 412.074L258.3 411.506C258.584 410.843 258.963 410.327 259.436 409.957C259.915 409.583 260.435 409.323 260.999 409.176C261.567 409.025 262.126 408.949 262.675 408.949C263.025 408.949 263.428 408.991 263.882 409.077C264.342 409.157 264.784 409.325 265.211 409.581C265.641 409.837 265.999 410.223 266.283 410.739C266.567 411.255 266.709 411.946 266.709 412.812V420H265.033V418.523H264.948C264.834 418.759 264.645 419.013 264.38 419.283C264.114 419.553 263.762 419.782 263.321 419.972C262.881 420.161 262.344 420.256 261.709 420.256ZM261.965 418.75C262.628 418.75 263.186 418.62 263.641 418.359C264.1 418.099 264.446 417.763 264.678 417.351C264.915 416.939 265.033 416.506 265.033 416.051V414.517C264.962 414.602 264.806 414.68 264.564 414.751C264.328 414.818 264.053 414.877 263.74 414.929C263.433 414.976 263.132 415.019 262.838 415.057C262.55 415.09 262.315 415.118 262.135 415.142C261.7 415.199 261.292 415.291 260.914 415.419C260.54 415.542 260.237 415.729 260.005 415.98C259.777 416.226 259.664 416.562 259.664 416.989C259.664 417.571 259.879 418.011 260.31 418.31C260.746 418.603 261.297 418.75 261.965 418.75ZM271.445 413.438V420H269.768V409.091H271.388V410.795H271.53C271.786 410.241 272.174 409.796 272.695 409.46C273.215 409.119 273.888 408.949 274.712 408.949C275.45 408.949 276.097 409.1 276.651 409.403C277.205 409.702 277.635 410.156 277.943 410.767C278.251 411.373 278.405 412.14 278.405 413.068V420H276.729V413.182C276.729 412.325 276.506 411.657 276.061 411.179C275.616 410.696 275.005 410.455 274.229 410.455C273.694 410.455 273.215 410.571 272.794 410.803C272.377 411.035 272.048 411.373 271.807 411.818C271.565 412.263 271.445 412.803 271.445 413.438ZM285.587 420.227C284.678 420.227 283.875 419.998 283.179 419.538C282.483 419.074 281.939 418.421 281.546 417.578C281.153 416.731 280.956 415.729 280.956 414.574C280.956 413.428 281.153 412.434 281.546 411.591C281.939 410.748 282.486 410.097 283.186 409.638C283.887 409.179 284.697 408.949 285.615 408.949C286.326 408.949 286.887 409.067 287.299 409.304C287.715 409.536 288.033 409.801 288.25 410.099C288.473 410.393 288.646 410.634 288.769 410.824H288.911V405.455H290.587V420H288.968V418.324H288.769C288.646 418.523 288.471 418.774 288.243 419.077C288.016 419.375 287.692 419.643 287.27 419.879C286.849 420.111 286.288 420.227 285.587 420.227ZM285.814 418.722C286.487 418.722 287.055 418.546 287.519 418.196C287.983 417.841 288.336 417.351 288.577 416.726C288.819 416.096 288.939 415.369 288.939 414.545C288.939 413.731 288.821 413.018 288.584 412.408C288.347 411.792 287.997 411.314 287.533 410.973C287.069 410.627 286.496 410.455 285.814 410.455C285.104 410.455 284.512 410.637 284.039 411.001C283.57 411.361 283.217 411.851 282.98 412.472C282.748 413.087 282.632 413.778 282.632 414.545C282.632 415.322 282.751 416.027 282.988 416.662C283.229 417.292 283.584 417.794 284.053 418.168C284.526 418.537 285.114 418.722 285.814 418.722ZM301.617 411.534L300.111 411.96C300.016 411.709 299.877 411.465 299.692 411.229C299.512 410.987 299.266 410.788 298.953 410.632C298.641 410.476 298.241 410.398 297.753 410.398C297.086 410.398 296.529 410.552 296.084 410.859C295.644 411.162 295.424 411.548 295.424 412.017C295.424 412.434 295.575 412.763 295.878 413.004C296.181 413.246 296.655 413.447 297.299 413.608L298.918 414.006C299.893 414.242 300.62 414.605 301.098 415.092C301.577 415.575 301.816 416.198 301.816 416.96C301.816 417.585 301.636 418.144 301.276 418.636C300.921 419.129 300.424 419.517 299.784 419.801C299.145 420.085 298.402 420.227 297.554 420.227C296.442 420.227 295.521 419.986 294.792 419.503C294.062 419.02 293.601 418.314 293.407 417.386L294.998 416.989C295.149 417.576 295.435 418.016 295.857 418.31C296.283 418.603 296.839 418.75 297.526 418.75C298.307 418.75 298.927 418.584 299.387 418.253C299.851 417.917 300.083 417.514 300.083 417.045C300.083 416.667 299.95 416.349 299.685 416.094C299.42 415.833 299.013 415.639 298.463 415.511L296.645 415.085C295.646 414.848 294.912 414.482 294.444 413.984C293.98 413.482 293.748 412.855 293.748 412.102C293.748 411.487 293.92 410.942 294.266 410.469C294.616 409.995 295.092 409.624 295.694 409.354C296.3 409.084 296.986 408.949 297.753 408.949C298.833 408.949 299.68 409.186 300.296 409.659C300.916 410.133 301.356 410.758 301.617 411.534ZM314.396 420.227C313.411 420.227 312.547 419.993 311.803 419.524C311.065 419.055 310.487 418.4 310.07 417.557C309.658 416.714 309.452 415.729 309.452 414.602C309.452 413.466 309.658 412.474 310.07 411.626C310.487 410.779 311.065 410.121 311.803 409.652C312.547 409.183 313.411 408.949 314.396 408.949C315.38 408.949 316.242 409.183 316.981 409.652C317.724 410.121 318.302 410.779 318.714 411.626C319.13 412.474 319.339 413.466 319.339 414.602C319.339 415.729 319.13 416.714 318.714 417.557C318.302 418.4 317.724 419.055 316.981 419.524C316.242 419.993 315.38 420.227 314.396 420.227ZM314.396 418.722C315.144 418.722 315.759 418.53 316.242 418.146C316.725 417.763 317.083 417.259 317.315 416.634C317.547 416.009 317.663 415.331 317.663 414.602C317.663 413.873 317.547 413.194 317.315 412.564C317.083 411.934 316.725 411.425 316.242 411.037C315.759 410.649 315.144 410.455 314.396 410.455C313.647 410.455 313.032 410.649 312.549 411.037C312.066 411.425 311.709 411.934 311.477 412.564C311.245 413.194 311.129 413.873 311.129 414.602C311.129 415.331 311.245 416.009 311.477 416.634C311.709 417.259 312.066 417.763 312.549 418.146C313.032 418.53 313.647 418.722 314.396 418.722ZM323.574 413.438V420H321.897V409.091H323.517V410.795H323.659C323.914 410.241 324.303 409.796 324.824 409.46C325.344 409.119 326.017 408.949 326.841 408.949C327.579 408.949 328.225 409.1 328.779 409.403C329.333 409.702 329.764 410.156 330.072 410.767C330.38 411.373 330.534 412.14 330.534 413.068V420H328.858V413.182C328.858 412.325 328.635 411.657 328.19 411.179C327.745 410.696 327.134 410.455 326.358 410.455C325.823 410.455 325.344 410.571 324.923 410.803C324.506 411.035 324.177 411.373 323.936 411.818C323.694 412.263 323.574 412.803 323.574 413.438ZM343.653 420.227C342.669 420.227 341.804 419.993 341.061 419.524C340.322 419.055 339.745 418.4 339.328 417.557C338.916 416.714 338.71 415.729 338.71 414.602C338.71 413.466 338.916 412.474 339.328 411.626C339.745 410.779 340.322 410.121 341.061 409.652C341.804 409.183 342.669 408.949 343.653 408.949C344.638 408.949 345.5 409.183 346.239 409.652C346.982 410.121 347.56 410.779 347.972 411.626C348.388 412.474 348.597 413.466 348.597 414.602C348.597 415.729 348.388 416.714 347.972 417.557C347.56 418.4 346.982 419.055 346.239 419.524C345.5 419.993 344.638 420.227 343.653 420.227ZM343.653 418.722C344.402 418.722 345.017 418.53 345.5 418.146C345.983 417.763 346.34 417.259 346.572 416.634C346.804 416.009 346.92 415.331 346.92 414.602C346.92 413.873 346.804 413.194 346.572 412.564C346.34 411.934 345.983 411.425 345.5 411.037C345.017 410.649 344.402 410.455 343.653 410.455C342.905 410.455 342.29 410.649 341.807 411.037C341.324 411.425 340.966 411.934 340.734 412.564C340.502 413.194 340.386 413.873 340.386 414.602C340.386 415.331 340.502 416.009 340.734 416.634C340.966 417.259 341.324 417.763 341.807 418.146C342.29 418.53 342.905 418.722 343.653 418.722ZM352.831 413.438V420H351.155V409.091H352.775V410.795H352.917C353.172 410.241 353.56 409.796 354.081 409.46C354.602 409.119 355.275 408.949 356.098 408.949C356.837 408.949 357.483 409.1 358.037 409.403C358.591 409.702 359.022 410.156 359.33 410.767C359.638 411.373 359.792 412.14 359.792 413.068V420H358.115V413.182C358.115 412.325 357.893 411.657 357.448 411.179C357.003 410.696 356.392 410.455 355.615 410.455C355.08 410.455 354.602 410.571 354.181 410.803C353.764 411.035 353.435 411.373 353.194 411.818C352.952 412.263 352.831 412.803 352.831 413.438ZM119.278 433.091V434.511H113.625V433.091H119.278ZM115.273 430.477H116.949V440.875C116.949 441.348 117.018 441.704 117.155 441.94C117.297 442.172 117.477 442.329 117.695 442.409C117.917 442.485 118.152 442.523 118.398 442.523C118.582 442.523 118.734 442.513 118.852 442.494C118.971 442.471 119.065 442.452 119.136 442.438L119.477 443.943C119.364 443.986 119.205 444.028 119.001 444.071C118.798 444.118 118.54 444.142 118.227 444.142C117.754 444.142 117.29 444.04 116.835 443.837C116.385 443.633 116.011 443.323 115.713 442.906C115.42 442.49 115.273 441.964 115.273 441.33V430.477ZM123.71 437.438V444H122.034V429.455H123.71V434.795H123.852C124.108 434.232 124.491 433.785 125.003 433.453C125.519 433.117 126.205 432.949 127.062 432.949C127.806 432.949 128.457 433.098 129.016 433.396C129.574 433.69 130.008 434.142 130.315 434.753C130.628 435.359 130.784 436.131 130.784 437.068V444H129.108V437.182C129.108 436.315 128.883 435.645 128.433 435.172C127.988 434.694 127.37 434.455 126.58 434.455C126.03 434.455 125.538 434.571 125.102 434.803C124.671 435.035 124.33 435.373 124.08 435.818C123.833 436.263 123.71 436.803 123.71 437.438ZM138.424 444.227C137.373 444.227 136.467 443.995 135.704 443.531C134.947 443.062 134.362 442.409 133.95 441.571C133.543 440.728 133.339 439.748 133.339 438.631C133.339 437.513 133.543 436.528 133.95 435.676C134.362 434.819 134.935 434.152 135.669 433.673C136.407 433.19 137.269 432.949 138.254 432.949C138.822 432.949 139.383 433.044 139.937 433.233C140.491 433.422 140.995 433.73 141.45 434.156C141.904 434.578 142.267 435.136 142.537 435.832C142.806 436.528 142.941 437.385 142.941 438.403V439.114H134.532V437.665H141.237C141.237 437.049 141.114 436.5 140.868 436.017C140.626 435.534 140.28 435.153 139.831 434.874C139.386 434.594 138.86 434.455 138.254 434.455C137.586 434.455 137.009 434.62 136.521 434.952C136.038 435.278 135.666 435.705 135.406 436.23C135.145 436.756 135.015 437.319 135.015 437.92V438.886C135.015 439.71 135.157 440.409 135.441 440.982C135.73 441.55 136.13 441.983 136.642 442.281C137.153 442.575 137.747 442.722 138.424 442.722C138.865 442.722 139.262 442.66 139.618 442.537C139.977 442.409 140.288 442.22 140.548 441.969C140.808 441.713 141.01 441.396 141.152 441.017L142.771 441.472C142.6 442.021 142.314 442.504 141.912 442.92C141.509 443.332 141.012 443.654 140.42 443.886C139.828 444.114 139.163 444.227 138.424 444.227ZM151.116 444V433.091H152.735V434.795H152.877C153.105 434.213 153.472 433.761 153.978 433.439C154.485 433.112 155.093 432.949 155.804 432.949C156.523 432.949 157.122 433.112 157.6 433.439C158.083 433.761 158.46 434.213 158.73 434.795H158.843C159.123 434.232 159.542 433.785 160.1 433.453C160.659 433.117 161.329 432.949 162.11 432.949C163.086 432.949 163.884 433.254 164.504 433.865C165.124 434.471 165.434 435.416 165.434 436.699V444H163.758V436.699C163.758 435.894 163.538 435.319 163.098 434.973C162.657 434.627 162.139 434.455 161.542 434.455C160.775 434.455 160.181 434.687 159.76 435.151C159.338 435.61 159.127 436.192 159.127 436.898V444H157.423V436.528C157.423 435.908 157.222 435.409 156.819 435.03C156.417 434.646 155.898 434.455 155.264 434.455C154.828 434.455 154.421 434.571 154.042 434.803C153.668 435.035 153.365 435.357 153.133 435.768C152.906 436.176 152.792 436.647 152.792 437.182V444H151.116ZM172.931 444.227C171.946 444.227 171.082 443.993 170.338 443.524C169.6 443.055 169.022 442.4 168.605 441.557C168.194 440.714 167.988 439.729 167.988 438.602C167.988 437.466 168.194 436.474 168.605 435.626C169.022 434.779 169.6 434.121 170.338 433.652C171.082 433.183 171.946 432.949 172.931 432.949C173.916 432.949 174.777 433.183 175.516 433.652C176.259 434.121 176.837 434.779 177.249 435.626C177.666 436.474 177.874 437.466 177.874 438.602C177.874 439.729 177.666 440.714 177.249 441.557C176.837 442.4 176.259 443.055 175.516 443.524C174.777 443.993 173.916 444.227 172.931 444.227ZM172.931 442.722C173.679 442.722 174.294 442.53 174.777 442.146C175.26 441.763 175.618 441.259 175.85 440.634C176.082 440.009 176.198 439.331 176.198 438.602C176.198 437.873 176.082 437.194 175.85 436.564C175.618 435.934 175.26 435.425 174.777 435.037C174.294 434.649 173.679 434.455 172.931 434.455C172.183 434.455 171.567 434.649 171.084 435.037C170.601 435.425 170.244 435.934 170.012 436.564C169.78 437.194 169.664 437.873 169.664 438.602C169.664 439.331 169.78 440.009 170.012 440.634C170.244 441.259 170.601 441.763 171.084 442.146C171.567 442.53 172.183 442.722 172.931 442.722ZM184.552 444.227C183.643 444.227 182.84 443.998 182.144 443.538C181.448 443.074 180.904 442.421 180.511 441.578C180.118 440.731 179.921 439.729 179.921 438.574C179.921 437.428 180.118 436.434 180.511 435.591C180.904 434.748 181.451 434.097 182.151 433.638C182.852 433.179 183.662 432.949 184.58 432.949C185.29 432.949 185.852 433.067 186.263 433.304C186.68 433.536 186.997 433.801 187.215 434.099C187.438 434.393 187.611 434.634 187.734 434.824H187.876V429.455H189.552V444H187.933V442.324H187.734C187.611 442.523 187.435 442.774 187.208 443.077C186.981 443.375 186.656 443.643 186.235 443.879C185.814 444.111 185.253 444.227 184.552 444.227ZM184.779 442.722C185.451 442.722 186.02 442.546 186.484 442.196C186.948 441.841 187.3 441.351 187.542 440.726C187.783 440.096 187.904 439.369 187.904 438.545C187.904 437.731 187.786 437.018 187.549 436.408C187.312 435.792 186.962 435.314 186.498 434.973C186.034 434.627 185.461 434.455 184.779 434.455C184.069 434.455 183.477 434.637 183.004 435.001C182.535 435.361 182.182 435.851 181.945 436.472C181.713 437.087 181.597 437.778 181.597 438.545C181.597 439.322 181.716 440.027 181.952 440.662C182.194 441.292 182.549 441.794 183.018 442.168C183.491 442.537 184.078 442.722 184.779 442.722ZM197.428 444.227C196.377 444.227 195.47 443.995 194.708 443.531C193.951 443.062 193.366 442.409 192.954 441.571C192.547 440.728 192.343 439.748 192.343 438.631C192.343 437.513 192.547 436.528 192.954 435.676C193.366 434.819 193.939 434.152 194.673 433.673C195.411 433.19 196.273 432.949 197.258 432.949C197.826 432.949 198.387 433.044 198.941 433.233C199.495 433.422 199.999 433.73 200.454 434.156C200.908 434.578 201.271 435.136 201.54 435.832C201.81 436.528 201.945 437.385 201.945 438.403V439.114H193.536V437.665H200.241C200.241 437.049 200.118 436.5 199.871 436.017C199.63 435.534 199.284 435.153 198.835 434.874C198.389 434.594 197.864 434.455 197.258 434.455C196.59 434.455 196.013 434.62 195.525 434.952C195.042 435.278 194.67 435.705 194.41 436.23C194.149 436.756 194.019 437.319 194.019 437.92V438.886C194.019 439.71 194.161 440.409 194.445 440.982C194.734 441.55 195.134 441.983 195.646 442.281C196.157 442.575 196.751 442.722 197.428 442.722C197.869 442.722 198.266 442.66 198.621 442.537C198.981 442.409 199.291 442.22 199.552 441.969C199.812 441.713 200.013 441.396 200.156 441.017L201.775 441.472C201.604 442.021 201.318 442.504 200.915 442.92C200.513 443.332 200.016 443.654 199.424 443.886C198.832 444.114 198.167 444.227 197.428 444.227ZM204.495 444V433.091H206.114V434.739H206.228C206.427 434.199 206.787 433.761 207.308 433.425C207.828 433.089 208.415 432.92 209.069 432.92C209.192 432.92 209.346 432.923 209.531 432.928C209.715 432.932 209.855 432.939 209.95 432.949V434.653C209.893 434.639 209.763 434.618 209.559 434.589C209.36 434.556 209.149 434.54 208.927 434.54C208.397 434.54 207.923 434.651 207.506 434.874C207.094 435.091 206.768 435.394 206.526 435.783C206.29 436.166 206.171 436.604 206.171 437.097V444H204.495ZM213.613 437.438V444H211.936V433.091H213.556V434.795H213.698C213.953 434.241 214.342 433.796 214.863 433.46C215.383 433.119 216.056 432.949 216.88 432.949C217.618 432.949 218.265 433.1 218.819 433.403C219.373 433.702 219.803 434.156 220.111 434.767C220.419 435.373 220.573 436.14 220.573 437.068V444H218.897V437.182C218.897 436.325 218.674 435.657 218.229 435.179C217.784 434.696 217.173 434.455 216.397 434.455C215.862 434.455 215.383 434.571 214.962 434.803C214.545 435.035 214.216 435.373 213.975 435.818C213.733 436.263 213.613 436.803 213.613 437.438ZM232.471 444.256C231.78 444.256 231.152 444.125 230.589 443.865C230.025 443.6 229.578 443.219 229.246 442.722C228.915 442.22 228.749 441.614 228.749 440.903C228.749 440.278 228.872 439.772 229.119 439.384C229.365 438.991 229.694 438.683 230.106 438.46C230.518 438.238 230.972 438.072 231.469 437.963C231.971 437.849 232.476 437.759 232.982 437.693C233.645 437.608 234.183 437.544 234.594 437.501C235.011 437.454 235.314 437.376 235.504 437.267C235.698 437.158 235.795 436.969 235.795 436.699V436.642C235.795 435.941 235.603 435.397 235.219 435.009C234.841 434.62 234.265 434.426 233.494 434.426C232.693 434.426 232.066 434.601 231.612 434.952C231.157 435.302 230.837 435.676 230.653 436.074L229.062 435.506C229.346 434.843 229.725 434.327 230.198 433.957C230.676 433.583 231.197 433.323 231.761 433.176C232.329 433.025 232.888 432.949 233.437 432.949C233.787 432.949 234.19 432.991 234.644 433.077C235.103 433.157 235.546 433.325 235.972 433.581C236.403 433.837 236.761 434.223 237.045 434.739C237.329 435.255 237.471 435.946 237.471 436.812V444H235.795V442.523H235.71C235.596 442.759 235.406 443.013 235.141 443.283C234.876 443.553 234.523 443.782 234.083 443.972C233.643 444.161 233.105 444.256 232.471 444.256ZM232.727 442.75C233.389 442.75 233.948 442.62 234.403 442.359C234.862 442.099 235.208 441.763 235.44 441.351C235.676 440.939 235.795 440.506 235.795 440.051V438.517C235.724 438.602 235.567 438.68 235.326 438.751C235.089 438.818 234.815 438.877 234.502 438.929C234.194 438.976 233.894 439.019 233.6 439.057C233.311 439.09 233.077 439.118 232.897 439.142C232.461 439.199 232.054 439.291 231.675 439.419C231.301 439.542 230.998 439.729 230.766 439.98C230.539 440.226 230.425 440.562 230.425 440.989C230.425 441.571 230.641 442.011 231.072 442.31C231.507 442.603 232.059 442.75 232.727 442.75ZM242.206 437.438V444H240.53V433.091H242.15V434.795H242.292C242.547 434.241 242.935 433.796 243.456 433.46C243.977 433.119 244.65 432.949 245.473 432.949C246.212 432.949 246.858 433.1 247.412 433.403C247.966 433.702 248.397 434.156 248.705 434.767C249.013 435.373 249.167 436.14 249.167 437.068V444H247.49V437.182C247.49 436.325 247.268 435.657 246.823 435.179C246.378 434.696 245.767 434.455 244.99 434.455C244.455 434.455 243.977 434.571 243.556 434.803C243.139 435.035 242.81 435.373 242.569 435.818C242.327 436.263 242.206 436.803 242.206 437.438ZM256.349 444.227C255.44 444.227 254.637 443.998 253.941 443.538C253.245 443.074 252.701 442.421 252.308 441.578C251.915 440.731 251.718 439.729 251.718 438.574C251.718 437.428 251.915 436.434 252.308 435.591C252.701 434.748 253.247 434.097 253.948 433.638C254.649 433.179 255.459 432.949 256.377 432.949C257.087 432.949 257.648 433.067 258.06 433.304C258.477 433.536 258.794 433.801 259.012 434.099C259.235 434.393 259.407 434.634 259.531 434.824H259.673V429.455H261.349V444H259.729V442.324H259.531C259.407 442.523 259.232 442.774 259.005 443.077C258.778 443.375 258.453 443.643 258.032 443.879C257.611 444.111 257.049 444.227 256.349 444.227ZM256.576 442.722C257.248 442.722 257.817 442.546 258.281 442.196C258.745 441.841 259.097 441.351 259.339 440.726C259.58 440.096 259.701 439.369 259.701 438.545C259.701 437.731 259.583 437.018 259.346 436.408C259.109 435.792 258.759 435.314 258.295 434.973C257.831 434.627 257.258 434.455 256.576 434.455C255.866 434.455 255.274 434.637 254.8 435.001C254.332 435.361 253.979 435.851 253.742 436.472C253.51 437.087 253.394 437.778 253.394 438.545C253.394 439.322 253.513 440.027 253.749 440.662C253.991 441.292 254.346 441.794 254.815 442.168C255.288 442.537 255.875 442.722 256.576 442.722ZM275.021 433.091V434.511H269.367V433.091H275.021ZM271.015 430.477H272.691V440.875C272.691 441.348 272.76 441.704 272.897 441.94C273.039 442.172 273.219 442.329 273.437 442.409C273.659 442.485 273.894 442.523 274.14 442.523C274.325 442.523 274.476 442.513 274.594 442.494C274.713 442.471 274.808 442.452 274.879 442.438L275.219 443.943C275.106 443.986 274.947 444.028 274.744 444.071C274.54 444.118 274.282 444.142 273.969 444.142C273.496 444.142 273.032 444.04 272.577 443.837C272.128 443.633 271.754 443.323 271.455 442.906C271.162 442.49 271.015 441.964 271.015 441.33V430.477ZM277.542 444V433.091H279.161V434.739H279.275C279.474 434.199 279.834 433.761 280.354 433.425C280.875 433.089 281.462 432.92 282.116 432.92C282.239 432.92 282.393 432.923 282.577 432.928C282.762 432.932 282.902 432.939 282.996 432.949V434.653C282.94 434.639 282.809 434.618 282.606 434.589C282.407 434.556 282.196 434.54 281.974 434.54C281.443 434.54 280.97 434.651 280.553 434.874C280.141 435.091 279.815 435.394 279.573 435.783C279.336 436.166 279.218 436.604 279.218 437.097V444H277.542ZM289.225 444.227C288.174 444.227 287.267 443.995 286.505 443.531C285.747 443.062 285.163 442.409 284.751 441.571C284.344 440.728 284.14 439.748 284.14 438.631C284.14 437.513 284.344 436.528 284.751 435.676C285.163 434.819 285.736 434.152 286.469 433.673C287.208 433.19 288.07 432.949 289.055 432.949C289.623 432.949 290.184 433.044 290.738 433.233C291.292 433.422 291.796 433.73 292.251 434.156C292.705 434.578 293.067 435.136 293.337 435.832C293.607 436.528 293.742 437.385 293.742 438.403V439.114H285.333V437.665H292.038C292.038 437.049 291.915 436.5 291.668 436.017C291.427 435.534 291.081 435.153 290.631 434.874C290.186 434.594 289.661 434.455 289.055 434.455C288.387 434.455 287.809 434.62 287.322 434.952C286.839 435.278 286.467 435.705 286.207 436.23C285.946 436.756 285.816 437.319 285.816 437.92V438.886C285.816 439.71 285.958 440.409 286.242 440.982C286.531 441.55 286.931 441.983 287.442 442.281C287.954 442.575 288.548 442.722 289.225 442.722C289.665 442.722 290.063 442.66 290.418 442.537C290.778 442.409 291.088 442.22 291.349 441.969C291.609 441.713 291.81 441.396 291.952 441.017L293.572 441.472C293.401 442.021 293.115 442.504 292.712 442.92C292.31 443.332 291.813 443.654 291.221 443.886C290.629 444.114 289.964 444.227 289.225 444.227ZM297.968 437.438V444H296.292V433.091H297.911V434.795H298.053C298.309 434.241 298.697 433.796 299.218 433.46C299.739 433.119 300.411 432.949 301.235 432.949C301.974 432.949 302.62 433.1 303.174 433.403C303.728 433.702 304.159 434.156 304.467 434.767C304.774 435.373 304.928 436.14 304.928 437.068V444H303.252V437.182C303.252 436.325 303.03 435.657 302.585 435.179C302.139 434.696 301.529 434.455 300.752 434.455C300.217 434.455 299.739 434.571 299.317 434.803C298.901 435.035 298.572 435.373 298.33 435.818C298.089 436.263 297.968 436.803 297.968 437.438ZM312.11 444.227C311.201 444.227 310.399 443.998 309.703 443.538C309.007 443.074 308.462 442.421 308.069 441.578C307.676 440.731 307.48 439.729 307.48 438.574C307.48 437.428 307.676 436.434 308.069 435.591C308.462 434.748 309.009 434.097 309.71 433.638C310.411 433.179 311.22 432.949 312.139 432.949C312.849 432.949 313.41 433.067 313.822 433.304C314.239 433.536 314.556 433.801 314.774 434.099C314.996 434.393 315.169 434.634 315.292 434.824H315.434V429.455H317.11V444H315.491V442.324H315.292C315.169 442.523 314.994 442.774 314.767 443.077C314.539 443.375 314.215 443.643 313.794 443.879C313.372 444.111 312.811 444.227 312.11 444.227ZM312.338 442.722C313.01 442.722 313.578 442.546 314.042 442.196C314.506 441.841 314.859 441.351 315.1 440.726C315.342 440.096 315.463 439.369 315.463 438.545C315.463 437.731 315.344 437.018 315.108 436.408C314.871 435.792 314.52 435.314 314.056 434.973C313.592 434.627 313.02 434.455 312.338 434.455C311.627 434.455 311.036 434.637 310.562 435.001C310.093 435.361 309.741 435.851 309.504 436.472C309.272 437.087 309.156 437.778 309.156 438.545C309.156 439.322 309.274 440.027 309.511 440.662C309.752 441.292 310.108 441.794 310.576 442.168C311.05 442.537 311.637 442.722 312.338 442.722ZM321.493 448.091C321.208 448.091 320.955 448.067 320.733 448.02C320.51 447.977 320.356 447.935 320.271 447.892L320.697 446.415C321.104 446.519 321.464 446.557 321.777 446.528C322.089 446.5 322.366 446.36 322.608 446.109C322.854 445.863 323.079 445.463 323.282 444.909L323.595 444.057L319.561 433.091H321.379L324.39 441.784H324.504L327.515 433.091H329.333L324.703 445.591C324.494 446.154 324.236 446.621 323.929 446.99C323.621 447.364 323.263 447.641 322.856 447.821C322.454 448.001 321.999 448.091 321.493 448.091ZM119.278 457.091V458.511H113.625V457.091H119.278ZM115.273 454.477H116.949V464.875C116.949 465.348 117.018 465.704 117.155 465.94C117.297 466.172 117.477 466.329 117.695 466.409C117.917 466.485 118.152 466.523 118.398 466.523C118.582 466.523 118.734 466.513 118.852 466.494C118.971 466.471 119.065 466.452 119.136 466.438L119.477 467.943C119.364 467.986 119.205 468.028 119.001 468.071C118.798 468.118 118.54 468.142 118.227 468.142C117.754 468.142 117.29 468.04 116.835 467.837C116.385 467.633 116.011 467.323 115.713 466.906C115.42 466.49 115.273 465.964 115.273 465.33V454.477ZM126.114 468.227C125.129 468.227 124.265 467.993 123.522 467.524C122.783 467.055 122.206 466.4 121.789 465.557C121.377 464.714 121.171 463.729 121.171 462.602C121.171 461.466 121.377 460.474 121.789 459.626C122.206 458.779 122.783 458.121 123.522 457.652C124.265 457.183 125.129 456.949 126.114 456.949C127.099 456.949 127.961 457.183 128.7 457.652C129.443 458.121 130.021 458.779 130.433 459.626C130.849 460.474 131.058 461.466 131.058 462.602C131.058 463.729 130.849 464.714 130.433 465.557C130.021 466.4 129.443 467.055 128.7 467.524C127.961 467.993 127.099 468.227 126.114 468.227ZM126.114 466.722C126.862 466.722 127.478 466.53 127.961 466.146C128.444 465.763 128.801 465.259 129.033 464.634C129.265 464.009 129.381 463.331 129.381 462.602C129.381 461.873 129.265 461.194 129.033 460.564C128.801 459.934 128.444 459.425 127.961 459.037C127.478 458.649 126.862 458.455 126.114 458.455C125.366 458.455 124.751 458.649 124.268 459.037C123.785 459.425 123.427 459.934 123.195 460.564C122.963 461.194 122.847 461.873 122.847 462.602C122.847 463.331 122.963 464.009 123.195 464.634C123.427 465.259 123.785 465.763 124.268 466.146C124.751 466.53 125.366 466.722 126.114 466.722ZM138.048 468.227C137.063 468.227 136.199 467.993 135.456 467.524C134.717 467.055 134.139 466.4 133.723 465.557C133.311 464.714 133.105 463.729 133.105 462.602C133.105 461.466 133.311 460.474 133.723 459.626C134.139 458.779 134.717 458.121 135.456 457.652C136.199 457.183 137.063 456.949 138.048 456.949C139.033 456.949 139.895 457.183 140.633 457.652C141.377 458.121 141.954 458.779 142.366 459.626C142.783 460.474 142.991 461.466 142.991 462.602C142.991 463.729 142.783 464.714 142.366 465.557C141.954 466.4 141.377 467.055 140.633 467.524C139.895 467.993 139.033 468.227 138.048 468.227ZM138.048 466.722C138.796 466.722 139.412 466.53 139.895 466.146C140.377 465.763 140.735 465.259 140.967 464.634C141.199 464.009 141.315 463.331 141.315 462.602C141.315 461.873 141.199 461.194 140.967 460.564C140.735 459.934 140.377 459.425 139.895 459.037C139.412 458.649 138.796 458.455 138.048 458.455C137.3 458.455 136.684 458.649 136.201 459.037C135.718 459.425 135.361 459.934 135.129 460.564C134.897 461.194 134.781 461.873 134.781 462.602C134.781 463.331 134.897 464.009 135.129 464.634C135.361 465.259 135.718 465.763 136.201 466.146C136.684 466.53 137.3 466.722 138.048 466.722ZM147.226 453.455V468H145.55V453.455H147.226ZM158.023 459.534L156.517 459.96C156.423 459.709 156.283 459.465 156.098 459.229C155.918 458.987 155.672 458.788 155.36 458.632C155.047 458.476 154.647 458.398 154.159 458.398C153.492 458.398 152.935 458.552 152.49 458.859C152.05 459.162 151.83 459.548 151.83 460.017C151.83 460.434 151.981 460.763 152.284 461.004C152.587 461.246 153.061 461.447 153.705 461.608L155.324 462.006C156.3 462.242 157.026 462.605 157.505 463.092C157.983 463.575 158.222 464.198 158.222 464.96C158.222 465.585 158.042 466.144 157.682 466.636C157.327 467.129 156.83 467.517 156.191 467.801C155.551 468.085 154.808 468.227 153.961 468.227C152.848 468.227 151.927 467.986 151.198 467.503C150.469 467.02 150.007 466.314 149.813 465.386L151.404 464.989C151.555 465.576 151.842 466.016 152.263 466.31C152.689 466.603 153.246 466.75 153.932 466.75C154.713 466.75 155.334 466.584 155.793 466.253C156.257 465.917 156.489 465.514 156.489 465.045C156.489 464.667 156.356 464.349 156.091 464.094C155.826 463.833 155.419 463.639 154.87 463.511L153.051 463.085C152.052 462.848 151.319 462.482 150.85 461.984C150.386 461.482 150.154 460.855 150.154 460.102C150.154 459.487 150.327 458.942 150.672 458.469C151.023 457.995 151.498 457.624 152.1 457.354C152.706 457.084 153.392 456.949 154.159 456.949C155.239 456.949 156.087 457.186 156.702 457.659C157.322 458.133 157.763 458.758 158.023 459.534Z" fill="#1C1C1C"/>
<g clip-path="url(#clip0_579_3)">
<path d="M93 433C93 439.206 91.3372 445.026 88.4273 450.036C88.3179 450.226 88.2012 450.416 88.0845 450.605C87.8147 451.057 87.5302 451.51 87.2312 451.947C87.1073 452.13 86.9833 452.312 86.8447 452.494C82.4106 458.846 75.8468 463.587 68.2038 465.738C68.0433 465.782 67.8756 465.826 67.7151 465.87C64.9365 466.606 62.012 467 59 467C47.251 467 36.8876 461.042 30.7979 451.976C30.2218 451.138 29.6894 450.263 29.2008 449.373C26.5242 444.516 25 438.937 25 433C25 414.221 40.2205 399 59 399C77.7795 399 93 414.221 93 433Z" fill="#EDDDD6"/>
<path d="M44.4278 428.369C44.4278 428.369 40.7886 409.043 54.9297 405.505C69.0709 401.968 69.9242 422.039 69.9242 422.039C69.9242 422.039 85.3124 424.971 85.4145 439.936C85.5385 458.642 67.4664 455.492 67.4664 455.492L50.3424 448.52C50.3424 448.52 33.1893 439.177 44.4351 428.369H44.4278Z" fill="#1C1C1C"/>
<path d="M86.8456 452.494C82.4114 458.846 75.8477 463.587 68.2047 465.738C68.0442 465.782 67.8765 465.826 67.716 465.87C64.9374 466.606 62.0129 467 59.0009 467C47.2519 467 36.8885 461.042 30.7988 451.976C35.3643 445.734 41.0893 441.008 44.9837 439.33C50.7452 436.851 59.8833 435.188 68.3214 437.602C68.3432 437.609 68.3724 437.609 68.4016 437.617C70.9395 438.346 73.4046 439.44 75.7019 440.993C80.6684 444.348 84.2857 448.242 86.8456 452.494Z" fill="#FF5223"/>
<path d="M52.3203 431.731V431.935L52.4953 435.83L52.6193 438.886C52.6193 438.886 52.3568 439.593 55.9158 439.367C60.6781 439.039 62.2169 436.997 62.2169 436.997L62.4211 429.835L60.9771 430.112L52.3276 431.731H52.3203Z" fill="#FCA397"/>
<path d="M52.3203 431.942L52.4953 435.837C54.8072 435.552 59.0226 434.553 60.7292 430.914C60.8604 430.615 60.9479 430.353 60.9771 430.134L52.3422 431.891L52.3276 431.95L52.3203 431.942Z" fill="#1C1C1C"/>
<path d="M50.809 413.302C50.809 413.302 46.3749 423.439 47.972 429.142C49.5692 434.838 54.7618 433.941 57.8613 432.84C60.9682 431.738 62.4049 429.835 62.4049 429.835C62.4049 429.835 65.3075 430.82 67.2474 428.121C69.1874 425.423 67.9913 422.323 66.3358 421.616C64.6803 420.908 62.7112 422.104 62.7112 422.104L64.2573 419.158C64.2573 419.158 57.7592 404.178 50.8017 413.309L50.809 413.302Z" fill="#FCA397"/>
<path d="M52.1889 411.799C52.1889 411.799 51.868 417.196 57.294 419.646C62.72 422.097 66.3447 421.616 66.3447 421.616L65.9946 414.578L59.1975 407.197L53.1224 409.13L52.1816 411.799H52.1889Z" fill="#1C1C1C"/>
<path d="M62.3555 420.543L62.3773 423.614L65.1122 420.915L62.3555 420.543Z" fill="#1C1C1C"/>
<path d="M88.0842 450.605C87.8144 451.058 87.5299 451.51 87.2309 451.947C87.107 452.13 86.983 452.312 86.8444 452.494C82.4103 458.846 75.8465 463.587 68.2035 465.738C68.043 465.782 67.8753 465.826 67.7148 465.87L68.1816 437.58C68.1816 437.58 68.2326 437.587 68.3202 437.602C68.342 437.609 68.3712 437.609 68.4004 437.617C70.0778 437.901 81.0683 440.074 86.9684 448.724C87.3695 449.3 87.7341 449.934 88.0842 450.605Z" fill="#FF5223"/>
<path d="M54.8874 439.79C52.7433 439.79 51.1388 439.403 51.0075 439.374C50.8106 439.323 50.6939 439.126 50.7377 438.937C50.7887 438.74 50.9856 438.623 51.1753 438.667C51.2409 438.681 57.666 440.213 62.0783 436.997C62.2388 436.88 62.4721 436.916 62.5888 437.077C62.7055 437.237 62.669 437.471 62.5086 437.587C60.0873 439.352 57.1701 439.79 54.8801 439.79H54.8874Z" fill="#7772D3"/>
<path d="M49.5558 417.007C49.4027 417.007 49.2568 416.905 49.2058 416.751C49.1474 416.562 49.2495 416.358 49.4465 416.292L51.4666 415.657C51.6562 415.599 51.8604 415.701 51.9261 415.898C51.9844 416.088 51.8823 416.292 51.6854 416.358L49.6652 416.992C49.6652 416.992 49.5923 417.007 49.5558 417.007Z" fill="#1C1C1C"/>
<path d="M62.9305 426.83C62.8356 426.83 62.7335 426.794 62.6606 426.713C62.522 426.568 62.5366 426.334 62.6825 426.196L65.8112 423.322C65.9571 423.184 66.1904 423.198 66.329 423.344C66.4676 423.49 66.453 423.723 66.3071 423.862L63.1784 426.735C63.1055 426.801 63.018 426.83 62.9305 426.83Z" fill="#1C1C1C"/>
<path d="M66.0956 426.451C66.0446 426.451 65.9935 426.444 65.9498 426.422L64.0828 425.605C63.9004 425.525 63.8129 425.306 63.8931 425.124C63.9734 424.941 64.1922 424.854 64.3745 424.934L66.2415 425.751C66.4238 425.831 66.5113 426.05 66.4311 426.232C66.3728 426.371 66.2342 426.451 66.0956 426.451Z" fill="#1C1C1C"/>
<path d="M50.1751 422.119C50.1751 422.119 50.124 422.119 50.1022 422.112C49.9053 422.068 49.7813 421.878 49.8177 421.681L50.1897 419.887L49.4604 419.041C49.3291 418.888 49.3437 418.662 49.4968 418.523C49.65 418.392 49.8761 418.407 50.0146 418.56L50.8679 419.544C50.9409 419.632 50.97 419.749 50.9482 419.858L50.5397 421.827C50.5033 422.002 50.3501 422.119 50.1824 422.119H50.1751Z" fill="#1C1C1C"/>
<path d="M56.2942 422.432C56.2942 422.432 56.2432 422.432 56.2213 422.425C56.0244 422.381 55.9004 422.192 55.9369 421.995L56.3088 420.201L55.5795 419.355C55.4482 419.201 55.4628 418.975 55.616 418.837C55.7691 418.706 55.9952 418.72 56.1338 418.873L56.9871 419.858C57.06 419.945 57.0892 420.062 57.0673 420.171L56.6589 422.141C56.6224 422.316 56.4693 422.432 56.3015 422.432H56.2942Z" fill="#1C1C1C"/>
<path d="M51.3866 426.567C51.2188 426.567 51.0657 426.451 51.0292 426.276C50.3509 423.03 51.9189 421.397 51.9846 421.331C52.1231 421.185 52.3565 421.185 52.5024 421.331C52.6482 421.47 52.6482 421.703 52.5024 421.849C52.444 421.915 51.1459 423.3 51.7366 426.13C51.7804 426.327 51.6491 426.524 51.4522 426.56C51.4303 426.56 51.4011 426.567 51.3793 426.567H51.3866Z" fill="#1C1C1C"/>
<path d="M54.683 429.689C54.4642 429.689 53.9464 429.587 52.8671 428.391C52.7431 428.252 52.6993 428.063 52.7431 427.887C52.7941 427.705 52.94 427.559 53.1296 427.501C55.7332 426.721 56.0833 426.99 56.2364 427.1C56.3677 427.195 56.5646 427.435 56.4188 427.917C56.2219 428.58 55.3904 429.638 54.7487 429.674C54.7341 429.674 54.7122 429.674 54.683 429.674V429.689ZM53.6182 428.128C54.2017 428.733 54.6174 428.952 54.7049 428.96C54.7705 428.96 55.0112 428.814 55.3102 428.434C55.5655 428.114 55.6968 427.829 55.7332 427.683C55.5217 427.705 54.8799 427.756 53.6182 428.121V428.128Z" fill="#1C1C1C"/>
<path d="M42.5333 450.445C42.4968 450.489 39.0108 454.223 39.6744 460.94C39.4629 460.808 39.266 460.663 39.0618 460.517C39.0035 460.48 38.9524 460.437 38.8941 460.393C38.4638 453.727 41.9644 450 42.0082 449.949C42.1467 449.803 42.3728 449.803 42.526 449.935C42.6718 450.073 42.6718 450.307 42.526 450.452L42.5333 450.445Z" fill="#7772D3"/>
</g>
<circle cx="32" cy="32" r="31.5" transform="matrix(1 0 0 -1 698 195)" fill="#4767F6" stroke="#4767F6"/>
<circle cx="5" cy="5" r="5" transform="matrix(1 0 0 -1 708 158)" fill="#F7734F"/>
<circle cx="77" cy="77" r="77" transform="matrix(1 0 0 -1 788 498.698)" fill="#FF5223"/>
<path fill-rule="evenodd" clip-rule="evenodd" d="M970.5 185C1016.06 185 1053 221.937 1053 267.5C1053 313.063 1016.06 350 970.5 350C924.937 350 888 313.063 888 267.5C888 221.937 924.937 185 970.5 185ZM970 196C1009.76 196 1042 228.235 1042 268C1042 307.765 1009.76 340 970 340C930.235 340 898 307.765 898 268C898 228.235 930.235 196 970 196Z" fill="#FF5223"/>
<rect width="115.966" height="115.966" transform="matrix(0.730612 -0.682793 -0.682793 -0.730612 734.18 356.604)" fill="#F0027F"/>
<path d="M940.632 329.942L940.643 329.954L940.653 329.965L953.81 344.28L943.748 360.916L943.74 360.929L943.732 360.942L934.184 377.879L915.253 373.45L915.238 373.446L915.223 373.443L896.164 369.596L894.527 350.223L894.526 350.207L894.524 350.192L892.293 330.878L910.212 323.334L910.227 323.328L910.24 323.321L927.92 315.231L940.632 329.942Z" fill="#4767F6" stroke="#4767F6" stroke-width="2"/>
<path d="M795.542 341.365L795.554 341.374L795.567 341.383L841.112 373.418L823.095 426.107L823.09 426.121L823.085 426.136L806.693 479.352L751.015 478.498L751 478.498L750.985 478.498L695.307 479.352L678.915 426.136L678.91 426.121L678.905 426.107L660.888 373.418L706.433 341.383L706.446 341.374L706.458 341.365L751 307.948L795.542 341.365Z" stroke="#4767F6" stroke-width="2"/>
<g filter="url(#filter1_d_579_3)">
<rect x="980" y="236" width="209" height="206" rx="10" fill="#F0027F"/>
</g>
<path d="M1021.2 363.729V356.551H1041.85V363.729C1041.95 367.83 1043.85 370.467 1047.56 371.639C1047.96 371.834 1048.3 371.932 1048.59 371.932V392.732C1043.22 392.732 1037.8 390.633 1032.33 386.434C1025.01 380.672 1021.29 373.104 1021.2 363.729ZM1056.5 392.732V371.932C1058.26 371.932 1060.11 371.102 1062.07 369.441C1063.73 367.879 1064.61 365.975 1064.7 363.729V289.461H1085.21V363.729C1085.21 374.568 1080.38 382.771 1070.71 388.338C1065.73 391.268 1060.99 392.732 1056.5 392.732ZM1092.1 358.309V339.705H1110.11V319.051H1128.72V339.705H1147.03V358.309H1128.72V379.256H1110.11V358.309H1092.1Z" fill="white"/>
<defs>
<filter id="filter0_d_579_3" x="0" y="378" width="413" height="117" filterUnits="userSpaceOnUse" color-interpolation-filters="sRGB">
<feFlood flood-opacity="0" result="BackgroundImageFix"/>
<feColorMatrix in="SourceAlpha" type="matrix" values="0 0 0 0 0 0 0 0 0 0 0 0 0 0 0 0 0 0 127 0" result="hardAlpha"/>
<feOffset dy="4"/>
<feGaussianBlur stdDeviation="2"/>
<feComposite in2="hardAlpha" operator="out"/>
<feColorMatrix type="matrix" values="0 0 0 0 0 0 0 0 0 0 0 0 0 0 0 0 0 0 0.2 0"/>
<feBlend mode="normal" in2="BackgroundImageFix" result="effect1_dropShadow_579_3"/>
<feBlend mode="normal" in="SourceGraphic" in2="effect1_dropShadow_579_3" result="shape"/>
</filter>
<filter id="filter1_d_579_3" x="976" y="236" width="217" height="214" filterUnits="userSpaceOnUse" color-interpolation-filters="sRGB">
<feFlood flood-opacity="0" result="BackgroundImageFix"/>
<feColorMatrix in="SourceAlpha" type="matrix" values="0 0 0 0 0 0 0 0 0 0 0 0 0 0 0 0 0 0 127 0" result="hardAlpha"/>
<feOffset dy="4"/>
<feGaussianBlur stdDeviation="2"/>
<feComposite in2="hardAlpha" operator="out"/>
<feColorMatrix type="matrix" values="0 0 0 0 0 0 0 0 0 0 0 0 0 0 0 0 0 0 0.2 0"/>
<feBlend mode="normal" in2="BackgroundImageFix" result="effect1_dropShadow_579_3"/>
<feBlend mode="normal" in="SourceGraphic" in2="effect1_dropShadow_579_3" result="shape"/>
</filter>
<clipPath id="clip0_579_3">
<rect width="68" height="68" fill="white" transform="translate(25 399)"/>
</clipPath>
</defs>
</svg>
