<svg width="465" height="345" viewBox="0 0 465 345" fill="none" xmlns="http://www.w3.org/2000/svg">
<rect width="465" height="345" fill="#F5F5F5"/>
<g id="technology 1" clip-path="url(#clip0_0_1)">
<g id="Next">
<g id="Group" filter="url(#filter0_d_0_1)">
<path id="Vector" d="M124 0H16C10.4772 0 6 4.47715 6 10V118C6 123.523 10.4772 128 16 128H124C129.523 128 134 123.523 134 118V10C134 4.47715 129.523 0 124 0Z" fill="white"/>
</g>
<g id="Clip path group">
<mask id="mask0_0_1" style="mask-type:luminance" maskUnits="userSpaceOnUse" x="24" y="54" width="92" height="19">
<g id="clip0_1865_1780">
<path id="Vector_2" d="M116 54H24V73H116V54Z" fill="white"/>
</g>
</mask>
<g mask="url(#mask0_0_1)">
<g id="Group 319">
<g id="Group_2">
<path id="Vector_3" fill-rule="evenodd" clip-rule="evenodd" d="M85.1584 54.0074H101.183V57.0372H94.8256V72.9779H91.6469V57.0372H85.1584V54.0074ZM114.527 67.0434C114.492 66.7084 114.341 66.4452 114.079 66.2574C113.813 66.0678 113.472 65.9739 113.051 65.9739C112.757 65.9739 112.503 66.02 112.291 66.1102C112.081 66.2003 111.917 66.3218 111.804 66.4765C111.693 66.6311 111.637 66.8078 111.632 67.0047C111.632 67.1704 111.671 67.314 111.747 67.4336C111.822 67.5551 111.923 67.6582 112.054 67.741C112.183 67.8257 112.327 67.8938 112.485 67.9509C112.645 68.0079 112.803 68.0558 112.963 68.0945L113.698 68.2785C113.993 68.3485 114.279 68.4424 114.554 68.562C114.827 68.6798 115.075 68.8289 115.292 69.0093C115.509 69.1897 115.682 69.4069 115.808 69.6609C115.935 69.9168 116 70.215 116 70.5574C116 71.0212 115.883 71.428 115.65 71.7796C115.414 72.1293 115.076 72.4036 114.633 72.6006C114.191 72.7975 113.657 72.8969 113.028 72.8969C112.421 72.8969 111.891 72.8012 111.445 72.6098C110.997 72.4202 110.647 72.1422 110.396 71.7778C110.144 71.4115 110.009 70.966 109.989 70.4414H111.384C111.404 70.7157 111.49 70.9439 111.637 71.1298C111.785 71.3121 111.979 71.4464 112.216 71.5385C112.455 71.6268 112.722 71.6728 113.017 71.6728C113.324 71.6728 113.596 71.625 113.831 71.5311C114.063 71.4372 114.246 71.3084 114.377 71.1372C114.512 70.9715 114.579 70.7727 114.58 70.5463C114.579 70.3401 114.518 70.169 114.403 70.0327C114.284 69.8984 114.12 69.7861 113.91 69.6941C113.7 69.6039 113.454 69.521 113.174 69.4492L112.282 69.2191C111.639 69.0516 111.129 68.7958 110.755 68.4552C110.381 68.1129 110.196 67.6619 110.196 67.0949C110.196 66.6292 110.32 66.2206 110.573 65.8709C110.823 65.5211 111.165 65.2487 111.598 65.0554C112.033 64.8603 112.523 64.7646 113.071 64.7646C113.626 64.7646 114.113 64.8603 114.534 65.0554C114.952 65.2487 115.283 65.5174 115.522 65.8617C115.761 66.2059 115.885 66.5979 115.892 67.0434H114.527ZM107.323 64.8713H108.732V70.4285C108.73 70.9402 108.622 71.3765 108.41 71.7446C108.198 72.1128 107.901 72.3926 107.524 72.5895C107.147 72.7865 106.705 72.8859 106.203 72.8859C105.745 72.8859 105.334 72.8012 104.967 72.6355C104.601 72.4699 104.31 72.2232 104.098 71.8974C103.882 71.5698 103.776 71.1648 103.776 70.677H105.186C105.188 70.8905 105.237 71.0746 105.327 71.2292C105.416 71.3838 105.542 71.5016 105.7 71.5845C105.862 71.6673 106.049 71.7078 106.257 71.7078C106.484 71.7078 106.676 71.66 106.834 71.5624C106.99 71.4667 107.113 71.3231 107.195 71.1317C107.278 70.9421 107.321 70.7083 107.323 70.4285V64.8713ZM101.898 72.8619C101.665 72.8619 101.467 72.7791 101.302 72.6134C101.136 72.4496 101.054 72.249 101.055 72.0115C101.054 71.7814 101.136 71.5845 101.302 71.4188C101.467 71.2531 101.665 71.1703 101.898 71.1703C102.123 71.1703 102.319 71.2531 102.484 71.4188C102.651 71.5845 102.735 71.7814 102.737 72.0115C102.735 72.168 102.698 72.3116 102.619 72.4404C102.54 72.5711 102.439 72.6723 102.311 72.7478C102.186 72.8233 102.049 72.8619 101.898 72.8619ZM42.7809 72.8362L27.9729 54H24V72.9705H27.1787V58.0551L38.8979 72.9779H58.8037V69.9481H45.9578V64.9413H56.288V61.9115H45.9578V57.0372H58.8037V54.0074H42.7791V57.0372H42.7809V72.8362ZM71.0745 67.5662L68.9902 64.9118L62.6346 73H66.8052L71.0745 67.5662ZM66.8052 54.0166H62.6454L77.5451 72.9853H81.7156L74.2658 63.5074L81.7048 54.0295L77.5451 54.0368L72.1832 60.8586L66.8052 54.0166Z" fill="#1C1C1C"/>
</g>
</g>
</g>
</g>
</g>
<g id="Gatsby">
<g id="Group_3" filter="url(#filter1_d_0_1)">
<path id="Vector_4" d="M289 45H181C175.477 45 171 49.4772 171 55V163C171 168.523 175.477 173 181 173H289C294.523 173 299 168.523 299 163V55C299 49.4772 294.523 45 289 45Z" fill="white"/>
</g>
<path id="Vector_5" d="M291 70C303.15 70 313 59.9264 313 47.5C313 35.0736 303.15 25 291 25C278.85 25 269 35.0736 269 47.5C269 59.9264 278.85 70 291 70Z" fill="#FF5223"/>
<g id="Clip path group_2">
<mask id="mask1_0_1" style="mask-type:luminance" maskUnits="userSpaceOnUse" x="175" y="92" width="120" height="34">
<g id="clip1_1865_1780">
<path id="Vector_6" d="M295 92H175V126H295V92Z" fill="white"/>
</g>
</mask>
<g mask="url(#mask1_0_1)">
<g id="Group_4">
<path id="Vector_7" d="M245.63 106.75H248.43V116.75H245.63V115.45C244.63 116.95 243.33 117.05 242.53 117.05C239.43 117.05 237.43 114.65 237.43 111.75C237.43 108.75 239.43 106.45 242.33 106.45C243.13 106.45 244.63 106.55 245.53 108.05V106.75H245.63ZM240.43 111.75C240.43 113.35 241.53 114.55 243.23 114.55C243.601 114.56 243.969 114.494 244.313 114.357C244.657 114.219 244.97 114.013 245.232 113.752C245.494 113.49 245.7 113.177 245.837 112.833C245.974 112.489 246.04 112.121 246.03 111.75C246.03 110.15 244.93 108.95 243.23 108.95C242.86 108.941 242.492 109.006 242.148 109.144C241.804 109.281 241.491 109.487 241.229 109.749C240.967 110.011 240.761 110.323 240.624 110.667C240.487 111.011 240.421 111.38 240.43 111.75ZM253.93 109.15V116.75H251.13V109.15H250.03V106.75H251.13V103.35H253.93V106.75H255.83V109.15H253.93ZM262.43 109.15C261.73 108.55 261.13 108.45 260.83 108.45C260.13 108.45 259.73 108.75 259.73 109.25C259.73 109.55 259.83 109.85 260.63 110.15L261.33 110.35C262.13 110.65 263.33 110.95 263.83 111.75C264.13 112.15 264.33 112.75 264.33 113.45C264.33 114.35 264.03 115.25 263.23 115.95C262.43 116.65 261.43 117.05 260.23 117.05C258.13 117.05 257.03 116.05 256.33 115.35L257.83 113.65C258.43 114.25 259.23 114.85 260.03 114.85C260.83 114.85 261.43 114.45 261.43 113.75C261.43 113.15 260.93 112.85 260.53 112.75L259.93 112.55C259.23 112.25 258.43 111.95 257.83 111.35C257.33 110.85 257.03 110.25 257.03 109.45C257.03 108.45 257.53 107.65 258.03 107.15C258.83 106.55 259.83 106.45 260.63 106.45C261.33 106.45 262.53 106.55 263.83 107.55L262.43 109.15ZM268.53 108.05C269.53 106.65 270.93 106.45 271.73 106.45C274.63 106.45 276.63 108.75 276.63 111.75C276.63 114.75 274.63 117.05 271.63 117.05C271.03 117.05 269.53 116.95 268.43 115.45V116.75H265.73V99.9502H268.53V108.05ZM268.23 111.75C268.23 113.35 269.33 114.55 271.03 114.55C271.401 114.56 271.769 114.494 272.113 114.357C272.457 114.219 272.77 114.013 273.032 113.752C273.294 113.49 273.5 113.177 273.637 112.833C273.774 112.489 273.84 112.121 273.83 111.75C273.83 110.15 272.73 108.95 271.03 108.95C269.33 108.95 268.23 110.15 268.23 111.75ZM281.23 115.25L276.43 106.75H279.73L282.83 112.45L285.63 106.75H288.83L280.83 122.05H277.63L281.23 115.25ZM236.73 108.45H229.73V111.25H233.43C232.83 113.15 231.43 114.45 228.83 114.45C225.93 114.45 223.83 112.05 223.83 109.15C223.83 106.25 225.83 103.75 228.73 103.75C230.33 103.75 231.93 104.55 232.93 105.85L235.23 104.35C233.73 102.25 231.33 101.05 228.73 101.05C224.33 101.05 220.73 104.65 220.73 109.15C220.73 113.65 224.13 117.25 228.73 117.25C233.33 117.25 236.73 113.65 236.73 109.15C236.83 108.85 236.73 108.65 236.73 108.45Z" fill="#1C1C1C"/>
<path id="Vector_8" d="M211.752 109H203.19V111.447H209.062C208.206 115.117 205.514 118.175 201.967 119.399L187.897 105.33C189.365 101.048 193.524 97.9999 198.295 97.9999C201.965 97.9999 205.268 99.8349 207.348 102.65L209.183 101.05C206.736 97.7469 202.823 95.5449 198.295 95.5449C191.935 95.5449 186.551 100.071 185.195 106.065L201.343 122.213C207.226 120.744 211.752 115.36 211.752 109ZM184.838 109.122C184.838 112.547 186.184 115.85 188.753 118.419C191.322 120.988 194.747 122.334 198.05 122.334L184.838 109.122Z" fill="white"/>
<path id="Vector_9" d="M198.295 91.873C188.875 91.873 181.168 99.58 181.168 109C181.168 118.42 188.875 126.127 198.295 126.127C207.715 126.127 215.422 118.42 215.422 109C215.422 99.58 207.715 91.873 198.295 91.873ZM188.753 118.543C186.183 115.973 184.838 112.549 184.838 109.246L198.172 122.458C194.747 122.336 191.322 121.112 188.752 118.543H188.753ZM201.23 122.1L185.205 106.064C186.551 100.07 191.933 95.544 198.305 95.544C202.831 95.544 206.745 97.746 209.193 101.049L207.358 102.649C205.278 99.835 201.975 97.999 198.305 97.999C193.535 97.999 189.497 101.057 187.907 105.339L201.975 119.407C205.523 118.184 208.215 115.125 209.07 111.455H203.19V109H211.753C211.753 115.36 207.227 120.744 201.233 122.1H201.23Z" fill="#663399"/>
</g>
</g>
</g>
</g>
<g id="Nuxt">
<g id="Group_5" filter="url(#filter2_d_0_1)">
<path id="Vector_10" d="M449 117H341C335.477 117 331 121.477 331 127V235C331 240.523 335.477 245 341 245H449C454.523 245 459 240.523 459 235V127C459 121.477 454.523 117 449 117Z" fill="white"/>
</g>
<path id="Vector_11" d="M383.789 177.174C383.863 177.252 383.921 177.343 383.959 177.443C383.998 177.543 384.015 177.65 384.012 177.758V188.972C384.015 189.091 383.995 189.209 383.952 189.32C383.909 189.431 383.844 189.533 383.762 189.619C383.68 189.705 383.581 189.773 383.471 189.818C383.361 189.863 383.243 189.885 383.124 189.881C382.989 189.882 382.855 189.86 382.727 189.818C382.61 189.782 382.504 189.715 382.422 189.624L375.157 180.164V189.069C375.163 189.278 375.086 189.481 374.943 189.634C374.8 189.786 374.602 189.875 374.393 189.881C374.377 189.882 374.361 189.882 374.345 189.881C374.238 189.886 374.132 189.867 374.034 189.827C373.935 189.787 373.846 189.727 373.772 189.65C373.698 189.573 373.641 189.482 373.603 189.382C373.565 189.282 373.548 189.176 373.551 189.069V177.831C373.549 177.713 373.571 177.595 373.616 177.485C373.661 177.376 373.728 177.277 373.814 177.195C373.894 177.113 373.99 177.049 374.097 177.006C374.203 176.963 374.317 176.942 374.431 176.946C374.577 176.945 374.722 176.973 374.857 177.027C374.98 177.075 375.088 177.155 375.17 177.258L382.404 186.739V177.758C382.401 177.654 382.418 177.551 382.455 177.454C382.491 177.357 382.547 177.269 382.618 177.193C382.689 177.118 382.774 177.057 382.868 177.015C382.962 176.972 383.064 176.949 383.168 176.946C383.184 176.945 383.2 176.945 383.216 176.946C383.322 176.942 383.428 176.96 383.526 176.999C383.625 177.039 383.714 177.098 383.789 177.174ZM398.714 177.174C398.871 177.349 398.954 177.578 398.945 177.813V184.907C398.96 185.824 398.737 186.73 398.298 187.535C397.883 188.295 397.265 188.925 396.514 189.356C395.736 189.803 394.852 190.033 393.955 190.023C393.049 190.038 392.156 189.812 391.367 189.369C390.612 188.94 389.992 188.309 389.574 187.548C389.136 186.743 388.913 185.837 388.928 184.92V177.826C388.925 177.707 388.946 177.589 388.992 177.479C389.037 177.369 389.105 177.269 389.191 177.187C389.279 177.101 389.383 177.034 389.497 176.989C389.611 176.944 389.733 176.922 389.856 176.925C389.971 176.925 390.086 176.948 390.192 176.993C390.299 177.038 390.395 177.104 390.476 177.187C390.561 177.268 390.628 177.365 390.673 177.474C390.719 177.582 390.741 177.698 390.738 177.815V184.91C390.729 185.516 390.882 186.113 391.182 186.639C391.461 187.129 391.864 187.537 392.351 187.821C392.837 188.105 393.391 188.254 393.955 188.255C394.531 188.259 395.098 188.112 395.6 187.829C396.106 187.55 396.527 187.138 396.819 186.639C397.124 186.114 397.28 185.517 397.271 184.91V177.815C397.262 177.582 397.341 177.355 397.491 177.177C397.568 177.091 397.663 177.023 397.768 176.978C397.874 176.932 397.989 176.91 398.104 176.914C398.218 176.911 398.331 176.933 398.437 176.978C398.542 177.023 398.636 177.09 398.714 177.174ZM412.937 188.552C413.048 188.704 413.106 188.889 413.102 189.077C413.107 189.195 413.086 189.312 413.041 189.42C412.995 189.529 412.927 189.626 412.84 189.705C412.677 189.859 412.462 189.945 412.238 189.944C412.097 189.95 411.956 189.919 411.83 189.854C411.704 189.79 411.597 189.694 411.518 189.576L407.926 184.781L404.416 189.569C404.338 189.688 404.231 189.787 404.105 189.854C403.979 189.922 403.839 189.956 403.696 189.955C403.591 189.957 403.486 189.938 403.389 189.898C403.292 189.858 403.204 189.799 403.131 189.724C403.058 189.657 403 189.575 402.96 189.485C402.921 189.395 402.9 189.297 402.9 189.198C402.904 188.976 402.982 188.761 403.123 188.588L406.912 183.43L403.105 178.312C402.986 178.162 402.92 177.977 402.918 177.786C402.916 177.669 402.938 177.553 402.983 177.444C403.028 177.336 403.096 177.239 403.181 177.158C403.262 177.075 403.358 177.009 403.464 176.964C403.571 176.919 403.685 176.896 403.801 176.896C403.939 176.896 404.074 176.929 404.198 176.99C404.328 177.052 404.439 177.147 404.521 177.266L408.071 182.035L411.587 177.313C411.663 177.195 411.767 177.096 411.889 177.025C412.01 176.954 412.147 176.914 412.288 176.906C412.398 176.906 412.507 176.93 412.608 176.975C412.708 177.021 412.798 177.086 412.872 177.169C412.951 177.24 413.016 177.327 413.061 177.424C413.106 177.521 413.131 177.626 413.134 177.733C413.128 177.923 413.064 178.107 412.95 178.259L409.093 183.394L412.937 188.552ZM426.272 177.174C426.358 177.252 426.426 177.348 426.471 177.455C426.517 177.563 426.538 177.678 426.535 177.794C426.538 177.909 426.516 178.023 426.471 178.128C426.426 178.233 426.358 178.328 426.272 178.404C426.094 178.554 425.867 178.633 425.634 178.625H422.344V188.996C422.346 189.113 422.324 189.23 422.279 189.338C422.233 189.446 422.166 189.543 422.081 189.624C421.895 189.79 421.655 189.882 421.406 189.882C421.157 189.882 420.916 189.79 420.731 189.624C420.646 189.543 420.579 189.446 420.534 189.337C420.488 189.229 420.466 189.113 420.468 188.996V178.625H417.186C416.952 178.633 416.724 178.552 416.55 178.396C416.467 178.317 416.401 178.22 416.358 178.113C416.315 178.006 416.295 177.891 416.3 177.776C416.297 177.664 416.317 177.552 416.36 177.448C416.403 177.344 416.468 177.251 416.55 177.174C416.724 177.019 416.952 176.937 417.186 176.946H425.634C425.868 176.937 426.097 177.019 426.272 177.174Z" fill="#2C4A5D"/>
<path id="Vector_12" d="M347.739 189.729C347.72 189.696 347.703 189.662 347.689 189.627C347.588 189.393 347.557 189.136 347.599 188.886H341.637L350.498 173.293L353.406 178.407L354.25 176.914L351.714 172.447C351.593 172.218 351.416 172.024 351.2 171.881C350.983 171.738 350.735 171.652 350.477 171.63C350.219 171.642 349.97 171.725 349.758 171.872C349.545 172.018 349.378 172.221 349.276 172.458L340.3 188.239C340.166 188.462 340.088 188.714 340.074 188.974C340.061 189.234 340.111 189.493 340.221 189.729C340.359 189.947 340.555 190.121 340.787 190.233C341.02 190.345 341.278 190.39 341.535 190.362H349.052C348.796 190.39 348.537 190.346 348.305 190.234C348.073 190.122 347.876 189.947 347.739 189.729Z" fill="#00C492"/>
<path id="Vector_13" d="M365.023 188.239L357.648 175.245C357.527 175.014 357.349 174.817 357.132 174.672C356.915 174.528 356.665 174.44 356.405 174.418C356.147 174.429 355.898 174.512 355.686 174.658C355.474 174.804 355.307 175.007 355.204 175.243L354.25 176.914L355.099 178.406L356.412 176.081L363.71 188.886H360.935C360.97 189.097 360.95 189.314 360.877 189.516C360.861 189.561 360.842 189.604 360.819 189.645L360.795 189.692C360.645 189.905 360.444 190.078 360.211 190.194C359.977 190.311 359.719 190.369 359.458 190.362H363.799C364.06 190.369 364.318 190.312 364.552 190.195C364.785 190.078 364.986 189.905 365.136 189.692C365.255 189.464 365.308 189.206 365.288 188.949C365.268 188.693 365.176 188.447 365.023 188.239Z" fill="#008776"/>
<path id="Vector_14" d="M360.795 189.692L360.818 189.645C360.841 189.604 360.861 189.561 360.876 189.516C360.95 189.315 360.97 189.097 360.934 188.886C360.893 188.657 360.811 188.438 360.692 188.239L355.103 178.407L354.249 176.914L353.401 178.407L347.814 188.239C347.706 188.441 347.633 188.66 347.599 188.886C347.554 189.136 347.582 189.393 347.68 189.627C347.695 189.662 347.712 189.696 347.73 189.729C347.868 189.947 348.065 190.122 348.297 190.233C348.529 190.345 348.788 190.39 349.044 190.363H359.449C359.712 190.37 359.971 190.313 360.206 190.196C360.441 190.079 360.643 189.906 360.795 189.692ZM354.249 179.899L359.357 188.886H349.144L354.249 179.899Z" fill="#2D4A5D"/>
</g>
<g id="Starpi">
<g id="Group_6" filter="url(#filter3_d_0_1)">
<path id="Vector_15" d="M289 205H181C175.477 205 171 209.477 171 215V323C171 328.523 175.477 333 181 333H289C294.523 333 299 328.523 299 323V215C299 209.477 294.523 205 289 205Z" fill="white"/>
</g>
<g id="Clip path group_3">
<mask id="mask2_0_1" style="mask-type:luminance" maskUnits="userSpaceOnUse" x="177" y="255" width="116" height="28">
<g id="clip2_1865_1780">
<path id="Vector_16" d="M293 255H177V283H293V255Z" fill="white"/>
</g>
</mask>
<g mask="url(#mask2_0_1)">
<g id="Group_7">
<path id="Vector_17" fill-rule="evenodd" clip-rule="evenodd" d="M200.63 258.872H184.719V266.937H192.548C192.827 266.937 193.053 267.166 193.053 267.448V275.254H201.136V259.384C201.136 259.248 201.083 259.118 200.988 259.022C200.893 258.926 200.765 258.872 200.63 258.872Z" fill="#8E75FF"/>
<path id="Vector_18" opacity="0.405" fill-rule="evenodd" clip-rule="evenodd" d="M184.717 258.872V266.937H177.253C177.15 266.937 177.058 266.875 177.019 266.779C176.98 266.683 177.002 266.572 177.075 266.5L184.717 258.872ZM193.483 282.889C193.41 282.962 193.302 282.983 193.208 282.943C193.114 282.903 193.053 282.81 193.052 282.707V275.254H201.135L193.483 282.888V282.889Z" fill="#8E75FF"/>
<path id="Vector_19" opacity="0.405" fill-rule="evenodd" clip-rule="evenodd" d="M184.717 266.938H192.8C192.939 266.938 193.052 267.051 193.052 267.192V275.254H185.223C184.944 275.254 184.718 275.025 184.718 274.743V266.938H184.717Z" fill="#8E75FF"/>
<path id="Vector_20" fill-rule="evenodd" clip-rule="evenodd" d="M282.637 258.363C283.089 258.815 283.622 259.04 284.237 259.04C284.872 259.04 285.415 258.815 285.866 258.363C286.318 257.911 286.543 257.379 286.543 256.764C286.543 256.15 286.318 255.612 285.866 255.151C285.442 254.701 284.852 254.45 284.237 254.459C283.622 254.459 283.089 254.689 282.637 255.15C282.186 255.612 281.96 256.149 281.96 256.765C281.96 257.379 282.186 257.911 282.637 258.363ZM233.632 264.257C233.632 264.303 233.593 264.343 233.546 264.343H230.373V270.337C230.373 270.836 230.499 271.201 230.748 271.432C230.998 271.663 231.363 271.792 231.844 271.821C232.283 271.848 232.819 271.846 233.452 271.816L233.541 271.811C233.564 271.81 233.587 271.818 233.604 271.835C233.621 271.851 233.631 271.873 233.631 271.897V275.101C233.631 275.145 233.598 275.182 233.555 275.186L233.497 275.193C231.012 275.457 229.255 275.212 228.226 274.457C227.179 273.689 226.656 272.315 226.656 270.337V264.343H224.232C224.185 264.343 224.147 264.304 224.147 264.257V260.855C224.147 260.809 224.185 260.769 224.232 260.769H226.655V258.391C226.655 258.322 226.695 258.261 226.757 258.233L230.254 256.695C230.28 256.683 230.311 256.685 230.335 256.701C230.36 256.717 230.374 256.744 230.374 256.773V260.769H233.546C233.592 260.769 233.631 260.808 233.631 260.855V264.257H233.632ZM240.374 263.248C240.719 262.326 241.291 261.634 242.088 261.173C242.874 260.72 243.764 260.482 244.669 260.482C244.716 260.482 244.754 260.52 244.754 260.569V264.476C244.754 264.516 244.738 264.553 244.709 264.58C244.68 264.606 244.641 264.619 244.602 264.615C243.53 264.518 242.566 264.754 241.713 265.323C240.82 265.918 240.374 266.907 240.374 268.291V275.092C240.374 275.115 240.365 275.137 240.349 275.153C240.333 275.169 240.311 275.178 240.288 275.178H236.74C236.693 275.178 236.655 275.14 236.655 275.092V260.854C236.655 260.808 236.692 260.769 236.74 260.769H240.288C240.334 260.769 240.373 260.807 240.373 260.854V263.247L240.374 263.248ZM257.955 260.769C257.933 260.769 257.911 260.778 257.895 260.794C257.879 260.81 257.869 260.832 257.869 260.855V262.471C256.756 261.067 255.189 260.366 253.171 260.366C251.25 260.366 249.601 261.101 248.228 262.571C246.854 264.04 246.167 265.841 246.167 267.974C246.167 270.106 246.854 271.907 248.228 273.377C249.601 274.847 251.25 275.581 253.171 275.581C255.189 275.581 256.755 274.88 257.869 273.478V275.092C257.869 275.139 257.908 275.178 257.955 275.178H261.503C261.55 275.178 261.589 275.14 261.589 275.092V260.854C261.589 260.831 261.58 260.809 261.564 260.793C261.547 260.777 261.526 260.768 261.503 260.769H257.955ZM251.01 270.913C251.759 271.663 252.709 272.037 253.864 272.037C255.016 272.037 255.972 271.657 256.732 270.898C257.491 270.14 257.869 269.165 257.869 267.974C257.869 266.782 257.491 265.808 256.732 265.049C255.972 264.29 255.016 263.91 253.863 263.91C252.71 263.91 251.759 264.29 251.009 265.049C250.261 265.808 249.885 266.782 249.885 267.974C249.885 269.165 250.26 270.145 251.01 270.913ZM278.117 262.571C276.743 261.101 275.085 260.366 273.145 260.366C271.127 260.366 269.57 261.067 268.475 262.47V260.855C268.475 260.808 268.437 260.769 268.39 260.769H264.842C264.795 260.769 264.757 260.808 264.757 260.855V280.855C264.757 280.902 264.795 280.942 264.842 280.942H268.39C268.436 280.942 268.475 280.902 268.475 280.855V273.478C269.57 274.88 271.127 275.581 273.145 275.581C275.085 275.581 276.743 274.847 278.117 273.377C279.491 271.907 280.178 270.106 280.178 267.974C280.178 265.841 279.491 264.04 278.117 262.571ZM269.599 270.913C270.349 271.663 271.299 272.037 272.453 272.037C273.606 272.037 274.562 271.657 275.321 270.898C276.08 270.14 276.459 269.165 276.459 267.974C276.459 266.782 276.08 265.808 275.321 265.049C274.562 264.29 273.606 263.91 272.453 263.91C271.299 263.91 270.349 264.29 269.599 265.049C268.85 265.808 268.475 266.782 268.475 267.974C268.475 269.165 268.85 270.145 269.599 270.913ZM282.478 275.178C282.431 275.178 282.393 275.14 282.393 275.092V260.854C282.393 260.808 282.431 260.769 282.478 260.769H286.026C286.073 260.769 286.111 260.807 286.111 260.854V275.093C286.111 275.141 286.073 275.179 286.026 275.179L282.478 275.178ZM216.178 265.798C215.668 265.558 215.414 265.246 215.414 264.862C215.414 264.497 215.572 264.208 215.889 263.997C216.206 263.786 216.605 263.68 217.086 263.68C218.006 263.68 218.702 264.039 219.173 264.757C219.205 264.808 219.269 264.827 219.323 264.804L222.462 263.416C222.484 263.406 222.5 263.387 222.508 263.364C222.515 263.34 222.513 263.315 222.501 263.294C222.464 263.233 222.427 263.173 222.39 263.113C221.853 262.268 221.158 261.638 220.285 261.159C219.324 260.63 218.258 260.366 217.086 260.366C215.528 260.366 214.227 260.774 213.179 261.591C212.132 262.407 211.609 263.527 211.609 264.948C211.609 265.89 211.864 266.672 212.372 267.297C212.864 267.908 213.505 268.38 214.232 268.666C214.961 268.953 215.692 269.194 216.422 269.385C217.152 269.578 217.773 269.794 218.282 270.034C218.79 270.274 219.045 270.586 219.045 270.971C219.045 271.797 218.382 272.21 217.057 272.21C215.794 272.21 214.92 271.743 214.433 270.811C214.392 270.73 214.296 270.694 214.213 270.73L211.084 272.116C211.063 272.126 211.047 272.143 211.039 272.165C211.03 272.187 211.032 272.211 211.042 272.232L211.077 272.304C212.17 274.489 214.163 275.581 217.057 275.581C218.709 275.581 220.088 275.183 221.193 274.386C222.298 273.588 222.851 272.45 222.851 270.971C222.851 269.99 222.596 269.174 222.087 268.521C221.607 267.89 220.963 267.407 220.228 267.124C219.511 266.85 218.78 266.619 218.037 266.432C217.306 266.249 216.687 266.038 216.178 265.797V265.798Z" fill="#2F2E8B"/>
</g>
</g>
</g>
</g>
<g id="Prismic">
<g id="Group_8" filter="url(#filter4_d_0_1)">
<path id="Vector_21" d="M124 160H16C10.4772 160 6 164.477 6 170V278C6 283.523 10.4772 288 16 288H124C129.523 288 134 283.523 134 278V170C134 164.477 129.523 160 124 160Z" fill="white"/>
</g>
<g id="Clip path group_4">
<mask id="mask3_0_1" style="mask-type:luminance" maskUnits="userSpaceOnUse" x="15" y="210" width="110" height="28">
<g id="clip3_1865_1780">
<path id="Vector_22" d="M125 210H15V238H125V210Z" fill="white"/>
</g>
</mask>
<g mask="url(#mask3_0_1)">
<g id="Group_9">
<path id="Vector_23" fill-rule="evenodd" clip-rule="evenodd" d="M40.8754 225.133L42.962 227.197C43.1269 227.361 43.2204 227.583 43.2204 227.814V228.975C43.2204 232.087 42.8928 233.215 42.2777 234.353C41.677 235.477 40.748 236.396 39.6114 236.992C38.4612 237.599 37.3205 237.923 34.1758 237.923H28.6538C28.5825 237.923 28.5184 237.88 28.4912 237.815C28.4641 237.75 28.4793 237.675 28.5296 237.625V237.626L30.6154 235.562C30.7804 235.399 31.0051 235.306 31.2392 235.306H33.7916C36.15 235.306 37.0047 235.063 37.8673 234.607C38.7199 234.16 39.4168 233.471 39.8675 232.628C40.3209 231.789 40.5663 230.957 40.5743 228.71L40.5745 225.256C40.5749 225.186 40.6178 225.123 40.6835 225.096C40.7492 225.069 40.8248 225.084 40.8754 225.133ZM15.3009 223.387L17.3882 225.451C17.5532 225.615 17.6467 225.837 17.6467 226.068V228.594C17.6467 230.928 17.8918 231.774 18.3537 232.627C18.8042 233.47 19.5008 234.159 20.3531 234.606C21.2157 235.063 22.0712 235.305 24.4296 235.305H27.803C27.8746 235.305 27.9392 235.348 27.9668 235.413C27.9943 235.478 27.9793 235.553 27.9287 235.603L25.8413 237.667C25.6763 237.831 25.4517 237.923 25.2183 237.923H24.0446C20.8999 237.923 19.76 237.599 18.6098 236.991C17.4729 236.395 16.5436 235.476 15.9427 234.352C15.3361 233.23 15.0092 232.117 15.0002 229.103L15 223.51C15.0004 223.44 15.0433 223.377 15.109 223.35C15.1747 223.323 15.2503 223.338 15.3009 223.387ZM56.5741 217.776C57.3966 217.776 58.1367 217.927 58.7942 218.228C59.4518 218.528 60.0119 218.942 60.4754 219.465C60.948 220.006 61.3059 220.636 61.5281 221.316C61.7677 222.026 61.8871 222.79 61.8871 223.606C61.8936 224.386 61.7647 225.16 61.5061 225.897C61.2709 226.574 60.9099 227.201 60.4416 227.748C59.9874 228.271 59.4259 228.692 58.7942 228.985C58.1348 229.289 57.4144 229.444 56.6864 229.436C56.1782 229.436 55.7304 229.382 55.3415 229.274C54.9818 229.178 54.6356 229.038 54.3108 228.858C54.0366 228.706 53.781 228.524 53.5487 228.315C53.3583 228.143 53.1854 227.953 53.0326 227.748C52.9956 227.748 52.9655 227.777 52.965 227.814V233.417C52.965 233.978 52.5043 234.433 51.9359 234.433H51.3051C50.7367 234.433 50.2759 233.978 50.2759 233.417V219.07C50.2759 218.51 50.7363 218.054 51.3051 218.054H51.987C52.4528 218.054 52.8307 218.427 52.8307 218.887V219.675C52.8307 219.7 52.8511 219.72 52.8755 219.72C53.2644 219.041 53.7868 218.548 54.4451 218.239C55.1106 217.929 55.8383 217.771 56.5741 217.776ZM36.4666 220.769L38.5532 222.835C38.7181 222.999 38.8108 223.221 38.8108 223.453V230.072C38.8108 232 37.2318 233.563 35.2835 233.563H33.05C32.9795 233.562 32.9159 233.521 32.8883 233.457C32.8606 233.392 32.8741 233.318 32.9227 233.268V233.267L35.6409 230.452C35.8295 230.266 35.9662 230.049 36.0518 229.816C36.1269 229.619 36.1652 229.41 36.1649 229.2V220.892C36.165 220.822 36.208 220.758 36.2741 220.731C36.3401 220.704 36.416 220.719 36.4666 220.769ZM19.7081 227.734L22.5528 230.424C22.7405 230.611 22.9613 230.745 23.1954 230.83C23.3887 230.903 23.5992 230.942 23.8192 230.942H32.2141C32.2854 230.943 32.3495 230.985 32.3767 231.051C32.4038 231.116 32.3886 231.191 32.3383 231.24L30.2501 233.305C30.0851 233.468 29.8605 233.56 29.6271 233.56H22.9369C22.0004 233.559 21.1026 233.191 20.4411 232.536C19.7796 231.882 19.4085 230.995 19.4096 230.07V227.86C19.4099 227.79 19.4522 227.728 19.517 227.7C19.5819 227.673 19.657 227.686 19.7081 227.734ZM121.562 217.777C122.25 217.777 122.941 217.912 123.636 218.182C123.901 218.285 124.214 218.469 124.574 218.733C124.81 218.907 124.96 219.173 124.985 219.463C125.009 219.754 124.906 220.041 124.702 220.251L124.286 220.68C123.92 221.057 123.325 221.099 122.908 220.778C122.815 220.704 122.718 220.637 122.617 220.576C122.299 220.383 121.935 220.279 121.562 220.275C121.07 220.275 120.628 220.368 120.24 220.553C119.861 220.731 119.521 220.982 119.242 221.293C118.965 221.603 118.751 221.965 118.615 222.357C118.473 222.758 118.401 223.18 118.402 223.606C118.402 224.038 118.473 224.454 118.615 224.855C118.756 225.256 118.966 225.611 119.243 225.919C119.522 226.23 119.861 226.482 120.24 226.66C120.628 226.845 121.07 226.938 121.562 226.938C121.981 226.938 122.37 226.849 122.728 226.672C122.801 226.635 122.88 226.586 122.964 226.525C123.392 226.214 123.99 226.276 124.343 226.669L124.752 227.122C124.948 227.339 125.034 227.632 124.988 227.919C124.941 228.206 124.766 228.457 124.511 228.603C123.863 228.976 123.153 229.23 122.415 229.356C122.086 229.409 121.802 229.436 121.562 229.436C120.78 229.441 120.005 229.299 119.276 229.02C118.581 228.756 117.947 228.355 117.415 227.84C116.881 227.314 116.458 226.689 116.171 226.001C115.865 225.283 115.712 224.485 115.712 223.606C115.712 222.728 115.865 221.929 116.171 221.212C116.458 220.524 116.881 219.898 117.415 219.373C117.947 218.858 118.581 218.457 119.276 218.193C120.005 217.913 120.78 217.772 121.562 217.777ZM83.6546 217.777C84.3719 217.777 85.082 217.904 85.7844 218.158C86.0389 218.251 86.3225 218.421 86.636 218.67C86.8678 218.855 87.0074 219.129 87.0187 219.423C87.03 219.717 86.9119 220.001 86.6949 220.202L86.3602 220.513C85.9984 220.849 85.4452 220.882 85.0451 220.591C84.4991 220.196 84.0128 219.997 83.5878 219.997C83.2288 219.997 82.8776 220.09 82.5336 220.275C82.1902 220.46 82.0182 220.761 82.0182 221.177C82.0182 221.517 82.1596 221.763 82.444 221.918C82.7284 222.071 83.0866 222.203 83.5203 222.311C83.9539 222.419 84.4206 222.531 84.921 222.646C85.4222 222.763 85.8889 222.939 86.3225 223.178C86.7562 223.417 87.1144 223.744 87.3988 224.162C87.6824 224.578 87.8246 225.148 87.8246 225.874C87.8246 226.537 87.6863 227.095 87.4098 227.551C87.1434 227.995 86.7747 228.372 86.3335 228.65C85.8759 228.934 85.3716 229.137 84.8432 229.251C84.2989 229.373 83.7424 229.436 83.184 229.436C82.3474 229.436 81.5775 229.312 80.8744 229.066C80.5994 228.969 80.2694 228.775 79.8845 228.484C79.6477 228.304 79.5014 228.032 79.4834 227.738C79.4655 227.444 79.5777 227.157 79.791 226.951L80.0699 226.681C80.4548 226.308 81.0659 226.292 81.4706 226.644C81.634 226.786 81.7754 226.895 81.8949 226.972C82.2908 227.227 82.7732 227.354 83.3404 227.354C83.5352 227.354 83.7371 227.331 83.9461 227.285C84.1558 227.238 84.3499 227.161 84.529 227.053C84.7081 226.945 84.8542 226.811 84.9666 226.648C85.0781 226.486 85.1347 226.298 85.1347 226.082C85.1347 225.696 84.9925 225.411 84.7081 225.226C84.4245 225.041 84.0655 224.89 83.6318 224.775C83.1685 224.652 82.7014 224.544 82.2311 224.451C81.7433 224.355 81.2717 224.191 80.8304 223.965C80.3997 223.744 80.0302 223.422 79.7541 223.028C79.4705 222.627 79.3283 222.071 79.3283 221.362C79.3283 220.746 79.4516 220.21 79.6975 219.755C79.9329 219.313 80.2665 218.929 80.6732 218.633C81.0915 218.333 81.5632 218.113 82.0638 217.985C82.5825 217.846 83.1174 217.777 83.6546 217.777ZM111.79 218.054C112.359 218.054 112.819 218.51 112.819 219.07V228.142C112.819 228.704 112.359 229.158 111.79 229.158H111.159C110.591 229.158 110.13 228.704 110.13 228.142V219.07C110.13 218.51 110.591 218.054 111.159 218.054H111.79ZM102.934 217.777C103.651 217.777 104.256 217.9 104.75 218.147C105.229 218.382 105.642 218.732 105.949 219.164C106.256 219.596 106.476 220.101 106.61 220.68C106.745 221.259 106.812 221.879 106.812 222.541V228.142C106.812 228.703 106.351 229.158 105.783 229.158H105.151C104.583 229.158 104.122 228.703 104.122 228.142V222.866C104.122 222.527 104.092 222.199 104.032 221.883C103.981 221.588 103.874 221.306 103.718 221.05C103.57 220.812 103.361 220.617 103.113 220.484C102.859 220.344 102.53 220.275 102.126 220.275C101.709 220.275 101.353 220.356 101.062 220.518C100.775 220.676 100.53 220.897 100.345 221.165C100.153 221.446 100.016 221.76 99.9409 222.091C99.859 222.436 99.8176 222.789 99.8176 223.143V228.142C99.8176 228.704 99.3568 229.158 98.7885 229.158H98.1568C97.5885 229.158 97.1277 228.704 97.1277 228.142V222.542C97.1277 221.848 96.9863 221.297 96.7019 220.888C96.4175 220.48 95.9477 220.275 95.2894 220.275C94.8416 220.275 94.4637 220.353 94.1573 220.506C93.8509 220.661 93.5972 220.869 93.3953 221.131C93.19 221.4 93.0413 221.707 92.9577 222.033C92.8673 222.381 92.8224 222.739 92.8242 223.098V228.142C92.8242 228.412 92.7156 228.671 92.5225 228.861C92.3293 229.052 92.0673 229.159 91.7942 229.158H91.1626C90.5942 229.158 90.1335 228.704 90.1335 228.142V219.07C90.1335 218.51 90.5946 218.054 91.1626 218.054H91.6599C92.2279 218.054 92.689 218.51 92.689 219.07V219.789C92.9835 219.244 93.3924 218.767 93.8886 218.389C94.4189 217.981 95.1323 217.777 96.0294 217.777C97.7185 217.777 98.8387 218.463 99.3918 219.835C99.7807 219.126 100.266 218.606 100.849 218.274C101.432 217.943 102.126 217.777 102.934 217.777ZM70.6529 217.777C70.8171 217.777 70.9781 217.792 71.1345 217.823C71.4147 217.878 71.6166 218.121 71.6168 218.403V219.926C71.6169 220.09 71.5431 220.246 71.4154 220.352C71.2877 220.457 71.1192 220.501 70.9553 220.472C70.7446 220.434 70.5309 220.414 70.3166 220.414C69.6882 220.414 69.1846 220.533 68.8036 220.772C68.4226 221.012 68.1311 221.285 67.9292 221.594C67.739 221.876 67.6021 222.189 67.5254 222.519C67.4578 222.828 67.4248 223.059 67.4248 223.213V228.142C67.4248 228.704 66.9641 229.158 66.3957 229.158H65.7641C65.1957 229.158 64.7349 228.704 64.7349 228.142V219.07C64.7349 218.51 65.1953 218.054 65.7641 218.054H66.534C67.0258 218.054 67.4248 218.448 67.4248 218.933V219.769C67.4248 219.793 67.4445 219.813 67.4696 219.813C67.7682 219.164 68.1939 218.663 68.747 218.309C69.3001 217.954 69.9356 217.777 70.6529 217.777ZM75.4969 218.054C76.0649 218.054 76.526 218.51 76.526 219.07V228.142C76.526 228.704 76.0653 229.158 75.4969 229.158H74.8653C74.2969 229.158 73.8361 228.704 73.8361 228.142V219.07C73.8361 218.51 74.2965 218.054 74.8653 218.054H75.4969ZM25.1704 214.363C25.2409 214.363 25.3045 214.405 25.3322 214.469C25.3598 214.533 25.3463 214.607 25.2977 214.658L22.5787 217.473C22.3902 217.66 22.2543 217.877 22.1686 218.109C22.0933 218.306 22.0547 218.515 22.0547 218.726V227.033C22.054 227.103 22.011 227.166 21.9454 227.193C21.8798 227.22 21.8043 227.205 21.7538 227.156L19.6673 225.089C19.5021 224.926 19.4095 224.704 19.4096 224.473V217.853C19.4096 215.926 20.9886 214.363 22.9369 214.363H25.1704ZM56.0367 220.275C55.5434 220.275 55.1019 220.368 54.7138 220.553C54.3343 220.731 53.9951 220.982 53.7161 221.293C53.4382 221.603 53.225 221.965 53.0884 222.357C52.9466 222.758 52.8749 223.181 52.8762 223.606C52.8762 224.038 52.947 224.454 53.0884 224.855C53.2306 225.256 53.4395 225.611 53.7169 225.919C53.9958 226.23 54.3351 226.482 54.7146 226.66C55.1027 226.845 55.5434 226.938 56.0367 226.938C56.5301 226.938 56.9708 226.845 57.3589 226.66C57.7384 226.482 58.0777 226.23 58.3566 225.919C58.6332 225.611 58.8421 225.256 58.9851 224.855C59.1265 224.454 59.1972 224.038 59.1972 223.606C59.1972 223.174 59.1265 222.758 58.9851 222.358C58.8484 221.965 58.6348 221.604 58.3566 221.293C58.0776 220.982 57.7384 220.731 57.3589 220.553C56.9708 220.367 56.5301 220.275 56.0367 220.275ZM39.6114 210.932C40.748 211.528 41.677 212.447 42.2777 213.571C42.8843 214.693 43.2113 215.806 43.2202 218.82L43.2204 224.413C43.2204 224.484 43.1773 224.547 43.1113 224.574C43.0453 224.601 42.9693 224.586 42.9187 224.536L40.833 222.472C40.6673 222.309 40.5744 222.086 40.5745 221.855V219.329C40.5745 216.996 40.3286 216.149 39.8675 215.296C39.4168 214.453 38.7199 213.764 37.8673 213.317C37.0055 212.861 36.15 212.618 33.7916 212.618H30.4175C30.3462 212.617 30.2821 212.575 30.2549 212.51C30.2278 212.445 30.2429 212.37 30.2933 212.32L32.3791 210.256C32.5441 210.092 32.7688 210 33.0029 210H34.1758C37.3205 210 38.4612 210.324 39.6114 210.932ZM29.5666 210C29.6379 210 29.702 210.043 29.7292 210.108C29.7563 210.173 29.7412 210.248 29.6908 210.298L27.605 212.362C27.4392 212.526 27.2153 212.618 26.9812 212.618H24.4288C22.0704 212.618 21.2149 212.861 20.3523 213.317C19.4998 213.764 18.8029 214.453 18.3522 215.296C17.891 216.149 17.6451 216.996 17.6451 219.329V222.668C17.6447 222.738 17.6018 222.801 17.5361 222.828C17.4705 222.855 17.3949 222.84 17.3442 222.791L15.2592 220.727C15.0933 220.563 15 220.341 15 220.11V218.949C15 215.838 15.3276 214.709 15.9427 213.571C16.5434 212.447 17.4724 211.528 18.6091 210.932C19.7432 210.333 20.8682 210.009 23.914 210H29.5666ZM35.2835 214.363C37.2318 214.363 38.8108 215.926 38.8108 217.853V220.063C38.8105 220.133 38.7683 220.196 38.7034 220.223C38.6385 220.25 38.5634 220.237 38.5123 220.189L35.6684 217.499C35.4799 217.313 35.2599 217.178 35.025 217.093C34.8257 217.019 34.6144 216.981 34.4012 216.981H26.0063C25.9348 216.981 25.8705 216.938 25.8431 216.873C25.8158 216.808 25.8309 216.733 25.8814 216.683L27.9703 214.618C28.1353 214.455 28.3592 214.363 28.5933 214.363H35.2835ZM75.1583 212.618C75.6517 212.618 76.0665 212.776 76.4027 213.092C76.7389 213.408 76.9071 213.805 76.9071 214.283C76.9071 214.762 76.7389 215.159 76.4027 215.475C76.0665 215.791 75.6517 215.949 75.1583 215.949C74.6657 215.949 74.258 215.783 73.9367 215.452C73.6242 215.142 73.4508 214.721 73.4551 214.283C73.4551 213.836 73.6154 213.447 73.9367 213.115C74.2588 212.784 74.6657 212.618 75.1583 212.618ZM111.452 212.618C111.946 212.618 112.361 212.776 112.697 213.092C113.033 213.408 113.201 213.805 113.201 214.283C113.201 214.762 113.033 215.159 112.697 215.475C112.361 215.791 111.946 215.949 111.452 215.949C110.959 215.949 110.552 215.783 110.231 215.452C109.918 215.142 109.744 214.721 109.748 214.283C109.748 213.836 109.909 213.447 110.231 213.115C110.552 212.784 110.959 212.618 111.452 212.618Z" fill="#212735"/>
</g>
</g>
</g>
</g>
</g>
<defs>
<filter id="filter0_d_0_1" x="0" y="0" width="140" height="140" filterUnits="userSpaceOnUse" color-interpolation-filters="sRGB">
<feFlood flood-opacity="0" result="BackgroundImageFix"/>
<feColorMatrix in="SourceAlpha" type="matrix" values="0 0 0 0 0 0 0 0 0 0 0 0 0 0 0 0 0 0 127 0" result="hardAlpha"/>
<feOffset dy="6"/>
<feGaussianBlur stdDeviation="3"/>
<feComposite in2="hardAlpha" operator="out"/>
<feColorMatrix type="matrix" values="0 0 0 0 0 0 0 0 0 0 0 0 0 0 0 0 0 0 0.2 0"/>
<feBlend mode="normal" in2="BackgroundImageFix" result="effect1_dropShadow_0_1"/>
<feBlend mode="normal" in="SourceGraphic" in2="effect1_dropShadow_0_1" result="shape"/>
</filter>
<filter id="filter1_d_0_1" x="165" y="45" width="140" height="140" filterUnits="userSpaceOnUse" color-interpolation-filters="sRGB">
<feFlood flood-opacity="0" result="BackgroundImageFix"/>
<feColorMatrix in="SourceAlpha" type="matrix" values="0 0 0 0 0 0 0 0 0 0 0 0 0 0 0 0 0 0 127 0" result="hardAlpha"/>
<feOffset dy="6"/>
<feGaussianBlur stdDeviation="3"/>
<feComposite in2="hardAlpha" operator="out"/>
<feColorMatrix type="matrix" values="0 0 0 0 0 0 0 0 0 0 0 0 0 0 0 0 0 0 0.2 0"/>
<feBlend mode="normal" in2="BackgroundImageFix" result="effect1_dropShadow_0_1"/>
<feBlend mode="normal" in="SourceGraphic" in2="effect1_dropShadow_0_1" result="shape"/>
</filter>
<filter id="filter2_d_0_1" x="325" y="117" width="140" height="140" filterUnits="userSpaceOnUse" color-interpolation-filters="sRGB">
<feFlood flood-opacity="0" result="BackgroundImageFix"/>
<feColorMatrix in="SourceAlpha" type="matrix" values="0 0 0 0 0 0 0 0 0 0 0 0 0 0 0 0 0 0 127 0" result="hardAlpha"/>
<feOffset dy="6"/>
<feGaussianBlur stdDeviation="3"/>
<feComposite in2="hardAlpha" operator="out"/>
<feColorMatrix type="matrix" values="0 0 0 0 0 0 0 0 0 0 0 0 0 0 0 0 0 0 0.2 0"/>
<feBlend mode="normal" in2="BackgroundImageFix" result="effect1_dropShadow_0_1"/>
<feBlend mode="normal" in="SourceGraphic" in2="effect1_dropShadow_0_1" result="shape"/>
</filter>
<filter id="filter3_d_0_1" x="165" y="205" width="140" height="140" filterUnits="userSpaceOnUse" color-interpolation-filters="sRGB">
<feFlood flood-opacity="0" result="BackgroundImageFix"/>
<feColorMatrix in="SourceAlpha" type="matrix" values="0 0 0 0 0 0 0 0 0 0 0 0 0 0 0 0 0 0 127 0" result="hardAlpha"/>
<feOffset dy="6"/>
<feGaussianBlur stdDeviation="3"/>
<feComposite in2="hardAlpha" operator="out"/>
<feColorMatrix type="matrix" values="0 0 0 0 0 0 0 0 0 0 0 0 0 0 0 0 0 0 0.2 0"/>
<feBlend mode="normal" in2="BackgroundImageFix" result="effect1_dropShadow_0_1"/>
<feBlend mode="normal" in="SourceGraphic" in2="effect1_dropShadow_0_1" result="shape"/>
</filter>
<filter id="filter4_d_0_1" x="0" y="160" width="140" height="140" filterUnits="userSpaceOnUse" color-interpolation-filters="sRGB">
<feFlood flood-opacity="0" result="BackgroundImageFix"/>
<feColorMatrix in="SourceAlpha" type="matrix" values="0 0 0 0 0 0 0 0 0 0 0 0 0 0 0 0 0 0 127 0" result="hardAlpha"/>
<feOffset dy="6"/>
<feGaussianBlur stdDeviation="3"/>
<feComposite in2="hardAlpha" operator="out"/>
<feColorMatrix type="matrix" values="0 0 0 0 0 0 0 0 0 0 0 0 0 0 0 0 0 0 0.2 0"/>
<feBlend mode="normal" in2="BackgroundImageFix" result="effect1_dropShadow_0_1"/>
<feBlend mode="normal" in="SourceGraphic" in2="effect1_dropShadow_0_1" result="shape"/>
</filter>
<clipPath id="clip0_0_1">
<rect width="465" height="345" fill="white"/>
</clipPath>
</defs>
</svg>
