<svg width="123" height="121" viewBox="0 0 123 121" fill="none" xmlns="http://www.w3.org/2000/svg">
<g clip-path="url(#clip0_1055_180)">
<path d="M123 60.6392C123 66.9069 122.024 72.9558 120.19 78.6314C117.394 87.3058 112.644 95.1308 106.431 101.604C106.299 101.759 106.167 101.9 106.022 102.042C105.838 102.235 105.64 102.428 105.455 102.608C94.2947 113.728 78.7284 120.639 61.5 120.639C58.8353 120.639 56.1837 120.472 53.6113 120.163C53.5849 120.15 53.5718 120.15 53.5454 120.15C47.2133 119.339 41.1715 117.602 35.5914 115.066C35.1297 114.861 34.668 114.642 34.2062 114.423C25.1171 110.034 17.3076 103.496 11.4636 95.504C10.9624 94.8091 10.4611 94.1141 9.98617 93.3933C8.79891 91.643 7.71718 89.8284 6.74099 87.9622C2.42728 79.764 0 70.4847 0 60.6392C0 27.4989 27.5312 0.63916 61.5 0.63916C95.4688 0.63916 123 27.4989 123 60.6392Z" fill="#EDDDD6"/>
<path d="M106.43 101.604C106.298 101.759 106.166 101.9 106.021 102.042C105.836 102.235 105.638 102.428 105.453 102.608C94.2932 113.728 78.7269 120.639 61.4985 120.639C58.8337 120.639 56.1822 120.472 53.6098 120.163C53.5834 120.15 53.5702 120.15 53.5438 120.15C47.2118 119.339 41.17 117.602 35.5898 115.066C36.1175 93.329 35.8933 74.3072 35.8933 73.9468C36.1043 73.4964 46.4203 70.9095 60.1529 70.4719C81.761 69.8027 100.018 81.6945 106.43 101.604Z" fill="#507849"/>
<path d="M53.6125 120.163C53.6125 120.163 53.573 120.15 53.5466 120.15C47.2145 119.339 41.1727 117.602 35.5926 115.067C35.1309 114.861 34.6692 114.642 34.2074 114.423C25.1183 110.034 17.3088 103.496 11.4648 95.5041C23.311 79.6611 32.9938 75.0408 35.896 73.9468C36.4896 73.7152 36.793 73.6379 36.793 73.6379L53.6125 120.163Z" fill="#507849"/>
<path d="M61.7362 35.208C61.7362 35.208 75.9306 35.8643 76.7353 22.5825C77.5927 8.43833 64.1767 7.08698 58.4779 12.8013C52.779 18.5155 53.8344 24.3328 53.8344 24.3328C53.8344 24.3328 49.8637 20.845 45.5368 25.1307C42.3575 28.2839 43.9933 33.419 43.9933 33.419C43.9933 33.419 36.6719 33.1488 37.3579 39.3778C38.0438 45.6198 42.6082 48.7858 42.6082 48.7858L61.7231 35.1951L61.7362 35.208Z" fill="#F0027F"/>
<path d="M48.7578 59.6611L50.2353 74.3844C50.2353 74.3844 53.3749 78.3613 62.2794 78.2197C68.9016 78.1167 71.0651 76.4436 71.0651 76.4436L69.4029 69.082L67.7671 61.9005L51.4885 59.9958L48.7578 59.674V59.6611Z" fill="#FCA397"/>
<path d="M51.4883 59.9829C51.5674 60.3819 51.7653 60.8452 52.0687 61.36C56.1846 68.387 65.5771 69.0949 69.4027 69.0691L67.7669 61.8877L51.4883 59.9829Z" fill="#1C1C1C"/>
<path d="M67.7654 28.0137C67.7654 28.0137 77.5405 45.71 75.443 56.2634C73.3455 66.8168 63.5836 65.9674 57.6473 64.4358C51.711 62.9043 48.756 59.6739 48.756 59.6739C48.756 59.6739 43.5189 61.8876 39.5086 57.293C35.4983 52.6984 37.2396 46.9069 40.2078 45.3753C43.1759 43.8438 47.0147 45.71 47.0147 45.71L43.7036 40.6006C43.7036 40.6006 53.4787 12.5182 67.7786 28.0008L67.7654 28.0137Z" fill="#FCA397"/>
<path d="M47.1862 53.7666C47.0807 53.7666 46.962 53.7408 46.8565 53.6765L40.8674 50.2917C40.5508 50.1115 40.4453 49.7254 40.6299 49.4165C40.8146 49.1076 41.2104 49.0047 41.527 49.1849L47.516 52.5697C47.8326 52.7498 47.9382 53.1359 47.7535 53.4448C47.6348 53.6507 47.4105 53.7666 47.1862 53.7666Z" fill="#1C1C1C"/>
<path d="M42.3045 54.2813C42.0671 54.2813 41.8428 54.1526 41.7241 53.9338C41.5526 53.6249 41.6845 53.2259 42.0011 53.0715L45.0484 51.5142C45.365 51.3469 45.7739 51.4756 45.9322 51.7845C46.1037 52.0934 45.9718 52.4923 45.6552 52.6468L42.6079 54.204C42.5156 54.2555 42.41 54.2813 42.3045 54.2813Z" fill="#1C1C1C"/>
<path d="M70.4176 34.9506C70.2856 34.9506 70.1669 34.912 70.0482 34.8347C68.3596 33.7279 66.8162 34.7833 66.7502 34.8347C66.46 35.0407 66.0379 34.9763 65.8268 34.6932C65.6158 34.41 65.6817 34.0111 65.9719 33.7923C66.0643 33.7279 68.3201 32.1578 70.7869 33.7794C71.0903 33.9725 71.1695 34.3714 70.9716 34.6674C70.8397 34.8476 70.6418 34.9506 70.4307 34.9506H70.4176Z" fill="#1C1C1C"/>
<path d="M68.3842 51.7073C68.3842 51.7073 68.3051 51.7073 68.2523 51.7073C67.8961 51.6429 67.6587 51.2954 67.7246 50.9479C68.8195 45.4524 65.548 41.8746 65.5216 41.8488C65.2709 41.5914 65.2973 41.1796 65.5612 40.9351C65.825 40.6905 66.2471 40.7163 66.4978 40.9737C66.6561 41.141 70.2442 45.0663 69.0306 51.1925C68.9646 51.5014 68.6876 51.7073 68.3842 51.7073Z" fill="#1C1C1C"/>
<path d="M70.4316 43.6379C70.0754 43.6379 69.7852 43.3676 69.772 43.0201L69.6137 39.5066C69.6005 39.1462 69.8776 38.8502 70.2469 38.8374C70.6163 38.8245 70.9197 39.0948 70.9329 39.4551L71.0912 42.9686C71.1044 43.329 70.8274 43.625 70.458 43.6379C70.458 43.6379 70.4448 43.6379 70.4316 43.6379Z" fill="#1C1C1C"/>
<path d="M60.5254 44.5646C60.1692 44.5646 59.879 44.2943 59.8658 43.9468L59.7075 40.4333C59.6943 40.073 59.9713 39.7769 60.3407 39.7641C60.7101 39.7383 61.0135 40.0215 61.0267 40.3818L61.185 43.8954C61.1982 44.2557 60.9211 44.5517 60.5518 44.5646C60.5518 44.5646 60.5386 44.5646 60.5254 44.5646Z" fill="#1C1C1C"/>
<path d="M69.7709 32.0163C69.7709 32.0163 67.8317 29.2106 64.0721 29.5452C60.2992 29.8799 58.3732 32.6727 58.3732 32.6727C58.3732 32.6727 60.6422 38.6958 55.8536 42.4667C51.065 46.2377 47.0151 45.6971 47.0151 45.6971L43.1763 44.7576L39.918 39.7254L49.5216 27.4088L62.7001 18.9275L70.4173 24.5259L69.7709 32.0034V32.0163Z" fill="#F0027F"/>
<path d="M65.2595 55.4783C63.9667 55.4783 61.7109 55.118 60.3257 52.84C60.1411 52.5311 60.2466 52.145 60.55 51.9519C60.8666 51.7718 61.2624 51.8747 61.4602 52.1707C62.9773 54.6546 65.8927 54.1527 66.0114 54.127C66.3676 54.0626 66.7106 54.2943 66.7765 54.6418C66.8425 54.9893 66.6182 55.3239 66.262 55.4011C66.2093 55.4011 65.8267 55.4783 65.2595 55.4783Z" fill="#1C1C1C"/>
<path d="M74.401 48.9403C70.8524 48.9403 67.9766 46.0445 67.9766 42.4795C67.9766 38.9145 70.8656 36.0188 74.401 36.0188C77.9363 36.0188 80.8253 38.9145 80.8253 42.4795C80.8253 46.0445 77.9363 48.9403 74.401 48.9403ZM74.401 37.3058C71.5779 37.3058 69.2957 39.6224 69.2957 42.4795C69.2957 45.3367 71.5911 47.6533 74.401 47.6533C77.2108 47.6533 79.5062 45.3367 79.5062 42.4795C79.5062 39.6224 77.2108 37.3058 74.401 37.3058Z" fill="white"/>
<path d="M59.1262 50.3817C55.4721 50.3817 52.5039 47.4859 52.5039 43.921C52.5039 40.356 55.4721 37.4602 59.1262 37.4602C62.7803 37.4602 65.7484 40.356 65.7484 43.921C65.7484 47.4859 62.7803 50.3817 59.1262 50.3817ZM59.1262 38.7472C56.1976 38.7472 53.8231 41.0638 53.8231 43.921C53.8231 46.7781 56.1976 49.0947 59.1262 49.0947C62.0547 49.0947 64.4293 46.7781 64.4293 43.921C64.4293 41.0638 62.0547 38.7472 59.1262 38.7472Z" fill="white"/>
<path d="M64.4544 43.8952C64.1114 43.8952 63.8212 43.6378 63.7948 43.3031C63.7684 42.9556 64.0322 42.6339 64.4016 42.6082L69.0715 42.2349C69.4409 42.2092 69.7575 42.4666 69.7838 42.8269C69.8102 43.1744 69.5464 43.4962 69.177 43.5219L64.5071 43.8952C64.5071 43.8952 64.4676 43.8952 64.4544 43.8952Z" fill="white"/>
<path d="M43.1627 45.414C43.0044 45.414 42.8329 45.3497 42.7142 45.2339C42.4504 44.9893 42.4372 44.5775 42.6878 44.3201C46.2364 40.6393 53.1621 44.037 53.4655 44.1914C53.7953 44.3587 53.914 44.7448 53.7557 45.0537C53.5974 45.3754 53.1885 45.4913 52.8719 45.3368C52.8059 45.3111 46.5266 42.2352 43.664 45.2081C43.5321 45.3368 43.3606 45.414 43.1891 45.414H43.1627Z" fill="white"/>
<path d="M62.4479 78.3483C58.187 78.3483 53.2401 77.293 48.4251 73.8438C48.1348 73.6379 48.0689 73.2261 48.2799 72.9429C48.491 72.6598 48.9132 72.5954 49.2034 72.8013C60.8517 81.154 73.4235 74.6418 73.5422 74.5774C73.8588 74.4101 74.2677 74.5259 74.4392 74.8348C74.6107 75.1437 74.492 75.5427 74.1754 75.71C74.0962 75.7486 69.1097 78.3355 62.4347 78.3355L62.4479 78.3483Z" fill="white"/>
<path d="M55.8536 37.0357C55.7349 37.0357 55.6161 37.0099 55.4974 36.9327C55.194 36.7397 55.1017 36.3536 55.2863 36.0447C57.0936 33.239 59.9035 33.4449 61.1303 33.9597C61.4601 34.1013 61.6184 34.4745 61.4865 34.7963C61.3414 35.1309 60.9588 35.2725 60.629 35.1438C60.5103 35.0923 58.0566 34.1657 56.4076 36.7268C56.2757 36.9198 56.0647 37.0228 55.8536 37.0228V37.0357Z" fill="#1C1C1C"/>
</g>
<defs>
<clipPath id="clip0_1055_180">
<rect width="123" height="120" fill="white" transform="translate(0 0.63916)"/>
</clipPath>
</defs>
</svg>
