<svg width="122" height="123" viewBox="0 0 122 123" fill="none" xmlns="http://www.w3.org/2000/svg">
<g clip-path="url(#clip0_1055_131)">
<path d="M122 61.6392C122 72.7741 119.017 83.2155 113.796 92.2046C113.6 92.5448 113.39 92.885 113.181 93.2252C112.697 94.0364 112.187 94.8476 111.65 95.6327C111.428 95.9598 111.205 96.2869 110.957 96.6141C103.001 108.011 91.2252 116.516 77.5127 120.376C77.2248 120.454 76.9239 120.533 76.636 120.611C71.6508 121.933 66.4039 122.639 61 122.639C39.9208 122.639 21.3278 111.949 10.4022 95.6851C9.36851 94.1803 8.41334 92.6102 7.53668 91.0139C2.73466 82.2996 0 72.29 0 61.6392C0 27.9465 27.3074 0.63916 61 0.63916C94.6926 0.63916 122 27.9465 122 61.6392Z" fill="#EDDDD6"/>
<path d="M34.8554 53.3306C34.8554 53.3306 28.3262 18.6566 53.6971 12.3106C79.068 5.96461 80.5989 41.9732 80.5989 41.9732C80.5989 41.9732 108.207 47.2332 108.39 74.0826C108.613 107.644 76.1894 101.992 76.1894 101.992L45.4669 89.4831C45.4669 89.4831 14.6922 72.7218 34.8685 53.3306H34.8554Z" fill="#1C1C1C"/>
<path d="M110.957 96.6141C103.001 108.011 91.2254 116.516 77.5128 120.376C77.225 120.454 76.924 120.533 76.6362 120.611C71.651 121.933 66.4041 122.639 61.0002 122.639C39.921 122.639 21.3279 111.949 10.4023 95.6851C18.5933 84.4847 28.8646 76.0059 35.8517 72.9965C46.1885 68.5478 62.5834 65.5645 77.7222 69.8955C77.7614 69.9086 77.8138 69.9086 77.8661 69.9216C82.4195 71.2301 86.8421 73.1928 90.9637 75.9798C99.8742 81.9987 106.364 88.9858 110.957 96.6141Z" fill="#FF5223"/>
<path d="M49.0156 59.3624V59.7288L49.3297 66.7159L49.5521 72.1983C49.5521 72.1983 49.081 73.4675 55.4663 73.0619C64.0105 72.4731 66.7713 68.8094 66.7713 68.8094L67.1377 55.9604L64.5469 56.4577L49.0287 59.3624H49.0156Z" fill="#FCA397"/>
<path d="M49.0156 59.7419L49.3297 66.729C53.4774 66.2187 61.0403 64.4262 64.1021 57.897C64.3376 57.3605 64.4946 56.8895 64.5469 56.4969L49.0549 59.6503L49.0287 59.755L49.0156 59.7419Z" fill="#1C1C1C"/>
<path d="M46.3062 26.298C46.3062 26.298 38.3508 44.4854 41.2164 54.7175C44.0819 64.9365 53.398 63.3271 58.959 61.3514C64.533 59.3756 67.1106 55.9605 67.1106 55.9605C67.1106 55.9605 72.3182 57.727 75.7987 52.8857C79.2792 48.0444 77.1333 42.4835 74.1632 41.2143C71.193 39.9451 67.6602 42.091 67.6602 42.091L70.4341 36.8048C70.4341 36.8048 58.7758 9.92922 46.2931 26.311L46.3062 26.298Z" fill="#FCA397"/>
<path d="M48.7787 23.6025C48.7787 23.6025 48.203 33.2851 57.9379 37.6815C67.6727 42.0779 74.1757 41.2143 74.1757 41.2143L73.5477 28.5877L61.3529 15.3462L50.4535 18.8136L48.7656 23.6025H48.7787Z" fill="#1C1C1C"/>
<path d="M67.0195 39.2908L67.0588 44.7994L71.9655 39.9581L67.0195 39.2908Z" fill="#1C1C1C"/>
<path d="M113.182 93.2251C112.698 94.0364 112.187 94.8476 111.651 95.6327C111.428 95.9598 111.206 96.2869 110.957 96.614C103.002 108.011 91.226 116.516 77.5134 120.376C77.2255 120.454 76.9246 120.533 76.6367 120.611L77.4741 69.8562C77.4741 69.8562 77.5657 69.8693 77.7227 69.8955C77.762 69.9085 77.8143 69.9085 77.8667 69.9216C80.8761 70.4319 100.594 74.3311 111.18 89.8493C111.899 90.883 112.554 92.0214 113.182 93.2251Z" fill="#FF5223"/>
<path d="M53.6217 73.8208C49.7748 73.8208 46.8962 73.1274 46.6607 73.075C46.3074 72.9834 46.0981 72.6301 46.1766 72.2899C46.2682 71.9367 46.6215 71.7273 46.9617 71.8058C47.0794 71.832 58.6069 74.5797 66.523 68.8095C66.8109 68.6001 67.2296 68.6655 67.4389 68.9534C67.6483 69.2413 67.5829 69.66 67.295 69.8693C62.9509 73.0358 57.7171 73.8208 53.6086 73.8208H53.6217Z" fill="#7772D3"/>
<path d="M44.0558 32.9448C43.781 32.9448 43.5193 32.7616 43.4277 32.4868C43.3231 32.1467 43.5062 31.7803 43.8595 31.6625L47.4839 30.5242C47.8241 30.4195 48.1905 30.6027 48.3083 30.956C48.4129 31.2962 48.2298 31.6625 47.8765 31.7803L44.2521 32.9186C44.2521 32.9186 44.1212 32.9448 44.0558 32.9448Z" fill="#1C1C1C"/>
<path d="M68.0512 50.5697C67.8811 50.5697 67.6979 50.5043 67.5671 50.3603C67.3184 50.0986 67.3446 49.6799 67.6063 49.4313L73.2196 44.276C73.4813 44.0274 73.9 44.0536 74.1486 44.3153C74.3972 44.577 74.371 44.9957 74.1093 45.2443L68.4961 50.3996C68.3652 50.5173 68.2082 50.5697 68.0512 50.5697Z" fill="#1C1C1C"/>
<path d="M73.7317 49.8893C73.6401 49.8893 73.5485 49.8762 73.47 49.8369L70.1203 48.3715C69.7932 48.2276 69.6362 47.835 69.7801 47.5079C69.9241 47.1808 70.3166 47.0238 70.6437 47.1677L73.9933 48.6332C74.3205 48.7771 74.4775 49.1696 74.3335 49.4968C74.2289 49.7454 73.9803 49.8893 73.7317 49.8893Z" fill="#1C1C1C"/>
<path d="M45.169 42.1171C45.169 42.1171 45.0774 42.1171 45.0382 42.104C44.6849 42.0255 44.4625 41.6853 44.5279 41.332L45.1952 38.1132L43.8868 36.5954C43.6512 36.3206 43.6774 35.915 43.9522 35.6664C44.2269 35.4309 44.6326 35.4571 44.8812 35.7318L46.4121 37.4982C46.5429 37.6553 46.5952 37.8646 46.556 38.0609L45.8233 41.5937C45.7578 41.9077 45.4831 42.1171 45.1821 42.1171H45.169Z" fill="#1C1C1C"/>
<path d="M56.1456 42.6797C56.1456 42.6797 56.054 42.6797 56.0148 42.6666C55.6615 42.5881 55.439 42.2479 55.5045 41.8946L56.1718 38.6758L54.8633 37.158C54.6278 36.8833 54.654 36.4776 54.9287 36.229C55.2035 35.9935 55.6091 36.0197 55.8577 36.2945L57.3886 38.0609C57.5195 38.2179 57.5718 38.4272 57.5326 38.6235L56.7998 42.1563C56.7344 42.4703 56.4596 42.6797 56.1587 42.6797H56.1456Z" fill="#1C1C1C"/>
<path d="M47.3404 50.0986C47.0394 50.0986 46.7646 49.8893 46.6992 49.5753C45.4823 43.7527 48.2955 40.8217 48.4133 40.704C48.6619 40.4423 49.0806 40.4423 49.3423 40.704C49.604 40.9526 49.604 41.3713 49.3423 41.633C49.2376 41.7507 46.9086 44.2368 47.9684 49.3136C48.0469 49.6668 47.8114 50.0201 47.4581 50.0856C47.4189 50.0856 47.3665 50.0986 47.3273 50.0986H47.3404Z" fill="#1C1C1C"/>
<path d="M53.2523 55.6988C52.8598 55.6988 51.9308 55.5156 49.9943 53.3698C49.7718 53.1212 49.6933 52.781 49.7718 52.4669C49.8634 52.1398 50.1251 51.8781 50.4653 51.7735C55.1365 50.3734 55.7645 50.8575 56.0393 51.0538C56.2748 51.2239 56.6281 51.6557 56.3664 52.5193C56.0131 53.71 54.5215 55.6072 53.3701 55.6726C53.3439 55.6726 53.3047 55.6726 53.2523 55.6726V55.6988ZM51.342 52.8987C52.3887 53.9847 53.1346 54.3773 53.2916 54.3904C53.4093 54.3904 53.8411 54.1287 54.3776 53.4483C54.8355 52.8726 55.0711 52.3623 55.1365 52.1006C54.757 52.1398 53.6056 52.2314 51.342 52.8856V52.8987Z" fill="#1C1C1C"/>
<path d="M31.4543 92.9373C31.3889 93.0158 25.1345 99.7151 26.3252 111.766C25.9457 111.53 25.5924 111.269 25.2261 111.007C25.1214 110.942 25.0298 110.863 24.9251 110.785C24.1531 98.8253 30.4337 92.1392 30.5122 92.0476C30.7608 91.7859 31.1664 91.7859 31.4412 92.0214C31.7029 92.27 31.7029 92.6887 31.4412 92.9504L31.4543 92.9373Z" fill="#7772D3"/>
</g>
<defs>
<clipPath id="clip0_1055_131">
<rect width="122" height="122" fill="white" transform="translate(0 0.63916)"/>
</clipPath>
</defs>
</svg>
