<svg width="123" height="124" viewBox="0 0 123 124" fill="none" xmlns="http://www.w3.org/2000/svg">
<g clip-path="url(#clip0_1055_158)">
<path d="M123 62.1392C123 77.2437 117.552 91.0819 108.53 101.78C107.396 103.126 106.195 104.432 104.956 105.672C102.951 107.677 100.801 109.55 98.5187 111.252C97.4107 112.096 96.2632 112.901 95.0892 113.666C94.9573 113.759 94.8254 113.838 94.6803 113.917C93.0183 114.999 91.2904 116.001 89.5097 116.898C89.1008 117.109 88.6919 117.32 88.2698 117.518C86.3572 118.442 84.3918 119.273 82.3869 119.998C79.7225 120.961 76.9789 121.753 74.1561 122.333C70.0671 123.191 65.8462 123.639 61.5066 123.639C59.6468 123.639 57.8001 123.56 55.9798 123.389C54.0804 123.217 52.2074 122.966 50.3607 122.61C49.3319 122.426 48.3162 122.214 47.3138 121.977C44.3855 121.291 41.5496 120.394 38.806 119.286C36.3658 118.323 34.0047 117.202 31.7228 115.935C31.459 115.79 31.1952 115.645 30.9446 115.487C29.3881 114.616 27.8844 113.679 26.4335 112.65C25.1804 111.793 23.9537 110.87 22.7665 109.893C22.6214 109.788 22.4895 109.682 22.3444 109.564C20.6693 108.165 19.0601 106.688 17.53 105.131C17.0947 104.696 16.6726 104.247 16.2637 103.799C15.0898 102.532 13.9686 101.213 12.9134 99.8544C11.8713 98.5089 10.882 97.1237 9.95871 95.699C3.66692 86.0426 0 74.5262 0 62.1392C0 28.1704 27.5414 0.63916 61.5066 0.63916C95.4717 0.63916 123 28.1704 123 62.1392Z" fill="#EDDDD6"/>
<path d="M108.53 101.78C107.395 103.126 106.195 104.432 104.955 105.672C102.95 107.677 100.8 109.55 98.5181 111.252C97.4101 112.096 96.2625 112.901 95.0886 113.666C94.9567 113.759 94.8248 113.838 94.6797 113.917L95.049 86.8738C95.049 86.8738 101.42 92.8101 108.53 101.78Z" fill="#FFBF69"/>
<path d="M89.5084 116.898C89.0995 117.109 88.6906 117.32 88.2685 117.518C83.8365 119.668 79.1012 121.304 74.1548 122.333C70.0658 123.191 65.8449 123.639 61.5053 123.639C59.6454 123.639 57.7988 123.56 55.9785 123.388C54.0791 123.217 52.2061 122.966 50.3594 122.61C49.3306 122.425 48.3149 122.214 47.3125 121.977C44.3842 121.291 41.5483 120.394 38.8047 119.286L51.6257 75.8058C51.6257 75.8058 61.624 74.3019 72.9545 75.4892C80.3543 76.2675 86.2768 100.29 89.5084 116.898Z" fill="#7772D3"/>
<path d="M72.9578 75.4892L53.4624 76.7161C53.4624 76.7161 51.5102 96.9786 50.3627 122.61C49.3338 122.426 48.3182 122.214 47.3157 121.977C41.7889 120.671 36.5656 118.626 31.7247 115.935C31.4609 115.79 31.1971 115.645 30.9465 115.487C29.39 114.616 27.8863 113.679 26.4354 112.65C25.1823 111.793 23.9556 110.87 22.7685 109.893C22.6234 109.788 22.4915 109.682 22.3464 109.564C20.6712 108.165 19.062 106.688 17.5319 105.131C17.0966 104.696 16.6745 104.247 16.2656 103.799C16.635 95.422 17.7825 89.1823 20.1172 87.0056C30.4848 77.3625 56.206 74.1437 56.206 74.1437L68.2356 73.9722C68.2356 73.9722 70.135 74.5262 72.9578 75.4892Z" fill="#FFBF69"/>
<path d="M98.5194 111.252C97.4114 112.096 96.2639 112.901 95.0899 113.666C93.296 114.84 91.4362 115.922 89.5104 116.898C89.1015 117.109 88.6926 117.32 88.2705 117.518C86.3579 118.442 84.3926 119.273 82.3876 119.998L82.3481 119.523C78.8922 83.6154 73.339 75.9642 72.9961 75.5024C80.4223 78.0485 94.2194 83.4703 96.7519 89.3142C97.7148 91.5436 98.2556 100.066 98.5194 111.252Z" fill="#FFBF69"/>
<path d="M60.7154 29.3971C60.7154 29.3971 48.0395 1.11395 33.5697 15.4798C21.4742 27.4975 40.2308 46.0319 51.0865 40.742C61.9421 35.4521 60.7022 29.3971 60.7022 29.3971H60.7154Z" fill="#1C1C1C"/>
<path d="M80.0123 52.4828C80.0123 52.4828 85.2225 46.5597 83.5737 37.5102C82.4525 31.376 79.6957 29.4236 79.6957 29.4236C79.6957 29.4236 83.7452 20.9809 71.3462 21.6537C58.9473 22.3396 51.7454 28.5266 51.7454 28.5266C51.7454 28.5266 46.034 25.8222 43.5937 32.4709C41.1403 39.1195 43.818 48.8287 43.818 48.8287L80.0123 52.4696V52.4828Z" fill="#1C1C1C"/>
<path d="M52.9336 63.0757L53.5272 78.2066C53.5272 78.2066 56.429 82.4544 65.3061 82.8237C71.9277 83.1008 73.8799 79.6313 73.8799 79.6313L71.7694 66.4528L55.6508 63.5638L52.9468 63.0757H52.9336Z" fill="#F0027F"/>
<path d="M52.918 62.1523C52.9707 62.5613 53.1422 63.0494 53.4192 63.5902C57.0993 71.0172 69.1421 73.6951 72.9541 73.893L71.7538 66.4529L52.918 62.1523Z" fill="#1C1C1C"/>
<path d="M73.788 31.8378C73.788 31.8378 82.4672 50.5041 79.75 61.1631C77.0328 71.822 67.3379 70.3841 61.521 68.4713C55.704 66.5585 52.934 63.0759 52.934 63.0759C52.934 63.0759 47.5788 65.0282 43.8591 60.0945C40.1394 55.1608 42.2235 49.3564 45.2704 47.9581C48.3174 46.5598 52.0371 48.6968 52.0371 48.6968L49.0429 43.2882C49.0429 43.2882 60.4657 15.1502 73.8012 31.8246L73.788 31.8378Z" fill="#F0027F"/>
<path d="M52.0215 48.7098C52.0215 48.7098 60.16 50.2269 65.6603 41.1246C71.1739 32.0222 70.5935 28.3154 70.5935 28.3154L76.3313 37.5496C76.3313 37.5496 77.4921 31.0724 74.854 26.983C72.2159 22.9067 69.5383 23.7906 69.5383 23.7906L51.7181 28.5132L47.207 42.9186L51.9951 48.6966L52.0215 48.7098Z" fill="#1C1C1C"/>
<path d="M73.4696 55.8731C73.4696 55.8731 73.3509 55.8731 73.2849 55.8468C72.9288 55.7412 72.7309 55.385 72.8365 55.0289C73.8389 51.5726 71.2008 47.8789 71.1745 47.8394C70.9634 47.5491 71.0294 47.127 71.3196 46.9159C71.6097 46.7049 72.0187 46.7708 72.2429 47.061C72.3616 47.2325 75.2899 51.3088 74.1027 55.385C74.0236 55.6753 73.7598 55.86 73.4696 55.86V55.8731Z" fill="#1C1C1C"/>
<path d="M51.3613 57.6275C51.1898 57.6275 51.0183 57.5616 50.8864 57.4297L45.6762 52.087C45.4256 51.8232 45.4256 51.4142 45.6762 51.1504C45.9401 50.8997 46.3621 50.8997 46.6128 51.1504L51.8229 56.493C52.0736 56.7569 52.0736 57.1658 51.8229 57.4297C51.691 57.5484 51.5328 57.6143 51.3613 57.6143V57.6275Z" fill="#1C1C1C"/>
<path d="M45.9147 56.2688C45.5981 56.2688 45.3211 56.0445 45.2684 55.7147C45.2024 55.3585 45.453 55.0155 45.8092 54.9496L49.3442 54.356C49.7003 54.3032 50.0433 54.5406 50.1092 54.8968C50.1752 55.253 49.9246 55.596 49.5684 55.6619L46.0334 56.2556C46.0334 56.2556 45.9543 56.2556 45.9279 56.2556L45.9147 56.2688Z" fill="#1C1C1C"/>
<path d="M76.8861 40.3727C76.8861 40.3727 76.8202 40.3727 76.7806 40.3727L73.4303 39.8318C73.0741 39.779 72.8235 39.436 72.8895 39.0799C72.9422 38.7237 73.2852 38.4731 73.6413 38.5258L76.9917 39.0667C77.3478 39.1194 77.5984 39.4624 77.5457 39.8186C77.4929 40.1484 77.2159 40.3727 76.8993 40.3727H76.8861Z" fill="#1C1C1C"/>
<path d="M62.9958 42.7737C62.7584 42.7737 62.5342 42.6418 62.4155 42.4175C62.244 42.1009 62.3759 41.692 62.6925 41.5337L68.1401 38.6711C68.4698 38.4996 68.8655 38.6315 69.037 38.9481C69.2085 39.2647 69.0766 39.6737 68.76 39.832L63.3124 42.6946C63.2201 42.7473 63.1146 42.7737 63.009 42.7737H62.9958Z" fill="#1C1C1C"/>
<path d="M76.9936 48.1164C76.7166 48.1164 76.4528 47.9449 76.3605 47.6547L75.2657 44.2644C75.1998 44.0533 75.2393 43.8291 75.3712 43.6576L76.4001 42.3648C76.6243 42.0745 77.0464 42.035 77.3234 42.2592C77.6136 42.4835 77.6532 42.9056 77.4289 43.1827L76.6243 44.1984L77.6136 47.2589C77.7191 47.6019 77.5344 47.9713 77.1915 48.09C77.1255 48.1164 77.0596 48.1164 76.9936 48.1164Z" fill="#1C1C1C"/>
<path d="M66.1612 49.1718C65.8842 49.1718 65.6204 49.0003 65.5281 48.71L64.4333 45.3198C64.3673 45.1087 64.4069 44.8712 64.552 44.6997L65.9765 42.998C66.214 42.721 66.6229 42.6814 66.8999 42.9189C67.1769 43.1563 67.2164 43.5653 66.979 43.8423L65.7919 45.267L66.768 48.3143C66.8735 48.6573 66.6888 49.0266 66.3459 49.1454C66.2799 49.1718 66.214 49.1718 66.148 49.1718H66.1612Z" fill="#1C1C1C"/>
<path d="M70.8065 60.886C68.4455 60.886 65.8338 58.3664 65.4908 58.0234C65.227 57.7728 65.227 57.3506 65.4908 57.0868C65.7546 56.823 66.1635 56.823 66.4273 57.0868C67.2979 57.9443 70.0943 60.2132 71.5584 59.3822C71.875 59.1975 72.2707 59.3162 72.4553 59.6328C72.64 59.9494 72.5213 60.3584 72.2047 60.5298C71.7694 60.7805 71.2946 60.886 70.8065 60.886Z" fill="#1C1C1C"/>
<path d="M26.4318 112.65C25.1787 111.793 23.952 110.87 22.7649 109.893C22.6198 109.788 22.4879 109.682 22.3428 109.564C20.6676 108.165 19.0584 106.688 17.5283 105.131C15.8927 103.456 14.3494 101.701 12.9117 99.8544C11.8696 98.5089 10.8804 97.1237 9.95703 95.699C18.2406 87.7708 25.0996 83.4175 25.0996 83.4175L26.4318 112.65Z" fill="#FFBF69"/>
<path d="M66.6392 83.5494C66.1907 83.5494 65.729 83.523 65.241 83.4834C59.3053 82.9426 53.3961 78.9191 53.1454 78.7476C52.8421 78.5365 52.7629 78.1276 52.974 77.8374C53.185 77.534 53.5807 77.4548 53.8973 77.6659C53.9501 77.7055 59.767 81.6498 65.3597 82.1643C71.2162 82.7051 73.2212 79.4336 73.3003 79.3017C73.485 78.9851 73.8939 78.8795 74.1972 79.0642C74.5138 79.2489 74.6193 79.6446 74.4347 79.9612C74.3423 80.1195 72.311 83.5494 66.626 83.5494H66.6392Z" fill="white"/>
</g>
<defs>
<clipPath id="clip0_1055_158">
<rect width="123" height="123" fill="white" transform="translate(0 0.63916)"/>
</clipPath>
</defs>
</svg>
